# 3ds Max Wavefront OBJ Exporter v0.97b - (c)2007 guruware
# File Created: 03.04.2017 16:15:52

mtllib AC_1.mtl

#
# object pCube473
#

v  -12.5000 -3.2500 2.0000
v  12.5000 -3.2500 2.0000
v  12.5000 -1.1987 2.1803
v  -12.5000 -1.1987 2.1803
v  12.5000 3.0024 1.4431
v  -12.5000 3.0024 1.4431
v  12.5000 3.2500 -2.0000
v  -12.5000 3.2500 -2.0000
v  -12.5000 -3.2500 -2.0000
v  12.5000 -3.2500 -2.0000
v  12.5000 -1.1987 -2.0000
v  -12.5000 -1.1987 -2.0000
# 12 vertices

vn 0.0000 -0.0876 0.9962
vn 0.0000 0.0887 0.9961
vn 0.0000 0.1729 0.9849
vn 0.0000 0.9974 0.0717
vn 0.0000 -1.0000 -0.0000
vn 1.0000 0.0000 0.0000
vn 1.0000 -0.0000 -0.0000
vn -1.0000 0.0000 -0.0000
vn -1.0000 -0.0000 -0.0000
# 9 vertex normals

vt 0.0007 0.3650 0.0000
vt 0.2221 0.3650 0.0000
vt 0.2221 0.3832 0.0000
vt 0.0007 0.3832 0.0000
vt 0.2221 0.4204 0.0000
vt 0.0007 0.4204 0.0000
vt 0.4111 0.3919 0.0000
vt 0.2244 0.3919 0.0000
vt 0.2244 0.3662 0.0000
vt 0.4111 0.3662 0.0000
vt 0.4111 0.3957 0.0000
vt 0.2244 0.3957 0.0000
vt 0.2446 0.4308 0.0000
vt 0.2145 0.4308 0.0000
vt 0.2145 0.4462 0.0000
vt 0.2460 0.4462 0.0000
vt 0.2145 0.4797 0.0000
vt 0.2404 0.4779 0.0000
# 18 texture coords

g pCube473
usemtl Atlas_2
s off
f 1/1/1 2/2/1 3/3/2 4/4/2 
f 4/4/2 3/3/2 5/5/3 6/6/3 
f 6/7/4 5/8/4 7/9/4 8/10/4 
f 9/9/5 10/10/5 2/11/5 1/12/5 
f 2/13/6 10/14/6 11/15/7 3/16/7 
f 3/16/7 11/15/7 7/17/7 5/18/7 
f 9/14/8 1/13/8 4/16/9 12/15/9 
f 12/15/9 4/16/9 6/18/9 8/17/9 
# 8 polygons

