# 3ds Max Wavefront OBJ Exporter v0.97b - (c)2007 guruware
# File Created: 03.04.2017 16:16:06

mtllib AC_2.mtl

#
# object polySurface692
#

v  -11.0000 -7.5000 4.0000
v  11.0000 -7.5000 4.0000
v  11.0000 7.5000 4.0000
v  -11.0000 7.5000 4.0000
v  11.0000 7.5000 -4.0000
v  -11.0000 7.5000 -4.0000
v  -11.0000 -7.5000 -4.0000
v  11.0000 -7.5000 -4.0000
# 8 vertices

vn 0.0000 -0.0000 1.0000
vn 0.0000 1.0000 0.0000
vn 0.0000 -1.0000 -0.0000
vn 1.0000 0.0000 -0.0000
vn -1.0000 0.0000 -0.0000
# 5 vertex normals

vt 0.3911 0.5325 0.0000
vt 0.4704 0.5325 0.0000
vt 0.4704 0.5865 0.0000
vt 0.3911 0.5865 0.0000
vt 0.4704 0.6154 0.0000
vt 0.3911 0.6154 0.0000
vt 0.4992 0.5325 0.0000
vt 0.4992 0.5865 0.0000
# 8 texture coords

g polySurface692
usemtl Atlas_2
s off
f 1/1/1 2/2/1 3/3/1 4/4/1 
f 4/4/2 3/3/2 5/5/2 6/6/2 
f 7/5/3 8/6/3 2/4/3 1/3/3 
f 2/2/4 8/7/4 5/8/4 3/3/4 
f 7/7/5 1/2/5 4/3/5 6/8/5 
# 5 polygons

