# 3ds Max Wavefront OBJ Exporter v0.97b - (c)2007 guruware
# File Created: 03.04.2017 16:17:46

mtllib Bath_Wash_basin_2B.mtl

#
# object polySurface1577
#

v  6.3306 -3.8092 3.1308
v  6.3306 -3.8092 2.5000
v  6.3306 2.5594 2.5000
v  6.3306 2.5594 3.1308
v  -1.0780 -3.8092 2.5000
v  -1.0780 -3.8092 3.1308
v  -1.0780 2.5594 3.1308
v  -1.0780 2.5594 2.5000
v  6.3306 8.9281 3.1308
v  6.3306 8.9281 2.5000
v  -1.0780 8.9281 2.5000
v  -1.0780 8.9281 3.1308
v  3.1716 7.4596 3.8017
v  3.5293 7.4596 3.1308
v  3.8687 7.4596 3.1308
v  3.3931 7.4596 4.0957
v  1.8264 7.4596 3.8017
v  1.6048 7.4596 4.0957
v  1.4687 7.4596 3.1308
v  1.1293 7.4596 3.1308
v  3.8687 7.7990 3.1308
v  3.3931 7.7990 4.0957
v  1.6048 7.7990 4.0957
v  1.1293 7.7990 3.1308
v  3.5293 7.7990 3.1308
v  3.1716 7.7990 3.8017
v  1.8264 7.7990 3.8017
v  1.4687 7.7990 3.1308
v  3.1716 2.8184 3.8017
v  3.5293 2.8184 3.1308
v  3.8687 2.8184 3.1308
v  3.3931 2.8184 4.0957
v  1.8264 2.8184 3.8017
v  1.6048 2.8184 4.0957
v  1.4687 2.8184 3.1308
v  1.1293 2.8184 3.1308
v  3.8687 3.1578 3.1308
v  3.3931 3.1578 4.0957
v  1.6048 3.1578 4.0957
v  1.1293 3.1578 3.1308
v  3.5293 3.1578 3.1308
v  3.1716 3.1578 3.8017
v  1.8264 3.1578 3.8017
v  1.4687 3.1578 3.1308
v  3.1716 -1.5005 3.8017
v  3.5293 -1.5005 3.1308
v  3.8687 -1.5005 3.1308
v  3.3931 -1.5005 4.0957
v  1.8264 -1.5005 3.8017
v  1.6048 -1.5005 4.0957
v  1.4687 -1.5005 3.1308
v  1.1293 -1.5005 3.1308
v  3.8687 -1.1611 3.1308
v  3.3931 -1.1611 4.0957
v  1.6048 -1.1611 4.0957
v  1.1293 -1.1611 3.1308
v  3.5293 -1.1611 3.1308
v  3.1716 -1.1611 3.8017
v  1.8264 -1.1611 3.8017
v  1.4687 -1.1611 3.1308
v  -0.6586 8.9281 1.7512
v  5.9042 8.9281 1.7512
v  5.9042 7.5542 1.7512
v  -0.6586 7.5542 1.7512
v  -1.2544 8.9281 2.5000
v  6.5000 8.9281 2.5000
v  -0.6586 8.9281 -3.5215
v  -0.6586 7.5542 -3.5215
v  5.9042 7.5542 -3.5215
v  5.9042 8.9281 -3.5215
v  6.5000 8.9281 -4.4690
v  -1.2544 8.9281 -4.4690
v  -0.6586 8.9281 -4.4690
v  -1.2544 -3.9267 2.5000
v  6.5000 -3.9267 2.5000
v  6.5000 -3.9267 -4.4690
v  -1.2544 -3.9267 -4.4690
v  2.7679 8.9281 -3.6811
v  3.2321 8.9281 -3.6811
v  3.2321 10.7924 -3.6811
v  2.7679 10.7924 -3.6811
v  3.2321 10.7924 -4.1453
v  2.7679 10.7924 -4.1453
v  3.2321 8.9281 -4.1453
v  2.7679 8.9281 -4.1453
v  2.8139 10.1502 -3.9132
v  3.1861 10.1502 -3.9132
v  3.1861 10.1502 -2.4188
v  2.8139 10.1502 -2.4188
v  3.1861 10.5223 -2.4188
v  2.8139 10.5223 -2.4188
v  3.1861 10.5223 -3.9132
v  2.8139 10.5223 -3.9132
v  2.8753 9.9506 -2.6995
v  3.1247 9.9506 -2.6995
v  3.1247 9.9506 -2.4550
v  2.8753 9.9506 -2.4550
v  3.1247 10.2000 -2.4550
v  2.8753 10.2000 -2.4550
v  2.8753 10.2000 -2.6995
v  3.1247 10.2000 -2.6995
v  3.1528 10.9551 -2.8169
v  2.8472 10.9551 -2.8169
v  2.8472 10.8482 -4.0391
v  3.1528 10.8482 -4.0391
v  2.8472 11.1526 -4.0658
v  3.1528 11.1526 -4.0658
v  2.8472 11.2595 -2.8435
v  3.1528 11.2595 -2.8435
v  3.1024 10.6876 -3.9953
v  2.8976 10.6876 -3.9953
v  2.8976 10.8915 -4.0131
v  3.1024 10.8915 -4.0131
v  3.1024 10.9090 -3.8131
v  2.8976 10.9090 -3.8131
v  2.8976 10.7051 -3.7953
v  3.1024 10.7051 -3.7953
# 117 vertices

vn 1.0000 0.0000 -0.0000
vn -1.0000 0.0000 -0.0000
vn 0.0000 -0.0000 1.0000
vn 0.0000 1.0000 0.0000
vn 0.0000 -1.0000 0.0000
vn 0.0000 -1.0000 -0.0000
vn 0.8970 -0.0000 0.4421
vn -0.8970 -0.0000 0.4421
vn -0.8824 0.0000 -0.4705
vn 0.0000 0.0000 -1.0000
vn 0.8824 0.0000 -0.4705
vn 0.0000 1.0000 -0.0000
vn 0.0000 -0.0000 0.0000
vn 0.0000 0.0000 -0.0000
vn 0.0000 -0.9962 0.0872
vn 0.0000 -0.0872 -0.9962
vn 0.0000 0.9962 -0.0872
vn 0.0000 0.0872 0.9962
vn -1.0000 0.0000 0.0000
vn -1.0000 -0.0000 -0.0000
vn 1.0000 -0.0000 -0.0000
# 21 vertex normals

vt 0.6114 0.5062 0.0000
vt 0.6231 0.5061 0.0000
vt 0.6231 0.5636 0.0000
vt 0.6114 0.5637 0.0000
vt 0.5159 0.5065 0.0000
vt 0.5275 0.5064 0.0000
vt 0.5275 0.5637 0.0000
vt 0.5159 0.5637 0.0000
vt 0.5017 0.5637 0.0000
vt 0.5017 0.5062 0.0000
vt 0.5017 0.5008 0.0000
vt 0.6114 0.5008 0.0000
vt 0.3647 0.0721 0.0000
vt 0.3796 0.0721 0.0000
vt 0.3812 0.0758 0.0000
vt 0.3649 0.0758 0.0000
vt 0.3483 0.0721 0.0000
vt 0.3481 0.0758 0.0000
vt 0.3335 0.0721 0.0000
vt 0.3319 0.0758 0.0000
vt 0.3812 0.0802 0.0000
vt 0.3649 0.0802 0.0000
vt 0.3481 0.0802 0.0000
vt 0.3319 0.0802 0.0000
vt 0.3787 0.0840 0.0000
vt 0.3648 0.0840 0.0000
vt 0.3483 0.0840 0.0000
vt 0.3343 0.0840 0.0000
vt 0.3779 0.0883 0.0000
vt 0.3648 0.0883 0.0000
vt 0.3483 0.0883 0.0000
vt 0.3352 0.0883 0.0000
vt 0.4423 0.6522 0.0000
vt 0.4706 0.6522 0.0000
vt 0.4673 0.6555 0.0000
vt 0.4484 0.6555 0.0000
vt 0.4423 0.6486 0.0000
vt 0.4734 0.6486 0.0000
vt 0.4423 0.6775 0.0000
vt 0.4484 0.6742 0.0000
vt 0.4385 0.6795 0.0000
vt 0.4385 0.6470 0.0000
vt 0.4789 0.6470 0.0000
vt 0.4789 0.6795 0.0000
vt 0.4673 0.6742 0.0000
vt 0.4706 0.6775 0.0000
vt 0.4734 0.6820 0.0000
vt 0.4423 0.6820 0.0000
vt 0.6163 0.6214 0.0000
vt 0.5111 0.6214 0.0000
vt 0.5111 0.5579 0.0000
vt 0.6163 0.5579 0.0000
vt 0.5111 0.6142 0.0000
vt 0.5111 0.5572 0.0000
vt 0.6163 0.5572 0.0000
vt 0.6163 0.6142 0.0000
vt 0.5111 0.6221 0.0000
vt 0.5111 0.5650 0.0000
vt 0.6163 0.5650 0.0000
vt 0.6163 0.6221 0.0000
vt 0.4857 0.6159 0.0000
vt 0.4930 0.6159 0.0000
vt 0.4930 0.6453 0.0000
vt 0.4857 0.6453 0.0000
vt 0.4731 0.6203 0.0000
vt 0.4950 0.6203 0.0000
vt 0.4950 0.6422 0.0000
vt 0.4731 0.6422 0.0000
vt 0.4784 0.6159 0.0000
vt 0.4784 0.6453 0.0000
vt 0.4800 0.6163 0.0000
vt 0.4872 0.6163 0.0000
vt 0.4872 0.6450 0.0000
vt 0.4800 0.6450 0.0000
vt 0.4800 0.6232 0.0000
vt 0.4955 0.6232 0.0000
vt 0.4955 0.6387 0.0000
vt 0.4800 0.6387 0.0000
vt 0.4943 0.6163 0.0000
vt 0.4943 0.6450 0.0000
vt 0.4534 0.6643 0.0000
vt 0.4635 0.6643 0.0000
vt 0.4635 0.6741 0.0000
vt 0.4534 0.6741 0.0000
vt 0.4800 0.6307 0.0000
vt 0.4944 0.6163 0.0000
vt 0.4944 0.6307 0.0000
vt 0.4944 0.6448 0.0000
vt 0.4800 0.6448 0.0000
vt 0.4929 0.6454 0.0000
vt 0.4856 0.6454 0.0000
vt 0.4856 0.6159 0.0000
vt 0.4929 0.6159 0.0000
vt 0.4786 0.6205 0.0000
vt 0.4977 0.6205 0.0000
vt 0.4977 0.6396 0.0000
vt 0.4786 0.6396 0.0000
vt 0.4782 0.6454 0.0000
vt 0.4782 0.6159 0.0000
vt 0.4794 0.6308 0.0000
vt 0.4794 0.6168 0.0000
vt 0.4934 0.6168 0.0000
vt 0.4934 0.6308 0.0000
vt 0.4932 0.6166 0.0000
vt 0.4932 0.6307 0.0000
vt 0.4792 0.6307 0.0000
vt 0.4792 0.6166 0.0000
vt 0.4932 0.6445 0.0000
vt 0.4792 0.6445 0.0000
vt 0.4934 0.6446 0.0000
vt 0.4794 0.6446 0.0000
# 111 texture coords

g polySurface1577
usemtl Atlas_2
s off
f 1/1/1 2/2/1 3/3/1 4/4/1 
f 5/5/2 6/6/2 7/7/2 8/8/2 
f 7/9/3 6/10/3 1/1/3 4/4/3 
f 9/1/1 4/4/1 3/3/1 10/2/1 
f 11/5/2 8/8/2 7/7/2 12/6/2 
f 11/11/4 12/10/4 9/1/4 10/12/4 
f 7/9/3 4/4/3 9/1/3 12/10/3 
f 13/13/5 14/14/5 15/15/5 16/16/5 
f 17/17/5 13/13/5 16/16/5 18/18/5 
f 19/19/6 17/17/6 18/18/6 20/20/6 
f 16/16/7 15/15/7 21/21/7 22/22/7 
f 18/18/3 16/16/3 22/22/3 23/23/3 
f 20/20/8 18/18/8 23/23/8 24/24/8 
f 22/22/4 21/21/4 25/25/4 26/26/4 
f 23/23/4 22/22/4 26/26/4 27/27/4 
f 24/24/4 23/23/4 27/27/4 28/28/4 
f 26/26/9 25/25/9 14/29/9 13/30/9 
f 27/27/10 26/26/10 13/30/10 17/31/10 
f 28/28/11 27/27/11 17/31/11 19/32/11 
f 29/13/6 30/14/6 31/15/6 32/16/6 
f 33/17/6 29/13/6 32/16/6 34/18/6 
f 35/19/5 33/17/5 34/18/5 36/20/5 
f 32/16/7 31/15/7 37/21/7 38/22/7 
f 34/18/3 32/16/3 38/22/3 39/23/3 
f 36/20/8 34/18/8 39/23/8 40/24/8 
f 38/22/4 37/21/4 41/25/4 42/26/4 
f 39/23/12 38/22/12 42/26/12 43/27/12 
f 40/24/4 39/23/4 43/27/4 44/28/4 
f 42/26/9 41/25/9 30/29/9 29/30/9 
f 43/27/10 42/26/10 29/30/10 33/31/10 
f 44/28/11 43/27/11 33/31/11 35/32/11 
f 45/13/6 46/14/6 47/15/6 48/16/6 
f 49/17/6 45/13/6 48/16/6 50/18/6 
f 51/19/6 49/17/6 50/18/6 52/20/6 
f 48/16/7 47/15/7 53/21/7 54/22/7 
f 50/18/3 48/16/3 54/22/3 55/23/3 
f 52/20/8 50/18/8 55/23/8 56/24/8 
f 54/22/4 53/21/4 57/25/4 58/26/4 
f 55/23/4 54/22/4 58/26/4 59/27/4 
f 56/24/4 55/23/4 59/27/4 60/28/4 
f 58/26/9 57/25/9 46/29/9 45/30/9 
f 59/27/10 58/26/10 45/30/10 49/31/10 
f 60/28/11 59/27/11 49/31/11 51/32/11 
f 61/33/10 62/34/10 63/35/10 64/36/10 
f 61/33/4 65/37/4 66/38/4 62/34/4 
f 67/39/1 61/33/1 64/36/1 68/40/1 
f 68/41/4 64/42/4 63/43/4 69/44/4 
f 67/39/3 68/40/3 69/45/3 70/46/3 
f 62/34/2 70/46/2 69/45/2 63/35/2 
f 66/38/4 71/47/12 70/46/12 62/34/4 
f 72/48/12 67/39/12 70/46/12 71/47/12 
f 72/48/12 71/47/12 73/48/12 
f 65/37/4 61/33/4 67/39/12 72/48/12 
f 65/49/13 65/49/13 74/50/13 74/50/13 
f 65/49/13 74/50/13 75/51/3 66/52/3 
f 76/52/10 77/49/10 72/50/14 72/50/14 
f 76/52/10 72/50/14 71/51/10 
f 75/53/1 76/54/1 71/55/1 66/56/1 
f 65/57/2 72/58/2 77/59/2 74/60/2 
f 78/61/3 79/62/3 80/63/3 81/64/3 
f 81/65/4 80/66/4 82/67/4 83/68/4 
f 83/63/10 82/64/10 84/61/10 85/62/10 
f 79/69/1 84/61/1 82/64/1 80/70/1 
f 85/69/2 78/61/2 81/64/2 83/70/2 
f 86/71/6 87/72/6 88/73/6 89/74/6 
f 89/75/3 88/76/3 90/77/3 91/78/3 
f 91/73/4 90/74/4 92/71/4 93/72/4 
f 87/72/1 92/79/1 90/80/1 88/73/1 
f 93/72/2 86/79/2 89/80/2 91/73/2 
f 94/81/6 95/82/6 96/83/6 97/84/6 
f 97/85/3 96/71/3 98/86/3 99/87/3 
f 100/86/10 101/87/10 95/85/10 94/71/10 
f 95/85/1 101/87/1 98/88/1 96/89/1 
f 100/88/2 94/89/2 97/85/2 99/87/2 
f 102/90/15 103/91/15 104/92/15 105/93/15 
f 105/94/16 104/95/16 106/96/16 107/97/16 
f 107/92/17 106/93/17 108/90/17 109/91/17 
f 109/94/18 108/95/18 103/96/18 102/97/18 
f 103/91/19 108/98/19 106/99/19 104/92/19 
f 109/91/1 102/98/1 105/99/1 107/92/1 
f 110/100/16 111/101/16 112/102/16 113/103/16 
f 114/104/18 115/105/18 116/106/18 117/107/18 
f 116/106/20 115/105/20 112/108/20 111/109/20 
f 114/110/21 117/111/21 110/100/21 113/103/21 
# 82 polygons - 2 triangles

