# 3ds Max Wavefront OBJ Exporter v0.97b - (c)2007 guruware
# File Created: 03.04.2017 16:16:34

mtllib Bath_Tub_2.mtl

#
# object polySurface1551
#

v  6.4413 -0.1000 4.0000
v  20.4413 -0.1000 4.0000
v  20.4413 4.4000 4.0000
v  6.4413 4.4000 4.0000
v  6.4413 4.4000 -4.0000
v  20.4413 4.4000 -4.0000
v  20.4413 -0.1000 -4.0000
v  6.4413 -0.1000 -4.0000
v  19.7413 4.4000 3.2982
v  7.1413 4.4000 3.2982
v  19.7413 4.4000 -3.2982
v  7.1413 4.4000 -3.2982
v  19.7413 1.2740 3.2982
v  7.1413 1.2740 3.2982
v  19.7413 1.2740 -3.2982
v  7.1413 1.2740 -3.2982
v  7.1413 3.2861 3.2982
v  19.7413 3.2861 3.2982
v  19.7413 3.2861 -3.2982
v  7.1413 3.2861 -3.2982
v  6.9762 4.4000 0.1786
v  6.9762 4.4000 -0.1786
v  6.9762 5.8341 -0.1786
v  6.9762 5.8341 0.1786
v  6.6191 5.8341 -0.1786
v  6.6191 5.8341 0.1786
v  6.6191 4.4000 -0.1786
v  6.6191 4.4000 0.1786
v  6.7976 5.3401 0.1431
v  6.7976 5.3401 -0.1431
v  7.9472 5.3401 -0.1431
v  7.9472 5.3401 0.1431
v  7.9472 5.6264 -0.1431
v  7.9472 5.6264 0.1431
v  6.7976 5.6264 -0.1431
v  6.7976 5.6264 0.1431
v  7.7312 5.1866 0.0959
v  7.7312 5.1866 -0.0959
v  7.9193 5.1866 -0.0959
v  7.9193 5.1866 0.0959
v  7.9193 5.3784 -0.0959
v  7.9193 5.3784 0.0959
v  7.7312 5.3784 0.0959
v  7.7312 5.3784 -0.0959
v  7.6409 5.9593 -0.1175
v  7.6409 5.9593 0.1175
v  6.7008 5.8770 0.1175
v  6.7008 5.8770 -0.1175
v  6.6803 6.1112 0.1175
v  6.6803 6.1112 -0.1175
v  7.6205 6.1934 0.1175
v  7.6205 6.1934 -0.1175
v  6.7345 5.7535 -0.0787
v  6.7345 5.7535 0.0787
v  6.7208 5.9104 0.0787
v  6.7208 5.9104 -0.0787
v  6.8746 5.9238 -0.0787
v  6.8746 5.9238 0.0787
v  6.8883 5.7669 0.0787
v  6.8883 5.7669 -0.0787
# 60 vertices

vn 0.0000 -0.0000 1.0000
vn 0.0000 0.0000 -1.0000
vn 1.0000 0.0000 -0.0000
vn -1.0000 0.0000 -0.0000
vn 0.0000 1.0000 0.0000
vn 0.0000 1.0000 -0.0000
vn 0.0000 -1.0000 -0.0000
vn 0.0872 -0.9962 -0.0000
vn -0.9962 -0.0872 -0.0000
vn -0.0872 0.9962 0.0000
vn 0.9962 0.0872 0.0000
# 11 vertex normals

vt 0.5000 0.2052 0.0000
vt 0.6336 0.2052 0.0000
vt 0.6336 0.2482 0.0000
vt 0.5000 0.2482 0.0000
vt 0.7100 0.2052 0.0000
vt 0.7100 0.2482 0.0000
vt 0.4993 0.1220 0.0000
vt 0.5994 0.1220 0.0000
vt 0.5944 0.1270 0.0000
vt 0.5043 0.1270 0.0000
vt 0.5994 0.1792 0.0000
vt 0.5944 0.1742 0.0000
vt 0.4993 0.1792 0.0000
vt 0.5043 0.1742 0.0000
vt 0.6363 0.2024 0.0000
vt 0.5462 0.2024 0.0000
vt 0.5462 0.1801 0.0000
vt 0.6363 0.1801 0.0000
vt 0.4991 0.2024 0.0000
vt 0.4991 0.1801 0.0000
vt 0.7108 0.2486 0.0000
vt 0.7108 0.1749 0.0000
vt 0.7494 0.1749 0.0000
vt 0.7494 0.2486 0.0000
vt 0.4857 0.6159 0.0000
vt 0.4930 0.6159 0.0000
vt 0.4930 0.6453 0.0000
vt 0.4857 0.6453 0.0000
vt 0.4731 0.6203 0.0000
vt 0.4950 0.6203 0.0000
vt 0.4950 0.6422 0.0000
vt 0.4731 0.6422 0.0000
vt 0.4784 0.6159 0.0000
vt 0.4784 0.6453 0.0000
vt 0.4800 0.6163 0.0000
vt 0.4872 0.6163 0.0000
vt 0.4872 0.6450 0.0000
vt 0.4800 0.6450 0.0000
vt 0.4800 0.6232 0.0000
vt 0.4955 0.6232 0.0000
vt 0.4955 0.6387 0.0000
vt 0.4800 0.6387 0.0000
vt 0.4943 0.6163 0.0000
vt 0.4943 0.6450 0.0000
vt 0.4534 0.6643 0.0000
vt 0.4635 0.6643 0.0000
vt 0.4635 0.6741 0.0000
vt 0.4534 0.6741 0.0000
vt 0.4800 0.6307 0.0000
vt 0.4944 0.6163 0.0000
vt 0.4944 0.6307 0.0000
vt 0.4944 0.6448 0.0000
vt 0.4800 0.6448 0.0000
vt 0.4929 0.6454 0.0000
vt 0.4856 0.6454 0.0000
vt 0.4856 0.6159 0.0000
vt 0.4929 0.6159 0.0000
vt 0.4786 0.6205 0.0000
vt 0.4977 0.6205 0.0000
vt 0.4977 0.6396 0.0000
vt 0.4786 0.6396 0.0000
vt 0.4782 0.6454 0.0000
vt 0.4782 0.6159 0.0000
vt 0.4794 0.6308 0.0000
vt 0.4794 0.6168 0.0000
vt 0.4934 0.6168 0.0000
vt 0.4934 0.6308 0.0000
vt 0.4932 0.6166 0.0000
vt 0.4932 0.6307 0.0000
vt 0.4792 0.6307 0.0000
vt 0.4792 0.6166 0.0000
vt 0.4932 0.6445 0.0000
vt 0.4792 0.6445 0.0000
vt 0.4934 0.6446 0.0000
vt 0.4794 0.6446 0.0000
# 75 texture coords

g polySurface1551
usemtl Atlas_2
s off
f 1/1/1 2/2/1 3/3/1 4/4/1 
f 5/3/2 6/4/2 7/1/2 8/2/2 
f 2/2/3 7/5/3 6/6/3 3/3/3 
f 8/2/4 1/5/4 4/6/4 5/3/4 
f 4/7/5 3/8/5 9/9/5 10/10/5 
f 3/8/5 6/11/6 11/12/6 9/9/5 
f 6/11/6 5/13/6 12/14/6 11/12/6 
f 5/13/6 4/7/5 10/10/5 12/14/6 
f 10/15/2 9/16/2 13/17/2 14/18/2 
f 9/16/4 11/19/4 15/20/4 13/17/4 
f 11/15/1 12/16/1 16/17/1 15/18/1 
f 12/16/3 10/19/3 14/20/3 16/17/3 
f 17/21/5 18/22/5 19/23/5 20/24/5 
f 21/25/3 22/26/3 23/27/3 24/28/3 
f 24/29/5 23/30/5 25/31/5 26/32/5 
f 26/27/4 25/28/4 27/25/4 28/26/4 
f 22/33/2 27/25/2 25/28/2 23/34/2 
f 28/33/1 21/25/1 24/28/1 26/34/1 
f 29/35/7 30/36/7 31/37/7 32/38/7 
f 32/39/3 31/40/3 33/41/3 34/42/3 
f 34/37/5 33/38/5 35/35/5 36/36/5 
f 30/36/2 35/43/2 33/44/2 31/37/2 
f 36/36/1 29/43/1 32/44/1 34/37/1 
f 37/45/7 38/46/7 39/47/7 40/48/7 
f 40/49/3 39/35/3 41/50/3 42/51/3 
f 43/50/4 44/51/4 38/49/4 37/35/4 
f 38/49/2 44/51/2 41/52/2 39/53/2 
f 43/52/1 37/53/1 40/49/1 42/51/1 
f 45/54/8 46/55/8 47/56/8 48/57/8 
f 48/58/9 47/59/9 49/60/9 50/61/9 
f 50/56/10 49/57/10 51/54/10 52/55/10 
f 52/58/11 51/59/11 46/60/11 45/61/11 
f 46/55/1 51/62/1 49/63/1 47/56/1 
f 52/55/2 45/62/2 48/63/2 50/56/2 
f 53/64/9 54/65/9 55/66/9 56/67/9 
f 57/68/11 58/69/11 59/70/11 60/71/11 
f 59/70/1 58/69/1 55/72/1 54/73/1 
f 57/74/2 60/75/2 53/64/2 56/67/2 
# 38 polygons

