# 3ds Max Wavefront OBJ Exporter v0.97b - (c)2007 guruware
# File Created: 03.04.2017 16:16:49

mtllib Bath_Wash_basin_1A.mtl

#
# object polySurface1548
#

v  4.9355 4.1913 3.8688
v  4.9355 3.7978 3.1308
v  4.9355 3.4244 3.1308
v  4.9355 3.9475 4.1922
v  4.9355 5.6709 3.8688
v  4.9355 5.9146 4.1922
v  4.9355 6.0644 3.1308
v  4.9355 6.4378 3.1308
v  5.3089 3.4244 3.1308
v  5.3089 3.9475 4.1922
v  5.3089 5.9146 4.1922
v  5.3089 6.4378 3.1308
v  5.3089 3.7978 3.1308
v  5.3089 4.1913 3.8688
v  5.3089 5.6709 3.8688
v  5.3089 6.0644 3.1308
v  0.0000 -3.8662 2.5000
v  0.0000 -3.8662 3.1308
v  0.0000 8.8710 3.1308
v  0.0000 8.8710 2.5000
v  6.5000 8.8710 3.1308
v  6.5000 -3.8662 3.1308
v  6.5000 8.8710 2.5000
v  14.2544 -3.8662 2.5000
v  14.2544 8.8710 2.5000
v  14.2544 8.8710 3.1308
v  14.2544 -3.8662 3.1308
v  7.5992 4.1913 3.8688
v  7.5992 3.7978 3.1308
v  7.5992 3.4244 3.1308
v  7.5992 3.9475 4.1922
v  7.5992 5.6709 3.8688
v  7.5992 5.9146 4.1922
v  7.5992 6.0644 3.1308
v  7.5992 6.4378 3.1308
v  7.9725 3.4244 3.1308
v  7.9725 3.9475 4.1922
v  7.9725 5.9146 4.1922
v  7.9725 6.4378 3.1308
v  7.9725 3.7978 3.1308
v  7.9725 4.1913 3.8688
v  7.9725 5.6709 3.8688
v  7.9725 6.0644 3.1308
v  -3.3665 7.4026 3.8017
v  -3.0088 7.4026 3.1308
v  -2.6694 7.4026 3.1308
v  -3.1450 7.4026 4.0957
v  -4.7117 7.4026 3.8017
v  -4.9332 7.4026 4.0957
v  -5.0694 7.4026 3.1308
v  -5.4088 7.4026 3.1308
v  -2.6694 7.7420 3.1308
v  -3.1450 7.7420 4.0957
v  -4.9332 7.7420 4.0957
v  -5.4088 7.7420 3.1308
v  -3.0088 7.7420 3.1308
v  -3.3665 7.7420 3.8017
v  -4.7117 7.7420 3.8017
v  -5.0694 7.7420 3.1308
v  -3.3665 2.7614 3.8017
v  -3.0088 2.7614 3.1308
v  -2.6694 2.7614 3.1308
v  -3.1450 2.7614 4.0957
v  -4.7117 2.7614 3.8017
v  -4.9332 2.7614 4.0957
v  -5.0694 2.7614 3.1308
v  -5.4088 2.7614 3.1308
v  -2.6694 3.1008 3.1308
v  -3.1450 3.1008 4.0957
v  -4.9332 3.1008 4.0957
v  -5.4088 3.1008 3.1308
v  -3.0088 3.1008 3.1308
v  -3.3665 3.1008 3.8017
v  -4.7117 3.1008 3.8017
v  -5.0694 3.1008 3.1308
v  -3.3665 -1.5575 3.8017
v  -3.0088 -1.5575 3.1308
v  -2.6694 -1.5575 3.1308
v  -3.1450 -1.5575 4.0957
v  -4.7117 -1.5575 3.8017
v  -4.9332 -1.5575 4.0957
v  -5.0694 -1.5575 3.1308
v  -5.4088 -1.5575 3.1308
v  -2.6694 -1.2181 3.1308
v  -3.1450 -1.2181 4.0957
v  -4.9332 -1.2181 4.0957
v  -5.4088 -1.2181 3.1308
v  -3.0088 -1.2181 3.1308
v  -3.3665 -1.2181 3.8017
v  -4.7117 -1.2181 3.8017
v  -5.0694 -1.2181 3.1308
v  -7.7925 8.9281 2.5000
v  0.0000 8.9281 2.5000
v  0.0000 8.9281 -4.4690
v  -7.7925 8.9281 -4.4690
v  -0.0381 -3.8662 3.1308
v  -0.0381 -3.8662 2.5000
v  -0.0381 8.8710 2.5000
v  -0.0381 8.8710 3.1308
v  -7.7554 -3.8662 2.5000
v  -7.7554 -3.8662 3.1308
v  -7.7554 8.8710 3.1308
v  -7.7554 8.8710 2.5000
v  0.0000 -3.9267 2.5000
v  0.0000 2.5007 2.5000
v  -7.7925 2.5007 2.5000
v  -7.7925 -3.9267 2.5000
v  -7.7925 -3.9267 -4.4690
v  -7.7925 2.5007 -4.4690
v  0.0000 2.5007 -4.4690
v  0.0000 -3.9267 -4.4690
v  6.5000 8.9281 2.5000
v  14.2925 8.9281 2.5000
v  14.2925 8.9281 -4.4690
v  6.5000 8.9281 -4.4690
v  14.2925 -3.9267 2.5000
v  14.2925 2.5007 2.5000
v  6.5000 2.5007 2.5000
v  6.5000 -3.9267 2.5000
v  14.2925 -3.9267 -4.4690
v  14.2925 2.5007 -4.4690
v  6.5000 -3.9267 -4.4690
v  6.5000 2.5007 -4.4690
v  0.5958 8.9281 1.7512
v  5.9042 8.9281 1.7512
v  5.9042 7.5542 1.7512
v  0.5958 7.5542 1.7512
v  0.5958 8.9281 -3.5215
v  0.5958 7.5542 -3.5215
v  5.9042 7.5542 -3.5215
v  5.9042 8.9281 -3.5215
v  2.7679 8.9281 -3.6811
v  3.2321 8.9281 -3.6811
v  3.2321 10.7924 -3.6811
v  2.7679 10.7924 -3.6811
v  3.2321 10.7924 -4.1453
v  2.7679 10.7924 -4.1453
v  3.2321 8.9281 -4.1453
v  2.7679 8.9281 -4.1453
v  2.8139 10.1502 -3.9132
v  3.1861 10.1502 -3.9132
v  3.1861 10.1502 -2.4188
v  2.8139 10.1502 -2.4188
v  3.1861 10.5223 -2.4188
v  2.8139 10.5223 -2.4188
v  3.1861 10.5223 -3.9132
v  2.8139 10.5223 -3.9132
v  2.8753 9.9506 -2.6995
v  3.1247 9.9506 -2.6995
v  3.1247 9.9506 -2.4550
v  2.8753 9.9506 -2.4550
v  3.1247 10.2000 -2.4550
v  2.8753 10.2000 -2.4550
v  2.8753 10.2000 -2.6995
v  3.1247 10.2000 -2.6995
v  3.1528 10.9551 -2.8169
v  2.8472 10.9551 -2.8169
v  2.8472 10.8482 -4.0391
v  3.1528 10.8482 -4.0391
v  2.8472 11.1526 -4.0658
v  3.1528 11.1526 -4.0658
v  2.8472 11.2595 -2.8435
v  3.1528 11.2595 -2.8435
v  3.1024 10.6876 -3.9953
v  2.8976 10.6876 -3.9953
v  2.8976 10.8915 -4.0131
v  3.1024 10.8915 -4.0131
v  3.1024 10.9090 -3.8131
v  2.8976 10.9090 -3.8131
v  2.8976 10.7051 -3.7953
v  3.1024 10.7051 -3.7953
# 171 vertices

vn -1.0000 0.0000 0.0000
vn -1.0000 0.0000 -0.0000
vn 0.0000 -0.8970 0.4421
vn 0.0000 -0.0000 1.0000
vn 0.0000 0.8970 0.4421
vn 1.0000 0.0000 0.0000
vn 1.0000 0.0000 -0.0000
vn 0.0000 0.8824 -0.4705
vn 0.0000 0.0000 -1.0000
vn 0.0000 -0.8824 -0.4705
vn 0.0000 1.0000 0.0000
vn 0.0000 -1.0000 0.0000
vn 0.0000 -1.0000 -0.0000
vn 0.8970 -0.0000 0.4421
vn -0.8970 -0.0000 0.4421
vn 0.0000 1.0000 -0.0000
vn -0.8824 0.0000 -0.4705
vn 0.8824 0.0000 -0.4705
vn 0.0000 0.0000 1.0000
vn -1.0000 -0.0000 -0.0000
vn 1.0000 -0.0000 -0.0000
vn 0.0000 -0.0000 0.0000
vn 0.0000 0.0000 -0.0000
vn 0.0000 -0.9962 0.0872
vn 0.0000 -0.0872 -0.9962
vn 0.0000 0.9962 -0.0872
vn 0.0000 0.0872 0.9962
# 27 vertex normals

vt 0.2513 0.8423 0.0000
vt 0.2513 0.8657 0.0000
vt 0.2453 0.8682 0.0000
vt 0.2453 0.8426 0.0000
vt 0.2513 0.8163 0.0000
vt 0.2453 0.8160 0.0000
vt 0.2513 0.7928 0.0000
vt 0.2453 0.7903 0.0000
vt 0.2384 0.8682 0.0000
vt 0.2384 0.8426 0.0000
vt 0.2384 0.8160 0.0000
vt 0.2384 0.7903 0.0000
vt 0.2325 0.8644 0.0000
vt 0.2325 0.8423 0.0000
vt 0.2325 0.8162 0.0000
vt 0.2325 0.7942 0.0000
vt 0.2256 0.8630 0.0000
vt 0.2256 0.8423 0.0000
vt 0.2256 0.8162 0.0000
vt 0.2256 0.7955 0.0000
vt 0.7201 0.8262 0.0000
vt 0.7218 0.8146 0.0000
vt 0.8288 0.8146 0.0000
vt 0.8283 0.8262 0.0000
vt 0.8995 0.8015 0.0000
vt 0.8995 0.7638 0.0000
vt 0.7844 0.7638 0.0000
vt 0.7844 0.8015 0.0000
vt 0.9027 0.8015 0.0000
vt 0.9027 0.7638 0.0000
vt 0.5133 0.9987 0.0000
vt 0.4537 0.9987 0.0000
vt 0.4537 0.9421 0.0000
vt 0.5133 0.9421 0.0000
vt 0.9277 0.7559 0.0000
vt 0.9393 0.7558 0.0000
vt 0.9393 0.8709 0.0000
vt 0.9277 0.8709 0.0000
vt 0.6936 0.7562 0.0000
vt 0.7052 0.7561 0.0000
vt 0.7052 0.8705 0.0000
vt 0.6936 0.8705 0.0000
vt 0.8179 0.8709 0.0000
vt 0.8179 0.7559 0.0000
vt 0.8179 0.8741 0.0000
vt 0.9277 0.8741 0.0000
vt 0.5399 0.9191 0.0000
vt 0.5881 0.9191 0.0000
vt 0.5881 0.9947 0.0000
vt 0.5399 0.9947 0.0000
vt 0.5759 0.9642 0.0000
vt 0.5759 0.8907 0.0000
vt 0.6252 0.8907 0.0000
vt 0.6252 0.9642 0.0000
vt 0.4452 0.6522 0.0000
vt 0.4706 0.6522 0.0000
vt 0.4673 0.6555 0.0000
vt 0.4484 0.6555 0.0000
vt 0.4423 0.6486 0.0000
vt 0.4734 0.6486 0.0000
vt 0.4452 0.6775 0.0000
vt 0.4484 0.6742 0.0000
vt 0.4413 0.6806 0.0000
vt 0.4413 0.6460 0.0000
vt 0.4762 0.6460 0.0000
vt 0.4762 0.6806 0.0000
vt 0.4673 0.6742 0.0000
vt 0.4706 0.6775 0.0000
vt 0.4734 0.6820 0.0000
vt 0.4423 0.6820 0.0000
vt 0.6463 0.9884 0.0000
vt 0.4642 0.9884 0.0000
vt 0.4642 0.8963 0.0000
vt 0.6463 0.8963 0.0000
vt 0.4642 0.9887 0.0000
vt 0.4642 0.8966 0.0000
vt 0.6463 0.8966 0.0000
vt 0.6463 0.9887 0.0000
vt 0.4857 0.6159 0.0000
vt 0.4930 0.6159 0.0000
vt 0.4930 0.6453 0.0000
vt 0.4857 0.6453 0.0000
vt 0.4731 0.6203 0.0000
vt 0.4950 0.6203 0.0000
vt 0.4950 0.6422 0.0000
vt 0.4731 0.6422 0.0000
vt 0.4784 0.6159 0.0000
vt 0.4784 0.6453 0.0000
vt 0.4800 0.6163 0.0000
vt 0.4872 0.6163 0.0000
vt 0.4872 0.6450 0.0000
vt 0.4800 0.6450 0.0000
vt 0.4800 0.6232 0.0000
vt 0.4955 0.6232 0.0000
vt 0.4955 0.6387 0.0000
vt 0.4800 0.6387 0.0000
vt 0.4943 0.6163 0.0000
vt 0.4943 0.6450 0.0000
vt 0.4534 0.6643 0.0000
vt 0.4635 0.6643 0.0000
vt 0.4635 0.6741 0.0000
vt 0.4534 0.6741 0.0000
vt 0.4800 0.6307 0.0000
vt 0.4944 0.6163 0.0000
vt 0.4944 0.6307 0.0000
vt 0.4944 0.6448 0.0000
vt 0.4800 0.6448 0.0000
vt 0.4929 0.6454 0.0000
vt 0.4856 0.6454 0.0000
vt 0.4856 0.6159 0.0000
vt 0.4929 0.6159 0.0000
vt 0.4786 0.6205 0.0000
vt 0.4977 0.6205 0.0000
vt 0.4977 0.6396 0.0000
vt 0.4786 0.6396 0.0000
vt 0.4782 0.6454 0.0000
vt 0.4782 0.6159 0.0000
vt 0.4794 0.6308 0.0000
vt 0.4794 0.6168 0.0000
vt 0.4934 0.6168 0.0000
vt 0.4934 0.6308 0.0000
vt 0.4932 0.6166 0.0000
vt 0.4932 0.6307 0.0000
vt 0.4792 0.6307 0.0000
vt 0.4792 0.6166 0.0000
vt 0.4932 0.6445 0.0000
vt 0.4792 0.6445 0.0000
vt 0.4934 0.6446 0.0000
vt 0.4794 0.6446 0.0000
# 129 texture coords

g polySurface1548
usemtl Atlas_2
s off
f 1/1/1 2/2/1 3/3/1 4/4/1 
f 5/5/2 1/1/2 4/4/2 6/6/2 
f 7/7/2 5/5/2 6/6/2 8/8/2 
f 4/4/3 3/3/3 9/9/3 10/10/3 
f 6/6/4 4/4/4 10/10/4 11/11/4 
f 8/8/5 6/6/5 11/11/5 12/12/5 
f 10/10/6 9/9/6 13/13/6 14/14/6 
f 11/11/7 10/10/7 14/14/7 15/15/7 
f 12/12/7 11/11/7 15/15/7 16/16/7 
f 14/14/8 13/13/8 2/17/8 1/18/8 
f 15/15/9 14/14/9 1/18/9 5/19/9 
f 16/16/10 15/15/10 5/19/10 7/20/10 
f 17/21/2 18/22/2 19/23/2 20/24/2 
f 21/25/4 19/26/4 18/27/4 22/28/4 
f 23/29/11 20/30/11 19/26/11 21/25/11 
f 24/21/7 25/24/7 26/23/7 27/22/7 
f 21/25/4 22/28/4 27/27/4 26/26/4 
f 23/29/11 21/25/11 26/26/11 25/30/11 
f 28/1/1 29/2/1 30/3/1 31/4/1 
f 32/5/2 28/1/2 31/4/2 33/6/2 
f 34/7/2 32/5/2 33/6/2 35/8/2 
f 31/4/3 30/3/3 36/9/3 37/10/3 
f 33/6/4 31/4/4 37/10/4 38/11/4 
f 35/8/5 33/6/5 38/11/5 39/12/5 
f 37/10/6 36/9/6 40/13/6 41/14/6 
f 38/11/7 37/10/7 41/14/7 42/15/7 
f 39/12/7 38/11/7 42/15/7 43/16/7 
f 41/14/8 40/13/8 29/17/8 28/18/8 
f 42/15/9 41/14/9 28/18/9 32/19/9 
f 43/16/10 42/15/10 32/19/10 34/20/10 
f 44/1/12 45/2/12 46/3/12 47/4/12 
f 48/5/12 44/1/12 47/4/12 49/6/12 
f 50/7/13 48/5/13 49/6/13 51/8/13 
f 47/4/14 46/3/14 52/9/14 53/10/14 
f 49/6/4 47/4/4 53/10/4 54/11/4 
f 51/8/15 49/6/15 54/11/15 55/12/15 
f 53/10/16 52/9/16 56/13/16 57/14/16 
f 54/11/11 53/10/11 57/14/11 58/15/11 
f 55/12/16 54/11/16 58/15/16 59/16/16 
f 57/14/17 56/13/17 45/17/17 44/18/17 
f 58/15/9 57/14/9 44/18/9 48/19/9 
f 59/16/18 58/15/18 48/19/18 50/20/18 
f 60/1/13 61/2/13 62/3/13 63/4/13 
f 64/5/12 60/1/12 63/4/12 65/6/12 
f 66/7/12 64/5/12 65/6/12 67/8/12 
f 63/4/14 62/3/14 68/9/14 69/10/14 
f 65/6/4 63/4/4 69/10/4 70/11/4 
f 67/8/15 65/6/15 70/11/15 71/12/15 
f 69/10/16 68/9/16 72/13/16 73/14/16 
f 70/11/16 69/10/16 73/14/16 74/15/16 
f 71/12/11 70/11/11 74/15/11 75/16/11 
f 73/14/17 72/13/17 61/17/17 60/18/17 
f 74/15/9 73/14/9 60/18/9 64/19/9 
f 75/16/18 74/15/18 64/19/18 66/20/18 
f 76/1/12 77/2/12 78/3/12 79/4/12 
f 80/5/13 76/1/13 79/4/13 81/6/13 
f 82/7/12 80/5/12 81/6/12 83/8/12 
f 79/4/14 78/3/14 84/9/14 85/10/14 
f 81/6/4 79/4/4 85/10/4 86/11/4 
f 83/8/15 81/6/15 86/11/15 87/12/15 
f 85/10/11 84/9/11 88/13/11 89/14/11 
f 86/11/11 85/10/11 89/14/11 90/15/11 
f 87/12/11 86/11/11 90/15/11 91/16/11 
f 89/14/17 88/13/17 77/17/17 76/18/17 
f 90/15/9 89/14/9 76/18/9 80/19/9 
f 91/16/18 90/15/18 80/19/18 82/20/18 
f 92/31/11 93/32/11 94/33/11 95/34/11 
f 96/35/7 97/36/7 98/37/7 99/38/7 
f 100/39/2 101/40/2 102/41/2 103/42/2 
f 102/43/4 101/44/4 96/35/4 99/38/4 
f 103/45/11 102/43/11 99/38/11 98/46/11 
f 104/47/19 105/48/19 106/49/19 107/50/19 
f 93/47/4 92/50/4 106/49/4 105/48/4 
f 108/51/20 107/52/20 106/53/20 109/54/20 
f 95/51/2 109/54/2 106/53/2 92/52/2 
f 108/47/9 109/48/9 110/49/9 111/50/9 
f 95/47/9 94/50/9 110/49/9 109/48/9 
f 112/31/11 113/32/11 114/33/11 115/34/11 
f 116/47/19 117/48/19 118/49/19 119/50/19 
f 113/47/4 112/50/4 118/49/4 117/48/4 
f 116/51/21 120/52/21 121/53/21 117/54/21 
f 113/51/7 117/54/7 121/53/7 114/52/7 
f 122/47/9 123/48/9 121/49/9 120/50/9 
f 115/47/9 114/50/9 121/49/9 123/48/9 
f 124/55/9 125/56/9 126/57/9 127/58/9 
f 124/55/16 93/59/16 112/60/16 125/56/16 
f 128/61/7 124/55/7 127/58/7 129/62/7 
f 129/63/11 127/64/11 126/65/11 130/66/11 
f 128/61/4 129/62/4 130/67/4 131/68/4 
f 125/56/2 131/68/2 130/67/2 126/57/2 
f 112/60/16 115/69/11 131/68/11 125/56/16 
f 94/70/11 128/61/11 131/68/11 115/69/11 
f 93/59/16 124/55/16 128/61/11 94/70/11 
f 93/71/22 93/71/22 104/72/22 104/72/22 
f 93/71/22 104/72/22 119/73/4 112/74/4 
f 122/75/9 111/76/9 94/77/23 94/77/23 
f 122/75/9 94/77/23 115/78/9 
f 132/79/4 133/80/4 134/81/4 135/82/4 
f 135/83/11 134/84/11 136/85/11 137/86/11 
f 137/81/9 136/82/9 138/79/9 139/80/9 
f 133/87/7 138/79/7 136/82/7 134/88/7 
f 139/87/2 132/79/2 135/82/2 137/88/2 
f 140/89/13 141/90/13 142/91/13 143/92/13 
f 143/93/4 142/94/4 144/95/4 145/96/4 
f 145/91/11 144/92/11 146/89/11 147/90/11 
f 141/90/7 146/97/7 144/98/7 142/91/7 
f 147/90/2 140/97/2 143/98/2 145/91/2 
f 148/99/13 149/100/13 150/101/13 151/102/13 
f 151/103/4 150/89/4 152/104/4 153/105/4 
f 154/104/9 155/105/9 149/103/9 148/89/9 
f 149/103/7 155/105/7 152/106/7 150/107/7 
f 154/106/2 148/107/2 151/103/2 153/105/2 
f 156/108/24 157/109/24 158/110/24 159/111/24 
f 159/112/25 158/113/25 160/114/25 161/115/25 
f 161/110/26 160/111/26 162/108/26 163/109/26 
f 163/112/27 162/113/27 157/114/27 156/115/27 
f 157/109/1 162/116/1 160/117/1 158/110/1 
f 163/109/7 156/116/7 159/117/7 161/110/7 
f 164/118/25 165/119/25 166/120/25 167/121/25 
f 168/122/27 169/123/27 170/124/27 171/125/27 
f 170/124/20 169/123/20 166/126/20 165/127/20 
f 168/128/21 171/129/21 164/118/21 167/121/21 
# 121 polygons - 1 triangles

