# 3ds Max Wavefront OBJ Exporter v0.97b - (c)2007 guruware
# File Created: 03.04.2017 16:45:17

mtllib Books_2.mtl

#
# object pCube215
#

v  -1.7500 -2.5000 0.5000
v  1.7500 -2.5000 0.5000
v  1.7500 2.5000 0.5000
v  -1.7500 2.5000 0.5000
v  1.7500 2.5000 -0.5000
v  -1.7500 2.5000 -0.5000
v  1.7500 -2.5000 -0.5000
v  -1.7500 -2.5000 -0.5000
# 8 vertices

vn 0.0000 -0.0000 1.0000
vn 0.0000 1.0000 0.0000
vn 0.0000 0.0000 -1.0000
vn 0.0000 -1.0000 -0.0000
vn 1.0000 0.0000 -0.0000
vn -1.0000 0.0000 -0.0000
# 6 vertex normals

vt 0.0984 0.6453 0.0000
vt 0.1706 0.6453 0.0000
vt 0.1706 0.7484 0.0000
vt 0.0984 0.7484 0.0000
vt 0.0248 0.6435 0.0000
vt 0.0248 0.5713 0.0000
vt 0.0455 0.5713 0.0000
vt 0.0455 0.6435 0.0000
vt 0.0248 0.4682 0.0000
vt 0.0455 0.4682 0.0000
vt 0.1728 0.6453 0.0000
vt 0.1934 0.6453 0.0000
vt 0.1934 0.7484 0.0000
vt 0.1728 0.7484 0.0000
# 14 texture coords

g pCube215
usemtl Atlas_2
s off
f 1/1/1 2/2/1 3/3/1 4/4/1 
f 4/5/2 3/6/2 5/7/2 6/8/2 
f 6/3/3 5/4/3 7/1/3 8/2/3 
f 8/5/4 7/6/4 2/7/4 1/8/4 
f 2/9/5 7/10/5 5/7/5 3/6/5 
f 8/11/6 1/12/6 4/13/6 6/14/6 
# 6 polygons

