# 3ds Max Wavefront OBJ Exporter v0.97b - (c)2007 guruware
# File Created: 03.04.2017 16:45:53

mtllib Bush_1.mtl

#
# object polySurface1581
#

v  -50.9664 5.2271 2.2916
v  -50.9664 -1.0482 9.4156
v  -42.9664 -1.0482 9.4156
v  -42.9664 5.2271 2.2916
v  -50.9664 8.8339 -6.4158
v  -42.9664 8.8339 -6.4158
v  -50.9664 5.2263 2.2910
v  -42.9664 5.2263 2.2910
v  -42.9664 -1.0490 9.4150
v  -50.9664 -1.0490 9.4150
v  -50.9664 8.8330 -6.4164
v  -42.9664 8.8330 -6.4164
v  -54.1098 5.2271 13.4350
v  -46.9858 -1.0482 13.4350
v  -46.9858 -1.0482 5.4350
v  -54.1098 5.2271 5.4350
v  -62.8172 8.8339 13.4350
v  -62.8172 8.8339 5.4350
v  -54.1103 5.2263 13.4350
v  -54.1103 5.2263 5.4350
v  -46.9864 -1.0490 5.4350
v  -46.9864 -1.0490 13.4350
v  -62.8177 8.8330 13.4350
v  -62.8177 8.8330 5.4350
v  -42.9664 4.4290 17.2044
v  -42.9664 -1.0501 9.4513
v  -50.9664 -1.0501 9.4513
v  -50.9664 4.4290 17.2044
v  -42.9664 7.0856 26.2470
v  -50.9664 7.0856 26.2470
v  -42.9664 4.4281 17.2049
v  -50.9664 4.4281 17.2049
v  -50.9664 -1.0509 9.4518
v  -42.9664 -1.0509 9.4518
v  -42.9664 7.0848 26.2475
v  -50.9664 7.0848 26.2475
v  -40.7043 4.4564 5.9284
v  -46.9494 -1.0447 5.9284
v  -46.9494 -1.0447 12.9415
v  -40.7043 4.4564 12.9415
v  -33.0711 7.6182 5.9284
v  -33.0711 7.6182 12.9415
v  -40.7038 4.4557 5.9284
v  -40.7038 4.4557 12.9415
v  -46.9489 -1.0455 12.9415
v  -46.9489 -1.0455 5.9284
v  -33.0706 7.6175 5.9284
v  -33.0706 7.6175 12.9415
v  -37.9874 2.7986 12.7294
v  -44.1600 -0.9796 6.5848
v  -49.7578 -1.1259 12.2982
v  -43.5853 2.6523 18.4427
v  -31.2865 3.5510 19.3141
v  -36.8844 3.4047 25.0275
v  -37.9872 2.7977 12.7296
v  -43.5851 2.6513 18.4429
v  -49.7576 -1.1269 12.2984
v  -44.1597 -0.9806 6.5850
v  -31.2863 3.5501 19.3143
v  -36.8842 3.4037 25.0277
v  -49.5101 1.9105 16.4761
v  -44.6830 -0.8117 11.5549
v  -49.2565 -1.2800 7.3278
v  -54.0836 1.4422 12.2490
v  -54.5178 2.2608 21.8553
v  -59.0913 1.7925 17.6282
v  -49.5102 1.9097 16.4763
v  -54.0837 1.4414 12.2492
v  -49.2566 -1.2807 7.3280
v  -44.6830 -0.8125 11.5551
v  -54.5178 2.2600 21.8555
v  -59.0914 1.7917 17.6284
v  -55.9558 3.6019 7.4640
v  -49.5672 -1.3355 12.4578
v  -44.3845 -0.7665 6.3902
v  -50.7731 4.1709 1.3964
v  -63.0456 5.6445 1.5998
v  -57.8630 6.2136 -4.4678
v  -55.9561 3.6010 7.4637
v  -50.7734 4.1700 1.3961
v  -44.3848 -0.7674 6.3899
v  -49.5675 -1.3364 12.4575
v  -63.0459 5.6436 1.5995
v  -57.8632 6.2126 -4.4682
v  -44.0471 3.5030 0.6557
v  -49.9570 -0.6726 6.8012
v  -43.9652 -1.4316 12.0475
v  -38.0554 2.7440 5.9019
v  -37.8035 4.7024 -6.3017
v  -31.8117 3.9434 -1.0555
v  -44.0470 3.5021 0.6553
v  -38.0552 2.7431 5.9016
v  -43.9651 -1.4325 12.0471
v  -49.9568 -0.6736 6.8009
v  -37.8034 4.7015 -6.3021
v  -31.8116 3.9425 -1.0558
v  -42.6330 5.1389 12.4352
v  -43.8849 -1.2974 8.8500
v  -50.0422 -0.7751 10.0624
v  -48.7904 5.6612 13.6476
v  -41.1546 9.9816 17.8575
v  -47.3120 10.5038 19.0700
v  -42.6330 5.1384 12.4358
v  -48.7903 5.6607 13.6482
v  -50.0422 -0.7756 10.0630
v  -43.8848 -1.2978 8.8506
v  -41.1545 9.9811 17.8582
v  -47.3119 10.5034 19.0706
v  -52.0607 4.9769 10.0555
v  -48.8302 -1.2901 11.8544
v  -45.1342 -0.7816 6.9884
v  -48.3647 5.4854 5.1895
v  -56.6447 9.6922 7.0664
v  -52.9487 10.2007 2.2004
v  -52.0612 4.9764 10.0551
v  -48.3651 5.4849 5.1891
v  -45.1346 -0.7820 6.9880
v  -48.8307 -1.2905 11.8539
v  -56.6452 9.6918 7.0660
v  -52.9491 10.2003 2.2000
v  -46.6643 4.1938 4.5337
v  -49.1865 -0.9864 7.7588
v  -44.7268 -1.0876 11.0840
v  -42.2046 4.0926 7.8590
v  -43.3196 7.7455 0.1560
v  -38.8598 7.6443 3.4813
v  -46.6640 4.1933 4.5333
v  -42.2043 4.0921 7.8586
v  -44.7265 -1.0881 11.0836
v  -49.1862 -0.9869 7.7584
v  -43.3193 7.7450 0.1556
v  -38.8595 7.6438 3.4809
v  -52.3286 1.5218 2.8952
v  -50.2821 -1.1700 10.3004
v  -43.6521 -0.9274 8.5564
v  -45.6985 1.7644 1.1512
v  -54.3866 1.5846 -4.9197
v  -47.7565 1.8273 -6.6638
v  -52.3286 1.5210 2.8950
v  -45.6985 1.7636 1.1510
v  -43.6521 -0.9282 8.5562
v  -50.2821 -1.1709 10.3003
v  -54.3866 1.5838 -4.9199
v  -47.7565 1.8264 -6.6640
v  -55.6117 2.3169 13.9272
v  -46.7073 -0.9372 13.4259
v  -47.2413 -1.1693 5.4471
v  -56.1458 2.0848 5.9484
v  -65.0139 2.5107 14.5509
v  -65.5480 2.2786 6.5721
v  -55.6120 2.3159 13.9273
v  -56.1460 2.0838 5.9485
v  -47.2416 -1.1703 5.4471
v  -46.7075 -0.9382 13.4259
v  -65.0141 2.5097 14.5510
v  -65.5482 2.2776 6.5722
# 156 vertices

vn 0.0000 0.8483 0.5295
vn 0.0000 0.7504 0.6610
vn 0.0000 0.9239 0.3827
vn 0.0000 -0.8483 -0.5295
vn 0.0000 -0.7504 -0.6610
vn 0.0000 -0.9239 -0.3827
vn 0.5295 0.8483 0.0000
vn 0.6610 0.7504 0.0000
vn 0.3827 0.9239 0.0000
vn -0.5295 -0.8483 -0.0000
vn -0.6610 -0.7504 -0.0000
vn -0.3827 -0.9239 -0.0000
vn 0.0000 0.9000 -0.4359
vn 0.0000 0.8167 -0.5771
vn 0.0000 0.9594 -0.2819
vn 0.0000 -0.9000 0.4359
vn 0.0000 -0.8167 0.5771
vn 0.0000 -0.9594 0.2819
vn -0.5295 0.8483 0.0000
vn -0.6610 0.7504 0.0000
vn -0.3827 0.9239 0.0000
vn 0.5295 -0.8483 -0.0000
vn 0.6610 -0.7504 -0.0000
vn 0.3827 -0.9239 -0.0000
vn -0.1859 0.9699 -0.1573
vn -0.2961 0.9172 -0.2666
vn -0.0698 0.9966 -0.0429
vn 0.1859 -0.9699 0.1573
vn 0.2961 -0.9172 0.2666
vn 0.0698 -0.9966 0.0429
vn 0.0897 0.9746 -0.2051
vn 0.1988 0.9271 -0.3178
vn -0.0226 0.9960 -0.0859
vn -0.0897 -0.9746 0.2051
vn -0.1988 -0.9271 0.3178
vn 0.0226 -0.9960 0.0859
vn 0.2423 0.9247 0.2937
vn 0.3570 0.8512 0.3848
vn 0.1201 0.9736 0.1939
vn -0.2423 -0.9247 -0.2937
vn -0.3570 -0.8512 -0.3848
vn -0.1201 -0.9736 -0.1939
vn -0.1223 0.9529 0.2775
vn -0.2270 0.8931 0.3885
vn -0.0134 0.9873 0.1582
vn 0.1223 -0.9529 -0.2775
vn 0.2270 -0.8931 -0.3885
vn 0.0134 -0.9873 -0.1582
vn -0.0970 0.6353 -0.7661
vn -0.1260 0.5013 -0.8560
vn -0.0651 0.7530 -0.6548
vn 0.0970 -0.6353 0.7661
vn 0.1260 -0.5013 0.8560
vn 0.0651 -0.7530 0.6548
vn 0.5815 0.6353 0.5081
vn 0.6630 0.5013 0.5560
vn 0.4837 0.7530 0.4461
vn -0.5815 -0.6353 -0.5081
vn -0.6630 -0.5013 -0.5560
vn -0.4837 -0.7530 -0.4461
vn -0.3914 0.7397 0.5475
vn -0.4600 0.6198 0.6358
vn -0.3117 0.8403 0.4436
vn 0.3914 -0.7397 -0.5475
vn 0.4600 -0.6198 -0.6358
vn 0.3117 -0.8403 -0.4436
vn 0.0101 0.9844 0.1754
vn 0.0519 0.9431 0.3285
vn -0.0322 0.9993 0.0165
vn -0.0101 -0.9844 -0.1754
vn -0.0519 -0.9431 -0.3285
vn 0.0322 -0.9993 -0.0165
vn 0.1825 0.9824 -0.0408
vn 0.3403 0.9390 -0.0501
vn 0.0186 0.9994 -0.0303
vn -0.1825 -0.9824 0.0408
vn -0.3403 -0.9390 0.0501
vn -0.0186 -0.9994 0.0303
# 78 vertex normals

vt 0.7849 0.2526 0.0000
vt 0.7849 0.0008 0.0000
vt 0.9969 0.0008 0.0000
vt 0.9969 0.2526 0.0000
vt 0.7849 0.5044 0.0000
vt 0.9969 0.5044 0.0000
# 6 texture coords

g polySurface1581
usemtl Atlas_3_Alpha
s off
f 1/1/1 2/2/2 3/3/2 4/4/1 
f 5/5/3 1/1/1 4/4/1 6/6/3 
f 7/1/4 8/4/4 9/3/5 10/2/5 
f 7/1/4 11/5/6 12/6/6 8/4/4 
f 13/1/7 14/2/8 15/3/8 16/4/7 
f 17/5/9 13/1/7 16/4/7 18/6/9 
f 19/1/10 20/4/10 21/3/11 22/2/11 
f 19/1/10 23/5/12 24/6/12 20/4/10 
f 25/1/13 26/2/14 27/3/14 28/4/13 
f 29/5/15 25/1/13 28/4/13 30/6/15 
f 31/1/16 32/4/16 33/3/17 34/2/17 
f 31/1/16 35/5/18 36/6/18 32/4/16 
f 37/1/19 38/2/20 39/3/20 40/4/19 
f 41/5/21 37/1/19 40/4/19 42/6/21 
f 43/1/22 44/4/22 45/3/23 46/2/23 
f 43/1/22 47/5/24 48/6/24 44/4/22 
f 49/1/25 50/2/26 51/3/26 52/4/25 
f 53/5/27 49/1/25 52/4/25 54/6/27 
f 55/1/28 56/4/28 57/3/29 58/2/29 
f 55/1/28 59/5/30 60/6/30 56/4/28 
f 61/1/31 62/2/32 63/3/32 64/4/31 
f 65/5/33 61/1/31 64/4/31 66/6/33 
f 67/1/34 68/4/34 69/3/35 70/2/35 
f 67/1/34 71/5/36 72/6/36 68/4/34 
f 73/1/37 74/2/38 75/3/38 76/4/37 
f 77/5/39 73/1/37 76/4/37 78/6/39 
f 79/1/40 80/4/40 81/3/41 82/2/41 
f 79/1/40 83/5/42 84/6/42 80/4/40 
f 85/1/43 86/2/44 87/3/44 88/4/43 
f 89/5/45 85/1/43 88/4/43 90/6/45 
f 91/1/46 92/4/46 93/3/47 94/2/47 
f 91/1/46 95/5/48 96/6/48 92/4/46 
f 97/1/49 98/2/50 99/3/50 100/4/49 
f 101/5/51 97/1/49 100/4/49 102/6/51 
f 103/1/52 104/4/52 105/3/53 106/2/53 
f 103/1/52 107/5/54 108/6/54 104/4/52 
f 109/1/55 110/2/56 111/3/56 112/4/55 
f 113/5/57 109/1/55 112/4/55 114/6/57 
f 115/1/58 116/4/58 117/3/59 118/2/59 
f 115/1/58 119/5/60 120/6/60 116/4/58 
f 121/1/61 122/2/62 123/3/62 124/4/61 
f 125/5/63 121/1/61 124/4/61 126/6/63 
f 127/1/64 128/4/64 129/3/65 130/2/65 
f 127/1/64 131/5/66 132/6/66 128/4/64 
f 133/1/67 134/2/68 135/3/68 136/4/67 
f 137/5/69 133/1/67 136/4/67 138/6/69 
f 139/1/70 140/4/70 141/3/71 142/2/71 
f 139/1/70 143/5/72 144/6/72 140/4/70 
f 145/1/73 146/2/74 147/3/74 148/4/73 
f 149/5/75 145/1/73 148/4/73 150/6/75 
f 151/1/76 152/4/76 153/3/77 154/2/77 
f 151/1/76 155/5/78 156/6/78 152/4/76 
# 52 polygons

