# 3ds Max Wavefront OBJ Exporter v0.97b - (c)2007 guruware
# File Created: 03.04.2017 17:09:44

mtllib Ceiling_5B.mtl

#
# object pCube127
#

v  -20.0000 -0.5000 20.0000
v  20.0000 -0.5000 20.0000
v  20.0000 0.5000 20.0000
v  -20.0000 0.5000 20.0000
v  20.0000 0.5000 -20.0000
v  -20.0000 0.5000 -20.0000
v  20.0000 -0.5000 -20.0000
v  -20.0000 -0.5000 -20.0000
# 8 vertices

vn 0.0000 -0.0000 1.0000
vn 0.0000 1.0000 0.0000
vn 0.0000 0.0000 -1.0000
vn 0.0000 -1.0000 -0.0000
vn 1.0000 0.0000 -0.0000
vn -1.0000 0.0000 -0.0000
# 6 vertex normals

vt 0.7489 0.7448 0.0000
vt 0.5011 0.7448 0.0000
vt 0.5011 0.7386 0.0000
vt 0.7489 0.7386 0.0000
vt 0.7489 0.7498 0.0000
vt 0.5011 0.7498 0.0000
vt 0.5011 0.5302 0.0000
vt 0.7489 0.5302 0.0000
vt 0.7489 0.5417 0.0000
vt 0.5011 0.5417 0.0000
vt 0.5011 0.5354 0.0000
vt 0.7489 0.5354 0.0000
vt 0.5146 0.7498 0.0000
vt 0.5146 0.5302 0.0000
vt 0.5208 0.5302 0.0000
vt 0.5208 0.7498 0.0000
vt 0.7423 0.5302 0.0000
vt 0.7423 0.7498 0.0000
vt 0.7361 0.7498 0.0000
vt 0.7361 0.5302 0.0000
# 20 texture coords

g pCube127
usemtl Atlas_1
s off
f 1/1/1 2/2/1 3/3/1 4/4/1 
f 4/5/2 3/6/2 5/7/2 6/8/2 
f 6/9/3 5/10/3 7/11/3 8/12/3 
f 8/8/4 7/5/4 2/6/4 1/7/4 
f 2/13/5 7/14/5 5/15/5 3/16/5 
f 8/17/6 1/18/6 4/19/6 6/20/6 
# 6 polygons

