# 3ds Max Wavefront OBJ Exporter v0.97b - (c)2007 guruware
# File Created: 03.04.2017 17:07:31

mtllib Ceiling_1B.mtl

#
# object pCube119
#

v  -20.0000 -0.5000 20.0000
v  20.0000 -0.5000 20.0000
v  20.0000 0.5000 20.0000
v  -20.0000 0.5000 20.0000
v  20.0000 0.5000 -20.0000
v  -20.0000 0.5000 -20.0000
v  20.0000 -0.5000 -20.0000
v  -20.0000 -0.5000 -20.0000
# 8 vertices

vn 0.0000 -0.0000 1.0000
vn 0.0000 1.0000 0.0000
vn 0.0000 0.0000 -1.0000
vn 0.0000 -1.0000 -0.0000
vn 1.0000 0.0000 -0.0000
vn -1.0000 0.0000 -0.0000
# 6 vertex normals

vt 0.9991 0.9947 0.0000
vt 0.7514 0.9947 0.0000
vt 0.7514 0.9885 0.0000
vt 0.9991 0.9885 0.0000
vt 0.9991 0.9997 0.0000
vt 0.7513 0.9997 0.0000
vt 0.7513 0.7801 0.0000
vt 0.9991 0.7801 0.0000
vt 0.9991 0.7916 0.0000
vt 0.7514 0.7916 0.0000
vt 0.7514 0.7854 0.0000
vt 0.9991 0.7854 0.0000
vt 0.7648 0.9997 0.0000
vt 0.7648 0.7802 0.0000
vt 0.7711 0.7802 0.0000
vt 0.7711 0.9997 0.0000
vt 0.9926 0.7802 0.0000
vt 0.9926 0.9997 0.0000
vt 0.9863 0.9997 0.0000
vt 0.9863 0.7802 0.0000
# 20 texture coords

g pCube119
usemtl Atlas_1
s off
f 1/1/1 2/2/1 3/3/1 4/4/1 
f 4/5/2 3/6/2 5/7/2 6/8/2 
f 6/9/3 5/10/3 7/11/3 8/12/3 
f 8/8/4 7/5/4 2/6/4 1/7/4 
f 2/13/5 7/14/5 5/15/5 3/16/5 
f 8/17/6 1/18/6 4/19/6 6/20/6 
# 6 polygons

