# 3ds Max Wavefront OBJ Exporter v0.97b - (c)2007 guruware
# File Created: 03.04.2017 17:10:45

mtllib Chair_1A.mtl

#
# object polySurface1522
#

v  -2.0933 -5.0000 12.7500
v  2.0933 -5.0000 12.7500
v  2.0933 -4.5000 12.7500
v  -2.0933 -4.5000 12.7500
v  2.5000 -4.5000 7.2500
v  -2.5000 -4.5000 7.2500
v  2.5000 -5.0000 7.2500
v  -2.5000 -5.0000 7.2500
v  1.7929 -10.0000 12.9571
v  2.2071 -10.0000 12.9571
v  2.3500 -5.0000 13.1000
v  1.6500 -5.0000 13.1000
v  1.6500 -5.0000 12.4000
v  2.3500 -5.0000 12.4000
v  2.2071 -10.0000 12.5429
v  1.7929 -10.0000 12.5429
v  2.3500 1.5000 14.4000
v  1.6500 1.5000 14.4000
v  2.3500 1.5000 13.9676
v  1.6500 1.5000 13.9676
v  -2.5000 1.1639 14.3672
v  -1.4600 1.0514 14.3672
v  -1.4600 1.9438 14.6920
v  -2.5000 2.0563 14.6920
v  -1.4600 2.1285 14.1844
v  -2.5000 2.2411 14.1844
v  -1.4600 1.2361 13.8596
v  -2.5000 1.3487 13.8596
v  2.5000 1.1639 14.3672
v  2.5000 1.3487 13.8596
v  2.5000 2.2411 14.1844
v  2.5000 2.0563 14.6920
v  1.5000 1.2361 13.8596
v  1.5000 1.0514 14.3672
v  1.5000 1.9438 14.6920
v  1.5000 2.1285 14.1844
v  -2.2071 -10.0000 12.9571
v  -1.7929 -10.0000 12.9571
v  -1.6500 -5.0000 13.1000
v  -2.3500 -5.0000 13.1000
v  -2.3500 -5.0000 12.4000
v  -1.6500 -5.0000 12.4000
v  -1.7929 -10.0000 12.5429
v  -2.2071 -10.0000 12.5429
v  -1.6500 1.5000 14.4000
v  -2.3500 1.5000 14.4000
v  -1.6500 1.5000 13.9676
v  -2.3500 1.5000 13.9676
v  0.7397 -4.5837 12.6788
v  1.2603 -4.5837 12.6788
v  1.2603 1.5000 14.3254
v  0.7397 1.5000 14.3254
v  1.2603 -4.7416 12.2634
v  1.2603 1.5000 14.0689
v  0.7397 -4.7416 12.2634
v  0.7397 1.5000 14.0689
v  -0.2603 -4.5837 12.6788
v  0.2603 -4.5837 12.6788
v  0.4603 1.5000 14.3254
v  -0.4603 1.5000 14.3254
v  0.2603 -4.7416 12.2634
v  0.4603 1.5000 14.0689
v  -0.2603 -4.7416 12.2634
v  -0.4603 1.5000 14.0689
v  -1.2603 -4.5837 12.6788
v  -0.7397 -4.5837 12.6788
v  -0.7397 1.5000 14.3254
v  -1.2603 1.5000 14.3254
v  -0.7397 -4.7416 12.2634
v  -0.7397 1.5000 14.0689
v  -1.2603 -4.7416 12.2634
v  -1.2603 1.5000 14.0689
v  1.8573 -5.5719 8.0046
v  2.0962 -5.5719 8.0046
v  2.0767 -5.5719 12.4510
v  1.8767 -5.5719 12.4510
v  2.0962 -4.9448 8.0046
v  2.0767 -4.9448 12.4510
v  1.8767 -4.9448 12.4510
v  1.8573 -4.9448 8.0046
v  -2.0994 -5.5719 8.0046
v  -1.8606 -5.5719 8.0046
v  -1.8800 -5.5719 12.4510
v  -2.0800 -5.5719 12.4510
v  -1.8606 -4.9448 8.0046
v  -1.8800 -4.9448 12.4510
v  -2.0800 -4.9448 12.4510
v  -2.0994 -4.9448 8.0046
v  -1.7499 -5.5719 7.7911
v  -1.7499 -5.5719 7.5523
v  1.7228 -5.5719 7.5717
v  1.7228 -5.5719 7.7717
v  -1.7499 -4.9448 7.5523
v  1.7228 -4.9448 7.5717
v  1.7228 -4.9448 7.7717
v  -1.7499 -4.9448 7.7911
v  -1.7499 -5.5719 12.7333
v  -1.7499 -5.5719 12.4944
v  1.7228 -5.5719 12.5138
v  1.7228 -5.5719 12.7138
v  -1.7499 -4.9448 12.4944
v  1.7228 -4.9448 12.5138
v  1.7228 -4.9448 12.7138
v  -1.7499 -4.9448 12.7333
v  -2.0949 -4.2581 12.6032
v  2.0949 -4.2581 12.6032
v  1.9886 -4.0161 12.4637
v  -1.9886 -4.0161 12.4637
v  -0.0000 -3.8641 10.1751
v  2.3750 -4.0161 7.4418
v  -2.3750 -4.0161 7.4418
v  2.5019 -4.2581 7.3022
v  -2.5019 -4.2581 7.3022
v  2.3750 -4.5000 7.4418
v  -2.3750 -4.5000 7.4418
v  -1.9886 -4.5000 12.4637
v  1.9886 -4.5000 12.4637
v  1.9676 -10.0042 7.9071
v  2.3814 -9.9897 7.9071
v  2.3498 -4.9878 8.0500
v  1.6502 -5.0122 8.0500
v  1.6502 -5.0122 7.3500
v  2.3498 -4.9878 7.3500
v  2.3814 -9.9897 7.4929
v  1.9676 -10.0042 7.4929
v  -2.3814 -9.9897 7.9071
v  -1.9676 -10.0042 7.9071
v  -1.6502 -5.0122 8.0500
v  -2.3498 -4.9878 8.0500
v  -2.3498 -4.9878 7.3500
v  -1.6502 -5.0122 7.3500
v  -1.9676 -10.0042 7.4929
v  -2.3814 -9.9897 7.4929
# 133 vertices

vn 0.0000 -0.0000 1.0000
vn 0.0000 1.0000 0.0000
vn 0.0000 0.0000 -1.0000
vn 0.0000 -1.0000 -0.0000
vn 0.9973 -0.0000 0.0737
vn -0.9973 -0.0000 0.0737
vn 0.0000 -0.0286 0.9996
vn 0.0000 -0.1344 0.9909
vn 0.0000 0.1386 -0.9904
vn 0.0000 -0.0286 -0.9996
vn 0.9996 -0.0286 -0.0000
vn 0.9999 -0.0133 -0.0000
vn 0.9999 -0.0114 -0.0000
vn -0.9996 -0.0286 -0.0000
vn -0.9999 -0.0114 -0.0000
vn -0.9999 -0.0133 -0.0000
vn 0.0000 -0.1961 0.9806
vn 1.0000 0.0000 0.0000
vn 0.0000 0.2345 -0.9721
vn -1.0000 -0.0000 -0.0000
vn -0.0370 -0.3418 0.9390
vn -0.0092 -0.3420 0.9397
vn -0.0101 -0.3420 0.9396
vn 0.1012 0.9349 0.3403
vn 0.0260 0.9394 0.3419
vn 0.0269 0.9394 0.3419
vn 0.0370 0.3418 -0.9390
vn 0.0101 0.3420 -0.9396
vn 0.0092 0.3420 -0.9397
vn -0.1012 -0.9349 -0.3403
vn -0.0269 -0.9394 -0.3419
vn -0.0260 -0.9394 -0.3419
vn 1.0000 0.0000 -0.0000
vn -1.0000 0.0000 -0.0000
vn 0.0272 -0.9393 -0.3419
vn 0.1052 -0.9345 -0.3401
vn 0.0262 -0.9394 -0.3419
vn 0.0102 -0.3420 0.9396
vn 0.0092 -0.3420 0.9397
vn 0.0385 -0.3418 0.9390
vn -0.0272 0.9393 0.3419
vn -0.0262 0.9394 0.3419
vn -0.1052 0.9345 0.3401
vn -0.0092 0.3420 -0.9397
vn -0.0102 0.3420 -0.9396
vn -0.0385 0.3418 -0.9390
vn -1.0000 0.0000 0.0000
vn 0.0000 -0.2613 0.9653
vn 1.0000 -0.0000 -0.0000
vn 0.0000 0.2779 -0.9606
vn 0.9994 -0.0347 0.0082
vn -0.9994 -0.0347 0.0082
vn 1.0000 -0.0000 0.0044
vn -1.0000 -0.0000 0.0044
vn 0.0056 0.0000 -1.0000
vn 0.0056 -0.0000 1.0000
vn -0.7315 0.0000 0.6818
vn 0.7315 0.0000 0.6818
vn 0.2536 0.9434 0.2139
vn -0.2536 0.9434 0.2139
vn 0.0000 1.0000 0.0005
vn 0.2320 0.9519 -0.2001
vn -0.2320 0.9519 -0.2001
vn 0.7289 0.0000 -0.6846
vn -0.7289 0.0000 -0.6846
vn 0.6082 -0.6118 -0.5057
vn -0.6082 -0.6118 -0.5057
vn -0.6280 -0.5764 0.5229
vn 0.6280 -0.5764 0.5229
vn 0.0010 -0.0286 0.9996
vn 0.0010 -0.0286 -0.9996
vn 0.0349 -0.9994 -0.0000
vn 1.0000 0.0063 0.0000
vn -0.9980 -0.0634 -0.0000
vn -0.0010 -0.0286 0.9996
vn -0.0010 -0.0286 -0.9996
vn -0.0349 -0.9994 -0.0000
vn 0.9980 -0.0634 -0.0000
vn -1.0000 0.0063 0.0000
# 79 vertex normals

vt 0.8584 0.7383 0.0000
vt 0.9316 0.7328 0.0000
vt 0.9323 0.7415 0.0000
vt 0.8590 0.7470 0.0000
vt 0.8462 0.6374 0.0000
vt 0.9197 0.6373 0.0000
vt 0.9268 0.7338 0.0000
vt 0.8391 0.7337 0.0000
vt 0.8435 0.6338 0.0000
vt 0.9310 0.6274 0.0000
vt 0.9316 0.6362 0.0000
vt 0.8442 0.6426 0.0000
vt 0.9404 0.6362 0.0000
vt 0.9404 0.7327 0.0000
vt 0.8303 0.7330 0.0000
vt 0.8374 0.6368 0.0000
vt 0.7517 0.6991 0.0000
vt 0.7518 0.6840 0.0000
vt 0.8577 0.6840 0.0000
vt 0.8579 0.6989 0.0000
vt 0.9099 0.6862 0.0000
vt 0.9099 0.6503 0.0000
vt 0.9457 0.6503 0.0000
vt 0.9457 0.6862 0.0000
vt 0.7517 0.6693 0.0000
vt 0.8580 0.6693 0.0000
vt 0.9985 0.6840 0.0000
vt 0.9986 0.6991 0.0000
vt 0.9985 0.6693 0.0000
vt 0.7839 0.6393 0.0000
vt 0.8220 0.6363 0.0000
vt 0.8220 0.6639 0.0000
vt 0.7839 0.6666 0.0000
vt 0.8220 0.6961 0.0000
vt 0.7839 0.6953 0.0000
vt 0.8221 0.7245 0.0000
vt 0.7839 0.7219 0.0000
vt 0.7839 0.6957 0.0000
vt 0.9985 0.7223 0.0000
vt 0.9673 0.7219 0.0000
vt 0.9673 0.6953 0.0000
vt 0.9985 0.6948 0.0000
vt 0.7527 0.7224 0.0000
vt 0.7527 0.6948 0.0000
vt 0.9306 0.6639 0.0000
vt 0.9673 0.6666 0.0000
vt 0.9673 0.6957 0.0000
vt 0.9306 0.6961 0.0000
vt 0.9306 0.6363 0.0000
vt 0.9673 0.6393 0.0000
vt 0.9306 0.7245 0.0000
vt 0.7688 0.6958 0.0000
vt 0.7669 0.6770 0.0000
vt 0.9906 0.6778 0.0000
vt 0.9886 0.6966 0.0000
vt 0.7555 0.6639 0.0000
vt 0.9902 0.6688 0.0000
vt 0.9924 0.6647 0.0000
vt 0.9949 0.6834 0.0000
vt 0.7648 0.6862 0.0000
vt 0.7669 0.6674 0.0000
vt 0.9878 0.6964 0.0000
vt 0.7600 0.6952 0.0000
vt 0.7671 0.6954 0.0000
vt 0.7674 0.6770 0.0000
vt 0.9904 0.6731 0.0000
vt 0.9899 0.7057 0.0000
vt 0.7580 0.6644 0.0000
vt 0.9878 0.6644 0.0000
vt 0.9942 0.6650 0.0000
vt 0.9942 0.6834 0.0000
vt 0.7652 0.6908 0.0000
vt 0.7651 0.6583 0.0000
vt 0.9852 0.6962 0.0000
vt 0.7629 0.6996 0.0000
vt 0.7837 0.5645 0.0000
vt 0.7837 0.5551 0.0000
vt 0.9584 0.5559 0.0000
vt 0.9584 0.5637 0.0000
vt 0.7832 0.5302 0.0000
vt 0.9642 0.5294 0.0000
vt 0.9644 0.5549 0.0000
vt 0.7833 0.5557 0.0000
vt 0.9642 0.5902 0.0000
vt 0.7832 0.5894 0.0000
vt 0.7833 0.5638 0.0000
vt 0.9644 0.5646 0.0000
vt 0.3778 0.7412 0.0000
vt 0.4285 0.7412 0.0000
vt 0.4273 0.7430 0.0000
vt 0.3790 0.7430 0.0000
vt 0.4032 0.7707 0.0000
vt 0.4319 0.8038 0.0000
vt 0.3744 0.8038 0.0000
vt 0.4335 0.8055 0.0000
vt 0.3728 0.8055 0.0000
vt 0.4300 0.7411 0.0000
vt 0.4349 0.8052 0.0000
vt 0.3714 0.8052 0.0000
vt 0.3763 0.7411 0.0000
vt 0.4334 0.8055 0.0000
vt 0.3743 0.8038 0.0000
vt 0.3686 0.8033 0.0000
vt 0.3733 0.7426 0.0000
vt 0.4272 0.7429 0.0000
vt 0.3790 0.7429 0.0000
vt 0.3777 0.7412 0.0000
vt 0.4330 0.7426 0.0000
vt 0.4377 0.8033 0.0000
vt 0.7614 0.6821 0.0000
vt 0.7614 0.6632 0.0000
vt 0.9897 0.6566 0.0000
vt 0.9897 0.6886 0.0000
vt 0.9879 0.6445 0.0000
vt 0.9897 0.6764 0.0000
vt 0.7614 0.6829 0.0000
vt 0.7603 0.6641 0.0000
vt 0.9122 0.6535 0.0000
vt 0.9517 0.6535 0.0000
vt 0.9517 0.6930 0.0000
vt 0.9122 0.6930 0.0000
vt 0.7614 0.7018 0.0000
vt 0.9897 0.7084 0.0000
vt 0.7603 0.7009 0.0000
vt 0.9879 0.7205 0.0000
# 125 texture coords

g polySurface1522
usemtl Atlas_2
s off
f 1/1/1 2/2/1 3/3/1 4/4/1 
f 4/5/2 3/6/2 5/7/2 6/8/2 
f 6/9/3 5/10/3 7/11/3 8/12/3 
f 8/12/4 7/11/4 2/2/4 1/1/4 
f 2/2/5 7/11/5 5/13/5 3/14/5 
f 8/15/6 1/16/6 4/5/6 6/8/6 
f 9/17/7 10/18/7 11/19/8 12/20/8 
f 13/19/9 14/20/9 15/17/10 16/18/10 
f 16/21/4 15/22/4 10/23/4 9/24/4 
f 10/18/11 15/25/11 14/26/12 11/19/13 
f 16/18/14 9/25/14 12/26/15 13/19/16 
f 12/20/8 11/19/8 17/27/17 18/28/17 
f 11/19/13 14/26/12 19/29/18 17/27/18 
f 14/20/9 13/19/9 20/27/19 19/28/19 
f 13/19/16 12/26/15 18/29/20 20/27/20 
f 21/30/21 22/31/22 23/32/23 24/33/21 
f 24/33/24 23/32/25 25/34/26 26/35/24 
f 26/35/27 25/34/28 27/36/29 28/37/27 
f 28/33/30 27/32/31 22/34/32 21/38/30 
f 29/39/33 30/40/33 31/41/33 32/42/33 
f 28/37/34 21/43/34 24/44/34 26/35/34 
f 33/45/35 30/46/36 29/47/36 34/48/37 
f 35/45/38 34/49/39 29/50/40 32/46/40 
f 36/48/41 35/45/42 32/46/43 31/41/43 
f 33/51/44 36/48/45 31/41/46 30/40/46 
f 25/34/28 36/48/45 33/51/44 27/36/29 
f 22/34/32 27/32/31 33/45/35 34/48/37 
f 23/32/23 22/31/22 34/49/39 35/45/38 
f 25/34/26 23/32/25 35/45/42 36/48/41 
f 37/17/7 38/18/7 39/19/8 40/20/8 
f 41/19/9 42/20/9 43/17/10 44/18/10 
f 44/21/4 43/22/4 38/23/4 37/24/4 
f 38/18/11 43/25/11 42/26/12 39/19/13 
f 44/18/14 37/25/14 40/26/15 41/19/16 
f 40/20/8 39/19/8 45/27/17 46/28/17 
f 39/19/13 42/26/12 47/29/33 45/27/33 
f 42/20/9 41/19/9 48/27/19 47/28/19 
f 41/19/16 40/26/15 46/29/47 48/27/47 
f 49/52/48 50/53/48 51/54/48 52/55/48 
f 50/53/49 53/56/49 54/57/49 51/54/49 
f 53/58/50 55/59/50 56/60/50 54/61/50 
f 55/59/34 49/62/34 52/63/34 56/60/34 
f 57/64/48 58/65/48 59/66/48 60/67/48 
f 58/65/51 61/68/51 62/69/51 59/66/51 
f 61/70/50 63/71/50 64/72/50 62/73/50 
f 63/71/52 57/74/52 60/75/52 64/72/52 
f 65/52/48 66/53/48 67/54/48 68/55/48 
f 66/53/33 69/56/33 70/57/33 67/54/33 
f 69/58/50 71/59/50 72/60/50 70/61/50 
f 71/59/34 65/62/34 68/63/34 72/60/34 
f 73/76/4 74/77/4 75/78/4 76/79/4 
f 75/80/53 74/81/53 77/82/53 78/83/53 
f 73/84/54 76/85/54 79/86/54 80/87/54 
f 81/76/4 82/77/4 83/78/4 84/79/4 
f 83/80/53 82/81/53 85/82/53 86/83/53 
f 81/84/54 84/85/54 87/86/54 88/87/54 
f 89/76/4 90/77/4 91/78/4 92/79/4 
f 91/80/55 90/81/55 93/82/55 94/83/55 
f 89/84/56 92/85/56 95/86/56 96/87/56 
f 97/76/4 98/77/4 99/78/4 100/79/4 
f 99/80/55 98/81/55 101/82/55 102/83/55 
f 97/84/56 100/85/56 103/86/56 104/87/56 
f 105/88/57 106/89/58 107/90/59 108/91/60 
f 109/92/61 107/90/59 110/93/62 
f 111/94/63 110/93/62 112/95/64 113/96/65 
f 106/97/58 112/98/64 110/93/62 107/90/59 
f 113/99/65 105/100/57 108/91/60 111/94/63 
f 113/101/65 112/96/64 114/102/66 115/93/67 
f 115/103/67 116/104/68 105/100/57 113/99/65 
f 116/105/68 117/106/69 106/107/58 105/89/57 
f 117/108/69 114/109/66 112/98/64 106/97/58 
f 109/92/61 110/93/62 111/94/63 
f 108/91/60 109/92/61 111/94/63 
f 108/91/60 107/90/59 109/92/61 
f 118/110/70 119/111/70 120/112/70 121/113/70 
f 122/114/71 123/115/71 124/116/71 125/117/71 
f 125/118/72 124/119/72 119/120/72 118/121/72 
f 119/122/73 124/116/73 123/115/73 120/123/73 
f 125/124/74 118/110/74 121/113/74 122/125/74 
f 126/110/75 127/111/75 128/112/75 129/113/75 
f 130/114/76 131/115/76 132/116/76 133/117/76 
f 133/118/77 132/119/77 127/120/77 126/121/77 
f 127/122/78 132/116/78 131/115/78 128/123/78 
f 133/124/79 126/110/79 129/113/79 130/125/79 
# 80 polygons - 4 triangles

