# 3ds Max Wavefront OBJ Exporter v0.97b - (c)2007 guruware
# File Created: 03.04.2017 17:11:57

mtllib Clock_2.mtl

#
# object polySurface1527
#

v  -3.5000 3.9844 2.2500
v  3.5000 3.9844 2.2500
v  3.5000 21.9844 2.2500
v  -3.5000 21.9844 2.2500
v  -3.5000 21.9844 -2.2500
v  3.5000 21.9844 -2.2500
v  3.5000 3.9844 -2.2500
v  -3.5000 3.9844 -2.2500
v  -4.6413 -0.0156 3.1483
v  4.6413 -0.0156 3.1483
v  3.7500 3.9844 2.5000
v  -3.7500 3.9844 2.5000
v  3.7500 3.9844 -2.5000
v  -3.7500 3.9844 -2.5000
v  4.6413 -0.0156 -3.1483
v  -4.6413 -0.0156 -3.1483
v  -4.0000 21.9366 2.7500
v  4.0000 21.9366 2.7500
v  4.0000 31.9366 2.7500
v  -4.0000 31.9366 2.7500
v  4.0000 31.9366 -2.7500
v  -4.0000 31.9366 -2.7500
v  4.0000 21.9366 -2.7500
v  -4.0000 21.9366 -2.7500
v  -0.8008 33.2544 2.4275
v  0.0000 31.9366 2.4275
v  0.0000 35.6794 2.4275
v  0.0000 35.6794 1.9266
v  -0.8008 33.2544 1.9266
v  0.0000 31.9366 1.9266
v  -3.6977 31.9366 1.9266
v  3.6977 31.9366 2.4275
v  3.6977 31.9366 1.9266
v  0.8008 33.2544 1.9266
v  0.8008 33.2544 2.4275
v  -3.6977 31.9366 2.4275
# 36 vertices

vn 0.0000 -0.0000 1.0000
vn 0.0000 0.0000 -1.0000
vn 1.0000 0.0000 0.0000
vn -1.0000 0.0000 0.0000
vn 0.0000 0.1600 0.9871
vn 0.0000 1.0000 0.0000
vn 0.0000 0.1600 -0.9871
vn 0.9761 0.2175 0.0000
vn -0.9761 0.2175 0.0000
vn 0.0000 -1.0000 -0.0000
vn 1.0000 0.0000 -0.0000
vn -1.0000 0.0000 -0.0000
vn -0.9496 0.3136 0.0000
vn 0.4141 0.9102 0.0000
vn -0.4141 0.9102 0.0000
vn 0.9496 0.3136 0.0000
vn -0.0000 0.0000 -1.0000
# 17 vertex normals

vt 0.0007 0.2243 0.0000
vt 0.0548 0.2243 0.0000
vt 0.0548 0.3634 0.0000
vt 0.0007 0.3634 0.0000
vt 0.1438 0.3634 0.0000
vt 0.0897 0.3634 0.0000
vt 0.0897 0.2243 0.0000
vt 0.1438 0.2243 0.0000
vt 0.0550 0.2243 0.0000
vt 0.0898 0.2243 0.0000
vt 0.0898 0.3634 0.0000
vt 0.0550 0.3634 0.0000
vt 0.2738 0.3970 0.0000
vt 0.3468 0.3970 0.0000
vt 0.3398 0.4289 0.0000
vt 0.2808 0.4289 0.0000
vt 0.0904 0.3428 0.0000
vt 0.0904 0.2635 0.0000
vt 0.1433 0.2635 0.0000
vt 0.1433 0.3428 0.0000
vt 0.2239 0.3969 0.0000
vt 0.2731 0.3969 0.0000
vt 0.2681 0.4290 0.0000
vt 0.2289 0.4290 0.0000
vt 0.1439 0.2635 0.0000
vt 0.2238 0.2635 0.0000
vt 0.2238 0.3635 0.0000
vt 0.1439 0.3635 0.0000
vt 0.2414 0.3633 0.0000
vt 0.2414 0.3091 0.0000
vt 0.2787 0.3091 0.0000
vt 0.2787 0.3633 0.0000
vt 0.2787 0.3629 0.0000
vt 0.2234 0.3629 0.0000
vt 0.2234 0.2938 0.0000
vt 0.2787 0.2938 0.0000
vt 0.2788 0.2635 0.0000
vt 0.2788 0.3635 0.0000
vt 0.3724 0.4085 0.0000
vt 0.3795 0.3968 0.0000
vt 0.3795 0.4299 0.0000
vt 0.3570 0.4240 0.0000
vt 0.3723 0.4240 0.0000
vt 0.3723 0.4270 0.0000
vt 0.3570 0.4270 0.0000
vt 0.3866 0.4085 0.0000
vt 0.4122 0.3968 0.0000
vt 0.3380 0.4270 0.0000
vt 0.3380 0.4240 0.0000
vt 0.3468 0.3968 0.0000
# 50 texture coords

g polySurface1527
usemtl Atlas_2
s off
f 1/1/1 2/2/1 3/3/1 4/4/1 
f 5/5/2 6/6/2 7/7/2 8/8/2 
f 2/9/3 7/10/3 6/11/3 3/12/3 
f 8/9/4 1/10/4 4/11/4 5/12/4 
f 9/13/5 10/14/5 11/15/5 12/16/5 
f 12/17/6 11/18/6 13/19/6 14/20/6 
f 14/15/7 13/16/7 15/13/7 16/14/7 
f 10/21/8 15/22/8 13/23/8 11/24/8 
f 16/21/9 9/22/9 12/23/9 14/24/9 
f 17/25/1 18/26/1 19/27/1 20/28/1 
f 20/29/6 19/30/6 21/31/6 22/32/6 
f 22/33/2 21/34/2 23/35/2 24/36/2 
f 24/29/10 23/30/10 18/31/10 17/32/10 
f 18/26/11 23/37/11 21/38/11 19/27/11 
f 24/26/12 17/37/12 20/38/12 22/27/12 
f 25/39/1 26/40/1 27/41/1 
f 25/42/13 27/43/6 28/44/6 29/45/13 
f 29/46/2 30/40/2 31/47/2 
f 32/48/14 33/49/14 34/42/14 35/45/14 
f 31/48/15 36/49/15 25/42/15 29/45/15 
f 27/44/6 35/45/16 34/42/16 28/43/6 
f 30/40/2 28/41/2 34/39/2 
f 35/46/1 26/40/1 32/47/1 
f 36/50/1 26/40/1 25/39/1 
f 27/41/1 26/40/1 35/46/1 
f 29/46/17 28/41/2 30/40/2 
f 30/40/2 34/39/2 33/50/2 
# 19 polygons - 8 triangles

