# 3ds Max Wavefront OBJ Exporter v0.97b - (c)2007 guruware
# File Created: 03.04.2017 17:16:22

mtllib Couch_3A.mtl

#
# object polySurface1530
#

v  -6.9000 0.0000 -7.4390
v  6.9000 0.0000 -7.4390
v  6.9000 10.2000 -7.9837
v  -6.9000 10.2000 -7.9837
v  6.9000 10.2000 -9.5990
v  -6.9000 10.2000 -9.5990
v  6.9000 0.0000 -9.5990
v  -6.9000 0.0000 -9.5990
v  -9.3000 -0.0000 2.4010
v  -6.9000 -0.0000 2.4010
v  -6.9000 10.4986 2.4010
v  -9.3000 10.4986 2.4010
v  -9.3000 10.2000 -9.5990
v  -9.3000 0.0000 -9.5990
v  6.9000 0.5972 2.4010
v  6.9000 3.5972 2.4010
v  -6.9000 3.5972 2.4010
v  -6.9000 0.5972 2.4010
v  6.9000 3.5972 -7.8138
v  -6.9000 3.5972 -7.8138
v  6.9000 -0.0000 2.4010
v  9.3000 -0.0000 2.4010
v  9.3000 10.4986 2.4010
v  6.9000 10.4986 2.4010
v  9.3000 10.2000 -9.5990
v  9.3000 0.0000 -9.5990
v  6.5109 3.5280 -7.1405
v  6.5109 5.3695 -7.5258
v  6.5109 5.3695 2.1129
v  6.5109 3.5280 2.1129
v  -6.5109 5.3695 2.1129
v  -6.5109 3.5280 2.1129
v  -6.5109 5.3695 -7.5258
v  -6.5109 3.5280 -7.1405
v  0.0000 6.2794 -2.7064
# 35 vertices

vn 0.0000 0.0533 0.9986
vn 0.0000 1.0000 0.0000
vn 0.0000 0.0000 -1.0000
vn 0.0000 -0.0000 1.0000
vn 0.0000 0.9997 -0.0249
vn 1.0000 0.0000 -0.0000
vn -1.0000 0.0000 -0.0000
vn -1.0000 0.0000 0.0000
vn 0.0000 -0.2048 -0.9788
vn 0.0823 0.9937 0.0765
vn -0.0823 0.9937 0.0765
vn 0.0823 0.9937 -0.0765
vn -0.0823 0.9937 -0.0765
# 13 vertex normals

vt 0.0833 0.0671 0.0000
vt 0.1697 0.0671 0.0000
vt 0.1697 0.1310 0.0000
vt 0.0833 0.1310 0.0000
vt 0.1697 0.1411 0.0000
vt 0.0833 0.1411 0.0000
vt 0.0695 0.0671 0.0000
vt 0.0833 0.1274 0.0000
vt 0.0695 0.1274 0.0000
vt 0.0143 0.1412 0.0000
vt 0.0143 0.1274 0.0000
vt 0.0833 0.1412 0.0000
vt 0.0005 0.0671 0.0000
vt 0.0005 0.1257 0.0000
vt 0.1697 0.1243 0.0000
vt 0.2471 0.1243 0.0000
vt 0.2471 0.1411 0.0000
vt 0.2471 0.0671 0.0000
vt 0.0010 0.0595 0.0000
vt 0.0107 0.0615 0.0000
vt 0.0107 0.0107 0.0000
vt 0.0010 0.0107 0.0000
vt 0.0791 0.0010 0.0000
vt 0.0791 0.0107 0.0000
vt 0.0107 0.0010 0.0000
vt 0.0449 0.0361 0.0000
vt 0.0791 0.0615 0.0000
# 27 texture coords

g polySurface1530
usemtl Atlas_2
s off
f 1/1/1 2/2/1 3/3/1 4/4/1 
f 4/4/2 3/3/2 5/5/2 6/6/2 
f 6/3/3 5/4/3 7/1/3 8/2/3 
f 9/7/4 10/1/4 11/8/4 12/9/4 
f 12/10/5 11/11/5 6/8/5 13/12/5 
f 13/8/3 6/9/3 8/7/3 14/1/3 
f 10/13/6 8/7/6 6/9/6 11/14/6 
f 14/13/7 9/7/7 12/9/7 13/14/7 
f 15/5/4 16/15/4 17/16/4 18/17/4 
f 19/2/2 20/18/2 17/16/2 16/15/2 
f 21/7/4 22/1/4 23/8/4 24/9/4 
f 24/10/5 23/11/5 25/8/5 5/12/5 
f 5/8/3 25/9/3 26/7/3 7/1/3 
f 22/13/6 26/7/6 25/9/6 23/14/6 
f 7/13/8 21/7/8 24/9/8 5/14/8 
f 27/19/6 28/20/6 29/21/6 30/22/6 
f 30/23/4 29/24/4 31/21/4 32/25/4 
f 32/22/7 31/21/7 33/20/7 34/19/7 
f 34/23/9 33/24/9 28/21/9 27/25/9 
f 29/24/10 35/26/2 31/21/11 
f 28/27/12 35/26/2 29/24/10 
f 28/27/12 33/20/13 35/26/2 
f 31/21/11 35/26/2 33/20/13 
# 19 polygons - 4 triangles

