# 3ds Max Wavefront OBJ Exporter v0.97b - (c)2007 guruware
# File Created: 03.04.2017 17:15:23

mtllib Couch_1A.mtl

#
# object polySurface1528
#

v  -7.5246 1.5848 2.4010
v  -5.5246 1.5848 2.4010
v  -5.5246 9.5848 2.4010
v  -7.5246 9.5848 2.4010
v  -5.5246 9.0871 -8.1197
v  -7.5246 9.0871 -8.1197
v  -5.5246 2.0824 -7.5990
v  -7.5246 2.0824 -7.5990
v  -5.5246 2.1871 -5.5990
v  5.9754 2.1871 -5.5990
v  5.9754 12.7982 -6.9838
v  -5.5246 12.7982 -6.9838
v  5.9754 12.7386 -8.1197
v  -5.5246 12.7386 -8.1197
v  5.9754 2.0824 -7.5963
v  -5.5246 2.0824 -7.5963
v  5.9754 2.0110 2.4010
v  5.9754 4.5110 2.4010
v  -5.5246 4.5110 2.4010
v  -5.5246 2.0110 2.4010
v  5.9754 4.5110 -6.1114
v  -5.5246 4.5110 -6.1114
v  -5.5246 2.0110 -5.7711
v  5.9754 2.0110 -5.7711
v  5.9754 1.5848 2.4010
v  7.9754 1.5848 2.4010
v  7.9754 9.5848 2.4010
v  5.9754 9.5848 2.4010
v  7.9754 9.0871 -8.1197
v  5.9754 9.0871 -8.1197
v  7.9754 2.0824 -7.5990
v  5.9754 2.0824 -7.5990
v  -7.2768 0.0078 1.9789
v  -5.9768 0.0078 1.9789
v  -5.9768 1.7078 1.9789
v  -7.2768 1.7078 1.9789
v  -7.2768 1.7078 0.6789
v  -5.9768 1.7078 0.6789
v  -5.9768 0.0078 0.6789
v  -7.2768 0.0078 0.6789
v  6.3424 0.0078 1.9789
v  7.6424 0.0078 1.9789
v  7.6424 1.7078 1.9789
v  6.3424 1.7078 1.9789
v  6.3424 1.7078 0.6789
v  7.6424 1.7078 0.6789
v  7.6424 0.0078 0.6789
v  6.3424 0.0078 0.6789
v  -7.2768 0.0078 -5.8402
v  -5.9768 0.0078 -5.8402
v  -5.9768 2.1479 -5.8402
v  -7.2768 2.1479 -5.8402
v  -7.2768 2.1479 -7.1402
v  -5.9768 2.1479 -7.1402
v  -5.9768 0.0078 -7.1402
v  -7.2768 0.0078 -7.1402
v  6.3424 0.0078 -5.8402
v  7.6424 0.0078 -5.8402
v  7.6424 2.1479 -5.8402
v  6.3424 2.1479 -5.8402
v  6.3424 2.1479 -7.1402
v  7.6424 2.1479 -7.1402
v  7.6424 0.0078 -7.1402
v  6.3424 0.0078 -7.1402
# 64 vertices

vn 0.0000 -0.0000 1.0000
vn 0.0000 0.9989 -0.0473
vn 0.0000 -0.0741 -0.9972
vn 0.0000 -0.9988 -0.0497
vn 1.0000 0.0000 -0.0000
vn -1.0000 0.0000 0.0000
vn 0.0000 0.1294 0.9916
vn 0.0000 0.9986 -0.0523
vn 0.0000 -0.0491 -0.9988
vn 0.0000 -0.9986 0.0523
vn 0.0000 1.0000 0.0000
vn 0.0000 -1.0000 -0.0000
vn 0.0000 0.0000 -1.0000
vn -1.0000 0.0000 -0.0000
# 14 vertex normals

vt 0.0749 0.2127 0.0000
vt 0.0600 0.2127 0.0000
vt 0.0600 0.1531 0.0000
vt 0.0749 0.1531 0.0000
vt 0.0600 0.1440 0.0000
vt 0.0749 0.1440 0.0000
vt 0.0749 0.2224 0.0000
vt 0.0600 0.2224 0.0000
vt 0.0004 0.2224 0.0000
vt 0.0041 0.1478 0.0000
vt 0.0563 0.1440 0.0000
vt 0.1564 0.1444 0.0000
vt 0.2326 0.1444 0.0000
vt 0.2326 0.2152 0.0000
vt 0.1564 0.2152 0.0000
vt 0.2326 0.2220 0.0000
vt 0.1564 0.2220 0.0000
vt 0.2460 0.1445 0.0000
vt 0.2327 0.1445 0.0000
vt 0.2330 0.2152 0.0000
vt 0.2405 0.2152 0.0000
vt 0.1563 0.1442 0.0000
vt 0.1563 0.1619 0.0000
vt 0.0750 0.1619 0.0000
vt 0.0750 0.1442 0.0000
vt 0.1563 0.2222 0.0000
vt 0.0750 0.2222 0.0000
vt 0.3102 0.7909 0.0000
vt 0.3590 0.7909 0.0000
vt 0.3590 0.8547 0.0000
vt 0.3102 0.8547 0.0000
vt 0.2615 0.7909 0.0000
vt 0.2615 0.8547 0.0000
vt 0.3094 0.7775 0.0000
vt 0.3637 0.7775 0.0000
vt 0.3637 0.8681 0.0000
vt 0.3094 0.8681 0.0000
vt 0.2552 0.7775 0.0000
vt 0.2552 0.8681 0.0000
# 39 texture coords

g polySurface1528
usemtl Atlas_2
s off
f 1/1/1 2/2/1 3/3/1 4/4/1 
f 4/5/2 3/6/2 5/7/2 6/8/2 
f 6/3/3 5/4/3 7/1/3 8/2/3 
f 8/7/4 7/8/4 2/5/4 1/6/4 
f 2/9/5 7/10/5 5/11/5 3/8/5 
f 8/11/6 1/8/6 4/9/6 6/10/6 
f 9/12/7 10/13/7 11/14/7 12/15/7 
f 12/15/8 11/14/8 13/16/8 14/17/8 
f 14/14/9 13/15/9 15/12/9 16/13/9 
f 16/15/10 15/14/10 10/16/10 9/17/10 
f 10/18/5 15/19/5 13/20/5 11/21/5 
f 16/19/6 9/18/6 12/21/6 14/20/6 
f 17/22/1 18/23/1 19/24/1 20/25/1 
f 21/26/11 22/27/11 19/24/11 18/23/11 
f 23/26/12 24/27/12 17/24/12 20/23/12 
f 25/1/1 26/2/1 27/3/1 28/4/1 
f 28/5/2 27/6/2 29/7/2 30/8/2 
f 30/3/3 29/4/3 31/1/3 32/2/3 
f 32/7/4 31/8/4 26/5/4 25/6/4 
f 26/9/5 31/10/5 29/11/5 27/8/5 
f 32/11/6 25/8/6 28/9/6 30/10/6 
f 33/28/1 34/29/1 35/30/1 36/31/1 
f 37/30/13 38/31/13 39/28/13 40/29/13 
f 34/32/5 39/28/5 38/31/5 35/33/5 
f 40/32/14 33/28/14 36/31/14 37/33/14 
f 41/28/1 42/29/1 43/30/1 44/31/1 
f 45/30/13 46/31/13 47/28/13 48/29/13 
f 42/32/5 47/28/5 46/31/5 43/33/5 
f 48/32/14 41/28/14 44/31/14 45/33/14 
f 49/34/1 50/35/1 51/36/1 52/37/1 
f 53/36/13 54/37/13 55/34/13 56/35/13 
f 50/38/5 55/34/5 54/37/5 51/39/5 
f 56/38/14 49/34/14 52/37/14 53/39/14 
f 57/28/1 58/29/1 59/30/1 60/31/1 
f 61/30/13 62/31/13 63/28/13 64/29/13 
f 58/32/5 63/28/5 62/31/5 59/33/5 
f 64/32/14 57/28/14 60/31/14 61/33/14 
# 37 polygons

