# 3ds Max Wavefront OBJ Exporter v0.97b - (c)2007 guruware
# File Created: 03.04.2017 17:18:30

mtllib Cup_3.mtl

#
# object polySurface1541
#

v  0.4311 0.1058 -0.7035
v  -0.0647 0.1058 -0.8225
v  -0.1157 2.8594 -1.4702
v  0.7706 2.8594 -1.2574
v  -0.5358 0.1058 -0.6274
v  -0.9578 2.8594 -1.1214
v  -0.8023 0.1058 -0.1926
v  -1.4340 2.8594 -0.3443
v  -0.7623 0.1058 0.3157
v  -1.3625 2.8594 0.5644
v  -0.4311 0.1058 0.7035
v  -0.7706 2.8594 1.2574
v  0.0647 0.1058 0.8225
v  0.1157 2.8594 1.4702
v  0.5358 0.1058 0.6274
v  0.9578 2.8594 1.1214
v  0.8023 0.1058 0.1926
v  1.4340 2.8594 0.3443
v  0.7623 0.1058 -0.3157
v  1.3625 2.8594 -0.5644
v  -0.6676 3.8564 1.0894
v  -1.1804 3.8564 0.4889
v  -1.2423 3.8564 -0.2983
v  -0.8298 3.8564 -0.9715
v  -0.1002 3.8564 -1.2737
v  0.6676 3.8564 -1.0894
v  1.1804 3.8564 -0.4889
v  1.2423 3.8564 0.2983
v  0.8298 3.8564 0.9715
v  0.1002 3.8564 1.2737
v  -0.0769 4.1990 -0.9772
v  0.5121 4.1990 -0.8357
v  0.6590 3.8156 -1.0753
v  -0.0990 3.8156 -1.2573
v  -0.6366 4.1990 -0.7453
v  -0.8191 3.8156 -0.9590
v  -0.9531 4.1990 -0.2288
v  -1.2263 3.8156 -0.2944
v  -0.9056 4.1990 0.3751
v  -1.1652 3.8156 0.4826
v  -0.5121 4.1990 0.8357
v  -0.6590 3.8156 1.0753
v  0.0769 4.1990 0.9772
v  0.0990 3.8156 1.2573
v  0.6366 4.1990 0.7453
v  0.8191 3.8156 0.9590
v  0.9531 4.1990 0.2288
v  1.2263 3.8156 0.2944
v  0.9056 4.1990 -0.3751
v  1.1652 3.8156 -0.4826
v  -0.2187 4.1703 0.2187
v  0.2187 4.1703 0.2187
v  0.1435 4.6077 0.1435
v  -0.1435 4.6077 0.1435
v  0.1435 4.6077 -0.1435
v  -0.1435 4.6077 -0.1435
v  0.2187 4.1703 -0.2187
v  -0.2187 4.1703 -0.2187
# 58 vertices

vn 0.5085 -0.2296 -0.8299
vn -0.0764 -0.2296 -0.9703
vn -0.0780 -0.1036 -0.9916
vn 0.5197 -0.1036 -0.8481
vn -0.6321 -0.2296 -0.7401
vn -0.6460 -0.1036 -0.7563
vn -0.9464 -0.2296 -0.2272
vn -0.9671 -0.1036 -0.2322
vn -0.8992 -0.2296 0.3725
vn -0.9189 -0.1036 0.3806
vn -0.5085 -0.2296 0.8299
vn -0.5197 -0.1036 0.8481
vn 0.0764 -0.2296 0.9703
vn 0.0780 -0.1036 0.9916
vn 0.6321 -0.2296 0.7401
vn 0.6460 -0.1036 0.7563
vn 0.9464 -0.2296 0.2272
vn 0.9671 -0.1036 0.2322
vn 0.8992 -0.2296 -0.3725
vn 0.9189 -0.1036 -0.3806
vn 0.0000 -1.0000 -0.0000
vn -0.5126 0.1940 0.8364
vn -0.9063 0.1940 0.3754
vn -0.9539 0.1940 -0.2290
vn -0.6371 0.1940 -0.7460
vn -0.0770 0.1940 -0.9780
vn 0.5126 0.1940 -0.8364
vn 0.9063 0.1940 -0.3754
vn 0.9539 0.1940 0.2290
vn 0.6371 0.1940 0.7460
vn 0.0770 0.1940 0.9780
vn 0.0000 1.0000 0.0000
vn -0.0633 0.5912 -0.8041
vn 0.4214 0.5912 -0.6877
vn -0.5238 0.5912 -0.6133
vn -0.7843 0.5912 -0.1883
vn -0.7452 0.5912 0.3087
vn -0.4214 0.5912 0.6877
vn 0.0633 0.5912 0.8041
vn 0.5238 0.5912 0.6133
vn 0.7843 0.5912 0.1883
vn 0.7452 0.5912 -0.3087
vn 0.0000 1.0000 -0.0000
vn 0.0000 0.1695 0.9855
vn 0.0000 0.1695 -0.9855
vn 0.9855 0.1695 0.0000
vn -0.9855 0.1695 0.0000
# 47 vertex normals

vt 0.9684 0.7870 0.0000
vt 0.9753 0.7872 0.0000
vt 0.9765 0.8243 0.0000
vt 0.9652 0.8240 0.0000
vt 0.9822 0.7868 0.0000
vt 0.9880 0.8239 0.0000
vt 0.9889 0.7856 0.0000
vt 0.9997 0.8233 0.0000
vt 0.9616 0.7864 0.0000
vt 0.9538 0.8230 0.0000
vt 0.9550 0.7849 0.0000
vt 0.9421 0.8217 0.0000
vt 0.9967 0.8513 0.0000
vt 0.9941 0.8556 0.0000
vt 0.9894 0.8576 0.0000
vt 0.9845 0.8564 0.0000
vt 0.9812 0.8525 0.0000
vt 0.9808 0.8475 0.0000
vt 0.9835 0.8432 0.0000
vt 0.9881 0.8413 0.0000
vt 0.9930 0.8424 0.0000
vt 0.9963 0.8463 0.0000
vt 0.9761 0.8375 0.0000
vt 0.9872 0.8372 0.0000
vt 0.9979 0.8371 0.0000
vt 0.9649 0.8373 0.0000
vt 0.9538 0.8365 0.0000
vt 0.9431 0.8358 0.0000
vt 0.9878 0.8600 0.0000
vt 0.9815 0.8574 0.0000
vt 0.9780 0.8516 0.0000
vt 0.9785 0.8449 0.0000
vt 0.9829 0.8397 0.0000
vt 0.9895 0.8381 0.0000
vt 0.9958 0.8407 0.0000
vt 0.9993 0.8465 0.0000
vt 0.9988 0.8533 0.0000
vt 0.9944 0.8585 0.0000
vt 0.9656 0.8041 0.0000
vt 0.9750 0.8040 0.0000
vt 0.9751 0.8109 0.0000
vt 0.9655 0.8109 0.0000
vt 0.9554 0.8039 0.0000
vt 0.9546 0.8112 0.0000
vt 0.9458 0.8020 0.0000
vt 0.9431 0.8090 0.0000
vt 0.9858 0.8035 0.0000
vt 0.9867 0.8114 0.0000
vt 0.9964 0.8015 0.0000
vt 0.9994 0.8091 0.0000
vt 0.9780 0.8517 0.0000
vt 0.9895 0.8382 0.0000
vt 0.9958 0.8408 0.0000
vt 0.9714 0.8536 0.0000
vt 0.9571 0.8535 0.0000
vt 0.9571 0.8388 0.0000
vt 0.9714 0.8388 0.0000
vt 0.9691 0.8526 0.0000
vt 0.9589 0.8526 0.0000
vt 0.9589 0.8424 0.0000
vt 0.9691 0.8424 0.0000
vt 0.9428 0.8536 0.0000
vt 0.9428 0.8388 0.0000
# 63 texture coords

g polySurface1541
usemtl Atlas_2
s off
f 1/1/1 2/2/2 3/3/3 4/4/4 
f 2/2/2 5/5/5 6/6/6 3/3/3 
f 5/5/5 7/7/7 8/8/8 6/6/6 
f 7/7/7 9/5/9 10/6/10 8/8/8 
f 9/5/9 11/2/11 12/3/12 10/6/10 
f 11/2/11 13/1/13 14/4/14 12/3/12 
f 13/1/13 15/9/15 16/10/16 14/4/14 
f 15/9/15 17/11/17 18/12/18 16/10/16 
f 17/11/17 19/9/19 20/10/20 18/12/18 
f 19/9/19 1/1/1 4/4/4 20/10/20 
f 17/13/21 15/14/21 13/15/21 11/16/21 
f 17/13/21 11/16/21 9/17/21 7/18/21 
f 17/13/21 7/18/21 5/19/21 2/20/21 
f 17/13/21 2/20/21 1/21/21 19/22/21 
f 10/6/10 12/3/12 21/23/22 22/24/23 
f 8/8/8 10/6/10 22/24/23 23/25/24 
f 6/6/6 8/8/8 23/25/24 24/24/25 
f 3/3/3 6/6/6 24/24/25 25/23/26 
f 4/4/4 3/3/3 25/23/26 26/26/27 
f 20/10/20 4/4/4 26/26/27 27/27/28 
f 18/12/18 20/10/20 27/27/28 28/28/29 
f 16/10/16 18/12/18 28/28/29 29/27/30 
f 14/4/14 16/10/16 29/27/30 30/26/31 
f 12/3/12 14/4/14 30/26/31 21/23/22 
f 25/29/32 24/30/32 23/31/32 22/32/32 
f 25/29/32 22/32/32 21/33/32 30/34/32 
f 25/29/32 30/34/32 29/35/32 28/36/32 
f 25/29/32 28/36/32 27/37/32 26/38/32 
f 31/39/33 32/40/34 33/41/34 34/42/33 
f 35/43/35 31/39/33 34/42/33 36/44/35 
f 37/45/36 35/43/35 36/44/35 38/46/36 
f 39/43/37 37/45/36 38/46/36 40/44/37 
f 41/39/38 39/43/37 40/44/37 42/42/38 
f 43/40/39 41/39/38 42/42/38 44/41/39 
f 45/47/40 43/40/39 44/41/39 46/48/40 
f 47/49/41 45/47/40 46/48/40 48/50/41 
f 49/47/42 47/49/41 48/50/41 50/48/42 
f 32/40/34 49/47/42 50/48/42 33/41/34 
f 31/29/43 35/30/43 37/51/43 39/32/43 
f 31/29/43 39/32/43 41/33/43 43/52/43 
f 31/29/43 43/52/43 45/53/43 47/36/43 
f 31/29/43 47/36/43 49/37/43 32/38/43 
f 51/54/44 52/55/44 53/56/44 54/57/44 
f 54/58/32 53/59/32 55/60/32 56/61/32 
f 56/56/45 55/57/45 57/54/45 58/55/45 
f 52/55/46 57/62/46 55/63/46 53/56/46 
f 58/55/47 51/62/47 54/63/47 56/56/47 
# 47 polygons

