# 3ds Max Wavefront OBJ Exporter v0.97b - (c)2007 guruware
# File Created: 03.04.2017 17:18:17

mtllib Cup_2.mtl

#
# object polySurface1540
#

v  0.4582 0.0272 -0.7477
v  -0.0688 0.0272 -0.8743
v  -0.0785 2.0123 -0.9969
v  0.5225 2.0123 -0.8526
v  -0.5695 0.0272 -0.6668
v  -0.6494 2.0123 -0.7604
v  -0.8527 0.0272 -0.2047
v  -0.9724 2.0123 -0.2334
v  -0.8102 0.0272 0.3356
v  -0.9239 2.0123 0.3827
v  -0.4582 0.0272 0.7477
v  -0.5225 2.0123 0.8526
v  0.0688 0.0272 0.8743
v  0.0785 2.0123 0.9969
v  0.5695 0.0272 0.6668
v  0.6494 2.0123 0.7604
v  0.8527 0.0272 0.2047
v  0.9724 2.0123 0.2334
v  0.8102 0.0272 -0.3356
v  0.9239 2.0123 -0.3827
v  0.7268 0.2396 -0.3011
v  0.4111 0.2396 -0.6708
v  -0.0617 0.2396 -0.7843
v  -0.5109 0.2396 -0.5982
v  -0.7650 0.2396 -0.1837
v  -0.7268 0.2396 0.3011
v  -0.4111 0.2396 0.6708
v  0.0617 0.2396 0.7843
v  0.5109 0.2396 0.5982
v  0.7650 0.2396 0.1837
v  -0.0704 2.0123 -0.8943
v  0.4687 2.0123 -0.7649
v  -0.5826 2.0123 -0.6822
v  -0.8723 2.0123 -0.2094
v  -0.8288 2.0123 0.3433
v  -0.4687 2.0123 0.7649
v  0.0704 2.0123 0.8943
v  0.5826 2.0123 0.6822
v  0.8723 2.0123 0.2094
v  0.8288 2.0123 -0.3433
v  1.2927 0.8605 0.0228
v  0.8486 0.6342 0.0228
v  0.8400 0.4702 0.0228
v  1.4305 0.7711 0.0228
v  1.3188 1.3583 0.0228
v  1.4652 1.4329 0.0228
v  0.9008 1.6298 0.0228
v  0.9093 1.7938 0.0228
v  0.8400 0.4702 -0.1414
v  1.4305 0.7711 -0.1414
v  1.4652 1.4329 -0.1414
v  0.9093 1.7938 -0.1414
v  0.8486 0.6342 -0.1414
v  1.2927 0.8605 -0.1414
v  1.3188 1.3583 -0.1414
v  0.9008 1.6298 -0.1414
v  1.0712 -0.0705 -1.0712
v  0.0000 -0.0705 -1.5150
v  0.0000 0.0272 -1.4831
v  1.0487 0.0272 -1.0487
v  -1.0712 -0.0705 -1.0712
v  -1.0487 0.0272 -1.0487
v  -1.5150 -0.0705 -0.0000
v  -1.4831 0.0272 0.0000
v  -1.0712 -0.0705 1.0712
v  -1.0487 0.0272 1.0487
v  0.0000 -0.0705 1.5150
v  0.0000 0.0272 1.4831
v  1.0712 -0.0705 1.0712
v  1.0487 0.0272 1.0487
v  1.5150 -0.0705 -0.0000
v  1.4831 0.0272 0.0000
# 72 vertices

vn 0.5215 -0.0619 -0.8510
vn -0.0783 -0.0619 -0.9950
vn -0.6482 -0.0619 -0.7589
vn -0.9705 -0.0619 -0.2330
vn -0.9221 -0.0619 0.3820
vn -0.5215 -0.0619 0.8510
vn 0.0783 -0.0619 0.9950
vn 0.6482 -0.0619 0.7589
vn 0.9705 -0.0619 0.2330
vn 0.9221 -0.0619 -0.3820
vn 0.0000 1.0000 0.0000
vn 0.0000 1.0000 -0.0000
vn -0.5215 0.0621 0.8510
vn 0.0783 0.0621 0.9950
vn 0.6482 0.0621 0.7589
vn 0.9705 0.0621 0.2330
vn 0.9221 0.0621 -0.3819
vn 0.5215 0.0621 -0.8510
vn -0.0783 0.0621 -0.9950
vn -0.6482 0.0621 -0.7589
vn -0.9705 0.0621 -0.2330
vn -0.9221 0.0621 0.3819
vn 0.0000 -0.0000 1.0000
vn -0.0000 -0.0000 1.0000
vn 0.4540 -0.8910 -0.0000
vn 0.9986 -0.0523 -0.0000
vn 0.5446 0.8387 0.0000
vn -0.0000 0.0000 -1.0000
vn 0.0000 0.0000 -1.0000
vn -0.4540 0.8910 0.0000
vn -0.9986 0.0523 0.0000
vn -0.5446 -0.8387 -0.0000
vn 0.3664 0.2882 -0.8847
vn -0.3664 0.2882 -0.8847
vn -0.8847 0.2882 -0.3664
vn -0.8847 0.2882 0.3664
vn -0.3664 0.2882 0.8847
vn 0.3664 0.2882 0.8847
vn 0.8847 0.2882 0.3664
vn 0.8847 0.2882 -0.3664
# 40 vertex normals

vt 0.9669 0.8627 0.0000
vt 0.9788 0.8627 0.0000
vt 0.9790 0.9075 0.0000
vt 0.9654 0.9075 0.0000
vt 0.9901 0.8627 0.0000
vt 0.9919 0.9075 0.0000
vt 0.9965 0.8627 0.0000
vt 0.9992 0.9075 0.0000
vt 0.9949 0.8627 0.0000
vt 0.9827 0.8627 0.0000
vt 0.9853 0.9077 0.0000
vt 0.9748 0.8627 0.0000
vt 0.9762 0.9075 0.0000
vt 0.9629 0.8627 0.0000
vt 0.9627 0.9075 0.0000
vt 0.9516 0.8627 0.0000
vt 0.9498 0.9075 0.0000
vt 0.9452 0.8627 0.0000
vt 0.9425 0.9075 0.0000
vt 0.9468 0.8627 0.0000
vt 0.9589 0.8627 0.0000
vt 0.9564 0.9077 0.0000
vt 0.9964 0.9275 0.0000
vt 0.9911 0.9337 0.0000
vt 0.9832 0.9356 0.0000
vt 0.9758 0.9325 0.0000
vt 0.9715 0.9256 0.0000
vt 0.9722 0.9175 0.0000
vt 0.9774 0.9113 0.0000
vt 0.9853 0.9094 0.0000
vt 0.9928 0.9125 0.0000
vt 0.9970 0.9194 0.0000
vt 0.9836 0.8954 0.0000
vt 0.9700 0.8986 0.0000
vt 0.9702 0.8963 0.0000
vt 0.9824 0.8934 0.0000
vt 0.9571 0.8933 0.0000
vt 0.9586 0.8915 0.0000
vt 0.9498 0.8814 0.0000
vt 0.9521 0.8809 0.0000
vt 0.9498 0.8709 0.0000
vt 0.9509 0.8848 0.0000
vt 0.9531 0.8839 0.0000
vt 0.9521 0.8714 0.0000
vt 0.9600 0.8954 0.0000
vt 0.9612 0.8934 0.0000
vt 0.9736 0.8986 0.0000
vt 0.9734 0.8963 0.0000
vt 0.9864 0.8933 0.0000
vt 0.9849 0.8915 0.0000
vt 0.9937 0.8814 0.0000
vt 0.9915 0.8809 0.0000
vt 0.9937 0.8709 0.0000
vt 0.9926 0.8848 0.0000
vt 0.9905 0.8839 0.0000
vt 0.9915 0.8714 0.0000
vt 0.9759 0.9027 0.0000
vt 0.9637 0.9027 0.0000
vt 0.9639 0.8627 0.0000
vt 0.9746 0.8627 0.0000
vt 0.9522 0.9027 0.0000
vt 0.9538 0.8627 0.0000
vt 0.9457 0.9027 0.0000
vt 0.9481 0.8627 0.0000
vt 0.9457 0.9026 0.0000
vt 0.9581 0.9027 0.0000
vt 0.9604 0.8627 0.0000
vt 0.9495 0.8628 0.0000
vt 0.9662 0.9027 0.0000
vt 0.9675 0.8627 0.0000
vt 0.9784 0.9027 0.0000
vt 0.9782 0.8627 0.0000
vt 0.9899 0.9027 0.0000
vt 0.9883 0.8627 0.0000
vt 0.9965 0.9027 0.0000
vt 0.9940 0.8627 0.0000
vt 0.9965 0.9026 0.0000
vt 0.9840 0.9027 0.0000
vt 0.9817 0.8627 0.0000
vt 0.9926 0.8628 0.0000
vt 0.9802 0.8761 0.0000
vt 0.9972 0.8761 0.0000
vt 0.9990 0.8804 0.0000
vt 0.9805 0.8804 0.0000
vt 0.9614 0.8761 0.0000
vt 0.9612 0.8804 0.0000
vt 0.9445 0.8761 0.0000
vt 0.9427 0.8804 0.0000
vt 0.9990 0.8854 0.0000
vt 0.9805 0.8854 0.0000
vt 0.9612 0.8854 0.0000
vt 0.9427 0.8854 0.0000
vt 0.9962 0.8897 0.0000
vt 0.9803 0.8897 0.0000
vt 0.9614 0.8897 0.0000
vt 0.9454 0.8897 0.0000
vt 0.9953 0.8947 0.0000
vt 0.9803 0.8947 0.0000
vt 0.9614 0.8947 0.0000
vt 0.9464 0.8947 0.0000
vt 0.9708 0.9173 0.0000
vt 0.9708 0.9292 0.0000
vt 0.9699 0.9288 0.0000
vt 0.9699 0.9177 0.0000
vt 0.9624 0.9376 0.0000
vt 0.9621 0.9366 0.0000
vt 0.9506 0.9376 0.0000
vt 0.9509 0.9367 0.0000
vt 0.9422 0.9292 0.0000
vt 0.9431 0.9288 0.0000
vt 0.9422 0.9173 0.0000
vt 0.9431 0.9177 0.0000
vt 0.9506 0.9089 0.0000
vt 0.9509 0.9098 0.0000
vt 0.9624 0.9089 0.0000
vt 0.9621 0.9098 0.0000
# 116 texture coords

g polySurface1540
usemtl Atlas_2
s off
f 1/1/1 2/2/2 3/3/2 4/4/1 
f 2/2/2 5/5/3 6/6/3 3/3/2 
f 5/5/3 7/7/4 8/8/4 6/6/3 
f 7/9/4 9/10/5 10/11/5 8/8/4 
f 9/10/5 11/12/6 12/13/6 10/11/5 
f 11/12/6 13/14/7 14/15/7 12/13/6 
f 13/14/7 15/16/8 16/17/8 14/15/7 
f 15/16/8 17/18/9 18/19/9 16/17/8 
f 17/20/9 19/21/10 20/22/10 18/19/9 
f 19/21/10 1/1/1 4/4/1 20/22/10 
f 21/23/11 22/24/11 23/25/11 24/26/11 
f 21/23/11 24/26/11 25/27/11 26/28/11 
f 21/23/11 26/28/11 27/29/11 28/30/11 
f 21/23/11 28/30/11 29/31/11 30/32/11 
f 4/33/11 3/34/12 31/35/12 32/36/11 
f 3/34/12 6/37/12 33/38/12 31/35/12 
f 6/37/12 8/39/11 34/40/11 33/38/12 
f 8/41/11 10/42/11 35/43/11 34/44/11 
f 10/42/11 12/45/11 36/46/11 35/43/11 
f 12/45/11 14/47/11 37/48/11 36/46/11 
f 14/47/11 16/49/11 38/50/11 37/48/11 
f 16/49/11 18/51/11 39/52/11 38/50/11 
f 18/53/11 20/54/11 40/55/11 39/56/11 
f 20/54/11 4/33/11 32/36/11 40/55/11 
f 32/57/13 31/58/14 23/59/14 22/60/13 
f 31/58/14 33/61/15 24/62/15 23/59/14 
f 33/61/15 34/63/16 25/64/16 24/62/15 
f 34/65/16 35/66/17 26/67/17 25/68/16 
f 35/66/17 36/69/18 27/70/18 26/67/17 
f 36/69/18 37/71/19 28/72/19 27/70/18 
f 37/71/19 38/73/20 29/74/20 28/72/19 
f 38/73/20 39/75/21 30/76/21 29/74/20 
f 39/77/21 40/78/22 21/79/22 30/80/21 
f 40/78/22 32/57/13 22/60/13 21/79/22 
f 41/81/23 42/82/23 43/83/23 44/84/23 
f 45/85/24 41/81/24 44/84/24 46/86/24 
f 47/87/24 45/85/24 46/86/24 48/88/24 
f 44/84/25 43/83/25 49/89/25 50/90/25 
f 46/86/26 44/84/26 50/90/26 51/91/26 
f 48/88/27 46/86/27 51/91/27 52/92/27 
f 50/90/28 49/89/28 53/93/28 54/94/28 
f 51/91/29 50/90/29 54/94/29 55/95/29 
f 52/92/29 51/91/29 55/95/29 56/96/29 
f 54/94/30 53/93/30 42/97/30 41/98/30 
f 55/95/31 54/94/31 41/98/31 45/99/31 
f 56/96/32 55/95/32 45/99/32 47/100/32 
f 57/101/33 58/102/33 59/103/33 60/104/33 
f 58/102/34 61/105/34 62/106/34 59/103/34 
f 61/105/35 63/107/35 64/108/35 62/106/35 
f 63/107/36 65/109/36 66/110/36 64/108/36 
f 65/109/37 67/111/37 68/112/37 66/110/37 
f 67/111/38 69/113/38 70/114/38 68/112/38 
f 69/113/39 71/115/39 72/116/39 70/114/39 
f 71/115/40 57/101/40 60/104/40 72/116/40 
f 72/116/11 60/104/11 59/103/11 62/106/11 
f 72/116/11 62/106/11 64/108/11 66/110/11 
f 72/116/11 66/110/11 68/112/11 70/114/11 
# 57 polygons

