# 3ds Max Wavefront OBJ Exporter v0.97b - (c)2007 guruware
# File Created: 03.04.2017 17:18:53

mtllib Cupboard_1_1.mtl

#
# object polySurface1492
#

v  -8.7300 4.3650 3.1051
v  -8.7300 -4.3650 3.1051
v  8.7300 -4.3650 3.1051
v  8.7300 4.3650 3.1051
v  8.7300 4.3650 2.4832
v  -8.7300 4.3650 2.4832
v  -8.7300 -4.3650 2.4832
v  8.7300 -4.3650 2.4832
v  -9.0000 -4.5000 2.5000
v  9.0000 -4.5000 2.5000
v  9.0000 4.5000 2.5000
v  -9.0000 4.5000 2.5000
v  9.0000 4.5000 -0.9845
v  -9.0000 4.5000 -0.9845
v  9.0000 -4.5000 -0.9845
v  -9.0000 -4.5000 -0.9845
v  1.2727 -2.5733 3.6083
v  1.2727 -2.8416 3.1051
v  1.2727 -3.0962 3.1051
v  1.2727 -2.7395 3.8288
v  1.2727 -1.5645 3.6083
v  1.2727 -1.3983 3.8288
v  1.2727 -1.2962 3.1051
v  1.2727 -1.0416 3.1051
v  1.5273 -3.0962 3.1051
v  1.5273 -2.7395 3.8288
v  1.5273 -1.3983 3.8288
v  1.5273 -1.0416 3.1051
v  1.5273 -2.8416 3.1051
v  1.5273 -2.5733 3.6083
v  1.5273 -1.5645 3.6083
v  1.5273 -1.2962 3.1051
v  -1.5273 -2.5733 3.6083
v  -1.5273 -2.8416 3.1051
v  -1.5273 -3.0962 3.1051
v  -1.5273 -2.7395 3.8288
v  -1.5273 -1.5645 3.6083
v  -1.5273 -1.3983 3.8288
v  -1.5273 -1.2962 3.1051
v  -1.5273 -1.0416 3.1051
v  -1.2727 -3.0962 3.1051
v  -1.2727 -2.7395 3.8288
v  -1.2727 -1.3983 3.8288
v  -1.2727 -1.0416 3.1051
v  -1.2727 -2.8416 3.1051
v  -1.2727 -2.5733 3.6083
v  -1.2727 -1.5645 3.6083
v  -1.2727 -1.2962 3.1051
# 48 vertices

vn 0.0000 -0.0000 1.0000
vn 0.0000 1.0000 0.0000
vn 0.0000 -1.0000 -0.0000
vn 1.0000 0.0000 -0.0000
vn -1.0000 0.0000 -0.0000
vn 0.0000 0.0000 -1.0000
vn -1.0000 -0.0000 -0.0000
vn -1.0000 0.0000 0.0000
vn 0.0000 -0.8970 0.4421
vn 0.0000 0.8970 0.4421
vn -0.0000 0.8824 -0.4705
vn -0.0000 -0.8824 -0.4705
vn 1.0000 -0.0000 -0.0000
# 13 vertex normals

vt 0.4588 0.8664 0.0000
vt 0.4588 0.7582 0.0000
vt 0.6751 0.7582 0.0000
vt 0.6751 0.8664 0.0000
vt 0.6751 0.8741 0.0000
vt 0.4588 0.8741 0.0000
vt 0.4588 0.7505 0.0000
vt 0.6751 0.7505 0.0000
vt 0.6828 0.7582 0.0000
vt 0.6828 0.8664 0.0000
vt 0.4510 0.7582 0.0000
vt 0.4510 0.8664 0.0000
vt 0.6908 0.9997 0.0000
vt 0.4419 0.9997 0.0000
vt 0.4419 0.8752 0.0000
vt 0.6908 0.8752 0.0000
vt 0.6079 0.9996 0.0000
vt 0.4420 0.9996 0.0000
vt 0.4420 0.9674 0.0000
vt 0.6079 0.9674 0.0000
vt 0.6909 0.9674 0.0000
vt 0.6909 0.9996 0.0000
vt 0.2513 0.8423 0.0000
vt 0.2513 0.8657 0.0000
vt 0.2453 0.8682 0.0000
vt 0.2453 0.8426 0.0000
vt 0.2513 0.8163 0.0000
vt 0.2453 0.8160 0.0000
vt 0.2513 0.7928 0.0000
vt 0.2453 0.7903 0.0000
vt 0.2384 0.8682 0.0000
vt 0.2384 0.8426 0.0000
vt 0.2384 0.8160 0.0000
vt 0.2384 0.7903 0.0000
vt 0.2325 0.8644 0.0000
vt 0.2325 0.8423 0.0000
vt 0.2325 0.8162 0.0000
vt 0.2325 0.7942 0.0000
vt 0.2256 0.8630 0.0000
vt 0.2256 0.8423 0.0000
vt 0.2256 0.8162 0.0000
vt 0.2256 0.7955 0.0000
# 42 texture coords

g polySurface1492
usemtl Atlas_2
s off
f 1/1/1 2/2/1 3/3/1 4/4/1 
f 5/5/2 6/6/2 1/1/2 4/4/2 
f 2/2/3 7/7/3 8/8/3 3/3/3 
f 3/3/4 8/9/4 5/10/4 4/4/4 
f 7/11/5 2/2/5 1/1/5 6/12/5 
f 9/13/1 10/14/1 11/15/1 12/16/1 
f 12/17/2 11/18/2 13/19/2 14/20/2 
f 14/13/6 13/14/6 15/15/6 16/16/6 
f 16/19/3 15/20/3 10/17/3 9/18/3 
f 10/17/4 15/20/4 13/21/4 11/22/4 
f 16/21/5 9/22/5 12/17/5 14/20/5 
f 17/23/7 18/24/7 19/25/7 20/26/7 
f 21/27/8 17/23/8 20/26/8 22/28/8 
f 23/29/5 21/27/5 22/28/5 24/30/5 
f 20/26/9 19/25/9 25/31/9 26/32/9 
f 22/28/1 20/26/1 26/32/1 27/33/1 
f 24/30/10 22/28/10 27/33/10 28/34/10 
f 26/32/4 25/31/4 29/35/4 30/36/4 
f 27/33/4 26/32/4 30/36/4 31/37/4 
f 28/34/4 27/33/4 31/37/4 32/38/4 
f 30/36/11 29/35/11 18/39/11 17/40/11 
f 31/37/6 30/36/6 17/40/6 21/41/6 
f 32/38/12 31/37/12 21/41/12 23/42/12 
f 33/23/7 34/24/7 35/25/7 36/26/7 
f 37/27/8 33/23/8 36/26/8 38/28/8 
f 39/29/5 37/27/5 38/28/5 40/30/5 
f 36/26/9 35/25/9 41/31/9 42/32/9 
f 38/28/1 36/26/1 42/32/1 43/33/1 
f 40/30/10 38/28/10 43/33/10 44/34/10 
f 42/32/13 41/31/13 45/35/13 46/36/13 
f 43/33/4 42/32/4 46/36/4 47/37/4 
f 44/34/4 43/33/4 47/37/4 48/38/4 
f 46/36/11 45/35/11 34/39/11 33/40/11 
f 47/37/6 46/36/6 33/40/6 37/41/6 
f 48/38/12 47/37/12 37/41/12 39/42/12 
# 35 polygons

