# 3ds Max Wavefront OBJ Exporter v0.97b - (c)2007 guruware
# File Created: 03.04.2017 17:19:53

mtllib Cupboard_2_1.mtl

#
# object polySurface1494
#

v  -9.0000 -4.5000 2.5000
v  9.0000 -4.5000 2.5000
v  9.0000 7.1861 2.5000
v  -9.0000 7.1861 2.5000
v  9.0000 7.1861 -0.9845
v  -9.0000 7.1861 -0.9845
v  9.0000 -4.5000 -0.9845
v  -9.0000 -4.5000 -0.9845
v  -8.7300 -4.3650 3.1051
v  8.7300 -4.3650 3.1051
v  8.7300 7.0511 3.1051
v  -8.7300 7.0511 3.1051
v  8.7300 7.0511 2.4832
v  -8.7300 7.0511 2.4832
v  -8.7300 -4.3650 2.4832
v  8.7300 -4.3650 2.4832
v  1.2303 -2.7415 3.7761
v  1.2303 -3.0992 3.1051
v  1.2303 -3.4386 3.1051
v  1.2303 -2.9630 4.0700
v  1.2303 -1.3963 3.7761
v  1.2303 -1.1748 4.0700
v  1.2303 -1.0386 3.1051
v  1.2303 -0.6992 3.1051
v  1.5697 -3.4386 3.1051
v  1.5697 -2.9630 4.0700
v  1.5697 -1.1748 4.0700
v  1.5697 -0.6992 3.1051
v  1.5697 -3.0992 3.1051
v  1.5697 -2.7415 3.7761
v  1.5697 -1.3963 3.7761
v  1.5697 -1.0386 3.1051
v  -1.5697 -2.7415 3.7761
v  -1.5697 -3.0992 3.1051
v  -1.5697 -3.4386 3.1051
v  -1.5697 -2.9630 4.0700
v  -1.5697 -1.3963 3.7761
v  -1.5697 -1.1748 4.0700
v  -1.5697 -1.0386 3.1051
v  -1.5697 -0.6992 3.1051
v  -1.2303 -3.4386 3.1051
v  -1.2303 -2.9630 4.0700
v  -1.2303 -1.1748 4.0700
v  -1.2303 -0.6992 3.1051
v  -1.2303 -3.0992 3.1051
v  -1.2303 -2.7415 3.7761
v  -1.2303 -1.3963 3.7761
v  -1.2303 -1.0386 3.1051
# 48 vertices

vn 0.0000 -0.0000 1.0000
vn 0.0000 1.0000 0.0000
vn 0.0000 0.0000 -1.0000
vn 0.0000 -1.0000 -0.0000
vn 1.0000 0.0000 -0.0000
vn -1.0000 0.0000 -0.0000
vn -1.0000 -0.0000 -0.0000
vn -1.0000 0.0000 0.0000
vn 0.0000 -0.8970 0.4421
vn 0.0000 0.8970 0.4421
vn 0.0000 0.8824 -0.4705
vn 0.0000 -0.8824 -0.4705
# 12 vertex normals

vt 0.6908 0.9997 0.0000
vt 0.4419 0.9997 0.0000
vt 0.4419 0.8752 0.0000
vt 0.6908 0.8752 0.0000
vt 0.6079 0.9996 0.0000
vt 0.4420 0.9996 0.0000
vt 0.4420 0.9674 0.0000
vt 0.6079 0.9674 0.0000
vt 0.6909 0.9674 0.0000
vt 0.6909 0.9996 0.0000
vt 0.4557 0.7598 0.0000
vt 0.6782 0.7598 0.0000
vt 0.6782 0.8668 0.0000
vt 0.4557 0.8668 0.0000
vt 0.6782 0.8741 0.0000
vt 0.4557 0.8741 0.0000
vt 0.4557 0.7505 0.0000
vt 0.6782 0.7505 0.0000
vt 0.6898 0.7582 0.0000
vt 0.6898 0.8664 0.0000
vt 0.4441 0.7582 0.0000
vt 0.4441 0.8664 0.0000
vt 0.2513 0.8423 0.0000
vt 0.2513 0.8657 0.0000
vt 0.2453 0.8682 0.0000
vt 0.2453 0.8426 0.0000
vt 0.2513 0.8163 0.0000
vt 0.2453 0.8160 0.0000
vt 0.2513 0.7928 0.0000
vt 0.2453 0.7903 0.0000
vt 0.2384 0.8682 0.0000
vt 0.2384 0.8426 0.0000
vt 0.2384 0.8160 0.0000
vt 0.2384 0.7903 0.0000
vt 0.2325 0.8644 0.0000
vt 0.2325 0.8423 0.0000
vt 0.2325 0.8162 0.0000
vt 0.2325 0.7942 0.0000
vt 0.2256 0.8630 0.0000
vt 0.2256 0.8423 0.0000
vt 0.2256 0.8162 0.0000
vt 0.2256 0.7955 0.0000
# 42 texture coords

g polySurface1494
usemtl Atlas_2
s off
f 1/1/1 2/2/1 3/3/1 4/4/1 
f 4/5/2 3/6/2 5/7/2 6/8/2 
f 6/1/3 5/2/3 7/3/3 8/4/3 
f 8/7/4 7/8/4 2/5/4 1/6/4 
f 2/5/5 7/8/5 5/9/5 3/10/5 
f 8/9/6 1/10/6 4/5/6 6/8/6 
f 9/11/1 10/12/1 11/13/1 12/14/1 
f 12/14/2 11/13/2 13/15/2 14/16/2 
f 15/17/4 16/18/4 10/12/4 9/11/4 
f 10/12/5 16/19/5 13/20/5 11/13/5 
f 15/21/6 9/11/6 12/14/6 14/22/6 
f 17/23/7 18/24/7 19/25/7 20/26/7 
f 21/27/6 17/23/6 20/26/6 22/28/6 
f 23/29/8 21/27/8 22/28/8 24/30/8 
f 20/26/9 19/25/9 25/31/9 26/32/9 
f 22/28/1 20/26/1 26/32/1 27/33/1 
f 24/30/10 22/28/10 27/33/10 28/34/10 
f 26/32/5 25/31/5 29/35/5 30/36/5 
f 27/33/5 26/32/5 30/36/5 31/37/5 
f 28/34/5 27/33/5 31/37/5 32/38/5 
f 30/36/11 29/35/11 18/39/11 17/40/11 
f 31/37/3 30/36/3 17/40/3 21/41/3 
f 32/38/12 31/37/12 21/41/12 23/42/12 
f 33/23/6 34/24/6 35/25/6 36/26/6 
f 37/27/6 33/23/6 36/26/6 38/28/6 
f 39/29/6 37/27/6 38/28/6 40/30/6 
f 36/26/9 35/25/9 41/31/9 42/32/9 
f 38/28/1 36/26/1 42/32/1 43/33/1 
f 40/30/10 38/28/10 43/33/10 44/34/10 
f 42/32/5 41/31/5 45/35/5 46/36/5 
f 43/33/5 42/32/5 46/36/5 47/37/5 
f 44/34/5 43/33/5 47/37/5 48/38/5 
f 46/36/11 45/35/11 34/39/11 33/40/11 
f 47/37/3 46/36/3 33/40/3 37/41/3 
f 48/38/12 47/37/12 37/41/12 39/42/12 
# 35 polygons

