# 3ds Max Wavefront OBJ Exporter v0.97b - (c)2007 guruware
# File Created: 03.04.2017 17:19:20

mtllib Cupboard_1_2.mtl

#
# object polySurface1493
#

v  9.0000 -4.5000 2.5000
v  9.0000 -4.5000 -0.9845
v  9.0000 4.5000 -0.9845
v  9.0000 4.5000 2.5000
v  -0.1234 -4.5000 -0.9845
v  -0.1234 -4.5000 2.5000
v  -0.1234 4.5000 2.5000
v  -0.1234 4.5000 -0.9845
v  8.7300 -4.3650 3.1051
v  8.7300 -4.3650 2.4832
v  8.7300 4.3650 2.4832
v  8.7300 4.3650 3.1051
v  0.0019 -4.3650 2.4832
v  0.0019 -4.3650 3.1051
v  0.0019 4.3650 3.1051
v  0.0019 4.3650 2.4832
v  1.2727 -2.5733 3.6083
v  1.2727 -2.8416 3.1051
v  1.2727 -3.0962 3.1051
v  1.2727 -2.7395 3.8288
v  1.2727 -1.5645 3.6083
v  1.2727 -1.3983 3.8288
v  1.2727 -1.2962 3.1051
v  1.2727 -1.0416 3.1051
v  1.5273 -3.0962 3.1051
v  1.5273 -2.7395 3.8288
v  1.5273 -1.3983 3.8288
v  1.5273 -1.0416 3.1051
v  1.5273 -2.8416 3.1051
v  1.5273 -2.5733 3.6083
v  1.5273 -1.5645 3.6083
v  1.5273 -1.2962 3.1051
# 32 vertices

vn 1.0000 0.0000 -0.0000
vn -1.0000 0.0000 -0.0000
vn 0.0000 1.0000 0.0000
vn 0.0000 0.0000 -1.0000
vn 0.0000 -1.0000 -0.0000
vn 0.0000 -0.0000 1.0000
vn -1.0000 -0.0000 -0.0000
vn -1.0000 0.0000 0.0000
vn 0.0000 -0.8970 0.4421
vn 0.0000 0.8970 0.4421
vn -0.0000 0.8824 -0.4705
vn -0.0000 -0.8824 -0.4705
# 12 vertex normals

vt 0.6079 0.9996 0.0000
vt 0.6079 0.9674 0.0000
vt 0.6909 0.9674 0.0000
vt 0.6909 0.9996 0.0000
vt 0.5250 0.9996 0.0000
vt 0.4420 0.9996 0.0000
vt 0.4420 0.9674 0.0000
vt 0.5250 0.9674 0.0000
vt 0.5663 0.8752 0.0000
vt 0.5663 0.9997 0.0000
vt 0.4419 0.9997 0.0000
vt 0.4419 0.8752 0.0000
vt 0.6751 0.7582 0.0000
vt 0.6828 0.7582 0.0000
vt 0.6828 0.8664 0.0000
vt 0.6751 0.8664 0.0000
vt 0.4510 0.7582 0.0000
vt 0.4588 0.7582 0.0000
vt 0.4588 0.8664 0.0000
vt 0.4510 0.8664 0.0000
vt 0.5670 0.7582 0.0000
vt 0.5670 0.7505 0.0000
vt 0.6751 0.7505 0.0000
vt 0.5670 0.8664 0.0000
vt 0.6751 0.8741 0.0000
vt 0.5670 0.8741 0.0000
vt 0.2513 0.8423 0.0000
vt 0.2513 0.8657 0.0000
vt 0.2453 0.8682 0.0000
vt 0.2453 0.8426 0.0000
vt 0.2513 0.8163 0.0000
vt 0.2453 0.8160 0.0000
vt 0.2513 0.7928 0.0000
vt 0.2453 0.7903 0.0000
vt 0.2384 0.8682 0.0000
vt 0.2384 0.8426 0.0000
vt 0.2384 0.8160 0.0000
vt 0.2384 0.7903 0.0000
vt 0.2325 0.8644 0.0000
vt 0.2325 0.8423 0.0000
vt 0.2325 0.8162 0.0000
vt 0.2325 0.7942 0.0000
vt 0.2256 0.8630 0.0000
vt 0.2256 0.8423 0.0000
vt 0.2256 0.8162 0.0000
vt 0.2256 0.7955 0.0000
# 46 texture coords

g polySurface1493
usemtl Atlas_2
s off
f 1/1/1 2/2/1 3/3/1 4/4/1 
f 5/3/2 6/4/2 7/1/2 8/2/2 
f 7/5/3 4/6/3 3/7/3 8/8/3 
f 5/9/4 8/10/4 3/11/4 2/12/4 
f 6/5/5 5/8/5 2/2/5 1/1/5 
f 7/9/6 6/10/6 1/11/6 4/12/6 
f 9/13/1 10/14/1 11/15/1 12/16/1 
f 13/17/2 14/18/2 15/19/2 16/20/2 
f 14/21/5 13/22/5 10/23/5 9/13/5 
f 15/24/6 14/21/6 9/13/6 12/16/6 
f 11/25/3 16/26/3 15/24/3 12/16/3 
f 17/27/7 18/28/7 19/29/7 20/30/7 
f 21/31/8 17/27/8 20/30/8 22/32/8 
f 23/33/2 21/31/2 22/32/2 24/34/2 
f 20/30/9 19/29/9 25/35/9 26/36/9 
f 22/32/6 20/30/6 26/36/6 27/37/6 
f 24/34/10 22/32/10 27/37/10 28/38/10 
f 26/36/1 25/35/1 29/39/1 30/40/1 
f 27/37/1 26/36/1 30/40/1 31/41/1 
f 28/38/1 27/37/1 31/41/1 32/42/1 
f 30/40/11 29/39/11 18/43/11 17/44/11 
f 31/41/4 30/40/4 17/44/4 21/45/4 
f 32/42/12 31/41/12 21/45/12 23/46/12 
# 23 polygons

