# 3ds Max Wavefront OBJ Exporter v0.97b - (c)2007 guruware
# File Created: 03.04.2017 17:20:44

mtllib Cupboard_3_2.mtl

#
# object polySurface1497
#

v  6.5000 -0.5000 2.5000
v  6.5000 -0.5000 -2.5000
v  6.5000 0.5000 -2.5000
v  6.5000 0.5000 2.5000
v  -0.7210 -0.5000 -2.5000
v  -0.7210 -0.5000 2.5000
v  -0.7210 0.5000 2.5000
v  -0.7210 0.5000 -2.5000
v  6.5000 7.5000 2.5000
v  6.5000 7.5000 -2.5000
v  6.5000 8.0000 -2.5000
v  6.5000 8.0000 2.5000
v  -0.7387 7.5000 -2.5000
v  -0.7387 7.5000 2.5000
v  -0.7387 8.0000 2.5000
v  -0.7387 8.0000 -2.5000
v  -0.4946 0.5000 2.3479
v  0.5000 0.5000 2.3479
v  0.5000 7.5000 2.3479
v  -0.4946 7.5000 2.3479
v  -0.4946 7.5000 -2.1521
v  0.5000 7.5000 -2.1521
v  0.5000 0.5000 -2.1521
v  -0.4946 0.5000 -2.1521
v  6.2500 0.5000 -2.2500
v  5.2554 0.5000 -2.2500
v  5.2554 7.5000 -2.2500
v  6.2500 7.5000 -2.2500
v  6.2500 7.5000 2.2500
v  5.2554 7.5000 2.2500
v  5.2554 0.5000 2.2500
v  6.2500 0.5000 2.2500
v  0.0004 4.8345 1.3746
v  5.3034 4.8345 1.3746
v  5.3034 4.8345 2.1972
v  0.0004 4.8345 2.1972
v  0.0004 5.8345 2.1972
v  5.3034 5.8345 2.1972
v  0.0004 5.8345 1.3746
v  5.3034 5.8345 1.3746
v  0.0000 0.5000 1.9436
v  5.3125 0.5000 1.9436
v  5.3125 7.5000 1.9436
v  0.0000 7.5000 1.9436
v  0.0000 7.5000 -2.2292
v  5.3125 7.5000 -2.2292
v  5.3125 0.5000 -2.2292
v  0.0000 0.5000 -2.2292
v  0.9486 1.8395 2.3853
v  0.9486 1.6039 1.9436
v  0.9486 1.3805 1.9436
v  0.9486 1.6936 2.5788
v  0.9486 2.7251 2.3853
v  0.9486 2.8709 2.5788
v  0.9486 2.9606 1.9436
v  0.9486 3.1840 1.9436
v  1.1721 1.3805 1.9436
v  1.1721 1.6936 2.5788
v  1.1721 2.8709 2.5788
v  1.1721 3.1840 1.9436
v  1.1721 1.6039 1.9436
v  1.1721 1.8395 2.3853
v  1.1721 2.7251 2.3853
v  1.1721 2.9606 1.9436
v  2.6101 6.1029 2.4263
v  3.3992 6.1029 2.4263
v  3.3992 6.8921 2.4263
v  2.6101 6.8921 2.4263
v  3.4156 6.9085 2.2447
v  2.5936 6.9085 2.2447
v  2.5936 6.0865 2.2447
v  3.4156 6.0865 2.2447
v  3.0046 6.6822 2.4074
v  2.8086 6.4862 2.4074
v  2.6182 6.4862 2.8620
v  3.0046 6.8727 2.8620
v  3.0046 6.2902 2.4074
v  3.0046 6.0998 2.8620
v  3.2006 6.4862 2.4074
v  3.3911 6.4862 2.8620
# 80 vertices

vn 1.0000 0.0000 -0.0000
vn -1.0000 0.0000 -0.0000
vn 0.0000 1.0000 0.0000
vn 0.0000 0.0000 -1.0000
vn 0.0000 -0.0000 1.0000
vn 0.0000 -1.0000 -0.0000
vn -1.0000 -0.0000 -0.0000
vn -1.0000 0.0000 0.0000
vn 0.0000 -0.8970 0.4421
vn 0.0000 0.8970 0.4421
vn 1.0000 -0.0000 -0.0000
vn -0.0000 0.8824 -0.4705
vn -0.0000 -0.8824 -0.4705
vn 0.0000 0.9959 0.0901
vn 0.0000 -0.9959 0.0901
vn 0.9959 -0.0000 0.0901
vn -0.9959 -0.0000 0.0901
vn -0.6780 0.6780 -0.2840
vn -0.6780 -0.6780 -0.2840
vn 0.6780 -0.6780 -0.2840
vn 0.6780 0.6780 -0.2840
# 21 vertex normals

vt 0.6901 0.9013 0.0000
vt 0.6901 0.9815 0.0000
vt 0.6706 0.9815 0.0000
vt 0.6706 0.9013 0.0000
vt 0.4427 0.9815 0.0000
vt 0.4427 0.9013 0.0000
vt 0.4622 0.9013 0.0000
vt 0.4622 0.9815 0.0000
vt 0.5664 0.9013 0.0000
vt 0.5664 0.9815 0.0000
vt 0.5664 0.8808 0.0000
vt 0.6706 0.8808 0.0000
vt 0.6902 0.9004 0.0000
vt 0.6902 0.9830 0.0000
vt 0.6737 0.9830 0.0000
vt 0.6737 0.9004 0.0000
vt 0.4426 0.9830 0.0000
vt 0.4426 0.9004 0.0000
vt 0.4591 0.9004 0.0000
vt 0.4591 0.9830 0.0000
vt 0.5664 0.9004 0.0000
vt 0.5664 0.9830 0.0000
vt 0.5664 0.8839 0.0000
vt 0.6737 0.8839 0.0000
vt 0.6548 0.8767 0.0000
vt 0.6548 0.8982 0.0000
vt 0.5032 0.8982 0.0000
vt 0.5032 0.8767 0.0000
vt 0.5032 0.8766 0.0000
vt 0.6548 0.8766 0.0000
vt 0.6548 0.9957 0.0000
vt 0.5032 0.9957 0.0000
vt 0.5664 0.9621 0.0000
vt 0.4421 0.9621 0.0000
vt 0.4421 0.9428 0.0000
vt 0.5664 0.9428 0.0000
vt 0.5664 0.9194 0.0000
vt 0.4421 0.9194 0.0000
vt 0.5664 0.9001 0.0000
vt 0.4421 0.9001 0.0000
vt 0.5682 0.7639 0.0000
vt 0.6740 0.7639 0.0000
vt 0.6740 0.8605 0.0000
vt 0.5682 0.8605 0.0000
vt 0.5636 0.9972 0.0000
vt 0.4555 0.9972 0.0000
vt 0.4555 0.8761 0.0000
vt 0.5636 0.8761 0.0000
vt 0.2513 0.8423 0.0000
vt 0.2513 0.8657 0.0000
vt 0.2453 0.8682 0.0000
vt 0.2453 0.8426 0.0000
vt 0.2513 0.8163 0.0000
vt 0.2453 0.8160 0.0000
vt 0.2513 0.7928 0.0000
vt 0.2453 0.7903 0.0000
vt 0.2384 0.8682 0.0000
vt 0.2384 0.8426 0.0000
vt 0.2384 0.8160 0.0000
vt 0.2384 0.7903 0.0000
vt 0.2325 0.8644 0.0000
vt 0.2325 0.8423 0.0000
vt 0.2325 0.8162 0.0000
vt 0.2325 0.7942 0.0000
vt 0.2256 0.8630 0.0000
vt 0.2256 0.8423 0.0000
vt 0.2256 0.8162 0.0000
vt 0.2256 0.7955 0.0000
vt 0.5310 0.9304 0.0000
vt 0.5633 0.9304 0.0000
vt 0.5633 0.9626 0.0000
vt 0.5310 0.9626 0.0000
vt 0.5640 0.9701 0.0000
vt 0.5303 0.9701 0.0000
vt 0.5303 0.9229 0.0000
vt 0.5640 0.9229 0.0000
vt 0.5707 0.9297 0.0000
vt 0.5707 0.9633 0.0000
vt 0.5236 0.9297 0.0000
vt 0.5236 0.9633 0.0000
vt 0.1095 0.8598 0.0000
vt 0.1001 0.8598 0.0000
vt 0.0955 0.8437 0.0000
vt 0.1140 0.8437 0.0000
vt 0.0938 0.8736 0.0000
vt 0.0937 0.8591 0.0000
vt 0.1186 0.8520 0.0000
vt 0.1187 0.8807 0.0000
vt 0.0861 0.8467 0.0000
vt 0.1035 0.8276 0.0000
vt 0.0730 0.8402 0.0000
vt 0.0778 0.8148 0.0000
vt 0.1140 0.8252 0.0000
vt 0.0955 0.8252 0.0000
# 94 texture coords

g polySurface1497
usemtl Atlas_2
s off
f 1/1/1 2/2/1 3/3/1 4/4/1 
f 5/5/2 6/6/2 7/7/2 8/8/2 
f 7/9/3 4/4/3 3/3/3 8/10/3 
f 5/9/4 8/11/4 3/12/4 2/4/4 
f 7/9/5 6/11/5 1/12/5 4/4/5 
f 9/13/1 10/14/1 11/15/1 12/16/1 
f 13/17/2 14/18/2 15/19/2 16/20/2 
f 15/21/3 12/16/3 11/15/3 16/22/3 
f 13/21/4 16/23/4 11/24/4 10/16/4 
f 14/22/6 13/21/6 10/16/6 9/15/6 
f 15/21/5 14/23/5 9/24/5 12/16/5 
f 17/25/5 18/26/5 19/27/5 20/28/5 
f 21/27/4 22/29/4 23/30/4 24/26/4 
f 18/26/1 23/31/1 22/32/1 19/27/1 
f 24/26/2 17/31/2 20/32/2 21/27/2 
f 25/25/4 26/26/4 27/27/4 28/28/4 
f 29/27/5 30/29/5 31/30/5 32/26/5 
f 26/26/2 31/31/2 30/32/2 27/27/2 
f 32/26/1 25/31/1 28/32/1 29/27/1 
f 33/33/6 34/34/6 35/35/6 36/36/6 
f 37/37/5 36/36/5 35/35/5 38/38/5 
f 39/39/3 37/37/3 38/38/3 40/40/3 
f 41/41/5 42/42/5 43/43/5 44/44/5 
f 45/45/4 46/46/4 47/47/4 48/48/4 
f 49/49/7 50/50/7 51/51/7 52/52/7 
f 53/53/2 49/49/2 52/52/2 54/54/2 
f 55/55/8 53/53/8 54/54/8 56/56/8 
f 52/52/9 51/51/9 57/57/9 58/58/9 
f 54/54/5 52/52/5 58/58/5 59/59/5 
f 56/56/10 54/54/10 59/59/10 60/60/10 
f 58/58/11 57/57/11 61/61/11 62/62/11 
f 59/59/1 58/58/1 62/62/1 63/63/1 
f 60/60/1 59/59/1 63/63/1 64/64/1 
f 62/62/12 61/61/12 50/65/12 49/66/12 
f 63/63/4 62/62/4 49/66/4 53/67/4 
f 64/64/13 63/63/13 53/67/13 55/68/13 
f 65/69/5 66/70/5 67/71/5 68/72/5 
f 68/72/14 67/71/14 69/73/14 70/74/14 
f 71/75/15 72/76/15 66/70/15 65/69/15 
f 66/70/16 72/77/16 69/78/16 67/71/16 
f 71/79/17 65/69/17 68/72/17 70/80/17 
f 73/81/18 74/82/18 75/83/18 76/84/18 
f 74/85/19 77/86/19 78/87/19 75/88/19 
f 77/86/20 79/89/20 80/90/20 78/87/20 
f 79/89/21 73/91/21 76/92/21 80/90/21 
f 80/93/5 76/84/5 75/83/5 78/94/5 
# 46 polygons

