# 3ds Max Wavefront OBJ Exporter v0.97b - (c)2007 guruware
# File Created: 03.04.2017 17:22:06

mtllib Cupboard_6_1.mtl

#
# object polySurface1572
#

v  -6.5000 -0.5000 2.5000
v  6.5000 -0.5000 2.5000
v  6.5000 0.5000 2.5000
v  -6.5000 0.5000 2.5000
v  6.5000 0.5000 -2.5000
v  -6.5000 0.5000 -2.5000
v  6.5000 -0.5000 -2.5000
v  -6.5000 -0.5000 -2.5000
v  -6.5000 7.5000 2.5000
v  6.5000 7.5000 2.5000
v  6.5000 8.0000 2.5000
v  -6.5000 8.0000 2.5000
v  6.5000 8.0000 -2.5000
v  -6.5000 8.0000 -2.5000
v  6.5000 7.5000 -2.5000
v  -6.5000 7.5000 -2.5000
v  -0.5000 0.5000 2.3479
v  0.5000 0.5000 2.3479
v  0.5000 7.5000 2.3479
v  -0.5000 7.5000 2.3479
v  0.5000 0.5000 1.3479
v  0.5000 7.5000 1.3479
v  -0.5000 0.5000 1.3479
v  -0.5000 7.5000 1.3479
v  -6.2500 0.5000 2.2500
v  -5.2554 0.5000 2.2500
v  -5.2554 7.5000 2.2500
v  -6.2500 7.5000 2.2500
v  -6.2500 7.5000 -2.2500
v  -5.2554 7.5000 -2.2500
v  -5.2554 0.5000 -2.2500
v  -6.2500 0.5000 -2.2500
v  6.2500 0.5000 -2.2500
v  5.2554 0.5000 -2.2500
v  5.2554 7.5000 -2.2500
v  6.2500 7.5000 -2.2500
v  6.2500 7.5000 2.2500
v  5.2554 7.5000 2.2500
v  5.2554 0.5000 2.2500
v  6.2500 0.5000 2.2500
v  -5.3025 4.8345 2.1972
v  5.3034 4.8345 2.1972
v  5.3034 5.8345 2.1972
v  -5.3025 5.8345 2.1972
v  5.3034 5.8345 1.3746
v  -5.3025 5.8345 1.3746
v  -5.3025 4.8345 1.3746
v  5.3034 4.8345 1.3746
v  -5.3125 7.5000 -2.2292
v  5.3125 7.5000 -2.2292
v  5.3125 0.5000 -2.2292
v  -5.3125 0.5000 -2.2292
v  0.9486 1.8395 2.3853
v  0.9486 1.6039 1.9436
v  0.9486 1.3805 1.9436
v  0.9486 1.6936 2.5788
v  0.9486 2.7251 2.3853
v  0.9486 2.8709 2.5788
v  0.9486 2.9606 1.9436
v  0.9486 3.1840 1.9436
v  1.1721 1.3805 1.9436
v  1.1721 1.6936 2.5788
v  1.1721 2.8709 2.5788
v  1.1721 3.1840 1.9436
v  1.1721 1.6039 1.9436
v  1.1721 1.8395 2.3853
v  1.1721 2.7251 2.3853
v  1.1721 2.9606 1.9436
v  -1.0538 1.8395 2.3853
v  -1.0538 1.6039 1.9436
v  -1.0538 1.3805 1.9436
v  -1.0538 1.6936 2.5788
v  -1.0538 2.7251 2.3853
v  -1.0538 2.8709 2.5788
v  -1.0538 2.9606 1.9436
v  -1.0538 3.1840 1.9436
v  -0.8303 1.3805 1.9436
v  -0.8303 1.6936 2.5788
v  -0.8303 2.8709 2.5788
v  -0.8303 3.1840 1.9436
v  -0.8303 1.6039 1.9436
v  -0.8303 1.8395 2.3853
v  -0.8303 2.7251 2.3853
v  -0.8303 2.9606 1.9436
v  -3.3946 6.1029 2.1251
v  -2.6054 6.1029 2.1251
v  -2.6054 6.8921 2.1251
v  -3.3946 6.8921 2.1251
v  -2.5890 6.9085 1.9436
v  -3.4110 6.9085 1.9436
v  -3.4110 6.0865 1.9436
v  -2.5890 6.0865 1.9436
v  -3.0000 6.6822 2.1063
v  -3.1960 6.4862 2.1063
v  -3.3864 6.4862 2.5609
v  -3.0000 6.8727 2.5609
v  -3.0000 6.2902 2.1063
v  -3.0000 6.0998 2.5609
v  -2.8040 6.4862 2.1063
v  -2.6136 6.4862 2.5609
v  2.6101 6.1029 2.4263
v  3.3992 6.1029 2.4263
v  3.3992 6.8921 2.4263
v  2.6101 6.8921 2.4263
v  3.4156 6.9085 2.2447
v  2.5936 6.9085 2.2447
v  2.5936 6.0865 2.2447
v  3.4156 6.0865 2.2447
v  3.0046 6.6822 2.4074
v  2.8086 6.4862 2.4074
v  2.6182 6.4862 2.8620
v  3.0046 6.8727 2.8620
v  3.0046 6.2902 2.4074
v  3.0046 6.0998 2.8620
v  3.2006 6.4862 2.4074
v  3.3911 6.4862 2.8620
v  0.0000 5.7500 1.9436
v  5.3125 5.7500 1.9436
v  5.3125 7.5000 1.9436
v  0.0000 7.5000 1.9436
v  0.0000 4.0000 1.9436
v  5.3125 4.0000 1.9436
v  0.0000 0.5000 1.9436
v  5.3125 0.5000 1.9436
v  -5.3125 7.5000 1.9436
v  -5.3125 5.7500 1.9436
v  -5.3125 4.0000 1.9436
v  -5.3125 0.5000 1.9436
# 128 vertices

vn 0.0000 -0.0000 1.0000
vn 0.0000 1.0000 0.0000
vn 0.0000 0.0000 -1.0000
vn 1.0000 0.0000 -0.0000
vn -1.0000 0.0000 -0.0000
vn 0.0000 -1.0000 -0.0000
vn -1.0000 -0.0000 -0.0000
vn -1.0000 0.0000 0.0000
vn 0.0000 -0.8970 0.4421
vn 0.0000 0.8970 0.4421
vn 1.0000 -0.0000 -0.0000
vn -0.0000 0.8824 -0.4705
vn -0.0000 -0.8824 -0.4705
vn 0.0000 0.9959 0.0901
vn 0.0000 -0.9959 0.0901
vn 0.9959 -0.0000 0.0901
vn -0.9959 -0.0000 0.0901
vn -0.6780 0.6780 -0.2840
vn -0.6780 -0.6780 -0.2840
vn 0.6780 -0.6780 -0.2840
vn 0.6780 0.6780 -0.2840
# 21 vertex normals

vt 0.6361 0.6551 0.0000
vt 0.7386 0.6551 0.0000
vt 0.7386 0.6653 0.0000
vt 0.6361 0.6653 0.0000
vt 0.7386 0.7047 0.0000
vt 0.6361 0.7047 0.0000
vt 0.7481 0.6653 0.0000
vt 0.7481 0.7047 0.0000
vt 0.6265 0.7047 0.0000
vt 0.6265 0.6653 0.0000
vt 0.6345 0.6567 0.0000
vt 0.7401 0.6567 0.0000
vt 0.7401 0.6648 0.0000
vt 0.6345 0.6648 0.0000
vt 0.7401 0.7054 0.0000
vt 0.6345 0.7054 0.0000
vt 0.7482 0.6648 0.0000
vt 0.7482 0.7054 0.0000
vt 0.6264 0.7054 0.0000
vt 0.6264 0.6648 0.0000
vt 0.6276 0.6932 0.0000
vt 0.6276 0.6761 0.0000
vt 0.7475 0.6761 0.0000
vt 0.7475 0.6932 0.0000
vt 0.6276 0.6590 0.0000
vt 0.7475 0.6590 0.0000
vt 0.6276 0.7103 0.0000
vt 0.7475 0.7103 0.0000
vt 0.7308 0.6531 0.0000
vt 0.7308 0.6637 0.0000
vt 0.6562 0.6637 0.0000
vt 0.6562 0.6531 0.0000
vt 0.7308 0.7117 0.0000
vt 0.6562 0.7117 0.0000
vt 0.7484 0.6857 0.0000
vt 0.6262 0.6857 0.0000
vt 0.6262 0.6741 0.0000
vt 0.7484 0.6741 0.0000
vt 0.6262 0.6646 0.0000
vt 0.7484 0.6646 0.0000
vt 0.7484 0.6952 0.0000
vt 0.6262 0.6952 0.0000
vt 0.7390 0.7124 0.0000
vt 0.6327 0.7124 0.0000
vt 0.6327 0.6529 0.0000
vt 0.7390 0.6529 0.0000
vt 0.2513 0.8423 0.0000
vt 0.2513 0.8657 0.0000
vt 0.2453 0.8682 0.0000
vt 0.2453 0.8426 0.0000
vt 0.2513 0.8163 0.0000
vt 0.2453 0.8160 0.0000
vt 0.2513 0.7928 0.0000
vt 0.2453 0.7903 0.0000
vt 0.2384 0.8682 0.0000
vt 0.2384 0.8426 0.0000
vt 0.2384 0.8160 0.0000
vt 0.2384 0.7903 0.0000
vt 0.2325 0.8644 0.0000
vt 0.2325 0.8423 0.0000
vt 0.2325 0.8162 0.0000
vt 0.2325 0.7942 0.0000
vt 0.2256 0.8630 0.0000
vt 0.2256 0.8423 0.0000
vt 0.2256 0.8162 0.0000
vt 0.2256 0.7955 0.0000
vt 0.6699 0.6796 0.0000
vt 0.6858 0.6796 0.0000
vt 0.6858 0.6954 0.0000
vt 0.6699 0.6954 0.0000
vt 0.6861 0.6991 0.0000
vt 0.6696 0.6991 0.0000
vt 0.6696 0.6759 0.0000
vt 0.6861 0.6759 0.0000
vt 0.6894 0.6792 0.0000
vt 0.6894 0.6958 0.0000
vt 0.6662 0.6792 0.0000
vt 0.6662 0.6958 0.0000
vt 0.4882 0.2706 0.0000
vt 0.4805 0.2706 0.0000
vt 0.4767 0.2574 0.0000
vt 0.4919 0.2574 0.0000
vt 0.4758 0.2680 0.0000
vt 0.4758 0.2607 0.0000
vt 0.4882 0.2572 0.0000
vt 0.4882 0.2715 0.0000
vt 0.4720 0.2546 0.0000
vt 0.4807 0.2450 0.0000
vt 0.4655 0.2513 0.0000
vt 0.4678 0.2386 0.0000
vt 0.4919 0.2422 0.0000
vt 0.4767 0.2423 0.0000
vt 0.6523 0.5851 0.0000
vt 0.7337 0.5851 0.0000
vt 0.7337 0.6116 0.0000
vt 0.6523 0.6116 0.0000
vt 0.6523 0.5941 0.0000
vt 0.6523 0.6206 0.0000
vt 0.7337 0.6206 0.0000
vt 0.7337 0.5941 0.0000
vt 0.6523 0.5033 0.0000
vt 0.7337 0.5033 0.0000
vt 0.7337 0.6144 0.0000
vt 0.6523 0.6144 0.0000
# 104 texture coords

g polySurface1572
usemtl Atlas_2
s off
f 1/1/1 2/2/1 3/3/1 4/4/1 
f 4/4/2 3/3/2 5/5/2 6/6/2 
f 6/1/3 5/2/3 7/3/3 8/4/3 
f 2/7/4 7/8/4 5/5/4 3/3/4 
f 8/9/5 1/10/5 4/4/5 6/6/5 
f 9/11/1 10/12/1 11/13/1 12/14/1 
f 12/14/2 11/13/2 13/15/2 14/16/2 
f 14/11/3 13/12/3 15/13/3 16/14/3 
f 16/14/6 15/13/6 10/15/6 9/16/6 
f 10/17/4 15/18/4 13/15/4 11/13/4 
f 16/19/5 9/20/5 12/14/5 14/16/5 
f 17/21/1 18/22/1 19/23/1 20/24/1 
f 18/22/4 21/25/4 22/26/4 19/23/4 
f 23/27/5 17/21/5 20/24/5 24/28/5 
f 25/29/1 26/30/1 27/31/1 28/32/1 
f 29/31/3 30/32/3 31/29/3 32/30/3 
f 26/30/4 31/33/4 30/34/4 27/31/4 
f 32/30/5 25/33/5 28/34/5 29/31/5 
f 33/29/3 34/30/3 35/31/3 36/32/3 
f 37/31/1 38/32/1 39/29/1 40/30/1 
f 34/30/5 39/33/5 38/34/5 35/31/5 
f 40/30/4 33/33/4 36/34/4 37/31/4 
f 41/35/1 42/36/1 43/37/1 44/38/1 
f 44/38/2 43/37/2 45/39/2 46/40/2 
f 47/41/6 48/42/6 42/36/6 41/35/6 
f 49/43/3 50/44/3 51/45/3 52/46/3 
f 53/47/7 54/48/7 55/49/7 56/50/7 
f 57/51/5 53/47/5 56/50/5 58/52/5 
f 59/53/8 57/51/8 58/52/8 60/54/8 
f 56/50/9 55/49/9 61/55/9 62/56/9 
f 58/52/1 56/50/1 62/56/1 63/57/1 
f 60/54/10 58/52/10 63/57/10 64/58/10 
f 62/56/4 61/55/4 65/59/4 66/60/4 
f 63/57/4 62/56/4 66/60/4 67/61/4 
f 64/58/11 63/57/11 67/61/11 68/62/11 
f 66/60/12 65/59/12 54/63/12 53/64/12 
f 67/61/3 66/60/3 53/64/3 57/65/3 
f 68/62/13 67/61/13 57/65/13 59/66/13 
f 69/47/8 70/48/8 71/49/8 72/50/8 
f 73/51/5 69/47/5 72/50/5 74/52/5 
f 75/53/8 73/51/8 74/52/8 76/54/8 
f 72/50/9 71/49/9 77/55/9 78/56/9 
f 74/52/1 72/50/1 78/56/1 79/57/1 
f 76/54/10 74/52/10 79/57/10 80/58/10 
f 78/56/4 77/55/4 81/59/4 82/60/4 
f 79/57/4 78/56/4 82/60/4 83/61/4 
f 80/58/11 79/57/11 83/61/11 84/62/11 
f 82/60/12 81/59/12 70/63/12 69/64/12 
f 83/61/3 82/60/3 69/64/3 73/65/3 
f 84/62/13 83/61/13 73/65/13 75/66/13 
f 85/67/1 86/68/1 87/69/1 88/70/1 
f 88/70/14 87/69/14 89/71/14 90/72/14 
f 91/73/15 92/74/15 86/68/15 85/67/15 
f 86/68/16 92/75/16 89/76/16 87/69/16 
f 91/77/17 85/67/17 88/70/17 90/78/17 
f 93/79/18 94/80/18 95/81/18 96/82/18 
f 94/83/19 97/84/19 98/85/19 95/86/19 
f 97/84/20 99/87/20 100/88/20 98/85/20 
f 99/87/21 93/89/21 96/90/21 100/88/21 
f 100/91/1 96/82/1 95/81/1 98/92/1 
f 101/67/1 102/68/1 103/69/1 104/70/1 
f 104/70/14 103/69/14 105/71/14 106/72/14 
f 107/73/15 108/74/15 102/68/15 101/67/15 
f 102/68/16 108/75/16 105/76/16 103/69/16 
f 107/77/17 101/67/17 104/70/17 106/78/17 
f 109/79/18 110/80/18 111/81/18 112/82/18 
f 110/83/19 113/84/19 114/85/19 111/86/19 
f 113/84/20 115/87/20 116/88/20 114/85/20 
f 115/87/21 109/89/21 112/90/21 116/88/21 
f 116/91/1 112/82/1 111/81/1 114/92/1 
f 117/93/1 118/94/1 119/95/1 120/96/1 
f 117/97/1 121/98/1 122/99/1 118/100/1 
f 123/101/1 124/102/1 122/103/1 121/104/1 
f 117/93/1 120/96/1 125/95/1 126/94/1 
f 117/97/1 126/100/1 127/99/1 121/98/1 
f 123/101/1 121/104/1 127/103/1 128/102/1 
# 76 polygons

