# 3ds Max Wavefront OBJ Exporter v0.97b - (c)2007 guruware
# File Created: 03.04.2017 17:21:03

mtllib Cupboard_4_1.mtl

#
# object polySurface1568
#

v  -9.0000 -4.5000 2.5000
v  9.0000 -4.5000 2.5000
v  9.0000 4.5000 2.5000
v  -9.0000 4.5000 2.5000
v  9.0000 4.5000 -0.9845
v  -9.0000 4.5000 -0.9845
v  9.0000 -4.5000 -0.9845
v  -9.0000 -4.5000 -0.9845
v  1.2727 -2.5733 3.6083
v  1.2727 -2.8416 3.1051
v  1.2727 -3.0962 3.1051
v  1.2727 -2.7395 3.8288
v  1.2727 -1.5645 3.6083
v  1.2727 -1.3983 3.8288
v  1.2727 -1.2962 3.1051
v  1.2727 -1.0416 3.1051
v  1.5273 -3.0962 3.1051
v  1.5273 -2.7395 3.8288
v  1.5273 -1.3983 3.8288
v  1.5273 -1.0416 3.1051
v  1.5273 -2.8416 3.1051
v  1.5273 -2.5733 3.6083
v  1.5273 -1.5645 3.6083
v  1.5273 -1.2962 3.1051
v  -1.5273 -2.5733 3.6083
v  -1.5273 -2.8416 3.1051
v  -1.5273 -3.0962 3.1051
v  -1.5273 -2.7395 3.8288
v  -1.5273 -1.5645 3.6083
v  -1.5273 -1.3983 3.8288
v  -1.5273 -1.2962 3.1051
v  -1.5273 -1.0416 3.1051
v  -1.2727 -3.0962 3.1051
v  -1.2727 -2.7395 3.8288
v  -1.2727 -1.3983 3.8288
v  -1.2727 -1.0416 3.1051
v  -1.2727 -2.8416 3.1051
v  -1.2727 -2.5733 3.6083
v  -1.2727 -1.5645 3.6083
v  -1.2727 -1.2962 3.1051
v  -0.0000 -4.3650 3.1051
v  -0.0000 -4.3650 2.4832
v  0.0653 -4.3650 2.4832
v  0.0653 -4.3650 3.1051
v  -0.0000 4.3650 3.1051
v  0.0653 4.3650 3.1051
v  0.0653 4.3650 2.4832
v  -0.0000 4.3650 2.4832
v  8.7300 -4.3650 3.1051
v  8.7300 -4.3650 2.4832
v  8.7300 4.3650 2.4832
v  8.7300 4.3650 3.1051
v  -0.0653 -4.3650 3.1051
v  -0.0653 -4.3650 2.4832
v  0.0000 -4.3650 2.4832
v  -0.0653 4.3650 3.1051
v  -0.0653 4.3650 2.4832
v  0.0000 4.3650 2.4832
v  -8.7300 -4.3650 3.1051
v  -8.7300 4.3650 3.1051
v  -8.7300 4.3650 2.4832
v  -8.7300 -4.3650 2.4832
# 62 vertices

vn 0.0000 -0.0000 1.0000
vn 0.0000 1.0000 0.0000
vn 0.0000 0.0000 -1.0000
vn 0.0000 -1.0000 -0.0000
vn 1.0000 0.0000 -0.0000
vn -1.0000 0.0000 -0.0000
vn -1.0000 -0.0000 -0.0000
vn -1.0000 0.0000 0.0000
vn 0.0000 -0.8970 0.4421
vn 0.0000 0.8970 0.4421
vn -0.0000 0.8824 -0.4705
vn -0.0000 -0.8824 -0.4705
vn 1.0000 -0.0000 -0.0000
vn -0.0000 -1.0000 -0.0000
vn -0.0000 -0.0000 1.0000
vn -0.0000 1.0000 0.0000
# 16 vertex normals

vt 0.6321 0.6172 0.0000
vt 0.5170 0.6172 0.0000
vt 0.5170 0.5596 0.0000
vt 0.6321 0.5596 0.0000
vt 0.5938 0.6171 0.0000
vt 0.5170 0.6171 0.0000
vt 0.5170 0.6023 0.0000
vt 0.5938 0.6023 0.0000
vt 0.6322 0.6023 0.0000
vt 0.6322 0.6171 0.0000
vt 0.3706 0.0719 0.0000
vt 0.3857 0.0719 0.0000
vt 0.3873 0.0758 0.0000
vt 0.3708 0.0758 0.0000
vt 0.3538 0.0719 0.0000
vt 0.3536 0.0758 0.0000
vt 0.3387 0.0719 0.0000
vt 0.3371 0.0758 0.0000
vt 0.3873 0.0802 0.0000
vt 0.3708 0.0802 0.0000
vt 0.3536 0.0802 0.0000
vt 0.3371 0.0802 0.0000
vt 0.3848 0.0841 0.0000
vt 0.3706 0.0841 0.0000
vt 0.3538 0.0841 0.0000
vt 0.3396 0.0841 0.0000
vt 0.3840 0.0885 0.0000
vt 0.3706 0.0885 0.0000
vt 0.3538 0.0885 0.0000
vt 0.3404 0.0885 0.0000
vt 0.7465 0.5091 0.0000
vt 0.7465 0.5014 0.0000
vt 0.7469 0.5014 0.0000
vt 0.7469 0.5091 0.0000
vt 0.7465 0.6173 0.0000
vt 0.7469 0.6173 0.0000
vt 0.7469 0.6250 0.0000
vt 0.7465 0.6250 0.0000
vt 0.7398 0.5091 0.0000
vt 0.7475 0.5091 0.0000
vt 0.7475 0.6173 0.0000
vt 0.7398 0.6173 0.0000
vt 0.6543 0.5091 0.0000
vt 0.6543 0.5014 0.0000
vt 0.7398 0.5014 0.0000
vt 0.6543 0.6173 0.0000
vt 0.7398 0.6250 0.0000
vt 0.6543 0.6250 0.0000
# 48 texture coords

g polySurface1568
usemtl Atlas_2
s off
f 1/1/1 2/2/1 3/3/1 4/4/1 
f 4/5/2 3/6/2 5/7/2 6/8/2 
f 6/1/3 5/2/3 7/3/3 8/4/3 
f 8/7/4 7/8/4 2/5/4 1/6/4 
f 2/5/5 7/8/5 5/9/5 3/10/5 
f 8/9/6 1/10/6 4/5/6 6/8/6 
f 9/11/7 10/12/7 11/13/7 12/14/7 
f 13/15/8 9/11/8 12/14/8 14/16/8 
f 15/17/6 13/15/6 14/16/6 16/18/6 
f 12/14/9 11/13/9 17/19/9 18/20/9 
f 14/16/1 12/14/1 18/20/1 19/21/1 
f 16/18/10 14/16/10 19/21/10 20/22/10 
f 18/20/5 17/19/5 21/23/5 22/24/5 
f 19/21/5 18/20/5 22/24/5 23/25/5 
f 20/22/5 19/21/5 23/25/5 24/26/5 
f 22/24/11 21/23/11 10/27/11 9/28/11 
f 23/25/3 22/24/3 9/28/3 13/29/3 
f 24/26/12 23/25/12 13/29/12 15/30/12 
f 25/11/7 26/12/7 27/13/7 28/14/7 
f 29/15/8 25/11/8 28/14/8 30/16/8 
f 31/17/6 29/15/6 30/16/6 32/18/6 
f 28/14/9 27/13/9 33/19/9 34/20/9 
f 30/16/1 28/14/1 34/20/1 35/21/1 
f 32/18/10 30/16/10 35/21/10 36/22/10 
f 34/20/13 33/19/13 37/23/13 38/24/13 
f 35/21/5 34/20/5 38/24/5 39/25/5 
f 36/22/5 35/21/5 39/25/5 40/26/5 
f 38/24/11 37/23/11 26/27/11 25/28/11 
f 39/25/3 38/24/3 25/28/3 29/29/3 
f 40/26/12 39/25/12 29/29/12 31/30/12 
f 41/31/14 42/32/14 43/33/14 44/34/14 
f 45/35/15 41/31/15 44/34/15 46/36/15 
f 47/37/16 48/38/16 45/35/16 46/36/16 
f 49/39/5 50/40/5 51/41/5 52/42/5 
f 44/43/4 43/44/4 50/45/4 49/39/4 
f 46/46/1 44/43/1 49/39/1 52/42/1 
f 51/47/2 47/48/2 46/46/2 52/42/2 
f 41/31/4 53/34/4 54/33/4 55/32/4 
f 45/35/1 56/36/1 53/34/1 41/31/1 
f 57/37/2 56/36/2 45/35/2 58/38/2 
f 59/39/6 60/42/6 61/41/6 62/40/6 
f 53/43/14 59/39/14 62/45/14 54/44/14 
f 56/46/15 60/42/15 59/39/15 53/43/15 
f 61/47/16 60/42/16 56/46/16 57/48/16 
# 44 polygons

