# 3ds Max Wavefront OBJ Exporter v0.97b - (c)2007 guruware
# File Created: 03.04.2017 17:24:46

mtllib Curtain_4A.mtl

#
# object polySurface786
#

v  -14.2500 11.0080 3.8905
v  14.2500 11.0080 3.8905
v  14.2500 12.0574 3.8905
v  -14.2500 12.0574 3.8905
v  14.2500 12.0574 2.7126
v  -14.2500 12.0574 2.7126
v  14.2500 11.0080 2.7126
v  -14.2500 11.0080 2.7126
v  -15.7761 11.5327 3.3015
v  -14.2393 10.8711 3.9631
v  -14.2393 12.1943 3.9631
v  -14.2393 12.1943 2.6399
v  -14.2393 10.8711 2.6399
v  15.7784 11.5327 3.3015
v  14.2416 10.8711 2.6399
v  14.2416 12.1943 2.6399
v  14.2416 12.1943 3.9631
v  14.2416 10.8711 3.9631
v  6.1810 -18.6173 2.7821
v  7.0560 -18.6173 3.8020
v  7.0560 11.3827 3.8020
v  6.1810 11.3827 2.7821
v  7.9310 -18.6173 2.7821
v  7.9310 11.3827 2.7821
v  8.8060 -18.6173 3.8020
v  8.8060 11.3827 3.8020
v  9.6810 -18.6173 2.7821
v  9.6810 11.3827 2.7821
v  10.5560 -18.6173 3.8020
v  10.5560 11.3827 3.8020
v  11.4310 -18.6173 2.7821
v  11.4310 11.3827 2.7821
v  12.3060 -18.6173 3.8020
v  12.3060 11.3827 3.8020
v  13.1810 -18.6173 2.7821
v  13.1810 11.3827 2.7821
v  -13.8970 11.9879 2.8159
v  -13.1030 11.9879 2.8159
v  -13.1030 11.9879 0.7500
v  -13.8970 11.9879 0.7500
v  -13.8970 11.0776 0.7500
v  -13.1030 11.0776 0.7500
v  -13.1030 11.0776 2.8159
v  -13.8970 11.0776 2.8159
v  13.1030 11.9879 2.8159
v  13.8970 11.9879 2.8159
v  13.8970 11.9879 0.7500
v  13.1030 11.9879 0.7500
v  13.1030 11.0776 0.7500
v  13.8970 11.0776 0.7500
v  13.8970 11.0776 2.8159
v  13.1030 11.0776 2.8159
v  6.8035 10.8854 4.0276
v  7.3085 10.8854 4.0276
v  7.3085 12.1800 4.0276
v  6.8035 12.1800 4.0276
v  7.3085 12.1800 2.5755
v  6.8035 12.1800 2.5755
v  7.3085 10.8854 2.5755
v  6.8035 10.8854 2.5755
v  7.6785 10.8854 4.0276
v  8.1835 10.8854 4.0276
v  8.1835 12.1800 4.0276
v  7.6785 12.1800 4.0276
v  8.1835 12.1800 2.5755
v  7.6785 12.1800 2.5755
v  8.1835 10.8854 2.5755
v  7.6785 10.8854 2.5755
v  8.5535 10.8854 4.0276
v  9.0585 10.8854 4.0276
v  9.0585 12.1800 4.0276
v  8.5535 12.1800 4.0276
v  9.0585 12.1800 2.5755
v  8.5535 12.1800 2.5755
v  9.0585 10.8854 2.5755
v  8.5535 10.8854 2.5755
v  9.4285 10.8854 4.0276
v  9.9335 10.8854 4.0276
v  9.9335 12.1800 4.0276
v  9.4285 12.1800 4.0276
v  9.9335 12.1800 2.5755
v  9.4285 12.1800 2.5755
v  9.9335 10.8854 2.5755
v  9.4285 10.8854 2.5755
v  10.3035 10.8854 4.0276
v  10.8085 10.8854 4.0276
v  10.8085 12.1800 4.0276
v  10.3035 12.1800 4.0276
v  10.8085 12.1800 2.5755
v  10.3035 12.1800 2.5755
v  10.8085 10.8854 2.5755
v  10.3035 10.8854 2.5755
v  11.1785 10.8854 4.0276
v  11.6835 10.8854 4.0276
v  11.6835 12.1800 4.0276
v  11.1785 12.1800 4.0276
v  11.6835 12.1800 2.5755
v  11.1785 12.1800 2.5755
v  11.6835 10.8854 2.5755
v  11.1785 10.8854 2.5755
v  12.0535 10.8854 4.0276
v  12.5585 10.8854 4.0276
v  12.5585 12.1800 4.0276
v  12.0535 12.1800 4.0276
v  12.5585 12.1800 2.5755
v  12.0535 12.1800 2.5755
v  12.5585 10.8854 2.5755
v  12.0535 10.8854 2.5755
v  6.1363 10.8854 4.0276
v  6.4335 10.8854 4.0276
v  6.4335 12.1800 4.0276
v  6.1363 12.1800 4.0276
v  6.4335 12.1800 2.5755
v  6.1363 12.1800 2.5755
v  6.4335 10.8854 2.5755
v  6.1363 10.8854 2.5755
v  13.1808 10.8854 2.5755
v  12.8836 10.8854 2.5755
v  12.8836 12.1800 2.5755
v  13.1808 12.1800 2.5755
v  12.8836 12.1800 4.0276
v  13.1808 12.1800 4.0276
v  12.8836 10.8854 4.0276
v  13.1808 10.8854 4.0276
v  -6.2247 10.8854 4.0276
v  -5.9275 10.8854 4.0276
v  -5.9275 12.1800 4.0276
v  -6.2247 12.1800 4.0276
v  -5.9275 12.1800 2.5755
v  -6.2247 12.1800 2.5755
v  -5.9275 10.8854 2.5755
v  -6.2247 10.8854 2.5755
v  -7.3125 10.8854 4.0276
v  -6.8075 10.8854 4.0276
v  -6.8075 12.1800 4.0276
v  -7.3125 12.1800 4.0276
v  -6.8075 12.1800 2.5755
v  -7.3125 12.1800 2.5755
v  -6.8075 10.8854 2.5755
v  -7.3125 10.8854 2.5755
v  -8.1825 10.8854 4.0276
v  -7.6775 10.8854 4.0276
v  -7.6775 12.1800 4.0276
v  -8.1825 12.1800 4.0276
v  -7.6775 12.1800 2.5755
v  -8.1825 12.1800 2.5755
v  -7.6775 10.8854 2.5755
v  -8.1825 10.8854 2.5755
v  -9.0625 10.8854 4.0276
v  -8.5575 10.8854 4.0276
v  -8.5575 12.1800 4.0276
v  -9.0625 12.1800 4.0276
v  -8.5575 12.1800 2.5755
v  -9.0625 12.1800 2.5755
v  -8.5575 10.8854 2.5755
v  -9.0625 10.8854 2.5755
v  -9.9325 10.8854 4.0276
v  -9.4275 10.8854 4.0276
v  -9.4275 12.1800 4.0276
v  -9.9325 12.1800 4.0276
v  -9.4275 12.1800 2.5755
v  -9.9325 12.1800 2.5755
v  -9.4275 10.8854 2.5755
v  -9.9325 10.8854 2.5755
v  -10.8125 10.8854 4.0276
v  -10.3075 10.8854 4.0276
v  -10.3075 12.1800 4.0276
v  -10.8125 12.1800 4.0276
v  -10.3075 12.1800 2.5755
v  -10.8125 12.1800 2.5755
v  -10.3075 10.8854 2.5755
v  -10.8125 10.8854 2.5755
v  -11.6825 10.8854 4.0276
v  -11.1775 10.8854 4.0276
v  -11.1775 12.1800 4.0276
v  -11.6825 12.1800 4.0276
v  -11.1775 12.1800 2.5755
v  -11.6825 12.1800 2.5755
v  -11.1775 10.8854 2.5755
v  -11.6825 10.8854 2.5755
v  -12.5625 10.8854 4.0276
v  -12.0575 10.8854 4.0276
v  -12.0575 12.1800 4.0276
v  -12.5625 12.1800 4.0276
v  -12.0575 12.1800 2.5755
v  -12.5625 12.1800 2.5755
v  -12.0575 10.8854 2.5755
v  -12.5625 10.8854 2.5755
v  -13.1847 10.8854 4.0276
v  -12.8875 10.8854 4.0276
v  -12.8875 12.1800 4.0276
v  -13.1847 12.1800 4.0276
v  -12.8875 12.1800 2.5755
v  -13.1847 12.1800 2.5755
v  -12.8875 10.8854 2.5755
v  -13.1847 10.8854 2.5755
v  -13.1800 -18.6173 2.7821
v  -12.3050 -18.6173 3.8020
v  -12.3050 11.3827 3.8020
v  -13.1800 11.3827 2.7821
v  -11.4300 -18.6173 2.7821
v  -11.4300 11.3827 2.7821
v  -10.5550 -18.6173 3.8020
v  -10.5550 11.3827 3.8020
v  -9.6800 -18.6173 2.7821
v  -9.6800 11.3827 2.7821
v  -8.8050 -18.6173 3.8020
v  -8.8050 11.3827 3.8020
v  -7.9300 -18.6173 2.7821
v  -7.9300 11.3827 2.7821
v  -7.0550 -18.6173 3.8020
v  -7.0550 11.3827 3.8020
v  -6.1800 -18.6173 2.7821
v  -6.1800 11.3827 2.7821
v  6.1810 -18.6173 2.7500
v  6.1810 11.3827 2.7500
v  7.0560 11.3827 3.7699
v  7.0560 -18.6173 3.7699
v  7.9310 11.3827 2.7500
v  7.9310 -18.6173 2.7500
v  8.8060 11.3827 3.7699
v  8.8060 -18.6173 3.7699
v  9.6810 11.3827 2.7500
v  9.6810 -18.6173 2.7500
v  10.5560 11.3827 3.7699
v  10.5560 -18.6173 3.7699
v  11.4310 11.3827 2.7500
v  11.4310 -18.6173 2.7500
v  12.3060 11.3827 3.7699
v  12.3060 -18.6173 3.7699
v  13.1810 11.3827 2.7500
v  13.1810 -18.6173 2.7500
v  -13.1800 -18.6173 2.7500
v  -13.1800 11.3827 2.7500
v  -12.3050 11.3827 3.7699
v  -12.3050 -18.6173 3.7699
v  -11.4300 11.3827 2.7500
v  -11.4300 -18.6173 2.7500
v  -10.5550 11.3827 3.7699
v  -10.5550 -18.6173 3.7699
v  -9.6800 11.3827 2.7500
v  -9.6800 -18.6173 2.7500
v  -8.8050 11.3827 3.7699
v  -8.8050 -18.6173 3.7699
v  -7.9300 11.3827 2.7500
v  -7.9300 -18.6173 2.7500
v  -7.0550 11.3827 3.7699
v  -7.0550 -18.6173 3.7699
v  -6.1800 11.3827 2.7500
v  -6.1800 -18.6173 2.7500
# 250 vertices

vn 0.0000 -0.0000 1.0000
vn 0.0000 1.0000 0.0000
vn 0.0000 0.0000 -1.0000
vn 0.0000 -1.0000 -0.0000
vn -0.3954 -0.0000 0.9185
vn -0.3954 0.9185 0.0000
vn -0.3954 0.0000 -0.9185
vn -0.3954 -0.9185 -0.0000
vn 1.0000 0.0000 -0.0000
vn 0.3954 0.0000 -0.9185
vn 0.3954 0.9185 0.0000
vn 0.3954 -0.0000 0.9185
vn 0.3954 -0.9185 -0.0000
vn -1.0000 0.0000 -0.0000
vn -0.7590 -0.0000 0.6511
vn -0.0000 -0.0000 1.0000
vn 0.7590 -0.0000 0.6511
vn 0.7590 0.0000 -0.6511
vn -0.0000 0.0000 -1.0000
vn -0.7590 0.0000 -0.6511
# 20 vertex normals

vt 0.9204 0.9586 0.0000
vt 0.7212 0.9586 0.0000
vt 0.7212 0.9512 0.0000
vt 0.9204 0.9512 0.0000
vt 0.7212 0.9430 0.0000
vt 0.9204 0.9430 0.0000
vt 0.7796 0.9632 0.0000
vt 0.7655 0.9284 0.0000
vt 0.7938 0.9284 0.0000
vt 0.7511 0.9634 0.0000
vt 0.7370 0.9286 0.0000
vt 0.7652 0.9286 0.0000
vt 0.7653 0.9286 0.0000
vt 0.7937 0.9284 0.0000
vt 0.8056 0.9218 0.0000
vt 0.8608 0.9218 0.0000
vt 0.8608 0.9770 0.0000
vt 0.8056 0.9770 0.0000
vt 0.6784 0.3395 0.0000
vt 0.6856 0.3395 0.0000
vt 0.6856 0.4991 0.0000
vt 0.6784 0.4991 0.0000
vt 0.6927 0.3395 0.0000
vt 0.6927 0.4991 0.0000
vt 0.6999 0.3395 0.0000
vt 0.6999 0.4991 0.0000
vt 0.7070 0.3395 0.0000
vt 0.7070 0.4991 0.0000
vt 0.7141 0.3395 0.0000
vt 0.7141 0.4991 0.0000
vt 0.7213 0.3395 0.0000
vt 0.7213 0.4991 0.0000
vt 0.7284 0.3395 0.0000
vt 0.7284 0.4991 0.0000
vt 0.7356 0.3395 0.0000
vt 0.7356 0.4991 0.0000
vt 0.8282 0.9212 0.0000
vt 0.8282 0.9410 0.0000
vt 0.7768 0.9410 0.0000
vt 0.7768 0.9212 0.0000
vt 0.8282 0.9636 0.0000
vt 0.7768 0.9636 0.0000
vt 0.7626 0.9637 0.0000
vt 0.7624 0.9710 0.0000
vt 0.7443 0.9710 0.0000
vt 0.7442 0.9637 0.0000
vt 0.7370 0.9636 0.0000
vt 0.7370 0.9433 0.0000
vt 0.7442 0.9432 0.0000
vt 0.7443 0.9359 0.0000
vt 0.7624 0.9359 0.0000
vt 0.7626 0.9432 0.0000
vt 0.7698 0.9433 0.0000
vt 0.7698 0.9636 0.0000
vt 0.7639 0.9628 0.0000
vt 0.7433 0.9628 0.0000
vt 0.7433 0.9444 0.0000
vt 0.7639 0.9444 0.0000
# 58 texture coords

g polySurface786
usemtl Atlas_2
s off
f 1/1/1 2/2/1 3/3/1 4/4/1 
f 4/4/2 3/3/2 5/5/2 6/6/2 
f 6/1/3 5/2/3 7/3/3 8/4/3 
f 8/4/4 7/3/4 2/5/4 1/6/4 
f 9/7/5 10/8/5 11/9/5 
f 9/10/6 11/11/6 12/12/6 
f 9/10/7 12/11/7 13/13/7 
f 9/7/8 13/8/8 10/14/8 
f 10/15/9 13/16/9 12/17/9 11/18/9 
f 14/7/10 15/8/10 16/9/10 
f 14/10/11 16/11/11 17/12/11 
f 14/10/12 17/11/12 18/13/12 
f 14/7/13 18/8/13 15/14/13 
f 15/15/14 18/16/14 17/17/14 16/18/14 
f 19/19/15 20/20/1 21/21/1 22/22/15 
f 20/20/1 23/23/16 24/24/16 21/21/1 
f 23/23/16 25/25/16 26/26/16 24/24/16 
f 25/25/16 27/27/1 28/28/1 26/26/16 
f 27/27/1 29/29/1 30/30/1 28/28/1 
f 29/29/1 31/31/1 32/32/1 30/30/1 
f 31/31/1 33/33/16 34/34/16 32/32/1 
f 33/33/16 35/35/17 36/36/17 34/34/16 
f 37/37/2 38/38/2 39/39/2 40/40/2 
f 41/39/4 42/40/4 43/37/4 44/38/4 
f 43/41/9 42/42/9 39/39/9 38/38/9 
f 41/39/14 44/38/14 37/41/14 40/42/14 
f 45/37/2 46/38/2 47/39/2 48/40/2 
f 49/39/4 50/40/4 51/37/4 52/38/4 
f 51/41/9 50/42/9 47/39/9 46/38/9 
f 49/39/14 52/38/14 45/41/14 48/42/14 
f 53/43/1 54/44/1 55/45/1 56/46/1 
f 56/46/2 55/47/2 57/48/2 58/49/2 
f 58/49/3 57/50/3 59/51/3 60/52/3 
f 60/52/4 59/53/4 54/54/4 53/43/4 
f 54/55/9 59/56/9 57/57/9 55/58/9 
f 60/52/14 53/43/14 56/46/14 58/49/14 
f 61/43/1 62/44/1 63/45/1 64/46/1 
f 64/46/2 63/47/2 65/48/2 66/49/2 
f 66/49/3 65/50/3 67/51/3 68/52/3 
f 68/52/4 67/53/4 62/54/4 61/43/4 
f 62/55/9 67/56/9 65/57/9 63/58/9 
f 68/52/14 61/43/14 64/46/14 66/49/14 
f 69/43/1 70/44/1 71/45/1 72/46/1 
f 72/46/2 71/47/2 73/48/2 74/49/2 
f 74/49/3 73/50/3 75/51/3 76/52/3 
f 76/52/4 75/53/4 70/54/4 69/43/4 
f 70/55/9 75/56/9 73/57/9 71/58/9 
f 76/52/14 69/43/14 72/46/14 74/49/14 
f 77/43/1 78/44/1 79/45/1 80/46/1 
f 80/46/2 79/47/2 81/48/2 82/49/2 
f 82/49/3 81/50/3 83/51/3 84/52/3 
f 84/52/4 83/53/4 78/54/4 77/43/4 
f 78/55/9 83/56/9 81/57/9 79/58/9 
f 84/52/14 77/43/14 80/46/14 82/49/14 
f 85/43/1 86/44/1 87/45/1 88/46/1 
f 88/46/2 87/47/2 89/48/2 90/49/2 
f 90/49/3 89/50/3 91/51/3 92/52/3 
f 92/52/4 91/53/4 86/54/4 85/43/4 
f 86/55/9 91/56/9 89/57/9 87/58/9 
f 92/52/14 85/43/14 88/46/14 90/49/14 
f 93/43/1 94/44/1 95/45/1 96/46/1 
f 96/46/2 95/47/2 97/48/2 98/49/2 
f 98/49/3 97/50/3 99/51/3 100/52/3 
f 100/52/4 99/53/4 94/54/4 93/43/4 
f 94/55/9 99/56/9 97/57/9 95/58/9 
f 100/52/14 93/43/14 96/46/14 98/49/14 
f 101/43/1 102/44/1 103/45/1 104/46/1 
f 104/46/2 103/47/2 105/48/2 106/49/2 
f 106/49/3 105/50/3 107/51/3 108/52/3 
f 108/52/4 107/53/4 102/54/4 101/43/4 
f 102/55/9 107/56/9 105/57/9 103/58/9 
f 108/52/14 101/43/14 104/46/14 106/49/14 
f 109/43/1 110/44/1 111/45/1 112/46/1 
f 112/46/2 111/47/2 113/48/2 114/49/2 
f 114/49/3 113/50/3 115/51/3 116/52/3 
f 116/52/4 115/53/4 110/54/4 109/43/4 
f 110/55/9 115/56/9 113/57/9 111/58/9 
f 116/52/14 109/43/14 112/46/14 114/49/14 
f 117/43/3 118/44/3 119/45/3 120/46/3 
f 120/46/2 119/47/2 121/48/2 122/49/2 
f 122/49/1 121/50/1 123/51/1 124/52/1 
f 124/52/4 123/53/4 118/54/4 117/43/4 
f 118/55/14 123/56/14 121/57/14 119/58/14 
f 124/52/9 117/43/9 120/46/9 122/49/9 
f 125/43/1 126/44/1 127/45/1 128/46/1 
f 128/46/2 127/47/2 129/48/2 130/49/2 
f 130/49/3 129/50/3 131/51/3 132/52/3 
f 132/52/4 131/53/4 126/54/4 125/43/4 
f 126/55/9 131/56/9 129/57/9 127/58/9 
f 132/52/14 125/43/14 128/46/14 130/49/14 
f 133/43/1 134/44/1 135/45/1 136/46/1 
f 136/46/2 135/47/2 137/48/2 138/49/2 
f 138/49/3 137/50/3 139/51/3 140/52/3 
f 140/52/4 139/53/4 134/54/4 133/43/4 
f 134/55/9 139/56/9 137/57/9 135/58/9 
f 140/52/14 133/43/14 136/46/14 138/49/14 
f 141/43/1 142/44/1 143/45/1 144/46/1 
f 144/46/2 143/47/2 145/48/2 146/49/2 
f 146/49/3 145/50/3 147/51/3 148/52/3 
f 148/52/4 147/53/4 142/54/4 141/43/4 
f 142/55/9 147/56/9 145/57/9 143/58/9 
f 148/52/14 141/43/14 144/46/14 146/49/14 
f 149/43/1 150/44/1 151/45/1 152/46/1 
f 152/46/2 151/47/2 153/48/2 154/49/2 
f 154/49/3 153/50/3 155/51/3 156/52/3 
f 156/52/4 155/53/4 150/54/4 149/43/4 
f 150/55/9 155/56/9 153/57/9 151/58/9 
f 156/52/14 149/43/14 152/46/14 154/49/14 
f 157/43/1 158/44/1 159/45/1 160/46/1 
f 160/46/2 159/47/2 161/48/2 162/49/2 
f 162/49/3 161/50/3 163/51/3 164/52/3 
f 164/52/4 163/53/4 158/54/4 157/43/4 
f 158/55/9 163/56/9 161/57/9 159/58/9 
f 164/52/14 157/43/14 160/46/14 162/49/14 
f 165/43/1 166/44/1 167/45/1 168/46/1 
f 168/46/2 167/47/2 169/48/2 170/49/2 
f 170/49/3 169/50/3 171/51/3 172/52/3 
f 172/52/4 171/53/4 166/54/4 165/43/4 
f 166/55/9 171/56/9 169/57/9 167/58/9 
f 172/52/14 165/43/14 168/46/14 170/49/14 
f 173/43/1 174/44/1 175/45/1 176/46/1 
f 176/46/2 175/47/2 177/48/2 178/49/2 
f 178/49/3 177/50/3 179/51/3 180/52/3 
f 180/52/4 179/53/4 174/54/4 173/43/4 
f 174/55/9 179/56/9 177/57/9 175/58/9 
f 180/52/14 173/43/14 176/46/14 178/49/14 
f 181/43/1 182/44/1 183/45/1 184/46/1 
f 184/46/2 183/47/2 185/48/2 186/49/2 
f 186/49/3 185/50/3 187/51/3 188/52/3 
f 188/52/4 187/53/4 182/54/4 181/43/4 
f 182/55/9 187/56/9 185/57/9 183/58/9 
f 188/52/14 181/43/14 184/46/14 186/49/14 
f 189/43/1 190/44/1 191/45/1 192/46/1 
f 192/46/2 191/47/2 193/48/2 194/49/2 
f 194/49/3 193/50/3 195/51/3 196/52/3 
f 196/52/4 195/53/4 190/54/4 189/43/4 
f 190/55/9 195/56/9 193/57/9 191/58/9 
f 196/52/14 189/43/14 192/46/14 194/49/14 
f 197/19/15 198/20/1 199/21/1 200/22/15 
f 198/20/1 201/23/16 202/24/16 199/21/1 
f 201/23/16 203/25/16 204/26/16 202/24/16 
f 203/25/16 205/27/1 206/28/1 204/26/16 
f 205/27/1 207/29/1 208/30/1 206/28/1 
f 207/29/1 209/31/1 210/32/1 208/30/1 
f 209/31/1 211/33/16 212/34/16 210/32/1 
f 211/33/16 213/35/17 214/36/17 212/34/16 
f 215/19/18 216/22/18 217/21/19 218/20/19 
f 218/20/19 217/21/19 219/24/3 220/23/3 
f 220/23/3 219/24/3 221/26/3 222/25/3 
f 222/25/3 221/26/3 223/28/3 224/27/3 
f 224/27/3 223/28/3 225/30/19 226/29/19 
f 226/29/19 225/30/19 227/32/3 228/31/3 
f 228/31/3 227/32/3 229/34/3 230/33/3 
f 230/33/3 229/34/3 231/36/20 232/35/20 
f 233/19/18 234/22/18 235/21/19 236/20/19 
f 236/20/19 235/21/19 237/24/3 238/23/3 
f 238/23/3 237/24/3 239/26/3 240/25/3 
f 240/25/3 239/26/3 241/28/3 242/27/3 
f 242/27/3 241/28/3 243/30/19 244/29/19 
f 244/29/19 243/30/19 245/32/3 246/31/3 
f 246/31/3 245/32/3 247/34/3 248/33/3 
f 248/33/3 247/34/3 249/36/20 250/35/20 
# 154 polygons - 8 triangles

