# 3ds Max Wavefront OBJ Exporter v0.97b - (c)2007 guruware
# File Created: 03.04.2017 17:24:33

mtllib Curtain_3B.mtl

#
# object polySurface811
#

v  -12.5625 12.0574 3.8905
v  11.4532 12.0574 3.8905
v  11.4532 12.0574 2.7126
v  -12.5625 12.0574 2.7126
v  -12.5625 11.0080 2.7126
v  11.4532 11.0080 2.7126
v  -12.5625 11.0080 3.8905
v  11.4532 11.0080 3.8905
v  1.5432 -18.6173 2.7821
v  2.6370 -18.6173 3.8020
v  2.6370 11.3827 3.8020
v  1.5432 11.3827 2.7821
v  3.7307 -18.6173 2.7821
v  3.7307 11.3827 2.7821
v  4.8245 -18.6173 3.8020
v  4.8245 11.3827 3.8020
v  5.9182 -18.6173 2.7821
v  5.9182 11.3827 2.7821
v  7.0120 -18.6173 3.8020
v  7.0120 11.3827 3.8020
v  8.1057 -18.6173 2.7821
v  8.1057 11.3827 2.7821
v  9.1995 -18.6173 3.8020
v  9.1995 11.3827 3.8020
v  10.2932 -18.6173 2.7821
v  10.2932 11.3827 2.7821
v  2.3214 10.8854 4.0276
v  2.9526 10.8854 4.0276
v  2.9526 12.1800 4.0276
v  2.3214 12.1800 4.0276
v  2.9526 12.1800 2.5755
v  2.3214 12.1800 2.5755
v  2.9526 10.8854 2.5755
v  2.3214 10.8854 2.5755
v  3.4151 10.8854 4.0276
v  4.0463 10.8854 4.0276
v  4.0463 12.1800 4.0276
v  3.4151 12.1800 4.0276
v  4.0463 12.1800 2.5755
v  3.4151 12.1800 2.5755
v  4.0463 10.8854 2.5755
v  3.4151 10.8854 2.5755
v  4.5089 10.8854 4.0276
v  5.1401 10.8854 4.0276
v  5.1401 12.1800 4.0276
v  4.5089 12.1800 4.0276
v  5.1401 12.1800 2.5755
v  4.5089 12.1800 2.5755
v  5.1401 10.8854 2.5755
v  4.5089 10.8854 2.5755
v  5.6026 10.8854 4.0276
v  6.2338 10.8854 4.0276
v  6.2338 12.1800 4.0276
v  5.6026 12.1800 4.0276
v  6.2338 12.1800 2.5755
v  5.6026 12.1800 2.5755
v  6.2338 10.8854 2.5755
v  5.6026 10.8854 2.5755
v  6.6964 10.8854 4.0276
v  7.3276 10.8854 4.0276
v  7.3276 12.1800 4.0276
v  6.6964 12.1800 4.0276
v  7.3276 12.1800 2.5755
v  6.6964 12.1800 2.5755
v  7.3276 10.8854 2.5755
v  6.6964 10.8854 2.5755
v  7.7901 10.8854 4.0276
v  8.4213 10.8854 4.0276
v  8.4213 12.1800 4.0276
v  7.7901 12.1800 4.0276
v  8.4213 12.1800 2.5755
v  7.7901 12.1800 2.5755
v  8.4213 10.8854 2.5755
v  7.7901 10.8854 2.5755
v  8.8839 10.8854 4.0276
v  9.5151 10.8854 4.0276
v  9.5151 12.1800 4.0276
v  8.8839 12.1800 4.0276
v  9.5151 12.1800 2.5755
v  8.8839 12.1800 2.5755
v  9.5151 10.8854 2.5755
v  8.8839 10.8854 2.5755
v  10.2929 10.8854 2.5755
v  9.9214 10.8854 2.5755
v  9.9214 12.1800 2.5755
v  10.2929 12.1800 2.5755
v  9.9214 12.1800 4.0276
v  10.2929 12.1800 4.0276
v  9.9214 10.8854 4.0276
v  10.2929 10.8854 4.0276
v  1.5432 -18.6173 2.7242
v  1.5432 11.3827 2.7242
v  2.6370 11.3827 3.7441
v  2.6370 -18.6173 3.7441
v  3.7307 11.3827 2.7242
v  3.7307 -18.6173 2.7242
v  4.8245 11.3827 3.7441
v  4.8245 -18.6173 3.7441
v  5.9182 11.3827 2.7242
v  5.9182 -18.6173 2.7242
v  7.0120 11.3827 3.7441
v  7.0120 -18.6173 3.7441
v  8.1057 11.3827 2.7242
v  8.1057 -18.6173 2.7242
v  9.1995 11.3827 3.7441
v  9.1995 -18.6173 3.7441
v  10.2932 11.3827 2.7242
v  10.2932 -18.6173 2.7242
v  1.3273 10.8854 4.0276
v  1.7591 10.8854 4.0276
v  1.7591 12.1800 4.0276
v  1.3273 12.1800 4.0276
v  1.7591 12.1800 2.5755
v  1.3273 12.1800 2.5755
v  1.7591 10.8854 2.5755
v  1.3273 10.8854 2.5755
# 116 vertices

vn 0.0000 1.0000 0.0000
vn 0.0000 0.0000 -1.0000
vn 0.0000 -1.0000 -0.0000
vn 0.0000 -0.0000 1.0000
vn -0.6820 -0.0000 0.7314
vn -0.0000 -0.0000 1.0000
vn 0.6820 -0.0000 0.7314
vn 1.0000 0.0000 -0.0000
vn -1.0000 0.0000 -0.0000
vn 0.6820 0.0000 -0.7314
vn -0.0000 0.0000 -1.0000
vn -0.6820 0.0000 -0.7314
# 12 vertex normals

vt 0.9292 0.9493 0.0000
vt 0.6985 0.9493 0.0000
vt 0.6985 0.9380 0.0000
vt 0.9292 0.9380 0.0000
vt 0.9292 0.9494 0.0000
vt 0.9292 0.9594 0.0000
vt 0.6985 0.9594 0.0000
vt 0.6985 0.9494 0.0000
vt 0.6189 0.3395 0.0000
vt 0.6261 0.3395 0.0000
vt 0.6261 0.4991 0.0000
vt 0.6189 0.4991 0.0000
vt 0.6332 0.3395 0.0000
vt 0.6332 0.4991 0.0000
vt 0.6403 0.3395 0.0000
vt 0.6403 0.4991 0.0000
vt 0.6475 0.3395 0.0000
vt 0.6475 0.4991 0.0000
vt 0.6546 0.3395 0.0000
vt 0.6546 0.4991 0.0000
vt 0.6618 0.3395 0.0000
vt 0.6618 0.4991 0.0000
vt 0.6689 0.3395 0.0000
vt 0.6689 0.4991 0.0000
vt 0.6761 0.3395 0.0000
vt 0.6761 0.4991 0.0000
vt 0.7736 0.9719 0.0000
vt 0.7735 0.9791 0.0000
vt 0.7553 0.9791 0.0000
vt 0.7552 0.9719 0.0000
vt 0.7480 0.9718 0.0000
vt 0.7480 0.9514 0.0000
vt 0.7552 0.9513 0.0000
vt 0.7553 0.9441 0.0000
vt 0.7735 0.9441 0.0000
vt 0.7736 0.9513 0.0000
vt 0.7808 0.9514 0.0000
vt 0.7808 0.9718 0.0000
vt 0.7749 0.9710 0.0000
vt 0.7543 0.9710 0.0000
vt 0.7543 0.9526 0.0000
vt 0.7749 0.9526 0.0000
vt 0.6263 0.4991 0.0000
vt 0.6263 0.3395 0.0000
vt 0.6406 0.4991 0.0000
vt 0.6406 0.3395 0.0000
vt 0.6549 0.4991 0.0000
vt 0.6549 0.3395 0.0000
vt 0.6692 0.4991 0.0000
vt 0.6692 0.3395 0.0000
# 50 texture coords

g polySurface811
usemtl Atlas_2
s off
f 1/1/1 2/2/1 3/3/1 4/4/1 
f 5/5/2 4/6/2 3/7/2 6/8/2 
f 7/4/3 5/5/3 6/8/3 8/3/3 
f 1/1/4 7/6/4 8/7/4 2/2/4 
f 9/9/5 10/10/4 11/11/4 12/12/5 
f 10/10/4 13/13/4 14/14/4 11/11/4 
f 13/13/4 15/15/4 16/16/4 14/14/4 
f 15/15/4 17/17/6 18/18/6 16/16/4 
f 17/17/6 19/19/6 20/20/6 18/18/6 
f 19/19/6 21/21/4 22/22/4 20/20/6 
f 21/21/4 23/23/4 24/24/4 22/22/4 
f 23/23/4 25/25/7 26/26/7 24/24/4 
f 27/27/4 28/28/4 29/29/4 30/30/4 
f 30/30/1 29/31/1 31/32/1 32/33/1 
f 32/33/2 31/34/2 33/35/2 34/36/2 
f 34/36/3 33/37/3 28/38/3 27/27/3 
f 28/39/8 33/40/8 31/41/8 29/42/8 
f 34/36/9 27/27/9 30/30/9 32/33/9 
f 35/27/4 36/28/4 37/29/4 38/30/4 
f 38/30/1 37/31/1 39/32/1 40/33/1 
f 40/33/2 39/34/2 41/35/2 42/36/2 
f 42/36/3 41/37/3 36/38/3 35/27/3 
f 36/39/8 41/40/8 39/41/8 37/42/8 
f 42/36/9 35/27/9 38/30/9 40/33/9 
f 43/27/4 44/28/4 45/29/4 46/30/4 
f 46/30/1 45/31/1 47/32/1 48/33/1 
f 48/33/2 47/34/2 49/35/2 50/36/2 
f 50/36/3 49/37/3 44/38/3 43/27/3 
f 44/39/8 49/40/8 47/41/8 45/42/8 
f 50/36/9 43/27/9 46/30/9 48/33/9 
f 51/27/4 52/28/4 53/29/4 54/30/4 
f 54/30/1 53/31/1 55/32/1 56/33/1 
f 56/33/2 55/34/2 57/35/2 58/36/2 
f 58/36/3 57/37/3 52/38/3 51/27/3 
f 52/39/8 57/40/8 55/41/8 53/42/8 
f 58/36/9 51/27/9 54/30/9 56/33/9 
f 59/27/4 60/28/4 61/29/4 62/30/4 
f 62/30/1 61/31/1 63/32/1 64/33/1 
f 64/33/2 63/34/2 65/35/2 66/36/2 
f 66/36/3 65/37/3 60/38/3 59/27/3 
f 60/39/8 65/40/8 63/41/8 61/42/8 
f 66/36/9 59/27/9 62/30/9 64/33/9 
f 67/27/4 68/28/4 69/29/4 70/30/4 
f 70/30/1 69/31/1 71/32/1 72/33/1 
f 72/33/2 71/34/2 73/35/2 74/36/2 
f 74/36/3 73/37/3 68/38/3 67/27/3 
f 68/39/8 73/40/8 71/41/8 69/42/8 
f 74/36/9 67/27/9 70/30/9 72/33/9 
f 75/27/4 76/28/4 77/29/4 78/30/4 
f 78/30/1 77/31/1 79/32/1 80/33/1 
f 80/33/2 79/34/2 81/35/2 82/36/2 
f 82/36/3 81/37/3 76/38/3 75/27/3 
f 76/39/8 81/40/8 79/41/8 77/42/8 
f 82/36/9 75/27/9 78/30/9 80/33/9 
f 83/27/2 84/28/2 85/29/2 86/30/2 
f 86/30/1 85/31/1 87/32/1 88/33/1 
f 88/33/4 87/34/4 89/35/4 90/36/4 
f 90/36/3 89/37/3 84/38/3 83/27/3 
f 84/39/9 89/40/9 87/41/9 85/42/9 
f 90/36/8 83/27/8 86/30/8 88/33/8 
f 91/9/10 92/12/10 93/43/11 94/44/11 
f 94/44/11 93/43/11 95/14/11 96/13/11 
f 96/13/11 95/14/11 97/45/11 98/46/11 
f 98/46/11 97/45/11 99/18/2 100/17/2 
f 100/17/2 99/18/2 101/47/2 102/48/2 
f 102/48/2 101/47/2 103/22/11 104/21/11 
f 104/21/11 103/22/11 105/49/11 106/50/11 
f 106/50/11 105/49/11 107/26/12 108/25/12 
f 109/27/4 110/28/4 111/29/4 112/30/4 
f 112/30/1 111/31/1 113/32/1 114/33/1 
f 114/33/2 113/34/2 115/35/2 116/36/2 
f 116/36/3 115/37/3 110/38/3 109/27/3 
f 110/39/8 115/40/8 113/41/8 111/42/8 
f 116/36/9 109/27/9 112/30/9 114/33/9 
# 74 polygons

