# 3ds Max Wavefront OBJ Exporter v0.97b - (c)2007 guruware
# File Created: 03.04.2017 17:30:54

mtllib Desk_1A.mtl

#
# object polySurface1504
#

v  -0.2500 9.2206 4.9016
v  20.2745 9.2206 4.9016
v  20.2745 10.0409 4.9016
v  -0.2500 10.0409 4.9016
v  20.2745 10.0409 -5.0794
v  -0.2500 10.0409 -5.0794
v  20.2745 9.2206 -5.0794
v  -0.2500 9.2206 -5.0794
v  0.0000 1.5149 4.5000
v  5.2326 1.5149 4.5000
v  5.2326 9.2206 4.5000
v  0.0000 9.2206 4.5000
v  0.0000 9.2206 -4.6778
v  5.2326 9.2206 -4.6778
v  5.2326 1.5149 -4.6778
v  0.0000 1.5149 -4.6778
v  14.7793 9.2206 -4.6778
v  20.0119 9.2206 -4.6778
v  20.0119 1.5149 -4.6778
v  14.7793 1.5149 -4.6778
v  -0.2500 -0.0000 4.9016
v  5.4974 -0.0000 4.9016
v  5.4974 1.5149 4.9016
v  -0.2500 1.5149 4.9016
v  -0.2500 1.5149 -5.0794
v  5.4974 1.5149 -5.0794
v  5.4974 0.0000 -5.0794
v  -0.2500 0.0000 -5.0794
v  14.5026 -0.0000 4.9016
v  20.2500 -0.0000 4.9016
v  20.2500 1.5149 4.9016
v  14.5026 1.5149 4.9016
v  14.5026 1.5149 -5.0794
v  20.2500 1.5149 -5.0794
v  20.2500 0.0000 -5.0794
v  14.5026 0.0000 -5.0794
v  14.7674 1.5149 4.5000
v  20.0000 1.5149 4.5000
v  20.0000 9.2206 4.5000
v  14.7674 9.2206 4.5000
v  17.0564 8.1132 5.0951
v  16.7128 8.1132 4.5000
v  16.4865 8.1132 4.5000
v  16.9432 8.1132 5.2911
v  17.7436 8.1132 5.0951
v  17.8568 8.1132 5.2911
v  18.0872 8.1132 4.5000
v  18.3135 8.1132 4.5000
v  16.4865 7.8868 4.5000
v  16.9432 7.8868 5.2911
v  17.8568 7.8868 5.2911
v  18.3135 7.8868 4.5000
v  16.7128 7.8868 4.5000
v  17.0564 7.8868 5.0951
v  17.7436 7.8868 5.0951
v  18.0872 7.8868 4.5000
v  17.0564 5.6132 5.0951
v  16.7128 5.6132 4.5000
v  16.4865 5.6132 4.5000
v  16.9432 5.6132 5.2911
v  17.7436 5.6132 5.0951
v  17.8568 5.6132 5.2911
v  18.0872 5.6132 4.5000
v  18.3135 5.6132 4.5000
v  16.4865 5.3868 4.5000
v  16.9432 5.3868 5.2911
v  17.8568 5.3868 5.2911
v  18.3135 5.3868 4.5000
v  16.7128 5.3868 4.5000
v  17.0564 5.3868 5.0951
v  17.7436 5.3868 5.0951
v  18.0872 5.3868 4.5000
v  17.0564 3.1132 5.0951
v  16.7128 3.1132 4.5000
v  16.4865 3.1132 4.5000
v  16.9432 3.1132 5.2911
v  17.7436 3.1132 5.0951
v  17.8568 3.1132 5.2911
v  18.0872 3.1132 4.5000
v  18.3135 3.1132 4.5000
v  16.4865 2.8868 4.5000
v  16.9432 2.8868 5.2911
v  17.8568 2.8868 5.2911
v  18.3135 2.8868 4.5000
v  16.7128 2.8868 4.5000
v  17.0564 2.8868 5.0951
v  17.7436 2.8868 5.0951
v  18.0872 2.8868 4.5000
v  4.1042 3.4860 5.1990
v  4.1042 3.0825 4.5000
v  4.1042 2.8166 4.5000
v  4.1042 3.3531 5.4293
v  4.1042 4.2932 5.1990
v  4.1042 4.4261 5.4293
v  4.1042 4.6967 4.5000
v  4.1042 4.9626 4.5000
v  4.3701 2.8166 4.5000
v  4.3701 3.3531 5.4293
v  4.3701 4.4261 5.4293
v  4.3701 4.9626 4.5000
v  4.3701 3.0825 4.5000
v  4.3701 3.4860 5.1990
v  4.3701 4.2932 5.1990
v  4.3701 4.6967 4.5000
v  5.0867 1.5149 4.7166
v  5.4434 1.5149 4.7166
v  5.4434 9.2206 4.7166
v  5.0867 9.2206 4.7166
v  5.0867 9.2206 -4.9249
v  5.4434 9.2206 -4.9249
v  5.4434 1.5149 -4.9249
v  5.0867 1.5149 -4.9249
v  -0.1971 1.5149 4.7166
v  0.1596 1.5149 4.7166
v  0.1596 9.2206 4.7166
v  -0.1971 9.2206 4.7166
v  -0.1971 9.2206 -4.9249
v  0.1596 9.2206 -4.9249
v  0.1596 1.5149 -4.9249
v  -0.1971 1.5149 -4.9249
v  19.8411 1.5149 4.7166
v  20.1977 1.5149 4.7166
v  20.1977 9.2206 4.7166
v  19.8411 9.2206 4.7166
v  19.8411 9.2206 -4.9249
v  20.1977 9.2206 -4.9249
v  20.1977 1.5149 -4.9249
v  19.8411 1.5149 -4.9249
v  14.5573 1.5149 4.7166
v  14.9139 1.5149 4.7166
v  14.9139 9.2206 4.7166
v  14.5573 9.2206 4.7166
v  14.5573 9.2206 -4.9249
v  14.9139 9.2206 -4.9249
v  14.9139 1.5149 -4.9249
v  14.5573 1.5149 -4.9249
# 136 vertices

vn 0.0000 -0.0000 1.0000
vn 0.0000 1.0000 0.0000
vn 0.0000 0.0000 -1.0000
vn 0.0000 -1.0000 -0.0000
vn 1.0000 0.0000 -0.0000
vn -1.0000 0.0000 -0.0000
vn 0.0000 1.0000 -0.0000
vn -0.0000 1.0000 0.0000
vn -0.8660 -0.0000 0.5000
vn 0.8660 -0.0000 0.5000
vn 0.8660 0.0000 -0.5000
vn -0.0000 0.0000 -1.0000
vn -0.8660 -0.0000 -0.5000
vn 0.0000 -1.0000 0.0000
vn -0.0000 1.0000 -0.0000
vn -1.0000 0.0000 0.0000
vn -0.0000 -0.8660 0.5000
vn 0.0000 0.8660 0.5000
vn 1.0000 0.0000 0.0000
vn 1.0000 -0.0000 -0.0000
vn 0.0000 0.8660 -0.5000
vn 0.0000 -0.8660 -0.5000
# 22 vertex normals

vt 0.4534 0.8784 0.0000
vt 0.6781 0.8784 0.0000
vt 0.6781 0.8874 0.0000
vt 0.4534 0.8874 0.0000
vt 0.6781 0.9967 0.0000
vt 0.4534 0.9967 0.0000
vt 0.6871 0.8874 0.0000
vt 0.6871 0.9967 0.0000
vt 0.4444 0.9967 0.0000
vt 0.4444 0.8874 0.0000
vt 0.8545 0.7584 0.0000
vt 0.9147 0.7584 0.0000
vt 0.9147 0.8376 0.0000
vt 0.8545 0.8376 0.0000
vt 0.6111 0.9854 0.0000
vt 0.5510 0.9854 0.0000
vt 0.5510 0.8968 0.0000
vt 0.6111 0.8968 0.0000
vt 0.4577 0.9984 0.0000
vt 0.4577 0.9029 0.0000
vt 0.4829 0.9029 0.0000
vt 0.4829 0.9984 0.0000
vt 0.6488 0.9984 0.0000
vt 0.6488 0.9029 0.0000
vt 0.6739 0.9029 0.0000
vt 0.6739 0.9984 0.0000
vt 0.4829 0.8777 0.0000
vt 0.6488 0.8777 0.0000
vt 0.6488 0.9028 0.0000
vt 0.4829 0.9028 0.0000
vt 0.4829 0.8776 0.0000
vt 0.6488 0.8776 0.0000
vt 0.6792 0.8770 0.0000
vt 0.6792 0.9725 0.0000
vt 0.6540 0.9725 0.0000
vt 0.6540 0.8770 0.0000
vt 0.4881 0.8770 0.0000
vt 0.4881 0.9725 0.0000
vt 0.4629 0.9725 0.0000
vt 0.4629 0.8770 0.0000
vt 0.6540 0.9977 0.0000
vt 0.4881 0.9977 0.0000
vt 0.4881 0.9726 0.0000
vt 0.6540 0.9726 0.0000
vt 0.6540 0.9978 0.0000
vt 0.4881 0.9978 0.0000
vt 0.8700 0.7712 0.0000
vt 0.9302 0.7712 0.0000
vt 0.9302 0.8598 0.0000
vt 0.8700 0.8598 0.0000
vt 0.2477 0.7700 0.0000
vt 0.2477 0.7870 0.0000
vt 0.2434 0.7888 0.0000
vt 0.2434 0.7703 0.0000
vt 0.2477 0.7513 0.0000
vt 0.2434 0.7510 0.0000
vt 0.2477 0.7343 0.0000
vt 0.2434 0.7325 0.0000
vt 0.2384 0.7888 0.0000
vt 0.2384 0.7703 0.0000
vt 0.2384 0.7510 0.0000
vt 0.2384 0.7325 0.0000
vt 0.2341 0.7861 0.0000
vt 0.2341 0.7701 0.0000
vt 0.2341 0.7512 0.0000
vt 0.2341 0.7353 0.0000
vt 0.2291 0.7851 0.0000
vt 0.2291 0.7701 0.0000
vt 0.2291 0.7512 0.0000
vt 0.2291 0.7362 0.0000
vt 0.6548 0.8767 0.0000
vt 0.6548 0.8982 0.0000
vt 0.5032 0.8982 0.0000
vt 0.5032 0.8767 0.0000
vt 0.5032 0.8766 0.0000
vt 0.6548 0.8766 0.0000
vt 0.6548 0.9957 0.0000
vt 0.5032 0.9957 0.0000
# 78 texture coords

g polySurface1504
usemtl Atlas_2
s off
f 1/1/1 2/2/1 3/3/1 4/4/1 
f 4/4/2 3/3/2 5/5/2 6/6/2 
f 6/1/3 5/2/3 7/3/3 8/4/3 
f 8/4/4 7/3/4 2/5/4 1/6/4 
f 2/7/5 7/8/5 5/5/5 3/3/5 
f 8/9/6 1/10/6 4/4/6 6/6/6 
f 9/11/1 10/12/1 11/13/1 12/14/1 
f 13/15/3 14/16/3 15/17/3 16/18/3 
f 17/15/3 18/16/3 19/17/3 20/18/3 
f 21/19/1 22/20/1 23/21/1 24/22/1 
f 25/23/3 26/24/3 27/25/3 28/26/3 
f 22/27/5 27/28/5 26/24/5 23/21/5 
f 28/29/6 21/30/6 24/31/6 25/32/6 
f 29/33/1 30/34/1 31/35/1 32/36/1 
f 33/37/3 34/38/3 35/39/3 36/40/3 
f 30/41/5 35/42/5 34/38/5 31/35/5 
f 36/43/6 29/44/6 32/45/6 33/46/6 
f 37/47/1 38/48/1 39/49/1 40/50/1 
f 41/51/7 42/52/7 43/53/7 44/54/7 
f 45/55/8 41/51/8 44/54/8 46/56/8 
f 47/57/7 45/55/7 46/56/7 48/58/7 
f 44/54/9 43/53/9 49/59/9 50/60/9 
f 46/56/1 44/54/1 50/60/1 51/61/1 
f 48/58/10 46/56/10 51/61/10 52/62/10 
f 50/60/4 49/59/4 53/63/4 54/64/4 
f 51/61/4 50/60/4 54/64/4 55/65/4 
f 52/62/4 51/61/4 55/65/4 56/66/4 
f 54/64/11 53/63/11 42/67/11 41/68/11 
f 55/65/12 54/64/12 41/68/12 45/69/12 
f 56/66/13 55/65/13 45/69/13 47/70/13 
f 57/51/2 58/52/2 59/53/2 60/54/2 
f 61/55/8 57/51/8 60/54/8 62/56/8 
f 63/57/2 61/55/2 62/56/2 64/58/2 
f 60/54/9 59/53/9 65/59/9 66/60/9 
f 62/56/1 60/54/1 66/60/1 67/61/1 
f 64/58/10 62/56/10 67/61/10 68/62/10 
f 66/60/14 65/59/14 69/63/14 70/64/14 
f 67/61/4 66/60/4 70/64/4 71/65/4 
f 68/62/4 67/61/4 71/65/4 72/66/4 
f 70/64/11 69/63/11 58/67/11 57/68/11 
f 71/65/12 70/64/12 57/68/12 61/69/12 
f 72/66/13 71/65/13 61/69/13 63/70/13 
f 73/51/7 74/52/7 75/53/7 76/54/7 
f 77/55/15 73/51/15 76/54/15 78/56/15 
f 79/57/2 77/55/2 78/56/2 80/58/2 
f 76/54/9 75/53/9 81/59/9 82/60/9 
f 78/56/1 76/54/1 82/60/1 83/61/1 
f 80/58/10 78/56/10 83/61/10 84/62/10 
f 82/60/4 81/59/4 85/63/4 86/64/4 
f 83/61/4 82/60/4 86/64/4 87/65/4 
f 84/62/14 83/61/14 87/65/14 88/66/14 
f 86/64/11 85/63/11 74/67/11 73/68/11 
f 87/65/3 86/64/3 73/68/3 77/69/3 
f 88/66/13 87/65/13 77/69/13 79/70/13 
f 89/51/16 90/52/16 91/53/16 92/54/16 
f 93/55/6 89/51/6 92/54/6 94/56/6 
f 95/57/6 93/55/6 94/56/6 96/58/6 
f 92/54/17 91/53/17 97/59/17 98/60/17 
f 94/56/1 92/54/1 98/60/1 99/61/1 
f 96/58/18 94/56/18 99/61/18 100/62/18 
f 98/60/19 97/59/19 101/63/19 102/64/19 
f 99/61/20 98/60/20 102/64/20 103/65/20 
f 100/62/20 99/61/20 103/65/20 104/66/20 
f 102/64/21 101/63/21 90/67/21 89/68/21 
f 103/65/3 102/64/3 89/68/3 93/69/3 
f 104/66/22 103/65/22 93/69/22 95/70/22 
f 105/71/1 106/72/1 107/73/1 108/74/1 
f 109/73/3 110/75/3 111/76/3 112/72/3 
f 106/72/5 111/77/5 110/78/5 107/73/5 
f 112/72/6 105/77/6 108/78/6 109/73/6 
f 113/71/1 114/72/1 115/73/1 116/74/1 
f 117/73/3 118/75/3 119/76/3 120/72/3 
f 114/72/5 119/77/5 118/78/5 115/73/5 
f 120/72/6 113/77/6 116/78/6 117/73/6 
f 121/71/1 122/72/1 123/73/1 124/74/1 
f 125/73/3 126/75/3 127/76/3 128/72/3 
f 122/72/5 127/77/5 126/78/5 123/73/5 
f 128/72/6 121/77/6 124/78/6 125/73/6 
f 129/71/1 130/72/1 131/73/1 132/74/1 
f 133/73/3 134/75/3 135/76/3 136/72/3 
f 130/72/5 135/77/5 134/78/5 131/73/5 
f 136/72/6 129/77/6 132/78/6 133/73/6 
f 31/35/2 34/38/2 33/46/2 32/36/2 
f 23/21/2 26/24/2 25/32/2 24/22/2 
# 84 polygons

