# 3ds Max Wavefront OBJ Exporter v0.97b - (c)2007 guruware
# File Created: 03.04.2017 17:31:26

mtllib Door_2.mtl

#
# object pCube117
#

v  -8.5000 -20.0000 0.5000
v  8.5000 -20.0000 0.5000
v  8.5000 9.9049 0.5000
v  -8.5000 9.9049 0.5000
v  8.5000 9.9049 -0.5000
v  -8.5000 9.9049 -0.5000
v  8.5000 -20.0000 -0.5000
v  -8.5000 -20.0000 -0.5000
# 8 vertices

vn 0.0000 -0.0000 1.0000
vn 0.0000 1.0000 0.0000
vn 0.0000 0.0000 -1.0000
vn 0.0000 -1.0000 -0.0000
vn 1.0000 0.0000 -0.0000
vn -1.0000 0.0000 -0.0000
# 6 vertex normals

vt 0.6907 0.0004 0.0000
vt 0.7493 0.0004 0.0000
vt 0.7493 0.1035 0.0000
vt 0.6907 0.1035 0.0000
vt 0.7493 0.1070 0.0000
vt 0.6907 0.1070 0.0000
vt 0.6872 0.1035 0.0000
vt 0.6872 0.0004 0.0000
# 8 texture coords

g pCube117
usemtl Atlas_2
s off
f 1/1/1 2/2/1 3/3/1 4/4/1 
f 4/4/2 3/3/2 5/5/2 6/6/2 
f 6/4/3 5/3/3 7/2/3 8/1/3 
f 8/5/4 7/6/4 2/4/4 1/3/4 
f 2/4/5 7/7/5 5/8/5 3/1/5 
f 8/8/6 1/1/6 4/4/6 6/7/6 
# 6 polygons

