# 3ds Max Wavefront OBJ Exporter v0.97b - (c)2007 guruware
# File Created: 03.04.2017 17:31:16

mtllib Door_1.mtl

#
# object polySurface73
#

v  -11.5000 12.4649 1.5000
v  -11.5000 -20.0000 1.5000
v  -8.5000 -20.0000 1.5000
v  -8.5000 9.9049 1.5000
v  11.5000 12.4649 -1.5000
v  -11.5000 12.4649 -1.5000
v  11.5000 12.4649 1.5000
v  -8.5000 9.9049 -1.5000
v  -8.5000 -20.0000 -1.5000
v  -11.5000 -20.0000 -1.5000
v  8.5000 9.9049 1.5000
v  8.5000 -20.0000 1.5000
v  11.5000 -20.0000 1.5000
v  11.5000 -20.0000 -1.5000
v  8.5000 -20.0000 -1.5000
v  8.5000 9.9049 -1.5000
# 16 vertices

vn -0.0000 -0.0000 1.0000
vn 0.0000 1.0000 0.0000
vn -0.0000 0.0000 -1.0000
vn 1.0000 0.0000 -0.0000
vn -1.0000 0.0000 -0.0000
vn 0.0000 -0.0000 1.0000
vn 0.0000 0.0000 -1.0000
vn 0.0000 -1.0000 -0.0000
# 8 vertex normals

vt 0.9395 0.9420 0.0000
vt 0.6928 0.9420 0.0000
vt 0.6928 0.9192 0.0000
vt 0.9201 0.9192 0.0000
vt 0.7290 0.9387 0.0000
vt 0.9038 0.9387 0.0000
vt 0.9038 0.9615 0.0000
vt 0.7290 0.9615 0.0000
vt 0.9201 0.9876 0.0000
vt 0.6928 0.9876 0.0000
vt 0.6928 0.9648 0.0000
vt 0.9395 0.9648 0.0000
vt 0.6928 0.8964 0.0000
vt 0.9201 0.8964 0.0000
vt 0.8810 0.9809 0.0000
vt 0.7518 0.9809 0.0000
vt 0.9201 0.9650 0.0000
vt 0.6928 0.9650 0.0000
vt 0.6928 0.9422 0.0000
vt 0.9395 0.9422 0.0000
vt 0.6928 0.9193 0.0000
vt 0.6928 0.8965 0.0000
vt 0.9201 0.8965 0.0000
vt 0.9395 0.9193 0.0000
vt 0.6928 0.9878 0.0000
vt 0.9201 0.9878 0.0000
vt 0.8810 0.8964 0.0000
vt 0.8810 0.9192 0.0000
vt 0.7518 0.9192 0.0000
vt 0.7518 0.8964 0.0000
# 30 texture coords

g polySurface73
usemtl Atlas_2
s off
f 1/1/1 2/2/1 3/3/1 4/4/1 
f 5/5/2 6/6/2 1/7/2 7/8/2 
f 8/9/3 9/10/3 10/11/3 6/12/3 
f 3/3/4 9/13/4 8/14/4 4/4/4 
f 10/11/5 2/2/5 1/1/5 6/12/5 
f 7/8/6 1/7/6 4/15/6 11/16/6 
f 11/17/6 12/18/6 13/19/6 7/20/6 
f 14/21/7 15/22/7 16/23/7 5/24/7 
f 13/19/4 14/21/4 5/24/4 7/20/4 
f 15/25/5 12/18/5 11/17/5 16/26/5 
f 4/27/8 8/28/8 16/29/8 11/30/8 
f 16/29/7 8/28/7 6/6/7 5/5/7 
# 12 polygons

