# 3ds Max Wavefront OBJ Exporter v0.97b - (c)2007 guruware
# File Created: 03.04.2017 17:32:21

mtllib Drawer_1D.mtl

#
# object polySurface1503
#

v  9.1500 -0.7500 -3.7500
v  -9.1500 -0.7500 -3.7500
v  -9.1500 0.7500 -3.7500
v  9.1500 0.7500 -3.7500
v  -9.1500 0.7500 3.7500
v  9.1500 0.7500 3.7500
v  -9.1500 -0.7500 3.7500
v  9.1500 -0.7500 3.7500
v  8.1500 -2.3032 -3.4243
v  7.2257 -2.3032 -2.5000
v  7.5510 -0.7500 -2.5000
v  8.1500 -0.7500 -3.0990
v  8.7490 -0.7500 -2.5000
v  8.1500 -0.7500 -1.9010
v  8.1500 -2.3032 -1.5757
v  9.0743 -2.3032 -2.5000
v  8.1500 -2.3032 1.5757
v  7.2257 -2.3032 2.5000
v  7.5510 -0.7500 2.5000
v  8.1500 -0.7500 1.9010
v  8.7490 -0.7500 2.5000
v  8.1500 -0.7500 3.0990
v  8.1500 -2.3032 3.4243
v  9.0743 -2.3032 2.5000
v  8.7000 0.7500 -3.4000
v  7.6000 0.7500 -3.4000
v  7.6000 15.7500 -3.4000
v  8.7000 15.7500 -3.4000
v  8.7000 15.7500 3.4000
v  7.6000 15.7500 3.4000
v  7.6000 0.7500 3.4000
v  8.7000 0.7500 3.4000
v  -7.6000 0.7500 -3.4000
v  -8.7000 0.7500 -3.4000
v  -8.7000 15.7500 -3.4000
v  -7.6000 15.7500 -3.4000
v  -7.6000 15.7500 3.4000
v  -8.7000 15.7500 3.4000
v  -8.7000 0.7500 3.4000
v  -7.6000 0.7500 3.4000
v  -8.1500 -2.3032 3.4243
v  -7.2257 -2.3032 2.5000
v  -7.5510 -0.7500 2.5000
v  -8.1500 -0.7500 3.0990
v  -8.7490 -0.7500 2.5000
v  -8.1500 -0.7500 1.9010
v  -8.1500 -2.3032 1.5757
v  -9.0743 -2.3032 2.5000
v  -8.1500 -2.3032 -1.5757
v  -7.2257 -2.3032 -2.5000
v  -7.5510 -0.7500 -2.5000
v  -8.1500 -0.7500 -1.9010
v  -8.7490 -0.7500 -2.5000
v  -8.1500 -0.7500 -3.0990
v  -8.1500 -2.3032 -3.4243
v  -9.0743 -2.3032 -2.5000
v  21.1598 15.7500 -3.7500
v  -9.1500 15.7500 -3.7500
v  -9.1500 16.6500 -3.7500
v  21.1598 16.6500 -3.7500
v  -9.1500 16.6500 3.7500
v  21.1598 16.6500 3.7500
v  -9.1500 15.7500 3.7500
v  21.1598 15.7500 3.7500
v  20.1598 0.7500 -3.3280
v  -8.1500 0.7500 -3.3280
v  -8.1500 15.8452 -3.3280
v  20.1598 15.8452 -3.3280
v  20.1598 15.8452 3.0489
v  -8.1500 15.8452 3.0489
v  -8.1500 0.7500 3.0489
v  20.1598 0.7500 3.0489
v  -0.9939 13.2416 4.1642
v  -1.6379 13.2416 3.0489
v  -2.0621 13.2416 3.0489
v  -1.2061 13.2416 4.5316
v  0.2939 13.2416 4.1642
v  0.5061 13.2416 4.5316
v  0.9379 13.2416 3.0489
v  1.3621 13.2416 3.0489
v  -2.0621 12.8173 3.0489
v  -1.2061 12.8173 4.5316
v  0.5061 12.8173 4.5316
v  1.3621 12.8173 3.0489
v  -1.6379 12.8173 3.0489
v  -0.9939 12.8173 4.1642
v  0.2939 12.8173 4.1642
v  0.9379 12.8173 3.0489
v  -0.9939 9.2121 4.1642
v  -1.6379 9.2121 3.0489
v  -2.0621 9.2121 3.0489
v  -1.2061 9.2121 4.5316
v  0.2939 9.2121 4.1642
v  0.5061 9.2121 4.5316
v  0.9379 9.2121 3.0489
v  1.3621 9.2121 3.0489
v  -2.0621 8.7879 3.0489
v  -1.2061 8.7879 4.5316
v  0.5061 8.7879 4.5316
v  1.3621 8.7879 3.0489
v  -1.6379 8.7879 3.0489
v  -0.9939 8.7879 4.1642
v  0.2939 8.7879 4.1642
v  0.9379 8.7879 3.0489
v  -0.9939 5.2121 4.1642
v  -1.6379 5.2121 3.0489
v  -2.0621 5.2121 3.0489
v  -1.2061 5.2121 4.5316
v  0.2939 5.2121 4.1642
v  0.5061 5.2121 4.5316
v  0.9379 5.2121 3.0489
v  1.3621 5.2121 3.0489
v  -2.0621 4.7879 3.0489
v  -1.2061 4.7879 4.5316
v  0.5061 4.7879 4.5316
v  1.3621 4.7879 3.0489
v  -1.6379 4.7879 3.0489
v  -0.9939 4.7879 4.1642
v  0.2939 4.7879 4.1642
v  0.9379 4.7879 3.0489
v  21.1598 -0.7500 -3.7500
v  21.1598 0.7500 -3.7500
v  21.1598 0.7500 3.7500
v  21.1598 -0.7500 3.7500
v  20.1598 -2.3032 -3.4243
v  19.2355 -2.3032 -2.5000
v  19.5608 -0.7500 -2.5000
v  20.1598 -0.7500 -3.0990
v  20.7588 -0.7500 -2.5000
v  20.1598 -0.7500 -1.9010
v  20.1598 -2.3032 -1.5757
v  21.0841 -2.3032 -2.5000
v  20.1598 -2.3032 1.5757
v  19.2355 -2.3032 2.5000
v  19.5608 -0.7500 2.5000
v  20.1598 -0.7500 1.9010
v  20.7588 -0.7500 2.5000
v  20.1598 -0.7500 3.0990
v  20.1598 -2.3032 3.4243
v  21.0841 -2.3032 2.5000
v  20.7098 0.7500 -3.4000
v  19.6098 0.7500 -3.4000
v  19.6098 15.7500 -3.4000
v  20.7098 15.7500 -3.4000
v  20.7098 15.7500 3.4000
v  19.6098 15.7500 3.4000
v  19.6098 0.7500 3.4000
v  20.7098 0.7500 3.4000
v  14.5159 13.2416 4.1642
v  13.8720 13.2416 3.0489
v  13.4477 13.2416 3.0489
v  14.3038 13.2416 4.5316
v  15.8038 13.2416 4.1642
v  16.0159 13.2416 4.5316
v  16.4477 13.2416 3.0489
v  16.8720 13.2416 3.0489
v  13.4477 12.8173 3.0489
v  14.3038 12.8173 4.5316
v  16.0159 12.8173 4.5316
v  16.8720 12.8173 3.0489
v  13.8720 12.8173 3.0489
v  14.5159 12.8173 4.1642
v  15.8038 12.8173 4.1642
v  16.4477 12.8173 3.0489
v  14.5159 9.2121 4.1642
v  13.8720 9.2121 3.0489
v  13.4477 9.2121 3.0489
v  14.3038 9.2121 4.5316
v  15.8038 9.2121 4.1642
v  16.0159 9.2121 4.5316
v  16.4477 9.2121 3.0489
v  16.8720 9.2121 3.0489
v  13.4477 8.7879 3.0489
v  14.3038 8.7879 4.5316
v  16.0159 8.7879 4.5316
v  16.8720 8.7879 3.0489
v  13.8720 8.7879 3.0489
v  14.5159 8.7879 4.1642
v  15.8038 8.7879 4.1642
v  16.4477 8.7879 3.0489
v  14.5159 5.2121 4.1642
v  13.8720 5.2121 3.0489
v  13.4477 5.2121 3.0489
v  14.3038 5.2121 4.5316
v  15.8038 5.2121 4.1642
v  16.0159 5.2121 4.5316
v  16.4477 5.2121 3.0489
v  16.8720 5.2121 3.0489
v  13.4477 4.7879 3.0489
v  14.3038 4.7879 4.5316
v  16.0159 4.7879 4.5316
v  16.8720 4.7879 3.0489
v  13.8720 4.7879 3.0489
v  14.5159 4.7879 4.1642
v  15.8038 4.7879 4.1642
v  16.4477 4.7879 3.0489
# 196 vertices

vn 0.0000 0.0000 -1.0000
vn 0.0000 1.0000 0.0000
vn 0.0000 -0.0000 1.0000
vn 0.0000 -1.0000 -0.0000
vn -1.0000 0.0000 -0.0000
vn 1.0000 0.0000 -0.0000
vn -0.6995 0.1465 -0.6995
vn 0.6995 0.1465 0.6995
vn -0.6995 0.1465 0.6995
vn 0.6995 0.1465 -0.6995
vn -0.8660 -0.0000 0.5000
vn 0.8660 -0.0000 0.5000
vn 0.0000 -1.0000 0.0000
vn 0.8660 0.0000 -0.5000
vn -0.8660 0.0000 -0.5000
vn -0.0000 -1.0000 -0.0000
vn 0.0000 1.0000 -0.0000
vn 0.8660 -0.0000 -0.5000
# 18 vertex normals

vt 0.7080 0.9699 0.0000
vt 0.9251 0.9699 0.0000
vt 0.9251 0.9847 0.0000
vt 0.7080 0.9847 0.0000
vt 0.7080 0.8959 0.0000
vt 0.9251 0.8959 0.0000
vt 0.9399 0.8959 0.0000
vt 0.9399 0.9699 0.0000
vt 0.6932 0.9699 0.0000
vt 0.6932 0.8959 0.0000
vt 0.3276 0.7871 0.0000
vt 0.2986 0.7913 0.0000
vt 0.2985 0.7558 0.0000
vt 0.3173 0.7530 0.0000
vt 0.2985 0.8028 0.0000
vt 0.3173 0.8000 0.0000
vt 0.3276 0.8341 0.0000
vt 0.2986 0.8384 0.0000
vt 0.2696 0.7871 0.0000
vt 0.2797 0.7530 0.0000
vt 0.2696 0.8342 0.0000
vt 0.2797 0.8001 0.0000
vt 0.6935 0.8933 0.0000
vt 0.6935 0.8753 0.0000
vt 0.9394 0.8753 0.0000
vt 0.9394 0.8933 0.0000
vt 0.9394 0.8756 0.0000
vt 0.9394 0.8936 0.0000
vt 0.6935 0.8936 0.0000
vt 0.6935 0.8756 0.0000
vt 0.6935 0.9990 0.0000
vt 0.9394 0.9990 0.0000
vt 0.6935 0.9986 0.0000
vt 0.9394 0.9986 0.0000
vt 0.7022 0.8915 0.0000
vt 0.9308 0.8915 0.0000
vt 0.9308 0.9009 0.0000
vt 0.7022 0.9009 0.0000
vt 0.9308 0.9788 0.0000
vt 0.7022 0.9788 0.0000
vt 0.9401 0.9009 0.0000
vt 0.9401 0.9788 0.0000
vt 0.6929 0.9788 0.0000
vt 0.6929 0.9009 0.0000
vt 0.8911 0.9994 0.0000
vt 0.7278 0.9994 0.0000
vt 0.7278 0.8761 0.0000
vt 0.8911 0.8761 0.0000
vt 0.9045 0.8740 0.0000
vt 0.7203 0.8740 0.0000
vt 0.7203 0.7507 0.0000
vt 0.9045 0.7507 0.0000
vt 0.2477 0.7700 0.0000
vt 0.2477 0.7870 0.0000
vt 0.2434 0.7888 0.0000
vt 0.2434 0.7703 0.0000
vt 0.2477 0.7513 0.0000
vt 0.2434 0.7510 0.0000
vt 0.2477 0.7343 0.0000
vt 0.2434 0.7325 0.0000
vt 0.2384 0.7888 0.0000
vt 0.2384 0.7703 0.0000
vt 0.2384 0.7510 0.0000
vt 0.2384 0.7325 0.0000
vt 0.2341 0.7861 0.0000
vt 0.2341 0.7701 0.0000
vt 0.2341 0.7512 0.0000
vt 0.2341 0.7353 0.0000
vt 0.2291 0.7851 0.0000
vt 0.2291 0.7701 0.0000
vt 0.2291 0.7512 0.0000
vt 0.2291 0.7362 0.0000
vt 0.8165 0.9699 0.0000
vt 0.8165 0.9847 0.0000
vt 0.8165 0.8959 0.0000
# 75 texture coords

g polySurface1503
usemtl Atlas_2
s off
f 1/1/1 2/2/1 3/3/1 4/4/1 
f 4/5/2 3/6/2 5/2/2 6/1/2 
f 6/1/3 5/2/3 7/3/3 8/4/3 
f 8/5/4 7/6/4 2/2/4 1/1/4 
f 2/7/5 7/8/5 5/2/5 3/6/5 
f 8/9/6 1/10/6 4/5/6 6/1/6 
f 9/11/7 10/12/7 11/13/7 12/14/7 
f 13/15/8 14/16/8 15/17/8 16/18/8 
f 10/12/9 15/19/9 14/20/9 11/13/9 
f 16/18/10 9/21/10 12/22/10 13/15/10 
f 17/11/7 18/12/7 19/13/7 20/14/7 
f 21/15/8 22/16/8 23/17/8 24/18/8 
f 18/12/9 23/19/9 22/20/9 19/13/9 
f 24/18/10 17/21/10 20/22/10 21/15/10 
f 25/23/1 26/24/1 27/25/1 28/26/1 
f 29/27/3 30/28/3 31/29/3 32/30/3 
f 26/31/5 31/29/5 30/28/5 27/32/5 
f 32/33/6 25/23/6 28/26/6 29/34/6 
f 33/23/1 34/24/1 35/25/1 36/26/1 
f 37/27/3 38/28/3 39/29/3 40/30/3 
f 34/31/5 39/29/5 38/28/5 35/32/5 
f 40/33/6 33/23/6 36/26/6 37/34/6 
f 41/11/8 42/12/8 43/13/8 44/14/8 
f 45/15/7 46/16/7 47/17/7 48/18/7 
f 42/12/10 47/19/10 46/20/10 43/13/10 
f 48/18/9 41/21/9 44/22/9 45/15/9 
f 49/11/8 50/12/8 51/13/8 52/14/8 
f 53/15/7 54/16/7 55/17/7 56/18/7 
f 50/12/10 55/19/10 54/20/10 51/13/10 
f 56/18/9 49/21/9 52/22/9 53/15/9 
f 57/35/1 58/36/1 59/37/1 60/38/1 
f 60/38/2 59/37/2 61/39/2 62/40/2 
f 62/35/3 61/36/3 63/37/3 64/38/3 
f 64/38/4 63/37/4 58/39/4 57/40/4 
f 58/41/5 63/42/5 61/39/5 59/37/5 
f 64/43/6 57/44/6 60/38/6 62/40/6 
f 65/45/1 66/46/1 67/47/1 68/48/1 
f 69/49/3 70/50/3 71/51/3 72/52/3 
f 73/53/2 74/54/2 75/55/2 76/56/2 
f 77/57/2 73/53/2 76/56/2 78/58/2 
f 79/59/2 77/57/2 78/58/2 80/60/2 
f 76/56/11 75/55/11 81/61/11 82/62/11 
f 78/58/3 76/56/3 82/62/3 83/63/3 
f 80/60/12 78/58/12 83/63/12 84/64/12 
f 82/62/4 81/61/4 85/65/4 86/66/4 
f 83/63/4 82/62/4 86/66/4 87/67/4 
f 84/64/13 83/63/13 87/67/13 88/68/13 
f 86/66/14 85/65/14 74/69/14 73/70/14 
f 87/67/1 86/66/1 73/70/1 77/71/1 
f 88/68/15 87/67/15 77/71/15 79/72/15 
f 89/53/2 90/54/2 91/55/2 92/56/2 
f 93/57/2 89/53/2 92/56/2 94/58/2 
f 95/59/2 93/57/2 94/58/2 96/60/2 
f 92/56/11 91/55/11 97/61/11 98/62/11 
f 94/58/3 92/56/3 98/62/3 99/63/3 
f 96/60/12 94/58/12 99/63/12 100/64/12 
f 98/62/4 97/61/4 101/65/4 102/66/4 
f 99/63/4 98/62/4 102/66/4 103/67/4 
f 100/64/16 99/63/16 103/67/16 104/68/16 
f 102/66/14 101/65/14 90/69/14 89/70/14 
f 103/67/1 102/66/1 89/70/1 93/71/1 
f 104/68/15 103/67/15 93/71/15 95/72/15 
f 105/53/2 106/54/2 107/55/2 108/56/2 
f 109/57/2 105/53/2 108/56/2 110/58/2 
f 111/59/2 109/57/2 110/58/2 112/60/2 
f 108/56/11 107/55/11 113/61/11 114/62/11 
f 110/58/3 108/56/3 114/62/3 115/63/3 
f 112/60/12 110/58/12 115/63/12 116/64/12 
f 114/62/4 113/61/4 117/65/4 118/66/4 
f 115/63/13 114/62/13 118/66/13 119/67/13 
f 116/64/4 115/63/4 119/67/4 120/68/4 
f 118/66/14 117/65/14 106/69/14 105/70/14 
f 119/67/1 118/66/1 105/70/1 109/71/1 
f 120/68/15 119/67/15 109/71/15 111/72/15 
f 121/1/1 1/73/1 4/74/1 122/4/1 
f 122/5/2 4/75/2 6/73/2 123/1/2 
f 123/1/3 6/73/3 8/74/3 124/4/3 
f 124/5/4 8/75/4 1/73/4 121/1/4 
f 1/7/5 8/8/5 6/2/5 4/6/5 
f 124/9/6 121/10/6 122/5/6 123/1/6 
f 125/11/7 126/12/7 127/13/7 128/14/7 
f 129/15/8 130/16/8 131/17/8 132/18/8 
f 126/12/9 131/19/9 130/20/9 127/13/9 
f 132/18/10 125/21/10 128/22/10 129/15/10 
f 133/11/7 134/12/7 135/13/7 136/14/7 
f 137/15/8 138/16/8 139/17/8 140/18/8 
f 134/12/9 139/19/9 138/20/9 135/13/9 
f 140/18/10 133/21/10 136/22/10 137/15/10 
f 141/23/1 142/24/1 143/25/1 144/26/1 
f 145/27/3 146/28/3 147/29/3 148/30/3 
f 142/31/5 147/29/5 146/28/5 143/32/5 
f 148/33/6 141/23/6 144/26/6 145/34/6 
f 149/53/17 150/54/17 151/55/17 152/56/17 
f 153/57/2 149/53/2 152/56/2 154/58/2 
f 155/59/2 153/57/2 154/58/2 156/60/2 
f 152/56/11 151/55/11 157/61/11 158/62/11 
f 154/58/3 152/56/3 158/62/3 159/63/3 
f 156/60/12 154/58/12 159/63/12 160/64/12 
f 158/62/13 157/61/13 161/65/13 162/66/13 
f 159/63/13 158/62/13 162/66/13 163/67/13 
f 160/64/13 159/63/13 163/67/13 164/68/13 
f 162/66/18 161/65/18 150/69/18 149/70/18 
f 163/67/1 162/66/1 149/70/1 153/71/1 
f 164/68/15 163/67/15 153/71/15 155/72/15 
f 165/53/17 166/54/17 167/55/17 168/56/17 
f 169/57/2 165/53/2 168/56/2 170/58/2 
f 171/59/2 169/57/2 170/58/2 172/60/2 
f 168/56/11 167/55/11 173/61/11 174/62/11 
f 170/58/3 168/56/3 174/62/3 175/63/3 
f 172/60/12 170/58/12 175/63/12 176/64/12 
f 174/62/4 173/61/4 177/65/4 178/66/4 
f 175/63/4 174/62/4 178/66/4 179/67/4 
f 176/64/16 175/63/16 179/67/16 180/68/16 
f 178/66/18 177/65/18 166/69/18 165/70/18 
f 179/67/1 178/66/1 165/70/1 169/71/1 
f 180/68/15 179/67/15 169/71/15 171/72/15 
f 181/53/2 182/54/2 183/55/2 184/56/2 
f 185/57/2 181/53/2 184/56/2 186/58/2 
f 187/59/2 185/57/2 186/58/2 188/60/2 
f 184/56/11 183/55/11 189/61/11 190/62/11 
f 186/58/3 184/56/3 190/62/3 191/63/3 
f 188/60/12 186/58/12 191/63/12 192/64/12 
f 190/62/4 189/61/4 193/65/4 194/66/4 
f 191/63/4 190/62/4 194/66/4 195/67/4 
f 192/64/4 191/63/4 195/67/4 196/68/4 
f 194/66/18 193/65/18 182/69/18 181/70/18 
f 195/67/1 194/66/1 181/70/1 185/71/1 
f 196/68/15 195/67/15 185/71/15 187/72/15 
# 128 polygons

