# 3ds Max Wavefront OBJ Exporter v0.97b - (c)2007 guruware
# File Created: 03.04.2017 17:31:48

mtllib Drawer_1B.mtl

#
# object polySurface1502
#

v  11.0000 -0.7500 -3.7500
v  -1.0098 -0.7500 -3.7500
v  -1.0098 0.7500 -3.7500
v  11.0000 0.7500 -3.7500
v  -1.0098 0.7500 3.7500
v  11.0000 0.7500 3.7500
v  -1.0098 -0.7500 3.7500
v  11.0000 -0.7500 3.7500
v  10.0000 -2.3032 -3.4243
v  9.0757 -2.3032 -2.5000
v  9.4010 -0.7500 -2.5000
v  10.0000 -0.7500 -3.0990
v  10.5990 -0.7500 -2.5000
v  10.0000 -0.7500 -1.9010
v  10.0000 -2.3032 -1.5757
v  10.9243 -2.3032 -2.5000
v  10.0000 -2.3032 1.5757
v  9.0757 -2.3032 2.5000
v  9.4010 -0.7500 2.5000
v  10.0000 -0.7500 1.9010
v  10.5990 -0.7500 2.5000
v  10.0000 -0.7500 3.0990
v  10.0000 -2.3032 3.4243
v  10.9243 -2.3032 2.5000
v  10.5500 0.7500 -3.4000
v  9.4500 0.7500 -3.4000
v  9.4500 15.7500 -3.4000
v  10.5500 15.7500 -3.4000
v  10.5500 15.7500 3.4000
v  9.4500 15.7500 3.4000
v  9.4500 0.7500 3.4000
v  10.5500 0.7500 3.4000
v  0.5500 0.7500 -3.2586
v  -0.5500 0.7500 -3.2586
v  -0.5500 15.7500 -3.2586
v  0.5500 15.7500 -3.2586
v  0.5500 15.7500 3.5414
v  -0.5500 15.7500 3.5414
v  -0.5500 0.7500 3.5414
v  0.5500 0.7500 3.5414
v  0.0000 -2.3032 3.4243
v  0.9243 -2.3032 2.5000
v  0.5990 -0.7500 2.5000
v  0.0000 -0.7500 3.0990
v  -0.5990 -0.7500 2.5000
v  0.0000 -0.7500 1.9010
v  0.0000 -2.3032 1.5757
v  -0.9243 -2.3032 2.5000
v  0.0000 -2.3032 -1.5757
v  0.9243 -2.3032 -2.5000
v  0.5990 -0.7500 -2.5000
v  0.0000 -0.7500 -1.9010
v  -0.5990 -0.7500 -2.5000
v  0.0000 -0.7500 -3.0990
v  0.0000 -2.3032 -3.4243
v  -0.9243 -2.3032 -2.5000
v  11.0000 15.7500 -3.7500
v  -1.0098 15.7500 -3.7500
v  -1.0098 16.6500 -3.7500
v  11.0000 16.6500 -3.7500
v  -1.0098 16.6500 3.7500
v  11.0000 16.6500 3.7500
v  -1.0098 15.7500 3.7500
v  11.0000 15.7500 3.7500
v  10.0000 0.7500 -3.3280
v  0.0000 0.7500 -3.3280
v  0.0000 15.8452 -3.3280
v  10.0000 15.8452 -3.3280
v  10.0000 15.8452 3.0489
v  0.0000 15.8452 3.0489
v  0.0000 0.7500 3.0489
v  10.0000 0.7500 3.0489
v  4.3561 13.2416 4.1642
v  3.7121 13.2416 3.0489
v  3.2879 13.2416 3.0489
v  4.1439 13.2416 4.5316
v  5.6439 13.2416 4.1642
v  5.8561 13.2416 4.5316
v  6.2879 13.2416 3.0489
v  6.7121 13.2416 3.0489
v  3.2879 12.8173 3.0489
v  4.1439 12.8173 4.5316
v  5.8561 12.8173 4.5316
v  6.7121 12.8173 3.0489
v  3.7121 12.8173 3.0489
v  4.3561 12.8173 4.1642
v  5.6439 12.8173 4.1642
v  6.2879 12.8173 3.0489
v  4.3561 9.2121 4.1642
v  3.7121 9.2121 3.0489
v  3.2879 9.2121 3.0489
v  4.1439 9.2121 4.5316
v  5.6439 9.2121 4.1642
v  5.8561 9.2121 4.5316
v  6.2879 9.2121 3.0489
v  6.7121 9.2121 3.0489
v  3.2879 8.7879 3.0489
v  4.1439 8.7879 4.5316
v  5.8561 8.7879 4.5316
v  6.7121 8.7879 3.0489
v  3.7121 8.7879 3.0489
v  4.3561 8.7879 4.1642
v  5.6439 8.7879 4.1642
v  6.2879 8.7879 3.0489
v  4.3561 5.2121 4.1642
v  3.7121 5.2121 3.0489
v  3.2879 5.2121 3.0489
v  4.1439 5.2121 4.5316
v  5.6439 5.2121 4.1642
v  5.8561 5.2121 4.5316
v  6.2879 5.2121 3.0489
v  6.7121 5.2121 3.0489
v  3.2879 4.7879 3.0489
v  4.1439 4.7879 4.5316
v  5.8561 4.7879 4.5316
v  6.7121 4.7879 3.0489
v  3.7121 4.7879 3.0489
v  4.3561 4.7879 4.1642
v  5.6439 4.7879 4.1642
v  6.2879 4.7879 3.0489
# 120 vertices

vn 0.0000 0.0000 -1.0000
vn 0.0000 1.0000 0.0000
vn 0.0000 -0.0000 1.0000
vn 0.0000 -1.0000 -0.0000
vn -1.0000 0.0000 -0.0000
vn 1.0000 0.0000 -0.0000
vn -0.6995 0.1465 -0.6995
vn 0.6995 0.1465 0.6995
vn -0.6995 0.1465 0.6995
vn 0.6995 0.1465 -0.6995
vn -0.8660 0.0000 0.5000
vn 0.8660 -0.0000 0.5000
vn 0.0000 -1.0000 0.0000
vn 0.8660 0.0000 -0.5000
vn -0.8660 -0.0000 -0.5000
vn 0.0000 1.0000 -0.0000
vn -0.0000 -1.0000 -0.0000
# 17 vertex normals

vt 0.7080 0.9699 0.0000
vt 0.8165 0.9699 0.0000
vt 0.8165 0.9847 0.0000
vt 0.7080 0.9847 0.0000
vt 0.7080 0.8959 0.0000
vt 0.8165 0.8959 0.0000
vt 0.9399 0.8959 0.0000
vt 0.9399 0.9699 0.0000
vt 0.9251 0.9699 0.0000
vt 0.9251 0.8959 0.0000
vt 0.6932 0.9699 0.0000
vt 0.6932 0.8959 0.0000
vt 0.3276 0.7871 0.0000
vt 0.2986 0.7913 0.0000
vt 0.2985 0.7558 0.0000
vt 0.3173 0.7530 0.0000
vt 0.2985 0.8028 0.0000
vt 0.3173 0.8000 0.0000
vt 0.3276 0.8341 0.0000
vt 0.2986 0.8384 0.0000
vt 0.2696 0.7871 0.0000
vt 0.2797 0.7530 0.0000
vt 0.2696 0.8342 0.0000
vt 0.2797 0.8001 0.0000
vt 0.6935 0.8933 0.0000
vt 0.6935 0.8753 0.0000
vt 0.9394 0.8753 0.0000
vt 0.9394 0.8933 0.0000
vt 0.9394 0.8756 0.0000
vt 0.9394 0.8936 0.0000
vt 0.6935 0.8936 0.0000
vt 0.6935 0.8756 0.0000
vt 0.6935 0.9990 0.0000
vt 0.9394 0.9990 0.0000
vt 0.6935 0.9986 0.0000
vt 0.9394 0.9986 0.0000
vt 0.7022 0.8915 0.0000
vt 0.8165 0.8915 0.0000
vt 0.8165 0.9009 0.0000
vt 0.7022 0.9009 0.0000
vt 0.8165 0.9788 0.0000
vt 0.7022 0.9788 0.0000
vt 0.9401 0.9009 0.0000
vt 0.9401 0.9788 0.0000
vt 0.9308 0.9788 0.0000
vt 0.9308 0.9009 0.0000
vt 0.6929 0.9788 0.0000
vt 0.6929 0.9009 0.0000
vt 0.8911 0.9994 0.0000
vt 0.8095 0.9994 0.0000
vt 0.8095 0.8761 0.0000
vt 0.8911 0.8761 0.0000
vt 0.8940 0.8740 0.0000
vt 0.8124 0.8740 0.0000
vt 0.8124 0.7507 0.0000
vt 0.8940 0.7507 0.0000
vt 0.2477 0.7700 0.0000
vt 0.2477 0.7870 0.0000
vt 0.2434 0.7888 0.0000
vt 0.2434 0.7703 0.0000
vt 0.2477 0.7513 0.0000
vt 0.2434 0.7510 0.0000
vt 0.2477 0.7343 0.0000
vt 0.2434 0.7325 0.0000
vt 0.2384 0.7888 0.0000
vt 0.2384 0.7703 0.0000
vt 0.2384 0.7510 0.0000
vt 0.2384 0.7325 0.0000
vt 0.2341 0.7861 0.0000
vt 0.2341 0.7701 0.0000
vt 0.2341 0.7512 0.0000
vt 0.2341 0.7353 0.0000
vt 0.2291 0.7851 0.0000
vt 0.2291 0.7701 0.0000
vt 0.2291 0.7512 0.0000
vt 0.2291 0.7362 0.0000
# 76 texture coords

g polySurface1502
usemtl Atlas_2
s off
f 1/1/1 2/2/1 3/3/1 4/4/1 
f 4/5/2 3/6/2 5/2/2 6/1/2 
f 6/1/3 5/2/3 7/3/3 8/4/3 
f 8/5/4 7/6/4 2/2/4 1/1/4 
f 2/7/5 7/8/5 5/9/5 3/10/5 
f 8/11/6 1/12/6 4/5/6 6/1/6 
f 9/13/7 10/14/7 11/15/7 12/16/7 
f 13/17/8 14/18/8 15/19/8 16/20/8 
f 10/14/9 15/21/9 14/22/9 11/15/9 
f 16/20/10 9/23/10 12/24/10 13/17/10 
f 17/13/7 18/14/7 19/15/7 20/16/7 
f 21/17/8 22/18/8 23/19/8 24/20/8 
f 18/14/9 23/21/9 22/22/9 19/15/9 
f 24/20/10 17/23/10 20/24/10 21/17/10 
f 25/25/1 26/26/1 27/27/1 28/28/1 
f 29/29/3 30/30/3 31/31/3 32/32/3 
f 26/33/5 31/31/5 30/30/5 27/34/5 
f 32/35/6 25/25/6 28/28/6 29/36/6 
f 33/25/1 34/26/1 35/27/1 36/28/1 
f 37/29/3 38/30/3 39/31/3 40/32/3 
f 34/33/5 39/31/5 38/30/5 35/34/5 
f 40/35/6 33/25/6 36/28/6 37/36/6 
f 41/13/8 42/14/8 43/15/8 44/16/8 
f 45/17/7 46/18/7 47/19/7 48/20/7 
f 42/14/10 47/21/10 46/22/10 43/15/10 
f 48/20/9 41/23/9 44/24/9 45/17/9 
f 49/13/8 50/14/8 51/15/8 52/16/8 
f 53/17/7 54/18/7 55/19/7 56/20/7 
f 50/14/10 55/21/10 54/22/10 51/15/10 
f 56/20/9 49/23/9 52/24/9 53/17/9 
f 57/37/1 58/38/1 59/39/1 60/40/1 
f 60/40/2 59/39/2 61/41/2 62/42/2 
f 62/37/3 61/38/3 63/39/3 64/40/3 
f 64/40/4 63/39/4 58/41/4 57/42/4 
f 58/43/5 63/44/5 61/45/5 59/46/5 
f 64/47/6 57/48/6 60/40/6 62/42/6 
f 65/49/1 66/50/1 67/51/1 68/52/1 
f 69/53/3 70/54/3 71/55/3 72/56/3 
f 73/57/2 74/58/2 75/59/2 76/60/2 
f 77/61/2 73/57/2 76/60/2 78/62/2 
f 79/63/2 77/61/2 78/62/2 80/64/2 
f 76/60/11 75/59/11 81/65/11 82/66/11 
f 78/62/3 76/60/3 82/66/3 83/67/3 
f 80/64/12 78/62/12 83/67/12 84/68/12 
f 82/66/4 81/65/4 85/69/4 86/70/4 
f 83/67/13 82/66/13 86/70/13 87/71/13 
f 84/68/4 83/67/4 87/71/4 88/72/4 
f 86/70/14 85/69/14 74/73/14 73/74/14 
f 87/71/1 86/70/1 73/74/1 77/75/1 
f 88/72/15 87/71/15 77/75/15 79/76/15 
f 89/57/16 90/58/16 91/59/16 92/60/16 
f 93/61/2 89/57/2 92/60/2 94/62/2 
f 95/63/16 93/61/16 94/62/16 96/64/16 
f 92/60/11 91/59/11 97/65/11 98/66/11 
f 94/62/3 92/60/3 98/66/3 99/67/3 
f 96/64/12 94/62/12 99/67/12 100/68/12 
f 98/66/4 97/65/4 101/69/4 102/70/4 
f 99/67/4 98/66/4 102/70/4 103/71/4 
f 100/68/17 99/67/17 103/71/17 104/72/17 
f 102/70/14 101/69/14 90/73/14 89/74/14 
f 103/71/1 102/70/1 89/74/1 93/75/1 
f 104/72/15 103/71/15 93/75/15 95/76/15 
f 105/57/2 106/58/2 107/59/2 108/60/2 
f 109/61/2 105/57/2 108/60/2 110/62/2 
f 111/63/2 109/61/2 110/62/2 112/64/2 
f 108/60/11 107/59/11 113/65/11 114/66/11 
f 110/62/3 108/60/3 114/66/3 115/67/3 
f 112/64/12 110/62/12 115/67/12 116/68/12 
f 114/66/4 113/65/4 117/69/4 118/70/4 
f 115/67/4 114/66/4 118/70/4 119/71/4 
f 116/68/4 115/67/4 119/71/4 120/72/4 
f 118/70/14 117/69/14 106/73/14 105/74/14 
f 119/71/1 118/70/1 105/74/1 109/75/1 
f 120/72/15 119/71/15 109/75/15 111/76/15 
# 74 polygons

