# 3ds Max Wavefront OBJ Exporter v0.97b - (c)2007 guruware
# File Created: 03.04.2017 17:32:33

mtllib DustBin_1.mtl

#
# object pCube489
#

v  -2.8224 -0.0000 2.8224
v  2.8224 -0.0000 2.8224
v  3.2737 7.9200 3.2737
v  -3.2737 7.9200 3.2737
v  -2.5500 7.9884 2.5500
v  2.5500 7.9884 2.5500
v  2.5500 7.9884 -2.5500
v  -2.5500 7.9884 -2.5500
v  -3.2737 7.9200 -3.2737
v  3.2737 7.9200 -3.2737
v  2.8224 -0.0000 -2.8224
v  -2.8224 -0.0000 -2.8224
v  -3.0000 8.8000 3.0000
v  -3.0000 8.8000 -3.0000
v  3.0000 8.8000 -3.0000
v  3.0000 8.8000 3.0000
v  2.5500 8.8000 2.5500
v  -2.5500 8.8000 2.5500
v  2.5500 8.8000 -2.5500
v  -2.5500 8.8000 -2.5500
# 20 vertices

vn 0.0000 -0.0569 0.9984
vn 0.0000 -0.0245 0.9997
vn 0.0000 1.0000 0.0000
vn 0.0000 -0.0245 -0.9997
vn 0.0000 -0.0569 -0.9984
vn 0.9984 -0.0569 -0.0000
vn 0.9997 -0.0245 -0.0000
vn -0.9984 -0.0569 -0.0000
vn -0.9997 -0.0245 -0.0000
vn -0.9549 0.2970 0.0000
vn 0.0000 0.2970 -0.9549
vn 0.9549 0.2970 0.0000
vn 0.0000 0.2970 0.9549
vn 0.0000 1.0000 -0.0000
vn 0.0000 0.0000 -1.0000
vn -1.0000 0.0000 -0.0000
vn 0.0000 -0.0000 1.0000
vn 1.0000 0.0000 -0.0000
# 18 vertex normals

vt 0.3211 0.2087 0.0000
vt 0.3455 0.2087 0.0000
vt 0.3455 0.2404 0.0000
vt 0.3211 0.2404 0.0000
vt 0.5729 0.0903 0.0000
vt 0.5999 0.0903 0.0000
vt 0.5999 0.1173 0.0000
vt 0.5729 0.1173 0.0000
vt 0.3444 0.2439 0.0000
vt 0.3222 0.2439 0.0000
vt 0.3217 0.2110 0.0000
vt 0.3447 0.2110 0.0000
vt 0.3429 0.2127 0.0000
vt 0.3234 0.2127 0.0000
vt 0.3447 0.2340 0.0000
vt 0.3429 0.2323 0.0000
vt 0.3217 0.2340 0.0000
vt 0.3234 0.2323 0.0000
vt 0.3283 0.2381 0.0000
vt 0.3283 0.2099 0.0000
vt 0.3328 0.2099 0.0000
vt 0.3328 0.2381 0.0000
vt 0.3327 0.2098 0.0000
vt 0.3327 0.2381 0.0000
vt 0.3282 0.2381 0.0000
vt 0.3282 0.2098 0.0000
# 26 texture coords

g pCube489
usemtl Atlas_2
s off
f 1/1/1 2/2/1 3/3/2 4/4/2 
f 5/5/3 6/6/3 7/7/3 8/8/3 
f 9/3/4 10/4/4 11/1/5 12/2/5 
f 2/1/6 11/2/6 10/3/7 3/4/7 
f 12/1/8 1/2/8 4/3/9 9/4/9 
f 9/4/9 4/3/9 13/9/10 14/10/10 
f 14/9/11 15/10/11 10/4/4 9/3/4 
f 3/4/7 10/3/7 15/9/12 16/10/12 
f 4/4/2 3/3/2 16/9/13 13/10/13 
f 13/11/3 16/12/3 17/13/3 18/14/3 
f 16/12/3 15/15/14 19/16/14 17/13/3 
f 15/15/14 14/17/14 20/18/14 19/16/14 
f 14/17/14 13/11/3 18/14/3 20/18/14 
f 18/19/15 17/20/15 6/21/15 5/22/15 
f 17/23/16 19/24/16 7/25/16 6/26/16 
f 19/21/17 20/22/17 8/19/17 7/20/17 
f 20/23/18 18/24/18 5/25/18 8/26/18 
# 17 polygons

