# 3ds Max Wavefront OBJ Exporter v0.97b - (c)2007 guruware
# File Created: 03.04.2017 17:32:47

mtllib DustBin_2.mtl

#
# object polySurface1526
#

v  2.1213 -4.5000 -2.1213
v  0.0000 -4.5000 -3.0000
v  0.0000 4.5000 -3.0000
v  2.1213 4.5000 -2.1213
v  -2.1213 -4.5000 -2.1213
v  -2.1213 4.5000 -2.1213
v  -3.0000 -4.5000 -0.0000
v  -3.0000 4.5000 0.0000
v  -2.1213 -4.5000 2.1213
v  -2.1213 4.5000 2.1213
v  0.0000 -4.5000 3.0000
v  0.0000 4.5000 3.0000
v  2.1213 -4.5000 2.1213
v  2.1213 4.5000 2.1213
v  3.0000 -4.5000 -0.0000
v  3.0000 4.5000 0.0000
v  2.3811 4.0861 -2.3811
v  0.0000 4.0861 -3.3674
v  0.0000 4.9861 -3.3674
v  2.3811 4.9861 -2.3811
v  -2.3811 4.0861 -2.3811
v  -2.3811 4.9861 -2.3811
v  -3.3674 4.0861 0.0000
v  -3.3674 4.9861 0.0000
v  -2.3811 4.0861 2.3811
v  -2.3811 4.9861 2.3811
v  0.0000 4.0861 3.3674
v  0.0000 4.9861 3.3674
v  2.3811 4.0861 2.3811
v  2.3811 4.9861 2.3811
v  3.3674 4.0861 0.0000
v  3.3674 4.9861 0.0000
v  -0.7415 -4.0031 4.0278
v  0.7415 -4.0031 4.0278
v  0.7415 -3.7485 4.0278
v  -0.7415 -3.7485 4.0278
v  0.7415 -3.7485 2.5448
v  -0.7415 -3.7485 2.5448
v  -0.7415 -4.0031 2.5448
v  0.7415 -4.0031 2.5448
# 40 vertices

vn 0.7071 0.0000 -0.7071
vn 0.0000 0.0000 -1.0000
vn -0.7071 0.0000 -0.7071
vn -1.0000 0.0000 -0.0000
vn -0.7071 -0.0000 0.7071
vn -0.0000 -0.0000 1.0000
vn 0.7071 -0.0000 0.7071
vn 1.0000 0.0000 -0.0000
vn 0.0000 -1.0000 -0.0000
vn 0.0000 1.0000 0.0000
vn 0.0000 -0.0000 1.0000
# 11 vertex normals

vt 0.5776 0.5600 0.0000
vt 0.5912 0.5600 0.0000
vt 0.5912 0.6131 0.0000
vt 0.5776 0.6131 0.0000
vt 0.6047 0.5600 0.0000
vt 0.6047 0.6131 0.0000
vt 0.6262 0.5026 0.0000
vt 0.6551 0.5026 0.0000
vt 0.6551 0.6158 0.0000
vt 0.6262 0.6158 0.0000
vt 0.6674 0.5026 0.0000
vt 0.6674 0.6158 0.0000
vt 0.6963 0.5026 0.0000
vt 0.6963 0.6158 0.0000
vt 0.7252 0.5026 0.0000
vt 0.7252 0.6158 0.0000
vt 0.5505 0.5600 0.0000
vt 0.5640 0.5600 0.0000
vt 0.5640 0.6131 0.0000
vt 0.5505 0.6131 0.0000
vt 0.4630 0.2548 0.0000
vt 0.4720 0.2548 0.0000
vt 0.4720 0.2579 0.0000
vt 0.4630 0.2579 0.0000
vt 0.4809 0.2548 0.0000
vt 0.4809 0.2579 0.0000
vt 0.4899 0.2548 0.0000
vt 0.4899 0.2579 0.0000
vt 0.4988 0.2548 0.0000
vt 0.4988 0.2579 0.0000
vt 0.4631 0.2548 0.0000
vt 0.4631 0.2579 0.0000
vt 0.4810 0.2548 0.0000
vt 0.4810 0.2579 0.0000
vt 0.4989 0.2548 0.0000
vt 0.4989 0.2579 0.0000
vt 0.4927 0.2671 0.0000
vt 0.4815 0.2717 0.0000
vt 0.4702 0.2671 0.0000
vt 0.4656 0.2558 0.0000
vt 0.4702 0.2446 0.0000
vt 0.4815 0.2399 0.0000
vt 0.4927 0.2446 0.0000
vt 0.4974 0.2558 0.0000
vt 0.4717 0.2415 0.0000
vt 0.4931 0.2415 0.0000
vt 0.4931 0.2452 0.0000
vt 0.4717 0.2452 0.0000
vt 0.4931 0.2665 0.0000
vt 0.4717 0.2665 0.0000
vt 0.4931 0.2666 0.0000
vt 0.4717 0.2666 0.0000
vt 0.4763 0.2665 0.0000
vt 0.4763 0.2452 0.0000
vt 0.4799 0.2452 0.0000
vt 0.4799 0.2665 0.0000
vt 0.4762 0.2665 0.0000
vt 0.4762 0.2452 0.0000
# 58 texture coords

g polySurface1526
usemtl Atlas_2
s off
f 1/1/1 2/2/2 3/3/2 4/4/1 
f 2/2/2 5/5/3 6/6/3 3/3/2 
f 5/7/3 7/8/4 8/9/4 6/10/3 
f 7/8/4 9/11/5 10/12/5 8/9/4 
f 9/11/5 11/13/6 12/14/6 10/12/5 
f 11/13/6 13/15/7 14/16/7 12/14/6 
f 13/17/7 15/18/8 16/19/8 14/20/7 
f 15/18/8 1/1/1 4/4/1 16/19/8 
f 17/21/1 18/22/2 19/23/2 20/24/1 
f 18/22/2 21/25/3 22/26/3 19/23/2 
f 21/25/3 23/27/4 24/28/4 22/26/3 
f 23/27/4 25/29/5 26/30/5 24/28/4 
f 25/31/5 27/22/6 28/23/6 26/32/5 
f 27/22/6 29/33/7 30/34/7 28/23/6 
f 29/33/7 31/27/8 32/28/8 30/34/7 
f 31/27/8 17/35/1 20/36/1 32/28/8 
f 29/37/9 27/38/9 25/39/9 23/40/9 
f 29/37/9 23/40/9 21/41/9 18/42/9 
f 29/37/9 18/42/9 17/43/9 31/44/9 
f 32/44/10 20/37/10 19/38/10 22/39/10 
f 32/44/10 22/39/10 24/40/10 26/41/10 
f 32/44/10 26/41/10 28/42/10 30/43/10 
f 33/45/11 34/46/11 35/47/11 36/48/11 
f 36/48/10 35/47/10 37/49/10 38/50/10 
f 39/48/9 40/47/9 34/51/9 33/52/9 
f 34/53/8 40/54/8 37/55/8 35/56/8 
f 39/57/4 33/58/4 36/55/4 38/56/4 
# 27 polygons

