# 3ds Max Wavefront OBJ Exporter v0.97b - (c)2007 guruware
# File Created: 03.04.2017 17:33:00

mtllib Fan_ceiling.mtl

#
# object polySurface1593
#

v  1.6199 -0.4005 -1.1769
v  0.6188 -0.4005 -1.9043
v  0.6851 0.0000 -2.1086
v  1.7937 0.0000 -1.3032
v  -0.6188 -0.4005 -1.9043
v  -0.6851 0.0000 -2.1086
v  -1.6199 -0.4005 -1.1769
v  -1.7937 0.0000 -1.3032
v  -2.0023 -0.4005 -0.0000
v  -2.2171 -0.0000 -0.0000
v  -1.6199 -0.4005 1.1769
v  -1.7937 -0.0000 1.3032
v  -0.6188 -0.4005 1.9043
v  -0.6851 -0.0000 2.1086
v  0.6188 -0.4005 1.9043
v  0.6851 -0.0000 2.1086
v  1.6199 -0.4005 1.1769
v  1.7937 -0.0000 1.3032
v  2.0023 -0.4005 -0.0000
v  2.2171 -0.0000 -0.0000
v  0.6188 0.4005 -1.9043
v  1.6199 0.4005 -1.1769
v  -0.6188 0.4005 -1.9043
v  -1.6199 0.4005 -1.1769
v  -2.0023 0.4005 -0.0000
v  -1.6199 0.4005 1.1769
v  -0.6188 0.4005 1.9043
v  0.6188 0.4005 1.9043
v  1.6199 0.4005 1.1769
v  2.0023 0.4005 -0.0000
v  -7.1646 -0.1375 -5.0282
v  -1.6139 -0.1375 -0.9784
v  -1.6406 0.1375 -0.9517
v  -7.2544 0.1375 -4.9385
v  -6.3697 0.2375 -6.3697
v  -1.2961 0.2375 -1.2961
v  -4.9385 0.1375 -7.2544
v  -0.9517 0.1375 -1.6406
v  -0.9784 -0.1375 -1.6139
v  -5.0282 -0.1375 -7.1646
v  -1.2961 -0.0375 -1.2961
v  -6.3697 -0.0375 -6.3697
v  -5.0282 -0.1375 7.1646
v  -0.9784 -0.1375 1.6139
v  -0.9517 0.1375 1.6406
v  -4.9385 0.1375 7.2544
v  -6.3697 0.2375 6.3697
v  -1.2961 0.2375 1.2961
v  -7.2544 0.1375 4.9385
v  -1.6406 0.1375 0.9517
v  -1.6139 -0.1375 0.9784
v  -7.1646 -0.1375 5.0282
v  -1.2961 -0.0375 1.2961
v  -6.3697 -0.0375 6.3697
v  7.1646 -0.1375 5.0282
v  1.6139 -0.1375 0.9784
v  1.6406 0.1375 0.9517
v  7.2544 0.1375 4.9385
v  6.3697 0.2375 6.3697
v  1.2961 0.2375 1.2961
v  4.9385 0.1375 7.2544
v  0.9517 0.1375 1.6406
v  0.9784 -0.1375 1.6139
v  5.0282 -0.1375 7.1646
v  1.2961 -0.0375 1.2961
v  6.3697 -0.0375 6.3697
v  5.0282 -0.1375 -7.1646
v  0.9784 -0.1375 -1.6139
v  0.9517 0.1375 -1.6406
v  4.9385 0.1375 -7.2544
v  6.3697 0.2375 -6.3697
v  1.2961 0.2375 -1.2961
v  7.2544 0.1375 -4.9385
v  1.6406 0.1375 -0.9517
v  1.6139 -0.1375 -0.9784
v  7.1646 -0.1375 -5.0282
v  1.2961 -0.0375 -1.2961
v  6.3697 -0.0375 -6.3697
# 78 vertices

vn 0.0451 -0.9984 -0.0328
vn 0.0172 -0.9984 -0.0531
vn 0.3090 0.0000 -0.9511
vn 0.8090 0.0000 -0.5878
vn -0.0172 -0.9984 -0.0531
vn -0.3090 0.0000 -0.9511
vn -0.0451 -0.9984 -0.0328
vn -0.8090 0.0000 -0.5878
vn -0.0558 -0.9984 -0.0000
vn -1.0000 0.0000 0.0000
vn -0.0451 -0.9984 0.0328
vn -0.8090 -0.0000 0.5878
vn -0.0172 -0.9984 0.0531
vn -0.3090 -0.0000 0.9511
vn 0.0172 -0.9984 0.0531
vn 0.3090 -0.0000 0.9511
vn 0.0451 -0.9984 0.0328
vn 0.8090 -0.0000 0.5878
vn 0.0558 -0.9984 -0.0000
vn 1.0000 -0.0000 0.0000
vn 0.0172 0.9984 -0.0531
vn 0.0451 0.9984 -0.0328
vn -0.0172 0.9984 -0.0531
vn -0.0451 0.9984 -0.0328
vn -0.0558 0.9984 0.0000
vn -0.0451 0.9984 0.0328
vn -0.0172 0.9984 0.0531
vn 0.0172 0.9984 0.0531
vn 0.0451 0.9984 0.0328
vn 0.0558 0.9984 0.0000
vn -0.5602 -0.2836 0.7783
vn 0.0054 1.0000 0.0054
vn -0.0599 0.9957 0.0707
vn 0.7783 -0.2836 -0.5602
vn -0.0054 -1.0000 -0.0054
vn 0.0654 -0.9950 -0.0761
vn -0.8523 -0.0542 -0.5202
vn -0.7060 -0.0558 -0.7060
vn -0.5202 -0.0542 -0.8523
vn -0.0761 -0.9950 0.0654
vn 0.0707 0.9957 -0.0599
vn 0.7783 -0.2836 0.5602
vn 0.0054 1.0000 -0.0054
vn 0.0707 0.9957 0.0599
vn -0.5602 -0.2836 -0.7783
vn -0.0054 -1.0000 0.0054
vn -0.0761 -0.9950 -0.0654
vn -0.5202 -0.0542 0.8523
vn -0.7060 -0.0558 0.7060
vn -0.8523 -0.0542 0.5202
vn 0.0654 -0.9950 0.0761
vn -0.0599 0.9957 -0.0707
vn 0.5602 -0.2836 -0.7783
vn -0.0054 1.0000 -0.0054
vn 0.0599 0.9957 -0.0707
vn -0.7783 -0.2836 0.5602
vn 0.0054 -1.0000 0.0054
vn -0.0654 -0.9950 0.0761
vn 0.8523 -0.0542 0.5202
vn 0.7060 -0.0558 0.7060
vn 0.5202 -0.0542 0.8523
vn 0.0761 -0.9950 -0.0654
vn -0.0707 0.9957 0.0599
vn -0.7783 -0.2836 -0.5602
vn -0.0054 1.0000 0.0054
vn -0.0707 0.9957 -0.0599
vn 0.5602 -0.2836 0.7783
vn 0.0054 -1.0000 -0.0054
vn 0.0761 -0.9950 0.0654
vn 0.5202 -0.0542 -0.8523
vn 0.7060 -0.0558 -0.7060
vn 0.8523 -0.0542 -0.5202
vn -0.0654 -0.9950 -0.0761
vn 0.0599 0.9957 0.0707
# 74 vertex normals

vt 0.2095 0.9072 0.0000
vt 0.2198 0.9072 0.0000
vt 0.2198 0.9125 0.0000
vt 0.2095 0.9125 0.0000
vt 0.2351 0.9072 0.0000
vt 0.2351 0.9125 0.0000
vt 0.2521 0.9072 0.0000
vt 0.2522 0.9125 0.0000
vt 0.2521 0.9177 0.0000
vt 0.2351 0.9177 0.0000
vt 0.2198 0.9177 0.0000
vt 0.2095 0.9177 0.0000
vt 0.1925 0.9177 0.0000
vt 0.1926 0.9125 0.0000
vt 0.1785 0.9177 0.0000
vt 0.1785 0.9125 0.0000
vt 0.1785 0.9072 0.0000
vt 0.1925 0.9072 0.0000
vt 0.1677 0.8718 0.0000
vt 0.1753 0.8822 0.0000
vt 0.1753 0.8951 0.0000
vt 0.1677 0.9055 0.0000
vt 0.1555 0.9094 0.0000
vt 0.1432 0.9055 0.0000
vt 0.1357 0.8951 0.0000
vt 0.1357 0.8822 0.0000
vt 0.1432 0.8718 0.0000
vt 0.1555 0.8678 0.0000
vt 0.2177 0.8017 0.0000
vt 0.2025 0.9060 0.0000
vt 0.1987 0.9053 0.0000
vt 0.2139 0.8041 0.0000
vt 0.1922 0.8034 0.0000
vt 0.1913 0.9053 0.0000
vt 0.1706 0.8028 0.0000
vt 0.1838 0.9051 0.0000
vt 0.1801 0.9057 0.0000
vt 0.1669 0.8002 0.0000
vt 0.1923 0.7998 0.0000
# 39 texture coords

g polySurface1593
usemtl Atlas_2
s off
f 1/1/1 2/2/2 3/3/3 4/4/4 
f 2/2/2 5/5/5 6/6/6 3/3/3 
f 5/5/5 7/7/7 8/8/8 6/6/6 
f 7/9/7 9/10/9 10/6/10 8/8/8 
f 9/10/9 11/11/11 12/3/12 10/6/10 
f 11/11/11 13/12/13 14/4/14 12/3/12 
f 13/12/13 15/13/15 16/14/16 14/4/14 
f 15/13/15 17/15/17 18/16/18 16/14/16 
f 17/17/17 19/18/19 20/14/20 18/16/18 
f 19/18/19 1/1/1 4/4/4 20/14/20 
f 4/4/4 3/3/3 21/11/21 22/12/22 
f 3/3/3 6/6/6 23/10/23 21/11/21 
f 6/6/6 8/8/8 24/9/24 23/10/23 
f 8/8/8 10/6/10 25/5/25 24/7/24 
f 10/6/10 12/3/12 26/2/26 25/5/25 
f 12/3/12 14/4/14 27/1/27 26/2/26 
f 14/4/14 16/14/16 28/18/28 27/1/27 
f 16/14/16 18/16/18 29/17/29 28/18/28 
f 18/16/18 20/14/20 30/13/30 29/15/29 
f 20/14/20 4/4/4 22/12/22 30/13/30 
f 17/19/17 15/20/15 13/21/13 11/22/11 
f 17/19/17 11/22/11 9/23/9 7/24/7 
f 17/19/17 7/24/7 5/25/5 2/26/2 
f 17/19/17 2/26/2 1/27/1 19/28/19 
f 30/28/30 22/19/22 21/20/21 23/21/23 
f 30/28/30 23/21/23 24/22/24 25/23/25 
f 30/28/30 25/23/25 26/24/26 27/25/27 
f 30/28/30 27/25/27 28/26/28 29/27/29 
f 31/29/31 32/30/31 33/31/31 34/32/31 
f 35/33/32 34/32/33 33/31/33 36/34/32 
f 37/35/34 38/36/34 39/37/34 40/38/34 
f 41/34/35 32/36/36 31/35/36 42/33/35 
f 31/29/37 34/32/37 35/33/38 42/39/38 
f 42/39/38 35/33/38 37/35/39 40/38/39 
f 39/31/40 41/34/35 42/33/35 40/32/40 
f 37/35/41 35/33/32 36/34/32 38/36/41 
f 43/29/42 44/30/42 45/31/42 46/32/42 
f 47/33/43 46/32/44 45/31/44 48/34/43 
f 49/35/45 50/36/45 51/37/45 52/38/45 
f 53/34/46 44/36/47 43/35/47 54/33/46 
f 43/29/48 46/32/48 47/33/49 54/39/49 
f 54/39/49 47/33/49 49/35/50 52/38/50 
f 51/31/51 53/34/46 54/33/46 52/32/51 
f 49/35/52 47/33/43 48/34/43 50/36/52 
f 55/29/53 56/30/53 57/31/53 58/32/53 
f 59/33/54 58/32/55 57/31/55 60/34/54 
f 61/35/56 62/36/56 63/37/56 64/38/56 
f 65/34/57 56/36/58 55/35/58 66/33/57 
f 55/29/59 58/32/59 59/33/60 66/39/60 
f 66/39/60 59/33/60 61/35/61 64/38/61 
f 63/31/62 65/34/57 66/33/57 64/32/62 
f 61/35/63 59/33/54 60/34/54 62/36/63 
f 67/29/64 68/30/64 69/31/64 70/32/64 
f 71/33/65 70/32/66 69/31/66 72/34/65 
f 73/35/67 74/36/67 75/37/67 76/38/67 
f 77/34/68 68/36/69 67/35/69 78/33/68 
f 67/29/70 70/32/70 71/33/71 78/39/71 
f 78/39/71 71/33/71 73/35/72 76/38/72 
f 75/31/73 77/34/68 78/33/68 76/32/73 
f 73/35/74 71/33/65 72/34/65 74/36/74 
# 60 polygons

#
# object polySurface1594
#

v  0.8403 0.4005 -1.4554
v  -0.8403 0.4005 -1.4554
v  -0.4286 2.1040 -0.7424
v  0.4286 2.1040 -0.7424
v  -1.6806 0.4005 -0.0000
v  -0.8572 2.1040 -0.0000
v  -0.8403 0.4005 1.4554
v  -0.4286 2.1040 0.7424
v  0.8403 0.4005 1.4554
v  0.4286 2.1040 0.7424
v  1.6806 0.4005 -0.0000
v  0.8572 2.1040 -0.0000
v  0.0000 1.9064 0.3536
v  0.3536 1.9064 -0.0000
v  0.3536 5.2663 -0.0000
v  0.0000 5.2663 0.3536
v  -0.3536 5.2663 -0.0000
v  0.0000 5.2663 -0.3536
v  0.0000 1.9064 -0.3536
v  -0.3536 1.9064 -0.0000
v  0.7500 6.7723 1.2990
v  -0.7500 6.7723 1.2990
v  -0.4286 4.9581 0.7424
v  0.4286 4.9581 0.7424
v  -1.5000 6.7723 0.0000
v  -0.8572 4.9581 0.0000
v  -0.7500 6.7723 -1.2990
v  -0.4286 4.9581 -0.7424
v  0.7500 6.7723 -1.2990
v  0.4286 4.9581 -0.7424
v  1.5000 6.7723 -0.0000
v  0.8572 4.9581 -0.0000
# 32 vertices

vn 0.0000 0.3861 -0.9225
vn -0.7989 0.3861 -0.4612
vn -0.7989 0.3861 0.4612
vn -0.0000 0.3861 0.9225
vn 0.7989 0.3861 0.4612
vn 0.7989 0.3861 -0.4612
vn 0.0000 1.0000 0.0000
vn 0.7071 -0.0000 0.7071
vn -0.7071 0.0000 -0.7071
vn 0.7071 0.0000 -0.7071
vn -0.7071 -0.0000 0.7071
vn 0.0000 -0.2933 0.9560
vn -0.8279 -0.2933 0.4780
vn -0.8279 -0.2933 -0.4780
vn -0.0000 -0.2933 -0.9560
vn 0.8279 -0.2933 -0.4780
vn 0.8279 -0.2933 0.4780
vn 0.0000 1.0000 -0.0000
vn 0.0000 -1.0000 0.0000
# 19 vertex normals

vt 0.1354 0.8388 0.0000
vt 0.1353 0.8228 0.0000
vt 0.1540 0.8228 0.0000
vt 0.1540 0.8388 0.0000
vt 0.1354 0.8671 0.0000
vt 0.1354 0.8530 0.0000
vt 0.1540 0.8530 0.0000
vt 0.1540 0.8671 0.0000
vt 0.2255 0.8664 0.0000
vt 0.2428 0.8763 0.0000
vt 0.2428 0.8963 0.0000
vt 0.2255 0.9062 0.0000
vt 0.2083 0.8963 0.0000
vt 0.2083 0.8763 0.0000
vt 0.1359 0.7832 0.0000
vt 0.1415 0.7832 0.0000
vt 0.1415 0.8212 0.0000
vt 0.1359 0.8212 0.0000
vt 0.1472 0.7832 0.0000
vt 0.1472 0.8212 0.0000
vt 0.1728 0.8541 0.0000
vt 0.1728 0.8645 0.0000
vt 0.1638 0.8697 0.0000
vt 0.1555 0.8642 0.0000
vt 0.1548 0.8541 0.0000
vt 0.1638 0.8489 0.0000
# 26 texture coords

g polySurface1594
usemtl Atlas_2
s off
f 79/40/75 80/41/75 81/42/75 82/43/75 
f 80/44/76 83/45/76 84/46/76 81/47/76 
f 83/45/77 85/40/77 86/43/77 84/46/77 
f 85/40/78 87/41/78 88/42/78 86/43/78 
f 87/44/79 89/45/79 90/46/79 88/47/79 
f 89/45/80 79/40/80 82/43/80 90/46/80 
f 90/48/81 82/49/81 81/50/81 84/51/81 
f 90/48/81 84/51/81 86/52/81 88/53/81 
f 91/54/82 92/55/82 93/56/82 94/57/82 
f 95/56/83 96/57/83 97/54/83 98/55/83 
f 92/55/84 97/58/84 96/59/84 93/56/84 
f 98/55/85 91/58/85 94/59/85 95/56/85 
f 99/40/86 100/41/86 101/42/86 102/43/86 
f 100/44/87 103/45/87 104/46/87 101/47/87 
f 103/45/88 105/40/88 106/43/88 104/46/88 
f 105/40/89 107/41/89 108/42/89 106/43/89 
f 107/44/90 109/45/90 110/46/90 108/47/90 
f 109/45/91 99/40/91 102/43/91 110/46/91 
f 107/60/92 105/61/92 103/62/92 100/63/92 
f 107/60/92 100/63/92 99/64/92 109/65/92 
f 110/48/93 102/49/93 101/50/93 104/51/93 
f 110/48/93 104/51/93 106/52/93 108/53/93 
# 22 polygons

