# 3ds Max Wavefront OBJ Exporter v0.97b - (c)2007 guruware
# File Created: 03.04.2017 17:33:12

mtllib FirePlace_1.mtl

#
# object polySurface1524
#

v  24.5000 -12.5000 6.5000
v  24.5000 -11.5000 6.5000
v  0.5000 -11.5000 6.5000
v  0.5000 -12.5000 6.5000
v  24.5000 -11.5000 -6.5000
v  0.5000 -11.5000 -6.5000
v  -11.8081 -13.5000 13.0000
v  -11.8081 -12.5000 13.0000
v  -11.8081 -12.5000 -6.5000
v  -11.8081 -13.5000 -6.5000
v  12.1919 -12.5000 13.0000
v  12.1919 -12.5000 -6.5000
v  12.1919 -13.5000 13.0000
v  36.1919 -13.5000 13.0000
v  36.1919 -13.5000 -6.5000
v  36.1919 -12.5000 -6.5000
v  36.1919 -12.5000 13.0000
v  0.5000 -12.5000 -6.5000
v  0.5000 9.5000 -6.5000
v  0.5000 9.5000 6.5000
v  -0.5000 -12.5000 -6.5000
v  -0.5000 -12.5000 6.5000
v  -0.5000 9.5000 6.5000
v  -0.5000 9.5000 -6.5000
v  25.5000 -12.5000 6.5000
v  25.5000 -12.5000 -6.5000
v  25.5000 9.5000 -6.5000
v  25.5000 9.5000 6.5000
v  24.5000 -12.5000 -6.5000
v  24.5000 9.5000 6.5000
v  24.5000 9.5000 -6.5000
v  0.5000 -12.5000 -5.5000
v  24.5000 -12.5000 -5.5000
v  24.5000 9.5000 -5.5000
v  0.5000 9.5000 -5.5000
v  27.4000 9.5000 7.8000
v  27.4000 11.8492 7.8000
v  -1.4000 11.8492 7.8000
v  -1.4000 9.5000 7.8000
v  -1.4000 11.8492 -7.8000
v  -1.4000 9.5000 -7.8000
v  27.4000 9.5000 -7.8000
v  27.4000 11.8492 -7.8000
v  -0.9458 -12.5000 7.4437
v  2.9458 -12.5000 7.4437
v  2.9458 9.6089 7.4437
v  -0.9458 9.6089 7.4437
v  2.9458 9.6089 3.5520
v  -0.9458 9.6089 3.5520
v  2.9458 -12.5000 3.5520
v  -0.9458 -12.5000 3.5520
v  26.9229 -12.5000 7.4437
v  26.9229 -12.5000 3.5520
v  26.9229 9.6089 3.5520
v  26.9229 9.6089 7.4437
v  23.0312 9.6089 3.5520
v  23.0312 9.6089 7.4437
v  23.0312 -12.5000 3.5520
v  23.0312 -12.5000 7.4437
v  24.5000 11.8340 6.5000
v  24.5000 13.0459 6.5000
v  0.5000 13.0459 6.5000
v  0.5000 11.8340 6.5000
v  0.5000 13.0459 -6.5000
v  0.5000 11.8340 -6.5000
v  24.5000 13.0459 -6.5000
v  24.5000 11.8340 -6.5000
# 67 vertices

vn 0.0000 -0.0000 1.0000
vn 0.0000 1.0000 0.0000
vn -1.0000 0.0000 -0.0000
vn 1.0000 0.0000 -0.0000
vn 0.0000 -1.0000 -0.0000
vn 0.0000 0.0000 -1.0000
# 6 vertex normals

vt 0.2466 0.8659 0.0000
vt 0.2466 0.8761 0.0000
vt 0.0024 0.8761 0.0000
vt 0.0024 0.8659 0.0000
vt 0.2466 0.9994 0.0000
vt 0.0024 0.9994 0.0000
vt 0.0039 0.8094 0.0000
vt 0.0136 0.8094 0.0000
vt 0.0136 0.9986 0.0000
vt 0.0039 0.9986 0.0000
vt 0.2464 0.8094 0.0000
vt 0.2464 0.9986 0.0000
vt 0.2464 0.7997 0.0000
vt 0.0136 0.7997 0.0000
vt 0.0583 0.7657 0.0000
vt 0.1988 0.7657 0.0000
vt 0.1988 0.9989 0.0000
vt 0.0583 0.9989 0.0000
vt 0.0583 0.7660 0.0000
vt 0.1988 0.7660 0.0000
vt 0.1988 0.9992 0.0000
vt 0.0583 0.9992 0.0000
vt 0.0007 0.7653 0.0000
vt 0.2485 0.7653 0.0000
vt 0.2485 0.9994 0.0000
vt 0.0007 0.9994 0.0000
vt 0.0195 0.9166 0.0000
vt 0.0195 0.8994 0.0000
vt 0.2303 0.8994 0.0000
vt 0.2303 0.9166 0.0000
vt 0.2474 0.8994 0.0000
vt 0.2303 0.7840 0.0000
vt 0.2474 0.7840 0.0000
vt 0.0023 0.7840 0.0000
vt 0.0195 0.7840 0.0000
vt 0.0023 0.8994 0.0000
vt 0.0223 0.8994 0.0000
vt 0.0223 0.7840 0.0000
vt 0.2330 0.7840 0.0000
vt 0.2330 0.8994 0.0000
vt 0.0839 0.7512 0.0000
vt 0.1301 0.7512 0.0000
vt 0.1301 0.9995 0.0000
vt 0.0839 0.9995 0.0000
vt 0.0002 0.9579 0.0000
vt 0.0421 0.9579 0.0000
vt 0.0421 0.9998 0.0000
vt 0.0002 0.9998 0.0000
vt 0.2225 0.9995 0.0000
vt 0.1763 0.9995 0.0000
vt 0.1763 0.7512 0.0000
vt 0.2225 0.7512 0.0000
vt 0.0376 0.7512 0.0000
vt 0.0376 0.9995 0.0000
vt 0.2373 0.7877 0.0000
vt 0.2373 0.7991 0.0000
vt 0.0123 0.7991 0.0000
vt 0.0123 0.7877 0.0000
vt 0.0009 0.7991 0.0000
vt 0.0123 0.9220 0.0000
vt 0.0009 0.9220 0.0000
vt 0.0123 0.9334 0.0000
vt 0.2373 0.9220 0.0000
vt 0.2373 0.9334 0.0000
vt 0.2486 0.9220 0.0000
vt 0.2486 0.7991 0.0000
# 66 texture coords

g polySurface1524
usemtl Atlas_1
s off
f 1/1/1 2/2/1 3/3/1 4/4/1 
f 2/2/2 5/5/2 6/6/2 3/3/2 
f 7/7/3 8/8/3 9/9/3 10/10/3 
f 11/11/2 12/12/2 9/9/2 8/8/2 
f 13/13/1 11/11/1 8/8/1 7/14/1 
f 14/7/4 15/10/4 16/9/4 17/8/4 
f 11/11/2 17/8/2 16/9/2 12/12/2 
f 13/13/1 14/14/1 17/8/1 11/11/1 
f 4/15/4 18/16/4 19/17/4 20/18/4 
f 21/19/3 22/20/3 23/21/3 24/22/3 
f 25/15/4 26/16/4 27/17/4 28/18/4 
f 29/19/3 1/20/3 30/21/3 31/22/3 
f 32/23/1 33/24/1 34/25/1 35/26/1 
f 36/27/1 37/28/1 38/29/1 39/30/1 
f 39/31/3 38/29/3 40/32/3 41/33/3 
f 42/34/4 43/35/4 37/28/4 36/36/4 
f 37/28/2 43/35/2 40/32/2 38/29/2 
f 42/37/5 36/38/5 39/39/5 41/40/5 
f 44/41/1 45/42/1 46/43/1 47/44/1 
usemtl Atlas_2
f 47/45/2 46/46/2 48/47/2 49/48/2 
usemtl Atlas_1
f 49/49/6 48/50/6 50/51/6 51/52/6 
f 45/42/4 50/51/4 48/50/4 46/43/4 
f 51/53/3 44/41/3 47/44/3 49/54/3 
f 52/41/4 53/42/4 54/43/4 55/44/4 
usemtl Atlas_2
f 55/45/2 54/46/2 56/47/2 57/48/2 
usemtl Atlas_1
f 57/49/3 56/50/3 58/51/3 59/52/3 
f 53/42/6 58/51/6 56/50/6 54/43/6 
f 59/53/1 52/41/1 55/44/1 57/54/1 
f 60/55/1 61/56/1 62/57/1 63/58/1 
f 63/59/3 62/57/3 64/60/3 65/61/3 
f 65/62/6 64/60/6 66/63/6 67/64/6 
f 67/65/4 66/63/4 61/56/4 60/66/4 
f 61/56/2 66/63/2 64/60/2 62/57/2 
# 33 polygons

