# 3ds Max Wavefront OBJ Exporter v0.97b - (c)2007 guruware
# File Created: 03.04.2017 17:33:25

mtllib FirePlace_2.mtl

#
# object polySurface1525
#

v  24.5000 -12.5000 6.5000
v  24.5000 -11.5000 6.5000
v  0.5000 -11.5000 6.5000
v  0.5000 -12.5000 6.5000
v  24.5000 -11.5000 -6.5000
v  0.5000 -11.5000 -6.5000
v  0.5000 -12.5000 -5.5000
v  24.5000 -12.5000 -5.5000
v  24.5000 9.5000 -5.5000
v  0.5000 9.5000 -5.5000
v  27.4000 9.5000 7.8000
v  27.4000 11.8492 7.8000
v  -2.3099 11.8492 7.8000
v  -2.3099 9.5000 7.8000
v  -2.3099 11.8492 -7.8000
v  -2.3099 9.5000 -7.8000
v  27.4000 9.5000 -7.8000
v  27.4000 11.8492 -7.8000
v  24.5000 11.8340 6.5000
v  24.5000 13.0459 6.5000
v  0.5000 13.0459 6.5000
v  0.5000 11.8340 6.5000
v  0.5000 13.0459 -6.5000
v  0.5000 11.8340 -6.5000
v  24.5000 13.0459 -6.5000
v  24.5000 11.8340 -6.5000
v  -1.5000 -12.5000 6.5000
v  0.5000 9.5000 6.5000
v  -1.5000 9.5000 6.5000
v  0.5000 -12.5000 -6.5000
v  0.5000 9.5000 -6.5000
v  -1.5000 -12.5000 -6.5000
v  -1.5000 9.5000 -6.5000
v  26.5000 -12.5000 6.5000
v  26.5000 9.5000 6.5000
v  24.5000 9.5000 6.5000
v  26.5000 -12.5000 -6.5000
v  26.5000 9.5000 -6.5000
v  24.5000 -12.5000 -6.5000
v  24.5000 9.5000 -6.5000
# 40 vertices

vn 0.0000 -0.0000 1.0000
vn 0.0000 1.0000 0.0000
vn -1.0000 0.0000 -0.0000
vn 1.0000 0.0000 -0.0000
vn 0.0000 -1.0000 -0.0000
vn 0.0000 0.0000 -1.0000
# 6 vertex normals

vt 0.4969 0.8659 0.0000
vt 0.4969 0.8761 0.0000
vt 0.2528 0.8761 0.0000
vt 0.2528 0.8659 0.0000
vt 0.4969 0.9994 0.0000
vt 0.2528 0.9994 0.0000
vt 0.2510 0.7653 0.0000
vt 0.4988 0.7653 0.0000
vt 0.4988 0.9994 0.0000
vt 0.2510 0.9994 0.0000
vt 0.2713 0.9166 0.0000
vt 0.2713 0.8994 0.0000
vt 0.4820 0.8994 0.0000
vt 0.4820 0.9166 0.0000
vt 0.4992 0.8994 0.0000
vt 0.4820 0.7840 0.0000
vt 0.4992 0.7840 0.0000
vt 0.2541 0.7840 0.0000
vt 0.2713 0.7840 0.0000
vt 0.2541 0.8994 0.0000
vt 0.2726 0.8994 0.0000
vt 0.2726 0.7840 0.0000
vt 0.4833 0.7840 0.0000
vt 0.4833 0.8994 0.0000
vt 0.4876 0.7877 0.0000
vt 0.4876 0.7991 0.0000
vt 0.2626 0.7991 0.0000
vt 0.2626 0.7877 0.0000
vt 0.2513 0.7991 0.0000
vt 0.2626 0.9220 0.0000
vt 0.2513 0.9220 0.0000
vt 0.2626 0.9334 0.0000
vt 0.4876 0.9220 0.0000
vt 0.4876 0.9334 0.0000
vt 0.4990 0.9220 0.0000
vt 0.4990 0.7991 0.0000
vt 0.3366 0.7509 0.0000
vt 0.3479 0.7509 0.0000
vt 0.3479 0.9994 0.0000
vt 0.3366 0.9994 0.0000
vt 0.4947 0.7509 0.0000
vt 0.4947 0.9994 0.0000
vt 0.3210 0.7509 0.0000
vt 0.3323 0.7509 0.0000
vt 0.3323 0.9994 0.0000
vt 0.3210 0.9994 0.0000
vt 0.4791 0.7509 0.0000
vt 0.4791 0.9994 0.0000
# 48 texture coords

g polySurface1525
usemtl Atlas_1
s off
f 1/1/1 2/2/1 3/3/1 4/4/1 
f 2/2/2 5/5/2 6/6/2 3/3/2 
f 7/7/1 8/8/1 9/9/1 10/10/1 
f 11/11/1 12/12/1 13/13/1 14/14/1 
f 14/15/3 13/13/3 15/16/3 16/17/3 
f 17/18/4 18/19/4 12/12/4 11/20/4 
f 12/12/2 18/19/2 15/16/2 13/13/2 
f 17/21/5 11/22/5 14/23/5 16/24/5 
f 19/25/1 20/26/1 21/27/1 22/28/1 
f 22/29/3 21/27/3 23/30/3 24/31/3 
f 24/32/6 23/30/6 25/33/6 26/34/6 
f 26/35/4 25/33/4 20/26/4 19/36/4 
f 20/26/2 25/33/2 23/30/2 21/27/2 
f 27/37/1 4/38/1 28/39/1 29/40/1 
f 4/38/4 30/41/4 31/42/4 28/39/4 
f 32/38/3 27/41/3 29/42/3 33/39/3 
f 1/43/1 34/44/1 35/45/1 36/46/1 
f 34/44/4 37/47/4 38/48/4 35/45/4 
f 39/44/3 1/47/3 36/48/3 40/45/3 
# 19 polygons

