# 3ds Max Wavefront OBJ Exporter v0.97b - (c)2007 guruware
# File Created: 03.04.2017 17:38:00

mtllib Floor_6B.mtl

#
# object pCube68
#

v  -20.0000 -0.5000 20.0000
v  20.0000 -0.5000 20.0000
v  20.0000 0.5000 20.0000
v  -20.0000 0.5000 20.0000
v  20.0000 0.5000 -20.0000
v  -20.0000 0.5000 -20.0000
v  20.0000 -0.5000 -20.0000
v  -20.0000 -0.5000 -20.0000
# 8 vertices

vn 0.0000 -0.0000 1.0000
vn 0.0000 1.0000 0.0000
vn 0.0000 0.0000 -1.0000
vn 0.0000 -1.0000 -0.0000
vn 1.0000 0.0000 -0.0000
vn -1.0000 0.0000 -0.0000
# 6 vertex normals

vt 0.4996 0.2445 0.0000
vt 0.2503 0.2445 0.0000
vt 0.2503 0.2383 0.0000
vt 0.4996 0.2383 0.0000
vt 0.4997 0.2495 0.0000
vt 0.2502 0.2495 0.0000
vt 0.2502 0.0001 0.0000
vt 0.4997 0.0001 0.0000
vt 0.4996 0.0116 0.0000
vt 0.2503 0.0116 0.0000
vt 0.2503 0.0054 0.0000
vt 0.4996 0.0054 0.0000
vt 0.2638 0.2495 0.0000
vt 0.2638 0.0002 0.0000
vt 0.2700 0.0002 0.0000
vt 0.2700 0.2495 0.0000
vt 0.4931 0.0002 0.0000
vt 0.4931 0.2495 0.0000
vt 0.4869 0.2495 0.0000
vt 0.4869 0.0002 0.0000
# 20 texture coords

g pCube68
usemtl Atlas_1
s off
f 1/1/1 2/2/1 3/3/1 4/4/1 
f 4/5/2 3/6/2 5/7/2 6/8/2 
f 6/9/3 5/10/3 7/11/3 8/12/3 
f 8/8/4 7/5/4 2/6/4 1/7/4 
f 2/13/5 7/14/5 5/15/5 3/16/5 
f 8/17/6 1/18/6 4/19/6 6/20/6 
# 6 polygons

