# 3ds Max Wavefront OBJ Exporter v0.97b - (c)2007 guruware
# File Created: 03.04.2017 17:35:39

mtllib Floor_2B.mtl

#
# object pCube64
#

v  -20.0000 -0.5000 20.0000
v  20.0000 -0.5000 20.0000
v  20.0000 0.5000 20.0000
v  -20.0000 0.5000 20.0000
v  20.0000 0.5000 -20.0000
v  -20.0000 0.5000 -20.0000
v  20.0000 -0.5000 -20.0000
v  -20.0000 -0.5000 -20.0000
# 8 vertices

vn 0.0000 -0.0000 1.0000
vn 0.0000 1.0000 0.0000
vn 0.0000 0.0000 -1.0000
vn 0.0000 -1.0000 -0.0000
vn 1.0000 0.0000 -0.0000
vn -1.0000 0.0000 -0.0000
# 6 vertex normals

vt 0.4998 0.4947 0.0000
vt 0.2504 0.4947 0.0000
vt 0.2504 0.4885 0.0000
vt 0.4998 0.4885 0.0000
vt 0.4998 0.4997 0.0000
vt 0.2504 0.4997 0.0000
vt 0.2504 0.2503 0.0000
vt 0.4998 0.2503 0.0000
vt 0.4998 0.2618 0.0000
vt 0.2504 0.2618 0.0000
vt 0.2504 0.2556 0.0000
vt 0.4998 0.2556 0.0000
vt 0.2639 0.4997 0.0000
vt 0.2639 0.2504 0.0000
vt 0.2701 0.2504 0.0000
vt 0.2701 0.4997 0.0000
vt 0.4932 0.2504 0.0000
vt 0.4932 0.4997 0.0000
vt 0.4870 0.4997 0.0000
vt 0.4870 0.2504 0.0000
# 20 texture coords

g pCube64
usemtl Atlas_1
s off
f 1/1/1 2/2/1 3/3/1 4/4/1 
f 4/5/2 3/6/2 5/7/2 6/8/2 
f 6/9/3 5/10/3 7/11/3 8/12/3 
f 8/8/4 7/5/4 2/6/4 1/7/4 
f 2/13/5 7/14/5 5/15/5 3/16/5 
f 8/17/6 1/18/6 4/19/6 6/20/6 
# 6 polygons

