# 3ds Max Wavefront OBJ Exporter v0.97b - (c)2007 guruware
# File Created: 03.04.2017 17:41:41

mtllib Kitchen_Cabinet_1E.mtl

#
# object polySurface1534
#

v  1.0290 4.2585 3.8017
v  1.0290 3.9008 3.1308
v  1.0290 3.5614 3.1308
v  1.0290 4.0370 4.0957
v  1.0290 5.6037 3.8017
v  1.0290 5.8252 4.0957
v  1.0290 5.9614 3.1308
v  1.0290 6.3008 3.1308
v  1.3684 3.5614 3.1308
v  1.3684 4.0370 4.0957
v  1.3684 5.8252 4.0957
v  1.3684 6.3008 3.1308
v  1.3684 3.9008 3.1308
v  1.3684 4.2585 3.8017
v  1.3684 5.6037 3.8017
v  1.3684 5.9614 3.1308
v  -1.3697 4.2585 3.8017
v  -1.3697 3.9008 3.1308
v  -1.3697 3.5614 3.1308
v  -1.3697 4.0370 4.0957
v  -1.3697 5.6037 3.8017
v  -1.3697 5.8252 4.0957
v  -1.3697 5.9614 3.1308
v  -1.3697 6.3008 3.1308
v  -1.0303 3.5614 3.1308
v  -1.0303 4.0370 4.0957
v  -1.0303 5.8252 4.0957
v  -1.0303 6.3008 3.1308
v  -1.0303 3.9008 3.1308
v  -1.0303 4.2585 3.8017
v  -1.0303 5.6037 3.8017
v  -1.0303 5.9614 3.1308
v  0.0000 8.9281 2.5000
v  -6.5000 8.9281 2.5000
v  -6.5000 -3.9267 2.5000
v  6.5000 -3.9267 2.5000
v  6.5000 8.9281 2.5000
v  -6.5000 -3.9267 -4.4690
v  -6.5000 8.9281 -4.4690
v  0.0000 8.9281 -4.4690
v  6.5000 8.9281 -4.4690
v  6.5000 -3.9267 -4.4690
v  0.0000 7.5542 1.7512
v  0.0000 7.5542 -3.5215
v  -5.9042 7.5542 -3.5215
v  -5.9042 7.5542 1.7512
v  -5.9042 8.9281 1.7512
v  0.0000 8.9281 1.7512
v  -5.9042 8.9281 -3.5215
v  0.0000 8.9281 -3.5215
v  5.9042 7.5542 1.7512
v  5.9042 7.5542 -3.5215
v  5.9042 8.9281 1.7512
v  5.9042 8.9281 -3.5215
v  6.5000 -3.8092 3.1308
v  6.5000 -3.8092 2.5000
v  6.5000 8.9281 3.1308
v  0.0000 -3.8092 2.5000
v  0.0000 -3.8092 3.1308
v  0.0000 8.9281 3.1308
v  -6.5000 -3.8092 3.1308
v  -6.5000 8.9281 3.1308
v  -6.5000 -3.8092 2.5000
v  -0.0000 -3.8092 2.5000
v  -0.0000 -3.8092 3.1308
v  -0.0000 8.9281 3.1308
v  -0.0000 8.9281 2.5000
v  -0.1958 8.9281 1.7512
v  0.1958 8.9281 1.7512
v  0.1958 8.9281 -3.5215
v  -0.1958 8.9281 -3.5215
v  0.2823 7.5542 1.7512
v  0.2823 7.5542 -3.5215
v  -0.2823 7.5542 -3.5215
v  -0.2823 7.5542 1.7512
v  -3.1786 8.9281 -3.6811
v  -2.8214 8.9281 -3.6811
v  -2.8214 10.3622 -3.6811
v  -3.1786 10.3622 -3.6811
v  -2.8214 10.3622 -4.0382
v  -3.1786 10.3622 -4.0382
v  -2.8214 8.9281 -4.0382
v  -3.1786 8.9281 -4.0382
v  -3.1431 9.8682 -3.8596
v  -2.8569 9.8682 -3.8596
v  -2.8569 9.8682 -2.7101
v  -3.1431 9.8682 -2.7101
v  -2.8569 10.1544 -2.7101
v  -3.1431 10.1544 -2.7101
v  -2.8569 10.1544 -3.8596
v  -3.1431 10.1544 -3.8596
v  -3.0959 9.7146 -2.9260
v  -2.9041 9.7146 -2.9260
v  -2.9041 9.7146 -2.7379
v  -3.0959 9.7146 -2.7379
v  -2.9041 9.9065 -2.7379
v  -3.0959 9.9065 -2.7379
v  -3.0959 9.9065 -2.9260
v  -2.9041 9.9065 -2.9260
v  -2.8825 10.4873 -3.0163
v  -3.1175 10.4873 -3.0163
v  -3.1175 10.4051 -3.9565
v  -2.8825 10.4051 -3.9565
v  -3.1175 10.6392 -3.9770
v  -2.8825 10.6392 -3.9770
v  -3.1175 10.7215 -3.0368
v  -2.8825 10.7215 -3.0368
v  -2.9213 10.2815 -3.9228
v  -3.0787 10.2815 -3.9228
v  -3.0787 10.4384 -3.9365
v  -2.9213 10.4384 -3.9365
v  -2.9213 10.4519 -3.7826
v  -3.0787 10.4519 -3.7826
v  -3.0787 10.2950 -3.7689
v  -2.9213 10.2950 -3.7689
v  -3.3345 8.1136 -3.4794
v  -2.6147 8.1136 -3.4794
v  -2.6147 8.8334 -3.4794
v  -3.3345 8.8334 -3.4794
v  -2.6147 8.8334 -3.6030
v  -3.3345 8.8334 -3.6030
v  -3.3345 8.1136 -3.6030
v  -2.6147 8.1136 -3.6030
v  2.6101 8.1136 -3.4794
v  3.3299 8.1136 -3.4794
v  3.3299 8.8334 -3.4794
v  2.6101 8.8334 -3.4794
v  3.3299 8.8334 -3.6030
v  2.6101 8.8334 -3.6030
v  2.6101 8.1136 -3.6030
v  3.3299 8.1136 -3.6030
v  2.8214 8.9281 -3.6811
v  3.1786 8.9281 -3.6811
v  3.1786 10.3622 -3.6811
v  2.8214 10.3622 -3.6811
v  3.1786 10.3622 -4.0382
v  2.8214 10.3622 -4.0382
v  3.1786 8.9281 -4.0382
v  2.8214 8.9281 -4.0382
v  2.8569 9.8682 -3.8596
v  3.1431 9.8682 -3.8596
v  3.1431 9.8682 -2.7101
v  2.8569 9.8682 -2.7101
v  3.1431 10.1544 -2.7101
v  2.8569 10.1544 -2.7101
v  3.1431 10.1544 -3.8596
v  2.8569 10.1544 -3.8596
v  2.9041 9.7146 -2.9260
v  3.0959 9.7146 -2.9260
v  3.0959 9.7146 -2.7379
v  2.9041 9.7146 -2.7379
v  3.0959 9.9065 -2.7379
v  2.9041 9.9065 -2.7379
v  2.9041 9.9065 -2.9260
v  3.0959 9.9065 -2.9260
v  3.1175 10.4873 -3.0163
v  2.8825 10.4873 -3.0163
v  2.8825 10.4051 -3.9565
v  3.1175 10.4051 -3.9565
v  2.8825 10.6392 -3.9770
v  3.1175 10.6392 -3.9770
v  2.8825 10.7215 -3.0368
v  3.1175 10.7215 -3.0368
v  3.0787 10.2815 -3.9228
v  2.9213 10.2815 -3.9228
v  2.9213 10.4384 -3.9365
v  3.0787 10.4384 -3.9365
v  3.0787 10.4519 -3.7826
v  2.9213 10.4519 -3.7826
v  2.9213 10.2950 -3.7689
v  3.0787 10.2950 -3.7689
# 171 vertices

vn -1.0000 0.0000 0.0000
vn -1.0000 0.0000 -0.0000
vn 0.0000 -0.8970 0.4421
vn 0.0000 -0.0000 1.0000
vn 0.0000 0.8970 0.4421
vn 1.0000 -0.0000 -0.0000
vn 1.0000 0.0000 -0.0000
vn 0.0000 0.8824 -0.4705
vn 0.0000 0.0000 -1.0000
vn 0.0000 -0.8824 -0.4705
vn 1.0000 0.0000 0.0000
vn 0.0000 1.0000 0.0000
vn 0.0000 1.0000 -0.0000
vn 0.0000 -1.0000 -0.0000
vn 0.9980 0.0628 0.0000
vn -0.9980 0.0628 0.0000
vn 0.0000 -0.9962 0.0872
vn 0.0000 -0.0872 -0.9962
vn 0.0000 0.9962 -0.0872
vn 0.0000 0.0872 0.9962
# 20 vertex normals

vt 0.2513 0.8423 0.0000
vt 0.2513 0.8657 0.0000
vt 0.2453 0.8682 0.0000
vt 0.2453 0.8426 0.0000
vt 0.2513 0.8163 0.0000
vt 0.2453 0.8160 0.0000
vt 0.2513 0.7928 0.0000
vt 0.2453 0.7903 0.0000
vt 0.2384 0.8682 0.0000
vt 0.2384 0.8426 0.0000
vt 0.2384 0.8160 0.0000
vt 0.2384 0.7903 0.0000
vt 0.2325 0.8644 0.0000
vt 0.2325 0.8423 0.0000
vt 0.2325 0.8162 0.0000
vt 0.2325 0.7942 0.0000
vt 0.2256 0.8630 0.0000
vt 0.2256 0.8423 0.0000
vt 0.2256 0.8162 0.0000
vt 0.2256 0.7955 0.0000
vt 0.6612 0.9374 0.0000
vt 0.6612 0.9939 0.0000
vt 0.5496 0.9939 0.0000
vt 0.5496 0.8810 0.0000
vt 0.6612 0.8810 0.0000
vt 0.5496 0.9374 0.0000
vt 0.4919 0.9858 0.0000
vt 0.4919 0.9155 0.0000
vt 0.6215 0.9155 0.0000
vt 0.6215 0.9858 0.0000
vt 0.4726 0.6524 0.0000
vt 0.4726 0.6768 0.0000
vt 0.4454 0.6768 0.0000
vt 0.4454 0.6524 0.0000
vt 0.4390 0.6524 0.0000
vt 0.4363 0.6490 0.0000
vt 0.4663 0.6490 0.0000
vt 0.4663 0.6524 0.0000
vt 0.4363 0.6812 0.0000
vt 0.4390 0.6768 0.0000
vt 0.4663 0.6768 0.0000
vt 0.4663 0.6812 0.0000
vt 0.4454 0.6461 0.0000
vt 0.4726 0.6461 0.0000
vt 0.4454 0.6831 0.0000
vt 0.4726 0.6831 0.0000
vt 0.6782 0.7559 0.0000
vt 0.6898 0.7541 0.0000
vt 0.6898 0.8705 0.0000
vt 0.6782 0.8709 0.0000
vt 0.5660 0.7505 0.0000
vt 0.6782 0.7505 0.0000
vt 0.5660 0.7559 0.0000
vt 0.5660 0.8709 0.0000
vt 0.5660 0.8741 0.0000
vt 0.6782 0.8741 0.0000
vt 0.4396 0.6500 0.0000
vt 0.4396 0.6461 0.0000
vt 0.4962 0.6461 0.0000
vt 0.4962 0.6500 0.0000
vt 0.4961 0.6645 0.0000
vt 0.4398 0.6645 0.0000
vt 0.4857 0.6159 0.0000
vt 0.4930 0.6159 0.0000
vt 0.4930 0.6453 0.0000
vt 0.4857 0.6453 0.0000
vt 0.4731 0.6203 0.0000
vt 0.4950 0.6203 0.0000
vt 0.4950 0.6422 0.0000
vt 0.4731 0.6422 0.0000
vt 0.4784 0.6159 0.0000
vt 0.4784 0.6453 0.0000
vt 0.4800 0.6163 0.0000
vt 0.4872 0.6163 0.0000
vt 0.4872 0.6450 0.0000
vt 0.4800 0.6450 0.0000
vt 0.4800 0.6232 0.0000
vt 0.4955 0.6232 0.0000
vt 0.4955 0.6387 0.0000
vt 0.4800 0.6387 0.0000
vt 0.4943 0.6163 0.0000
vt 0.4943 0.6450 0.0000
vt 0.4534 0.6643 0.0000
vt 0.4635 0.6643 0.0000
vt 0.4635 0.6741 0.0000
vt 0.4534 0.6741 0.0000
vt 0.4800 0.6307 0.0000
vt 0.4944 0.6163 0.0000
vt 0.4944 0.6307 0.0000
vt 0.4944 0.6448 0.0000
vt 0.4800 0.6448 0.0000
vt 0.4929 0.6454 0.0000
vt 0.4856 0.6454 0.0000
vt 0.4856 0.6159 0.0000
vt 0.4929 0.6159 0.0000
vt 0.4786 0.6205 0.0000
vt 0.4977 0.6205 0.0000
vt 0.4977 0.6396 0.0000
vt 0.4786 0.6396 0.0000
vt 0.4782 0.6454 0.0000
vt 0.4782 0.6159 0.0000
vt 0.4794 0.6308 0.0000
vt 0.4794 0.6168 0.0000
vt 0.4934 0.6168 0.0000
vt 0.4934 0.6308 0.0000
vt 0.4932 0.6166 0.0000
vt 0.4932 0.6307 0.0000
vt 0.4792 0.6307 0.0000
vt 0.4792 0.6166 0.0000
vt 0.4932 0.6445 0.0000
vt 0.4792 0.6445 0.0000
vt 0.4934 0.6446 0.0000
vt 0.4794 0.6446 0.0000
vt 0.4494 0.6595 0.0000
vt 0.4671 0.6595 0.0000
vt 0.4671 0.6773 0.0000
vt 0.4494 0.6773 0.0000
vt 0.4671 0.6803 0.0000
vt 0.4494 0.6803 0.0000
vt 0.4463 0.6595 0.0000
vt 0.4463 0.6773 0.0000
# 121 texture coords

g polySurface1534
usemtl Atlas_2
s off
f 1/1/1 2/2/1 3/3/1 4/4/1 
f 5/5/2 1/1/2 4/4/2 6/6/2 
f 7/7/2 5/5/2 6/6/2 8/8/2 
f 4/4/3 3/3/3 9/9/3 10/10/3 
f 6/6/4 4/4/4 10/10/4 11/11/4 
f 8/8/5 6/6/5 11/11/5 12/12/5 
f 10/10/6 9/9/6 13/13/6 14/14/6 
f 11/11/7 10/10/7 14/14/7 15/15/7 
f 12/12/7 11/11/7 15/15/7 16/16/7 
f 14/14/8 13/13/8 2/17/8 1/18/8 
f 15/15/9 14/14/9 1/18/9 5/19/9 
f 16/16/10 15/15/10 5/19/10 7/20/10 
f 17/1/2 18/2/2 19/3/2 20/4/2 
f 21/5/2 17/1/2 20/4/2 22/6/2 
f 23/7/2 21/5/2 22/6/2 24/8/2 
f 20/4/3 19/3/3 25/9/3 26/10/3 
f 22/6/4 20/4/4 26/10/4 27/11/4 
f 24/8/5 22/6/5 27/11/5 28/12/5 
f 26/10/11 25/9/11 29/13/11 30/14/11 
f 27/11/7 26/10/7 30/14/7 31/15/7 
f 28/12/7 27/11/7 31/15/7 32/16/7 
f 30/14/8 29/13/8 18/17/8 17/18/8 
f 31/15/9 30/14/9 17/18/9 21/19/9 
f 32/16/10 31/15/10 21/19/10 23/20/10 
f 33/21/4 34/22/4 35/23/4 36/24/4 
f 33/21/4 36/24/4 37/25/4 
f 38/22/9 39/23/9 40/26/9 41/24/9 
f 38/22/9 41/24/9 42/25/9 
f 36/27/7 42/28/7 41/29/7 37/30/7 
f 38/27/2 35/28/2 34/29/2 39/30/2 
f 43/31/12 44/32/12 45/33/12 46/34/12 
f 47/35/12 34/36/12 33/37/12 48/38/12 
f 39/39/12 49/40/12 50/41/12 40/42/12 
f 39/39/12 34/36/12 47/35/12 49/40/12 
f 46/34/9 47/43/9 48/44/9 43/31/9 
f 49/45/4 45/33/4 44/32/4 50/46/4 
f 49/40/7 47/35/7 46/34/7 45/33/7 
f 43/31/12 51/34/12 52/33/12 44/32/12 
f 53/35/13 48/38/13 33/37/13 37/36/13 
f 41/39/12 40/42/12 50/41/12 54/40/12 
f 41/39/12 54/40/12 53/35/13 37/36/13 
f 51/34/9 43/31/9 48/44/9 53/43/9 
f 54/45/4 50/46/4 44/32/4 52/33/4 
f 54/40/2 52/33/2 51/34/2 53/35/2 
f 55/47/7 56/48/7 37/49/7 57/50/7 
f 58/51/14 56/52/14 55/47/14 59/53/14 
f 60/54/4 59/53/4 55/47/4 57/50/4 
f 33/55/12 60/54/12 57/50/12 37/56/12 
f 61/47/2 62/50/2 34/49/2 63/48/2 
f 64/51/14 65/53/14 61/47/14 63/52/14 
f 66/54/4 62/50/4 61/47/4 65/53/4 
f 67/55/12 34/56/12 62/50/12 66/54/12 
f 68/57/12 69/58/12 70/59/12 71/60/12 
f 72/61/15 73/62/15 70/57/15 69/60/15 
f 74/61/16 75/62/16 68/57/16 71/60/16 
f 76/63/4 77/64/4 78/65/4 79/66/4 
f 79/67/12 78/68/12 80/69/12 81/70/12 
f 81/65/9 80/66/9 82/63/9 83/64/9 
f 77/71/7 82/63/7 80/66/7 78/72/7 
f 83/71/2 76/63/2 79/66/2 81/72/2 
f 84/73/14 85/74/14 86/75/14 87/76/14 
f 87/77/4 86/78/4 88/79/4 89/80/4 
f 89/75/12 88/76/12 90/73/12 91/74/12 
f 85/74/7 90/81/7 88/82/7 86/75/7 
f 91/74/2 84/81/2 87/82/2 89/75/2 
f 92/83/14 93/84/14 94/85/14 95/86/14 
f 95/87/4 94/73/4 96/88/4 97/89/4 
f 98/88/9 99/89/9 93/87/9 92/73/9 
f 93/87/7 99/89/7 96/90/7 94/91/7 
f 98/90/2 92/91/2 95/87/2 97/89/2 
f 100/92/17 101/93/17 102/94/17 103/95/17 
f 103/96/18 102/97/18 104/98/18 105/99/18 
f 105/94/19 104/95/19 106/92/19 107/93/19 
f 107/96/20 106/97/20 101/98/20 100/99/20 
f 101/93/2 106/100/2 104/101/2 102/94/2 
f 107/93/7 100/100/7 103/101/7 105/94/7 
f 108/102/18 109/103/18 110/104/18 111/105/18 
f 112/106/20 113/107/20 114/108/20 115/109/20 
f 114/108/2 113/107/2 110/110/2 109/111/2 
f 112/112/7 115/113/7 108/102/7 111/105/7 
f 116/114/4 117/115/4 118/116/4 119/117/4 
f 119/117/12 118/116/12 120/118/12 121/119/12 
f 122/117/14 123/116/14 117/118/14 116/119/14 
f 117/120/7 123/114/7 120/117/7 118/121/7 
f 122/120/2 116/114/2 119/117/2 121/121/2 
f 124/114/4 125/115/4 126/116/4 127/117/4 
f 127/117/12 126/116/12 128/118/12 129/119/12 
f 130/117/14 131/116/14 125/118/14 124/119/14 
f 125/120/7 131/114/7 128/117/7 126/121/7 
f 130/120/2 124/114/2 127/117/2 129/121/2 
f 132/63/4 133/64/4 134/65/4 135/66/4 
f 135/67/12 134/68/12 136/69/12 137/70/12 
f 137/65/9 136/66/9 138/63/9 139/64/9 
f 133/71/7 138/63/7 136/66/7 134/72/7 
f 139/71/2 132/63/2 135/66/2 137/72/2 
f 140/73/14 141/74/14 142/75/14 143/76/14 
f 143/77/4 142/78/4 144/79/4 145/80/4 
f 145/75/12 144/76/12 146/73/12 147/74/12 
f 141/74/7 146/81/7 144/82/7 142/75/7 
f 147/74/2 140/81/2 143/82/2 145/75/2 
f 148/83/14 149/84/14 150/85/14 151/86/14 
f 151/87/4 150/73/4 152/88/4 153/89/4 
f 154/88/9 155/89/9 149/87/9 148/73/9 
f 149/87/7 155/89/7 152/90/7 150/91/7 
f 154/90/2 148/91/2 151/87/2 153/89/2 
f 156/92/17 157/93/17 158/94/17 159/95/17 
f 159/96/18 158/97/18 160/98/18 161/99/18 
f 161/94/19 160/95/19 162/92/19 163/93/19 
f 163/96/20 162/97/20 157/98/20 156/99/20 
f 157/93/2 162/100/2 160/101/2 158/94/2 
f 163/93/7 156/100/7 159/101/7 161/94/7 
f 164/102/18 165/103/18 166/104/18 167/105/18 
f 168/106/20 169/107/20 170/108/20 171/109/20 
f 170/108/2 169/107/2 166/110/2 165/111/2 
f 168/112/7 171/113/7 164/102/7 167/105/7 
# 113 polygons - 2 triangles

