# 3ds Max Wavefront OBJ Exporter v0.97b - (c)2007 guruware
# File Created: 03.04.2017 17:40:56

mtllib Kitchen_Cabinet_1B.mtl

#
# object polySurface1533
#

v  4.9459 7.4026 3.8017
v  5.3036 7.4026 3.1308
v  5.6430 7.4026 3.1308
v  5.1675 7.4026 4.0957
v  3.6008 7.4026 3.8017
v  3.3792 7.4026 4.0957
v  3.2430 7.4026 3.1308
v  2.9036 7.4026 3.1308
v  5.6430 7.7420 3.1308
v  5.1675 7.7420 4.0957
v  3.3792 7.7420 4.0957
v  2.9036 7.7420 3.1308
v  5.3036 7.7420 3.1308
v  4.9459 7.7420 3.8017
v  3.6008 7.7420 3.8017
v  3.2430 7.7420 3.1308
v  4.9459 2.7614 3.8017
v  5.3036 2.7614 3.1308
v  5.6430 2.7614 3.1308
v  5.1675 2.7614 4.0957
v  3.6008 2.7614 3.8017
v  3.3792 2.7614 4.0957
v  3.2430 2.7614 3.1308
v  2.9036 2.7614 3.1308
v  5.6430 3.1008 3.1308
v  5.1675 3.1008 4.0957
v  3.3792 3.1008 4.0957
v  2.9036 3.1008 3.1308
v  5.3036 3.1008 3.1308
v  4.9459 3.1008 3.8017
v  3.6008 3.1008 3.8017
v  3.2430 3.1008 3.1308
v  4.9459 -1.5575 3.8017
v  5.3036 -1.5575 3.1308
v  5.6430 -1.5575 3.1308
v  5.1675 -1.5575 4.0957
v  3.6008 -1.5575 3.8017
v  3.3792 -1.5575 4.0957
v  3.2430 -1.5575 3.1308
v  2.9036 -1.5575 3.1308
v  5.6430 -1.2181 3.1308
v  5.1675 -1.2181 4.0957
v  3.3792 -1.2181 4.0957
v  2.9036 -1.2181 3.1308
v  5.3036 -1.2181 3.1308
v  4.9459 -1.2181 3.8017
v  3.6008 -1.2181 3.8017
v  3.2430 -1.2181 3.1308
v  8.3124 -3.9267 2.5000
v  8.3124 -3.9267 -4.4690
v  8.3124 8.9281 -4.4690
v  8.3124 8.9281 2.5000
v  0.5199 -3.9267 -4.4690
v  0.5199 -3.9267 2.5000
v  0.5199 8.9281 2.5000
v  0.5199 8.9281 -4.4690
v  8.2744 -3.8662 3.1308
v  8.2744 -3.8662 2.5000
v  8.2744 8.8710 2.5000
v  8.2744 8.8710 3.1308
v  0.5570 -3.8662 2.5000
v  0.5570 -3.8662 3.1308
v  0.5570 8.8710 3.1308
v  0.5570 8.8710 2.5000
# 64 vertices

vn 0.0000 -1.0000 -0.0000
vn 0.8970 -0.0000 0.4421
vn 0.0000 -0.0000 1.0000
vn -0.8970 -0.0000 0.4421
vn 0.0000 1.0000 0.0000
vn -0.8824 0.0000 -0.4705
vn 0.0000 0.0000 -1.0000
vn 0.8824 0.0000 -0.4705
vn 0.0000 -1.0000 0.0000
vn 0.0000 1.0000 -0.0000
vn 1.0000 0.0000 -0.0000
vn -1.0000 0.0000 -0.0000
# 12 vertex normals

vt 0.2513 0.8423 0.0000
vt 0.2513 0.8657 0.0000
vt 0.2453 0.8682 0.0000
vt 0.2453 0.8426 0.0000
vt 0.2513 0.8163 0.0000
vt 0.2453 0.8160 0.0000
vt 0.2513 0.7928 0.0000
vt 0.2453 0.7903 0.0000
vt 0.2384 0.8682 0.0000
vt 0.2384 0.8426 0.0000
vt 0.2384 0.8160 0.0000
vt 0.2384 0.7903 0.0000
vt 0.2325 0.8644 0.0000
vt 0.2325 0.8423 0.0000
vt 0.2325 0.8162 0.0000
vt 0.2325 0.7942 0.0000
vt 0.2256 0.8630 0.0000
vt 0.2256 0.8423 0.0000
vt 0.2256 0.8162 0.0000
vt 0.2256 0.7955 0.0000
vt 0.6020 0.9984 0.0000
vt 0.6020 0.9370 0.0000
vt 0.6843 0.9370 0.0000
vt 0.6843 0.9984 0.0000
vt 0.6838 0.9421 0.0000
vt 0.6838 0.9933 0.0000
vt 0.6151 0.9933 0.0000
vt 0.6151 0.9421 0.0000
vt 0.5133 0.9987 0.0000
vt 0.4537 0.9987 0.0000
vt 0.4537 0.9421 0.0000
vt 0.5133 0.9421 0.0000
vt 0.4487 0.8895 0.0000
vt 0.5708 0.8895 0.0000
vt 0.5708 0.9854 0.0000
vt 0.4487 0.9854 0.0000
vt 0.9277 0.7559 0.0000
vt 0.9393 0.7558 0.0000
vt 0.9393 0.8709 0.0000
vt 0.9277 0.8709 0.0000
vt 0.6936 0.7562 0.0000
vt 0.7052 0.7561 0.0000
vt 0.7052 0.8705 0.0000
vt 0.6936 0.8705 0.0000
vt 0.8179 0.8709 0.0000
vt 0.8179 0.7559 0.0000
vt 0.8179 0.8741 0.0000
vt 0.9277 0.8741 0.0000
# 48 texture coords

g polySurface1533
usemtl Atlas_2
s off
f 1/1/1 2/2/1 3/3/1 4/4/1 
f 5/5/1 1/1/1 4/4/1 6/6/1 
f 7/7/1 5/5/1 6/6/1 8/8/1 
f 4/4/2 3/3/2 9/9/2 10/10/2 
f 6/6/3 4/4/3 10/10/3 11/11/3 
f 8/8/4 6/6/4 11/11/4 12/12/4 
f 10/10/5 9/9/5 13/13/5 14/14/5 
f 11/11/5 10/10/5 14/14/5 15/15/5 
f 12/12/5 11/11/5 15/15/5 16/16/5 
f 14/14/6 13/13/6 2/17/6 1/18/6 
f 15/15/7 14/14/7 1/18/7 5/19/7 
f 16/16/8 15/15/8 5/19/8 7/20/8 
f 17/1/9 18/2/9 19/3/9 20/4/9 
f 21/5/9 17/1/9 20/4/9 22/6/9 
f 23/7/1 21/5/1 22/6/1 24/8/1 
f 20/4/2 19/3/2 25/9/2 26/10/2 
f 22/6/3 20/4/3 26/10/3 27/11/3 
f 24/8/4 22/6/4 27/11/4 28/12/4 
f 26/10/5 25/9/5 29/13/5 30/14/5 
f 27/11/5 26/10/5 30/14/5 31/15/5 
f 28/12/5 27/11/5 31/15/5 32/16/5 
f 30/14/6 29/13/6 18/17/6 17/18/6 
f 31/15/7 30/14/7 17/18/7 21/19/7 
f 32/16/8 31/15/8 21/19/8 23/20/8 
f 33/1/1 34/2/1 35/3/1 36/4/1 
f 37/5/1 33/1/1 36/4/1 38/6/1 
f 39/7/1 37/5/1 38/6/1 40/8/1 
f 36/4/2 35/3/2 41/9/2 42/10/2 
f 38/6/3 36/4/3 42/10/3 43/11/3 
f 40/8/4 38/6/4 43/11/4 44/12/4 
f 42/10/5 41/9/5 45/13/5 46/14/5 
f 43/11/10 42/10/10 46/14/10 47/15/10 
f 44/12/5 43/11/5 47/15/5 48/16/5 
f 46/14/6 45/13/6 34/17/6 33/18/6 
f 47/15/7 46/14/7 33/18/7 37/19/7 
f 48/16/8 47/15/8 37/19/8 39/20/8 
f 49/21/11 50/22/11 51/23/11 52/24/11 
f 53/25/12 54/26/12 55/27/12 56/28/12 
f 55/29/5 52/30/5 51/31/5 56/32/5 
f 53/33/7 56/34/7 51/35/7 50/36/7 
f 55/33/3 54/34/3 49/35/3 52/36/3 
f 57/37/11 58/38/11 59/39/11 60/40/11 
f 61/41/12 62/42/12 63/43/12 64/44/12 
f 63/45/3 62/46/3 57/37/3 60/40/3 
f 64/47/5 63/45/5 60/40/5 59/48/5 
# 45 polygons

