# 3ds Max Wavefront OBJ Exporter v0.97b - (c)2007 guruware
# File Created: 03.04.2017 17:40:46

mtllib Kitchen_Cabinet_1A.mtl

#
# object polySurface1532
#

v  4.9459 8.0937 3.8017
v  5.3036 8.0937 3.1308
v  5.6430 8.0937 3.1308
v  5.1675 8.0937 4.0957
v  3.6008 8.0937 3.8017
v  3.3792 8.0937 4.0957
v  3.2430 8.0937 3.1308
v  2.9036 8.0937 3.1308
v  5.6430 8.4331 3.1308
v  5.1675 8.4331 4.0957
v  3.3792 8.4331 4.0957
v  2.9036 8.4331 3.1308
v  5.3036 8.4331 3.1308
v  4.9459 8.4331 3.8017
v  3.6008 8.4331 3.8017
v  3.2430 8.4331 3.1308
v  8.3124 -3.9267 2.5000
v  8.3124 -3.9267 -4.4690
v  8.3124 8.9281 -4.4690
v  8.3124 8.9281 2.5000
v  0.5199 -3.9267 -4.4690
v  0.5199 -3.9267 2.5000
v  0.5199 8.9281 2.5000
v  0.5199 8.9281 -4.4690
v  8.2744 -3.8662 3.1308
v  8.2744 -3.8662 2.5000
v  8.2744 8.8710 2.5000
v  8.2744 8.8710 3.1308
v  0.5570 -3.8662 2.5000
v  0.5570 -3.8662 3.1308
v  0.5570 8.8710 3.1308
v  0.5570 8.8710 2.5000
# 32 vertices

vn 0.0000 -1.0000 0.0000
vn 0.8970 -0.0000 0.4421
vn 0.0000 -0.0000 1.0000
vn -0.8970 -0.0000 0.4421
vn 0.0000 1.0000 0.0000
vn 0.0000 1.0000 -0.0000
vn -0.8824 0.0000 -0.4705
vn 0.0000 0.0000 -1.0000
vn 0.8824 0.0000 -0.4705
vn 1.0000 0.0000 -0.0000
vn -1.0000 0.0000 -0.0000
# 11 vertex normals

vt 0.2513 0.8423 0.0000
vt 0.2513 0.8657 0.0000
vt 0.2453 0.8682 0.0000
vt 0.2453 0.8426 0.0000
vt 0.2513 0.8163 0.0000
vt 0.2453 0.8160 0.0000
vt 0.2513 0.7928 0.0000
vt 0.2453 0.7903 0.0000
vt 0.2384 0.8682 0.0000
vt 0.2384 0.8426 0.0000
vt 0.2384 0.8160 0.0000
vt 0.2384 0.7903 0.0000
vt 0.2325 0.8644 0.0000
vt 0.2325 0.8423 0.0000
vt 0.2325 0.8162 0.0000
vt 0.2325 0.7942 0.0000
vt 0.2256 0.8630 0.0000
vt 0.2256 0.8423 0.0000
vt 0.2256 0.8162 0.0000
vt 0.2256 0.7955 0.0000
vt 0.6020 0.9984 0.0000
vt 0.6020 0.9370 0.0000
vt 0.6843 0.9370 0.0000
vt 0.6843 0.9984 0.0000
vt 0.6838 0.9421 0.0000
vt 0.6838 0.9933 0.0000
vt 0.6151 0.9933 0.0000
vt 0.6151 0.9421 0.0000
vt 0.5133 0.9987 0.0000
vt 0.4537 0.9987 0.0000
vt 0.4537 0.9421 0.0000
vt 0.5133 0.9421 0.0000
vt 0.4430 0.8895 0.0000
vt 0.5652 0.8895 0.0000
vt 0.5652 0.9854 0.0000
vt 0.4430 0.9854 0.0000
vt 0.6782 0.7559 0.0000
vt 0.6898 0.7541 0.0000
vt 0.6898 0.8705 0.0000
vt 0.6782 0.8709 0.0000
vt 0.4441 0.7582 0.0000
vt 0.4557 0.7598 0.0000
vt 0.4557 0.8668 0.0000
vt 0.4441 0.8664 0.0000
vt 0.5684 0.8709 0.0000
vt 0.5684 0.7559 0.0000
vt 0.5684 0.8741 0.0000
vt 0.6782 0.8741 0.0000
# 48 texture coords

g polySurface1532
usemtl Atlas_2
s off
f 1/1/1 2/2/1 3/3/1 4/4/1 
f 5/5/1 1/1/1 4/4/1 6/6/1 
f 7/7/1 5/5/1 6/6/1 8/8/1 
f 4/4/2 3/3/2 9/9/2 10/10/2 
f 6/6/3 4/4/3 10/10/3 11/11/3 
f 8/8/4 6/6/4 11/11/4 12/12/4 
f 10/10/5 9/9/5 13/13/5 14/14/5 
f 11/11/6 10/10/6 14/14/6 15/15/6 
f 12/12/6 11/11/6 15/15/6 16/16/6 
f 14/14/7 13/13/7 2/17/7 1/18/7 
f 15/15/8 14/14/8 1/18/8 5/19/8 
f 16/16/9 15/15/9 5/19/9 7/20/9 
f 17/21/10 18/22/10 19/23/10 20/24/10 
f 21/25/11 22/26/11 23/27/11 24/28/11 
f 23/29/5 20/30/5 19/31/5 24/32/5 
f 21/33/8 24/34/8 19/35/8 18/36/8 
f 23/33/3 22/34/3 17/35/3 20/36/3 
f 25/37/10 26/38/10 27/39/10 28/40/10 
f 29/41/11 30/42/11 31/43/11 32/44/11 
f 31/45/3 30/46/3 25/37/3 28/40/3 
f 32/47/5 31/45/5 28/40/5 27/48/5 
# 21 polygons

