# 3ds Max Wavefront OBJ Exporter v0.97b - (c)2007 guruware
# File Created: 03.04.2017 17:43:12

mtllib Kitchen_Chair.mtl

#
# object polySurface1538
#

v  1.5013 -10.0000 8.2654
v  0.6219 -10.0000 7.3859
v  0.6219 -9.6750 7.3859
v  1.5013 -9.6750 8.2654
v  -0.6219 -10.0000 7.3859
v  -0.6219 -9.6750 7.3859
v  -1.5013 -10.0000 8.2654
v  -1.5013 -9.6750 8.2654
v  -1.5013 -10.0000 9.5091
v  -1.5013 -9.6750 9.5091
v  -0.6219 -10.0000 10.3885
v  -0.6219 -9.6750 10.3885
v  0.6219 -10.0000 10.3885
v  0.6219 -9.6750 10.3885
v  1.5013 -10.0000 9.5091
v  1.5013 -9.6750 9.5091
v  -0.4520 -9.6750 8.8900
v  0.0000 -9.6750 9.3420
v  0.0000 -5.4405 9.3420
v  -0.4520 -5.4405 8.8900
v  0.4520 -9.6750 8.8900
v  0.4520 -5.4405 8.8900
v  0.0000 -9.6750 8.4380
v  0.0000 -5.4405 8.4380
v  -0.4520 -1.2059 8.8900
v  0.0000 -1.2059 9.3420
v  0.4520 -1.2059 8.8900
v  0.0000 -1.2059 8.4380
v  -2.3097 -0.7543 9.8439
v  -0.9567 -0.7543 11.1969
v  -0.9567 0.7259 11.1969
v  -2.3097 0.7259 9.8439
v  0.9567 -0.7543 11.1969
v  0.9567 0.7259 11.1969
v  2.3097 -0.7543 9.8439
v  2.3097 0.7259 9.8439
v  -0.7825 0.7259 10.7764
v  -1.8029 0.7259 9.8783
v  0.7825 0.7259 10.7764
v  1.8029 0.7259 9.8783
v  -0.7825 -0.7543 10.7764
v  -1.8029 -0.7543 9.8783
v  0.7825 -0.7543 10.7764
v  1.8029 -0.7543 9.8783
v  2.3097 -1.2500 7.9305
v  0.9567 -1.2500 6.5775
v  0.9567 -0.7500 6.5775
v  2.3097 -0.7500 7.9305
v  -0.9567 -1.2500 6.5775
v  -0.9567 -0.7500 6.5775
v  -2.3097 -1.2500 7.9305
v  -2.3097 -0.7500 7.9305
v  -2.3097 -1.2500 9.8439
v  -2.3097 -0.7500 9.8439
v  -0.9567 -1.2500 11.1969
v  -0.9567 -0.7500 11.1969
v  0.9567 -1.2500 11.1969
v  0.9567 -0.7500 11.1969
v  2.3097 -1.2500 9.8439
v  2.3097 -0.7500 9.8439
# 60 vertices

vn 0.7071 0.0000 -0.7071
vn 0.0000 0.0000 -1.0000
vn -0.7071 0.0000 -0.7071
vn -1.0000 0.0000 -0.0000
vn -0.7071 -0.0000 0.7071
vn 0.0000 -0.0000 1.0000
vn 0.7071 -0.0000 0.7071
vn 1.0000 0.0000 -0.0000
vn 0.0000 1.0000 0.0000
vn -0.3827 -0.0000 0.9239
vn 0.3827 -0.0000 0.9239
vn 0.0000 1.0000 -0.0000
vn 0.5212 0.0000 -0.8535
vn 0.3282 0.0000 -0.9446
vn -0.3282 -0.0000 -0.9446
vn -0.5212 -0.0000 -0.8535
vn -0.0676 0.0000 -0.9977
vn 0.0676 0.0000 -0.9977
vn 0.9239 0.0000 -0.3827
vn 0.3827 0.0000 -0.9239
vn -0.3827 0.0000 -0.9239
vn -0.9239 0.0000 -0.3827
vn -0.9239 -0.0000 0.3827
vn 0.9239 -0.0000 0.3827
vn 0.0000 -1.0000 -0.0000
# 25 vertex normals

vt 0.9387 0.6638 0.0000
vt 0.9387 0.7098 0.0000
vt 0.9301 0.7063 0.0000
vt 0.9301 0.6673 0.0000
vt 0.9061 0.7424 0.0000
vt 0.9026 0.7339 0.0000
vt 0.8600 0.7424 0.0000
vt 0.8636 0.7339 0.0000
vt 0.8274 0.7098 0.0000
vt 0.8360 0.7063 0.0000
vt 0.8274 0.6638 0.0000
vt 0.8360 0.6673 0.0000
vt 0.8600 0.6312 0.0000
vt 0.8636 0.6398 0.0000
vt 0.9061 0.6312 0.0000
vt 0.9026 0.6398 0.0000
vt 0.7512 0.7516 0.0000
vt 0.7624 0.7516 0.0000
vt 0.7624 0.7996 0.0000
vt 0.7512 0.7996 0.0000
vt 0.7400 0.7516 0.0000
vt 0.7400 0.7996 0.0000
vt 0.8525 0.7473 0.0000
vt 0.8446 0.7077 0.0000
vt 0.8743 0.7047 0.0000
vt 0.8831 0.7419 0.0000
vt 0.8443 0.6663 0.0000
vt 0.8745 0.6688 0.0000
vt 0.8518 0.6264 0.0000
vt 0.8828 0.6320 0.0000
vt 0.8835 0.7036 0.0000
vt 0.8868 0.7318 0.0000
vt 0.8834 0.6700 0.0000
vt 0.8869 0.6418 0.0000
vt 0.9143 0.7030 0.0000
vt 0.9160 0.7316 0.0000
vt 0.9144 0.6708 0.0000
vt 0.9159 0.6420 0.0000
vt 0.9153 0.6312 0.0000
vt 0.9153 0.7420 0.0000
vt 0.9454 0.6636 0.0000
vt 0.9454 0.7126 0.0000
vt 0.9363 0.7088 0.0000
vt 0.9363 0.6673 0.0000
vt 0.9108 0.7472 0.0000
vt 0.9070 0.7381 0.0000
vt 0.8618 0.7472 0.0000
vt 0.8655 0.7381 0.0000
vt 0.8271 0.7126 0.0000
vt 0.8362 0.7088 0.0000
vt 0.8271 0.6636 0.0000
vt 0.8362 0.6673 0.0000
vt 0.8617 0.6289 0.0000
vt 0.8655 0.6380 0.0000
vt 0.9108 0.6289 0.0000
vt 0.9070 0.6380 0.0000
vt 0.9070 0.7385 0.0000
vt 0.8653 0.7386 0.0000
vt 0.8357 0.7091 0.0000
vt 0.8357 0.6673 0.0000
vt 0.8652 0.6378 0.0000
vt 0.9069 0.6377 0.0000
vt 0.9365 0.6672 0.0000
vt 0.9365 0.7090 0.0000
# 64 texture coords

g polySurface1538
usemtl Atlas_2
s off
f 1/1/1 2/2/1 3/3/1 4/4/1 
f 2/2/2 5/5/2 6/6/2 3/3/2 
f 5/5/3 7/7/3 8/8/3 6/6/3 
f 7/7/4 9/9/4 10/10/4 8/8/4 
f 9/9/5 11/11/5 12/12/5 10/10/5 
f 11/11/6 13/13/6 14/14/6 12/12/6 
f 13/13/7 15/15/7 16/16/7 14/14/7 
f 15/15/8 1/1/8 4/4/8 16/16/8 
f 16/16/9 4/4/9 3/3/9 6/6/9 
f 16/16/9 6/6/9 8/8/9 10/10/9 
f 16/16/9 10/10/9 12/12/9 14/14/9 
f 17/17/5 18/18/5 19/19/5 20/20/5 
f 18/21/7 21/17/7 22/20/7 19/22/7 
f 21/17/1 23/18/1 24/19/1 22/20/1 
f 20/20/3 24/22/3 23/21/3 17/17/3 
f 25/17/5 20/20/5 19/19/5 26/18/5 
f 26/21/7 19/22/7 22/20/7 27/17/7 
f 27/17/1 22/20/1 24/19/1 28/18/1 
f 20/20/3 25/17/3 28/21/3 24/22/3 
f 29/23/5 30/24/10 31/25/10 32/26/5 
f 30/24/10 33/27/11 34/28/11 31/25/10 
f 33/27/11 35/29/7 36/30/7 34/28/11 
f 32/26/9 31/25/12 37/31/12 38/32/9 
f 31/25/12 34/28/12 39/33/12 37/31/12 
f 34/28/12 36/30/12 40/34/12 39/33/12 
f 38/32/13 37/31/14 41/35/14 42/36/13 
f 37/31/14 39/33/15 43/37/15 41/35/14 
f 39/33/15 40/34/16 44/38/16 43/37/15 
f 44/38/16 40/34/16 36/30/17 35/39/17 
f 38/32/13 42/36/13 29/40/18 32/26/18 
f 45/41/19 46/42/20 47/43/20 48/44/19 
f 46/42/20 49/45/21 50/46/21 47/43/20 
f 49/45/21 51/47/22 52/48/22 50/46/21 
f 51/47/22 53/49/23 54/50/23 52/48/22 
f 53/49/23 55/51/10 56/52/10 54/50/23 
f 55/51/10 57/53/11 58/54/11 56/52/10 
f 57/53/11 59/55/24 60/56/24 58/54/11 
f 59/55/24 45/41/19 48/44/19 60/56/24 
f 57/57/25 55/58/25 53/59/25 51/60/25 
f 57/57/25 51/60/25 49/61/25 46/62/25 
f 57/57/25 46/62/25 45/63/25 59/64/25 
f 60/56/9 48/44/9 47/43/9 50/46/9 
f 60/56/9 50/46/9 52/48/9 54/50/9 
f 60/56/9 54/50/9 56/52/9 58/54/9 
# 44 polygons

