# 3ds Max Wavefront OBJ Exporter v0.97b - (c)2007 guruware
# File Created: 03.04.2017 17:42:58

mtllib Kitchen_Cabinet_2E.mtl

#
# object polySurface975
#

v  1.0290 4.2585 3.8017
v  1.0290 3.9008 3.1308
v  1.0290 3.5614 3.1308
v  1.0290 4.0370 4.0957
v  1.0290 5.6037 3.8017
v  1.0290 5.8252 4.0957
v  1.0290 5.9614 3.1308
v  1.0290 6.3008 3.1308
v  1.3684 3.5614 3.1308
v  1.3684 4.0370 4.0957
v  1.3684 5.8252 4.0957
v  1.3684 6.3008 3.1308
v  1.3684 3.9008 3.1308
v  1.3684 4.2585 3.8017
v  1.3684 5.6037 3.8017
v  1.3684 5.9614 3.1308
v  -1.3697 4.2585 3.8017
v  -1.3697 3.9008 3.1308
v  -1.3697 3.5614 3.1308
v  -1.3697 4.0370 4.0957
v  -1.3697 5.6037 3.8017
v  -1.3697 5.8252 4.0957
v  -1.3697 5.9614 3.1308
v  -1.3697 6.3008 3.1308
v  -1.0303 3.5614 3.1308
v  -1.0303 4.0370 4.0957
v  -1.0303 5.8252 4.0957
v  -1.0303 6.3008 3.1308
v  -1.0303 3.9008 3.1308
v  -1.0303 4.2585 3.8017
v  -1.0303 5.6037 3.8017
v  -1.0303 5.9614 3.1308
v  0.0000 8.9281 2.5000
v  -6.5000 8.9281 2.5000
v  -6.5000 -3.9267 2.5000
v  6.5000 -3.9267 2.5000
v  6.5000 8.9281 2.5000
v  -6.5000 -3.9267 -4.4690
v  -6.5000 8.9281 -4.4690
v  0.0000 8.9281 -4.4690
v  6.5000 8.9281 -4.4690
v  6.5000 -3.9267 -4.4690
v  0.0000 7.5542 1.7512
v  0.0000 7.5542 -3.5215
v  -5.9042 7.5542 -3.5215
v  -5.9042 7.5542 1.7512
v  -5.9042 8.9281 1.7512
v  0.0000 8.9281 1.7512
v  -5.9042 8.9281 -3.5215
v  0.0000 8.9281 -3.5215
v  5.9042 7.5542 1.7512
v  5.9042 7.5542 -3.5215
v  5.9042 8.9281 1.7512
v  5.9042 8.9281 -3.5215
v  6.5000 -3.8092 3.1308
v  6.5000 -3.8092 2.5000
v  6.5000 8.9281 3.1308
v  0.0000 8.9281 3.1308
v  0.0000 -3.8092 3.1308
v  -6.5000 -3.8092 3.1308
v  -6.5000 8.9281 3.1308
v  -6.5000 -3.8092 2.5000
v  -0.0000 8.9281 3.1308
v  -0.0000 -3.8092 3.1308
v  -0.0000 8.9281 2.5000
v  -0.1958 8.9281 1.7512
v  0.1958 8.9281 1.7512
v  0.1958 8.9281 -3.5215
v  -0.1958 8.9281 -3.5215
v  0.2823 7.5542 1.7512
v  0.2823 7.5542 -3.5215
v  -0.2823 7.5542 -3.5215
v  -0.2823 7.5542 1.7512
v  -3.1786 8.9281 -3.6811
v  -2.8214 8.9281 -3.6811
v  -2.8214 10.3622 -3.6811
v  -3.1786 10.3622 -3.6811
v  -2.8214 10.3622 -4.0382
v  -3.1786 10.3622 -4.0382
v  -2.8214 8.9281 -4.0382
v  -3.1786 8.9281 -4.0382
v  -3.1431 9.8682 -3.8596
v  -2.8569 9.8682 -3.8596
v  -2.8569 9.8682 -2.7101
v  -3.1431 9.8682 -2.7101
v  -2.8569 10.1544 -2.7101
v  -3.1431 10.1544 -2.7101
v  -2.8569 10.1544 -3.8596
v  -3.1431 10.1544 -3.8596
v  -3.0959 9.7146 -2.9260
v  -2.9041 9.7146 -2.9260
v  -2.9041 9.7146 -2.7379
v  -3.0959 9.7146 -2.7379
v  -2.9041 9.9065 -2.7379
v  -3.0959 9.9065 -2.7379
v  -3.0959 9.9065 -2.9260
v  -2.9041 9.9065 -2.9260
v  -2.8825 10.4873 -3.0163
v  -3.1175 10.4873 -3.0163
v  -3.1175 10.4051 -3.9565
v  -2.8825 10.4051 -3.9565
v  -3.1175 10.6392 -3.9770
v  -2.8825 10.6392 -3.9770
v  -3.1175 10.7215 -3.0368
v  -2.8825 10.7215 -3.0368
v  -2.9213 10.2815 -3.9228
v  -3.0787 10.2815 -3.9228
v  -3.0787 10.4384 -3.9365
v  -2.9213 10.4384 -3.9365
v  -2.9213 10.4519 -3.7826
v  -3.0787 10.4519 -3.7826
v  -3.0787 10.2950 -3.7689
v  -2.9213 10.2950 -3.7689
v  -3.3345 8.1136 -3.4794
v  -2.6147 8.1136 -3.4794
v  -2.6147 8.8334 -3.4794
v  -3.3345 8.8334 -3.4794
v  -2.6147 8.8334 -3.6030
v  -3.3345 8.8334 -3.6030
v  -3.3345 8.1136 -3.6030
v  -2.6147 8.1136 -3.6030
v  2.6101 8.1136 -3.4794
v  3.3299 8.1136 -3.4794
v  3.3299 8.8334 -3.4794
v  2.6101 8.8334 -3.4794
v  3.3299 8.8334 -3.6030
v  2.6101 8.8334 -3.6030
v  2.6101 8.1136 -3.6030
v  3.3299 8.1136 -3.6030
v  2.8214 8.9281 -3.6811
v  3.1786 8.9281 -3.6811
v  3.1786 10.3622 -3.6811
v  2.8214 10.3622 -3.6811
v  3.1786 10.3622 -4.0382
v  2.8214 10.3622 -4.0382
v  3.1786 8.9281 -4.0382
v  2.8214 8.9281 -4.0382
v  2.8569 9.8682 -3.8596
v  3.1431 9.8682 -3.8596
v  3.1431 9.8682 -2.7101
v  2.8569 9.8682 -2.7101
v  3.1431 10.1544 -2.7101
v  2.8569 10.1544 -2.7101
v  3.1431 10.1544 -3.8596
v  2.8569 10.1544 -3.8596
v  2.9041 9.7146 -2.9260
v  3.0959 9.7146 -2.9260
v  3.0959 9.7146 -2.7379
v  2.9041 9.7146 -2.7379
v  3.0959 9.9065 -2.7379
v  2.9041 9.9065 -2.7379
v  2.9041 9.9065 -2.9260
v  3.0959 9.9065 -2.9260
v  3.1175 10.4873 -3.0163
v  2.8825 10.4873 -3.0163
v  2.8825 10.4051 -3.9565
v  3.1175 10.4051 -3.9565
v  2.8825 10.6392 -3.9770
v  3.1175 10.6392 -3.9770
v  2.8825 10.7215 -3.0368
v  3.1175 10.7215 -3.0368
v  3.0787 10.2815 -3.9228
v  2.9213 10.2815 -3.9228
v  2.9213 10.4384 -3.9365
v  3.0787 10.4384 -3.9365
v  3.0787 10.4519 -3.7826
v  2.9213 10.4519 -3.7826
v  2.9213 10.2950 -3.7689
v  3.0787 10.2950 -3.7689
# 169 vertices

vn -1.0000 0.0000 0.0000
vn -1.0000 0.0000 -0.0000
vn 0.0000 -0.8970 0.4421
vn 0.0000 -0.0000 1.0000
vn 0.0000 0.8970 0.4421
vn 1.0000 -0.0000 -0.0000
vn 1.0000 0.0000 -0.0000
vn 0.0000 0.8824 -0.4705
vn 0.0000 0.0000 -1.0000
vn 0.0000 -0.8824 -0.4705
vn 1.0000 0.0000 0.0000
vn 0.0000 1.0000 0.0000
vn 0.0000 1.0000 -0.0000
vn 0.9980 0.0628 0.0000
vn -0.9980 0.0628 0.0000
vn 0.0000 -1.0000 -0.0000
vn 0.0000 -0.9962 0.0872
vn 0.0000 -0.0872 -0.9962
vn 0.0000 0.9962 -0.0872
vn 0.0000 0.0872 0.9962
# 20 vertex normals

vt 0.3716 0.0719 0.0000
vt 0.3868 0.0719 0.0000
vt 0.3884 0.0758 0.0000
vt 0.3718 0.0758 0.0000
vt 0.3548 0.0719 0.0000
vt 0.3546 0.0758 0.0000
vt 0.3396 0.0719 0.0000
vt 0.3380 0.0758 0.0000
vt 0.3884 0.0803 0.0000
vt 0.3718 0.0803 0.0000
vt 0.3546 0.0803 0.0000
vt 0.3380 0.0803 0.0000
vt 0.3860 0.0842 0.0000
vt 0.3716 0.0842 0.0000
vt 0.3548 0.0842 0.0000
vt 0.3404 0.0842 0.0000
vt 0.3851 0.0886 0.0000
vt 0.3717 0.0886 0.0000
vt 0.3547 0.0886 0.0000
vt 0.3413 0.0886 0.0000
vt 0.6176 0.5864 0.0000
vt 0.6176 0.6238 0.0000
vt 0.5437 0.6238 0.0000
vt 0.5437 0.5491 0.0000
vt 0.6176 0.5491 0.0000
vt 0.5437 0.5864 0.0000
vt 0.5055 0.6184 0.0000
vt 0.5055 0.5719 0.0000
vt 0.5913 0.5719 0.0000
vt 0.5913 0.6184 0.0000
vt 0.4726 0.6524 0.0000
vt 0.4726 0.6768 0.0000
vt 0.4454 0.6768 0.0000
vt 0.4454 0.6524 0.0000
vt 0.4390 0.6524 0.0000
vt 0.4363 0.6490 0.0000
vt 0.4663 0.6490 0.0000
vt 0.4663 0.6524 0.0000
vt 0.4363 0.6812 0.0000
vt 0.4390 0.6768 0.0000
vt 0.4663 0.6768 0.0000
vt 0.4663 0.6812 0.0000
vt 0.4454 0.6461 0.0000
vt 0.4726 0.6461 0.0000
vt 0.4454 0.6831 0.0000
vt 0.4726 0.6831 0.0000
vt 0.6587 0.6187 0.0000
vt 0.6496 0.6205 0.0000
vt 0.6496 0.5042 0.0000
vt 0.6587 0.5037 0.0000
vt 0.7474 0.5037 0.0000
vt 0.7474 0.6187 0.0000
vt 0.7474 0.5005 0.0000
vt 0.6587 0.5005 0.0000
vt 0.4396 0.6500 0.0000
vt 0.4396 0.6461 0.0000
vt 0.4962 0.6461 0.0000
vt 0.4962 0.6500 0.0000
vt 0.4961 0.6645 0.0000
vt 0.4398 0.6645 0.0000
vt 0.4857 0.6159 0.0000
vt 0.4930 0.6159 0.0000
vt 0.4930 0.6453 0.0000
vt 0.4857 0.6453 0.0000
vt 0.4731 0.6203 0.0000
vt 0.4950 0.6203 0.0000
vt 0.4950 0.6422 0.0000
vt 0.4731 0.6422 0.0000
vt 0.4784 0.6159 0.0000
vt 0.4784 0.6453 0.0000
vt 0.4800 0.6163 0.0000
vt 0.4872 0.6163 0.0000
vt 0.4872 0.6450 0.0000
vt 0.4800 0.6450 0.0000
vt 0.4800 0.6232 0.0000
vt 0.4955 0.6232 0.0000
vt 0.4955 0.6387 0.0000
vt 0.4800 0.6387 0.0000
vt 0.4943 0.6163 0.0000
vt 0.4943 0.6450 0.0000
vt 0.4534 0.6643 0.0000
vt 0.4635 0.6643 0.0000
vt 0.4635 0.6741 0.0000
vt 0.4534 0.6741 0.0000
vt 0.4800 0.6307 0.0000
vt 0.4944 0.6163 0.0000
vt 0.4944 0.6307 0.0000
vt 0.4944 0.6448 0.0000
vt 0.4800 0.6448 0.0000
vt 0.4929 0.6454 0.0000
vt 0.4856 0.6454 0.0000
vt 0.4856 0.6159 0.0000
vt 0.4929 0.6159 0.0000
vt 0.4786 0.6205 0.0000
vt 0.4977 0.6205 0.0000
vt 0.4977 0.6396 0.0000
vt 0.4786 0.6396 0.0000
vt 0.4782 0.6454 0.0000
vt 0.4782 0.6159 0.0000
vt 0.4794 0.6308 0.0000
vt 0.4794 0.6168 0.0000
vt 0.4934 0.6168 0.0000
vt 0.4934 0.6308 0.0000
vt 0.4932 0.6166 0.0000
vt 0.4932 0.6307 0.0000
vt 0.4792 0.6307 0.0000
vt 0.4792 0.6166 0.0000
vt 0.4932 0.6445 0.0000
vt 0.4792 0.6445 0.0000
vt 0.4934 0.6446 0.0000
vt 0.4794 0.6446 0.0000
vt 0.4494 0.6595 0.0000
vt 0.4671 0.6595 0.0000
vt 0.4671 0.6773 0.0000
vt 0.4494 0.6773 0.0000
vt 0.4671 0.6803 0.0000
vt 0.4494 0.6803 0.0000
vt 0.4463 0.6595 0.0000
vt 0.4463 0.6773 0.0000
# 119 texture coords

g polySurface975
usemtl Atlas_2
s off
f 1/1/1 2/2/1 3/3/1 4/4/1 
f 5/5/2 1/1/2 4/4/2 6/6/2 
f 7/7/2 5/5/2 6/6/2 8/8/2 
f 4/4/3 3/3/3 9/9/3 10/10/3 
f 6/6/4 4/4/4 10/10/4 11/11/4 
f 8/8/5 6/6/5 11/11/5 12/12/5 
f 10/10/6 9/9/6 13/13/6 14/14/6 
f 11/11/7 10/10/7 14/14/7 15/15/7 
f 12/12/7 11/11/7 15/15/7 16/16/7 
f 14/14/8 13/13/8 2/17/8 1/18/8 
f 15/15/9 14/14/9 1/18/9 5/19/9 
f 16/16/10 15/15/10 5/19/10 7/20/10 
f 17/1/2 18/2/2 19/3/2 20/4/2 
f 21/5/2 17/1/2 20/4/2 22/6/2 
f 23/7/2 21/5/2 22/6/2 24/8/2 
f 20/4/3 19/3/3 25/9/3 26/10/3 
f 22/6/4 20/4/4 26/10/4 27/11/4 
f 24/8/5 22/6/5 27/11/5 28/12/5 
f 26/10/11 25/9/11 29/13/11 30/14/11 
f 27/11/7 26/10/7 30/14/7 31/15/7 
f 28/12/7 27/11/7 31/15/7 32/16/7 
f 30/14/8 29/13/8 18/17/8 17/18/8 
f 31/15/9 30/14/9 17/18/9 21/19/9 
f 32/16/10 31/15/10 21/19/10 23/20/10 
f 33/21/4 34/22/4 35/23/4 36/24/4 
f 33/21/4 36/24/4 37/25/4 
f 38/22/9 39/23/9 40/26/9 41/24/9 
f 38/22/9 41/24/9 42/25/9 
f 36/27/7 42/28/7 41/29/7 37/30/7 
f 38/27/2 35/28/2 34/29/2 39/30/2 
f 43/31/12 44/32/12 45/33/12 46/34/12 
f 47/35/12 34/36/12 33/37/12 48/38/12 
f 39/39/12 49/40/12 50/41/12 40/42/12 
f 39/39/12 34/36/12 47/35/12 49/40/12 
f 46/34/9 47/43/9 48/44/9 43/31/9 
f 49/45/4 45/33/4 44/32/4 50/46/4 
f 49/40/7 47/35/7 46/34/7 45/33/7 
f 43/31/12 51/34/12 52/33/12 44/32/12 
f 53/35/13 48/38/13 33/37/13 37/36/13 
f 41/39/12 40/42/12 50/41/12 54/40/12 
f 41/39/12 54/40/12 53/35/13 37/36/13 
f 51/34/9 43/31/9 48/44/9 53/43/9 
f 54/45/4 50/46/4 44/32/4 52/33/4 
f 54/40/2 52/33/2 51/34/2 53/35/2 
f 55/47/7 56/48/7 37/49/7 57/50/7 
f 58/51/4 59/52/4 55/47/4 57/50/4 
f 33/53/12 58/51/12 57/50/12 37/54/12 
f 60/47/2 61/50/2 34/49/2 62/48/2 
f 63/51/4 61/50/4 60/47/4 64/52/4 
f 65/53/12 34/54/12 61/50/12 63/51/12 
f 66/55/12 67/56/12 68/57/12 69/58/12 
f 70/59/14 71/60/14 68/55/14 67/58/14 
f 72/59/15 73/60/15 66/55/15 69/58/15 
f 74/61/4 75/62/4 76/63/4 77/64/4 
f 77/65/12 76/66/12 78/67/12 79/68/12 
f 79/63/9 78/64/9 80/61/9 81/62/9 
f 75/69/7 80/61/7 78/64/7 76/70/7 
f 81/69/2 74/61/2 77/64/2 79/70/2 
f 82/71/16 83/72/16 84/73/16 85/74/16 
f 85/75/4 84/76/4 86/77/4 87/78/4 
f 87/73/12 86/74/12 88/71/12 89/72/12 
f 83/72/7 88/79/7 86/80/7 84/73/7 
f 89/72/2 82/79/2 85/80/2 87/73/2 
f 90/81/16 91/82/16 92/83/16 93/84/16 
f 93/85/4 92/71/4 94/86/4 95/87/4 
f 96/86/9 97/87/9 91/85/9 90/71/9 
f 91/85/7 97/87/7 94/88/7 92/89/7 
f 96/88/2 90/89/2 93/85/2 95/87/2 
f 98/90/17 99/91/17 100/92/17 101/93/17 
f 101/94/18 100/95/18 102/96/18 103/97/18 
f 103/92/19 102/93/19 104/90/19 105/91/19 
f 105/94/20 104/95/20 99/96/20 98/97/20 
f 99/91/2 104/98/2 102/99/2 100/92/2 
f 105/91/7 98/98/7 101/99/7 103/92/7 
f 106/100/18 107/101/18 108/102/18 109/103/18 
f 110/104/20 111/105/20 112/106/20 113/107/20 
f 112/106/2 111/105/2 108/108/2 107/109/2 
f 110/110/7 113/111/7 106/100/7 109/103/7 
f 114/112/4 115/113/4 116/114/4 117/115/4 
f 117/115/12 116/114/12 118/116/12 119/117/12 
f 120/115/16 121/114/16 115/116/16 114/117/16 
f 115/118/7 121/112/7 118/115/7 116/119/7 
f 120/118/2 114/112/2 117/115/2 119/119/2 
f 122/112/4 123/113/4 124/114/4 125/115/4 
f 125/115/12 124/114/12 126/116/12 127/117/12 
f 128/115/16 129/114/16 123/116/16 122/117/16 
f 123/118/7 129/112/7 126/115/7 124/119/7 
f 128/118/2 122/112/2 125/115/2 127/119/2 
f 130/61/4 131/62/4 132/63/4 133/64/4 
f 133/65/12 132/66/12 134/67/12 135/68/12 
f 135/63/9 134/64/9 136/61/9 137/62/9 
f 131/69/7 136/61/7 134/64/7 132/70/7 
f 137/69/2 130/61/2 133/64/2 135/70/2 
f 138/71/16 139/72/16 140/73/16 141/74/16 
f 141/75/4 140/76/4 142/77/4 143/78/4 
f 143/73/12 142/74/12 144/71/12 145/72/12 
f 139/72/7 144/79/7 142/80/7 140/73/7 
f 145/72/2 138/79/2 141/80/2 143/73/2 
f 146/81/16 147/82/16 148/83/16 149/84/16 
f 149/85/4 148/71/4 150/86/4 151/87/4 
f 152/86/9 153/87/9 147/85/9 146/71/9 
f 147/85/7 153/87/7 150/88/7 148/89/7 
f 152/88/2 146/89/2 149/85/2 151/87/2 
f 154/90/17 155/91/17 156/92/17 157/93/17 
f 157/94/18 156/95/18 158/96/18 159/97/18 
f 159/92/19 158/93/19 160/90/19 161/91/19 
f 161/94/20 160/95/20 155/96/20 154/97/20 
f 155/91/2 160/98/2 158/99/2 156/92/2 
f 161/91/7 154/98/7 157/99/7 159/92/7 
f 162/100/18 163/101/18 164/102/18 165/103/18 
f 166/104/20 167/105/20 168/106/20 169/107/20 
f 168/106/2 167/105/2 164/108/2 163/109/2 
f 166/110/7 169/111/7 162/100/7 165/103/7 
# 111 polygons - 2 triangles

