# 3ds Max Wavefront OBJ Exporter v0.97b - (c)2007 guruware
# File Created: 03.04.2017 17:42:15

mtllib Kitchen_Cabinet_2B.mtl

#
# object polySurface1566
#

v  4.9459 7.4026 3.8017
v  5.3036 7.4026 3.1308
v  5.6430 7.4026 3.1308
v  5.1675 7.4026 4.0957
v  3.6008 7.4026 3.8017
v  3.3792 7.4026 4.0957
v  3.2430 7.4026 3.1308
v  2.9036 7.4026 3.1308
v  5.6430 7.7420 3.1308
v  5.1675 7.7420 4.0957
v  3.3792 7.7420 4.0957
v  2.9036 7.7420 3.1308
v  5.3036 7.7420 3.1308
v  4.9459 7.7420 3.8017
v  3.6008 7.7420 3.8017
v  3.2430 7.7420 3.1308
v  4.9459 2.7614 3.8017
v  5.3036 2.7614 3.1308
v  5.6430 2.7614 3.1308
v  5.1675 2.7614 4.0957
v  3.6008 2.7614 3.8017
v  3.3792 2.7614 4.0957
v  3.2430 2.7614 3.1308
v  2.9036 2.7614 3.1308
v  5.6430 3.1008 3.1308
v  5.1675 3.1008 4.0957
v  3.3792 3.1008 4.0957
v  2.9036 3.1008 3.1308
v  5.3036 3.1008 3.1308
v  4.9459 3.1008 3.8017
v  3.6008 3.1008 3.8017
v  3.2430 3.1008 3.1308
v  4.9459 -1.5575 3.8017
v  5.3036 -1.5575 3.1308
v  5.6430 -1.5575 3.1308
v  5.1675 -1.5575 4.0957
v  3.6008 -1.5575 3.8017
v  3.3792 -1.5575 4.0957
v  3.2430 -1.5575 3.1308
v  2.9036 -1.5575 3.1308
v  5.6430 -1.2181 3.1308
v  5.1675 -1.2181 4.0957
v  3.3792 -1.2181 4.0957
v  2.9036 -1.2181 3.1308
v  5.3036 -1.2181 3.1308
v  4.9459 -1.2181 3.8017
v  3.6008 -1.2181 3.8017
v  3.2430 -1.2181 3.1308
v  8.3124 -3.9267 2.5000
v  8.3124 -3.9267 -4.4690
v  8.3124 8.9281 -4.4690
v  8.3124 8.9281 2.5000
v  0.5199 -3.9267 -4.4690
v  0.5199 -3.9267 2.5000
v  0.5199 8.9281 2.5000
v  0.5199 8.9281 -4.4690
v  0.5199 9.4281 2.5000
v  8.3124 9.4281 2.5000
v  8.3124 9.4281 -4.4690
v  0.5199 9.4281 -4.4690
v  8.2744 -3.8662 3.1308
v  8.2744 -3.8662 2.5000
v  8.2744 2.5024 2.5000
v  8.2744 2.5024 3.1308
v  0.5570 -3.8662 2.5000
v  0.5570 -3.8662 3.1308
v  0.5570 2.5024 3.1308
v  0.5570 2.5024 2.5000
v  8.2744 8.8710 3.1308
v  8.2744 8.8710 2.5000
v  0.5570 8.8710 2.5000
v  0.5570 8.8710 3.1308
# 72 vertices

vn 0.0000 -1.0000 -0.0000
vn 0.8970 -0.0000 0.4421
vn 0.0000 -0.0000 1.0000
vn -0.8970 -0.0000 0.4421
vn 0.0000 1.0000 0.0000
vn -0.8824 0.0000 -0.4705
vn 0.0000 0.0000 -1.0000
vn 0.8824 0.0000 -0.4705
vn 0.0000 -1.0000 0.0000
vn 0.0000 1.0000 -0.0000
vn 1.0000 0.0000 -0.0000
vn -1.0000 0.0000 -0.0000
# 12 vertex normals

vt 0.3690 0.0719 0.0000
vt 0.3843 0.0719 0.0000
vt 0.3859 0.0758 0.0000
vt 0.3693 0.0758 0.0000
vt 0.3522 0.0719 0.0000
vt 0.3520 0.0758 0.0000
vt 0.3369 0.0719 0.0000
vt 0.3353 0.0758 0.0000
vt 0.3859 0.0803 0.0000
vt 0.3693 0.0803 0.0000
vt 0.3520 0.0803 0.0000
vt 0.3353 0.0803 0.0000
vt 0.3834 0.0842 0.0000
vt 0.3691 0.0842 0.0000
vt 0.3521 0.0842 0.0000
vt 0.3378 0.0842 0.0000
vt 0.3826 0.0887 0.0000
vt 0.3691 0.0887 0.0000
vt 0.3521 0.0887 0.0000
vt 0.3386 0.0887 0.0000
vt 0.5551 0.6111 0.0000
vt 0.5551 0.5618 0.0000
vt 0.6213 0.5618 0.0000
vt 0.6213 0.6111 0.0000
vt 0.6209 0.5658 0.0000
vt 0.6209 0.6070 0.0000
vt 0.5656 0.6070 0.0000
vt 0.5656 0.5658 0.0000
vt 0.5149 0.7414 0.0000
vt 0.5149 0.6265 0.0000
vt 0.6176 0.6265 0.0000
vt 0.6176 0.7414 0.0000
vt 0.5136 0.5478 0.0000
vt 0.6119 0.5478 0.0000
vt 0.6119 0.6249 0.0000
vt 0.5136 0.6249 0.0000
vt 0.5076 0.7414 0.0000
vt 0.5076 0.6265 0.0000
vt 0.6176 0.7487 0.0000
vt 0.5149 0.7487 0.0000
vt 0.6114 0.5062 0.0000
vt 0.6231 0.5061 0.0000
vt 0.6231 0.5636 0.0000
vt 0.6114 0.5637 0.0000
vt 0.5159 0.5065 0.0000
vt 0.5275 0.5064 0.0000
vt 0.5275 0.5637 0.0000
vt 0.5159 0.5637 0.0000
vt 0.5017 0.5637 0.0000
vt 0.5017 0.5062 0.0000
vt 0.5017 0.5008 0.0000
vt 0.6114 0.5008 0.0000
# 52 texture coords

g polySurface1566
usemtl Atlas_2
s off
f 1/1/1 2/2/1 3/3/1 4/4/1 
f 5/5/1 1/1/1 4/4/1 6/6/1 
f 7/7/1 5/5/1 6/6/1 8/8/1 
f 4/4/2 3/3/2 9/9/2 10/10/2 
f 6/6/3 4/4/3 10/10/3 11/11/3 
f 8/8/4 6/6/4 11/11/4 12/12/4 
f 10/10/5 9/9/5 13/13/5 14/14/5 
f 11/11/5 10/10/5 14/14/5 15/15/5 
f 12/12/5 11/11/5 15/15/5 16/16/5 
f 14/14/6 13/13/6 2/17/6 1/18/6 
f 15/15/7 14/14/7 1/18/7 5/19/7 
f 16/16/8 15/15/8 5/19/8 7/20/8 
f 17/1/9 18/2/9 19/3/9 20/4/9 
f 21/5/9 17/1/9 20/4/9 22/6/9 
f 23/7/1 21/5/1 22/6/1 24/8/1 
f 20/4/2 19/3/2 25/9/2 26/10/2 
f 22/6/3 20/4/3 26/10/3 27/11/3 
f 24/8/4 22/6/4 27/11/4 28/12/4 
f 26/10/5 25/9/5 29/13/5 30/14/5 
f 27/11/5 26/10/5 30/14/5 31/15/5 
f 28/12/5 27/11/5 31/15/5 32/16/5 
f 30/14/6 29/13/6 18/17/6 17/18/6 
f 31/15/7 30/14/7 17/18/7 21/19/7 
f 32/16/8 31/15/8 21/19/8 23/20/8 
f 33/1/1 34/2/1 35/3/1 36/4/1 
f 37/5/1 33/1/1 36/4/1 38/6/1 
f 39/7/1 37/5/1 38/6/1 40/8/1 
f 36/4/2 35/3/2 41/9/2 42/10/2 
f 38/6/3 36/4/3 42/10/3 43/11/3 
f 40/8/4 38/6/4 43/11/4 44/12/4 
f 42/10/5 41/9/5 45/13/5 46/14/5 
f 43/11/10 42/10/10 46/14/10 47/15/10 
f 44/12/10 43/11/10 47/15/10 48/16/10 
f 46/14/6 45/13/6 34/17/6 33/18/6 
f 47/15/7 46/14/7 33/18/7 37/19/7 
f 48/16/8 47/15/8 37/19/8 39/20/8 
f 49/21/11 50/22/11 51/23/11 52/24/11 
f 53/25/12 54/26/12 55/27/12 56/28/12 
f 57/29/5 58/30/5 59/31/5 60/32/5 
f 53/33/7 56/34/7 51/35/7 50/36/7 
f 55/33/3 54/34/3 49/35/3 52/36/3 
f 55/37/3 52/38/3 58/30/3 57/29/3 
f 52/39/11 51/40/11 59/29/11 58/32/11 
f 51/37/7 56/38/7 60/30/7 59/29/7 
f 56/39/12 55/40/12 57/29/12 60/32/12 
f 61/41/11 62/42/11 63/43/11 64/44/11 
f 65/45/12 66/46/12 67/47/12 68/48/12 
f 67/49/3 66/50/3 61/41/3 64/44/3 
f 69/41/11 64/44/11 63/43/11 70/42/11 
f 71/45/12 68/48/12 67/47/12 72/46/12 
f 71/51/5 72/50/5 69/41/5 70/52/5 
f 67/49/3 64/44/3 69/41/3 72/50/3 
# 52 polygons

