# 3ds Max Wavefront OBJ Exporter v0.97b - (c)2007 guruware
# File Created: 03.04.2017 17:44:52

mtllib Kitchen_Table.mtl

#
# object polySurface552
#

v  -11.5000 0.6807 4.2500
v  11.5000 0.6807 4.2500
v  11.5000 1.2807 4.2500
v  -11.5000 1.2807 4.2500
v  11.5000 1.2807 -3.3498
v  -11.5000 1.2807 -3.3498
v  11.5000 0.6807 -3.3498
v  -11.5000 0.6807 -3.3498
v  -11.1467 -4.1693 -2.7131
v  -11.1467 -4.1693 3.6133
v  -11.1467 0.6807 3.6133
v  -11.1467 0.6807 -2.7131
v  11.1467 0.6807 -2.7131
v  11.1467 -4.1693 -2.7131
v  11.1467 -4.1693 3.6133
v  11.1467 0.6807 3.6133
v  -11.1467 -9.0193 -2.7131
v  -11.1467 -9.0193 3.6133
v  11.1467 -9.0193 -2.7131
v  11.1467 -9.0193 3.6133
v  11.5000 -10.0000 -3.3498
v  -11.5000 -10.0000 -3.3498
v  -11.5000 -9.0193 -3.3498
v  11.5000 -9.0193 -3.3498
v  -11.5000 -9.0193 4.2500
v  11.5000 -9.0193 4.2500
v  -11.5000 -10.0000 4.2500
v  11.5000 -10.0000 4.2500
# 28 vertices

vn 0.0000 -0.0000 1.0000
vn 0.0000 1.0000 0.0000
vn 0.0000 0.0000 -1.0000
vn 0.0000 -1.0000 -0.0000
vn 1.0000 0.0000 -0.0000
vn -1.0000 0.0000 -0.0000
# 6 vertex normals

vt 0.6829 0.9049 0.0000
vt 0.4486 0.9049 0.0000
vt 0.4486 0.8987 0.0000
vt 0.6829 0.8987 0.0000
vt 0.6829 0.9822 0.0000
vt 0.4486 0.9822 0.0000
vt 0.4486 0.9048 0.0000
vt 0.6829 0.9048 0.0000
vt 0.6829 0.9823 0.0000
vt 0.4486 0.9823 0.0000
vt 0.4425 0.9822 0.0000
vt 0.4425 0.9048 0.0000
vt 0.6890 0.9048 0.0000
vt 0.6890 0.9822 0.0000
vt 0.9383 0.7921 0.0000
vt 0.8847 0.7921 0.0000
vt 0.8847 0.7510 0.0000
vt 0.9383 0.7510 0.0000
vt 0.6958 0.7510 0.0000
vt 0.6958 0.7921 0.0000
vt 0.6800 0.9070 0.0000
vt 0.4516 0.9070 0.0000
vt 0.4515 0.8972 0.0000
vt 0.6800 0.8972 0.0000
vt 0.6786 0.9812 0.0000
vt 0.4530 0.9812 0.0000
vt 0.4527 0.9069 0.0000
vt 0.6788 0.9069 0.0000
vt 0.4527 0.8972 0.0000
vt 0.6788 0.8972 0.0000
vt 0.4434 0.9812 0.0000
vt 0.4431 0.9070 0.0000
vt 0.6885 0.9070 0.0000
vt 0.6881 0.9812 0.0000
# 34 texture coords

g polySurface552
usemtl Atlas_2
s off
f 1/1/1 2/2/1 3/3/1 4/4/1 
f 4/5/2 3/6/2 5/7/2 6/8/2 
f 6/8/3 5/7/3 7/3/3 8/4/3 
f 8/9/4 7/10/4 2/2/4 1/1/4 
f 2/11/5 7/12/5 5/7/5 3/6/5 
f 8/13/6 1/14/6 4/5/6 6/8/6 
f 9/15/6 10/16/6 11/17/6 12/18/6 
f 12/19/3 13/17/3 14/16/3 9/20/3 
f 15/15/5 14/16/5 13/17/5 16/18/5 
f 10/16/1 15/20/1 16/19/1 11/17/1 
f 9/15/6 17/18/6 18/17/6 10/16/6 
f 17/19/3 9/20/3 14/16/3 19/17/3 
f 15/15/5 20/18/5 19/17/5 14/16/5 
f 10/16/1 18/17/1 20/19/1 15/20/1 
f 21/21/3 22/22/3 23/23/3 24/24/3 
f 24/25/2 23/26/2 25/27/2 26/28/2 
f 26/28/1 25/27/1 27/29/1 28/30/1 
f 22/31/6 27/32/6 25/27/6 23/26/6 
f 28/33/5 21/34/5 24/25/5 26/28/5 
# 19 polygons

