# 3ds Max Wavefront OBJ Exporter v0.97b - (c)2007 guruware
# File Created: 03.04.2017 17:41:25

mtllib Kitchen_Cabinet_1D.mtl

#
# object polySurface543
#

v  0.5199 8.8710 2.5000
v  0.5199 8.8710 3.1308
v  0.5984 8.8710 3.1308
v  0.5984 8.8710 2.5000
v  0.5199 5.0498 3.1308
v  0.5984 5.0498 3.1308
v  0.4424 8.8710 2.5000
v  0.4424 8.8710 3.1308
v  0.4424 5.0498 3.1308
v  4.9459 7.4026 3.8017
v  5.3036 7.4026 3.1308
v  5.6430 7.4026 3.1308
v  5.1675 7.4026 4.0957
v  3.6008 7.4026 3.8017
v  3.3792 7.4026 4.0957
v  3.2430 7.4026 3.1308
v  2.9036 7.4026 3.1308
v  5.6430 7.7420 3.1308
v  5.1675 7.7420 4.0957
v  3.3792 7.7420 4.0957
v  2.9036 7.7420 3.1308
v  5.3036 7.7420 3.1308
v  4.9459 7.7420 3.8017
v  3.6008 7.7420 3.8017
v  3.2430 7.7420 3.1308
v  1.6530 0.7505 3.8017
v  1.6530 0.3927 3.1308
v  1.6530 0.0533 3.1308
v  1.6530 0.5289 4.0957
v  1.6530 2.0956 3.8017
v  1.6530 2.3172 4.0957
v  1.6530 2.4533 3.1308
v  1.6530 2.7927 3.1308
v  1.9924 0.0533 3.1308
v  1.9924 0.5289 4.0957
v  1.9924 2.3172 4.0957
v  1.9924 2.7927 3.1308
v  1.9924 0.3927 3.1308
v  1.9924 0.7505 3.8017
v  1.9924 2.0956 3.8017
v  1.9924 2.4533 3.1308
v  8.2744 -3.8662 3.1308
v  8.2744 -3.8662 2.5000
v  8.2744 0.5918 2.5000
v  8.2744 0.5918 3.1308
v  0.5199 -3.8662 2.5000
v  0.5984 -3.8662 2.5000
v  0.5984 -3.8662 3.1308
v  0.5199 -3.8662 3.1308
v  0.5199 0.5918 3.1308
v  0.5984 0.5918 3.1308
v  8.2744 5.0498 3.1308
v  8.2744 5.0498 2.5000
v  8.3124 -3.9267 2.5000
v  8.3124 -3.9267 -4.4690
v  8.3124 8.9281 -4.4690
v  8.3124 8.9281 2.5000
v  0.5199 8.9281 2.5000
v  0.5199 8.9281 -4.4690
v  0.5199 -3.9267 -4.4690
v  0.5199 -3.9267 2.5000
v  8.2744 8.8710 2.5000
v  8.2744 8.8710 3.1308
v  -3.9060 7.4026 3.8017
v  -4.1276 7.4026 4.0957
v  -4.6032 7.4026 3.1308
v  -4.2638 7.4026 3.1308
v  -2.5609 7.4026 3.8017
v  -2.3393 7.4026 4.0957
v  -2.2032 7.4026 3.1308
v  -1.8638 7.4026 3.1308
v  -4.1276 7.7420 4.0957
v  -4.6032 7.7420 3.1308
v  -2.3393 7.7420 4.0957
v  -1.8638 7.7420 3.1308
v  -3.9060 7.7420 3.8017
v  -4.2638 7.7420 3.1308
v  -2.5609 7.7420 3.8017
v  -2.2032 7.7420 3.1308
v  -0.6131 0.7505 3.8017
v  -0.6131 0.5289 4.0957
v  -0.6131 0.0533 3.1308
v  -0.6131 0.3927 3.1308
v  -0.6131 2.0956 3.8017
v  -0.6131 2.3172 4.0957
v  -0.6131 2.4533 3.1308
v  -0.6131 2.7927 3.1308
v  -0.9525 0.5289 4.0957
v  -0.9525 0.0533 3.1308
v  -0.9525 2.3172 4.0957
v  -0.9525 2.7927 3.1308
v  -0.9525 0.7505 3.8017
v  -0.9525 0.3927 3.1308
v  -0.9525 2.0956 3.8017
v  -0.9525 2.4533 3.1308
v  -7.2345 -3.8662 3.1308
v  -7.2345 0.5918 3.1308
v  -7.2345 0.5918 2.5000
v  -7.2345 -3.8662 2.5000
v  0.4424 -3.8662 3.1308
v  0.4424 -3.8662 2.5000
v  0.4424 0.5918 3.1308
v  -7.2345 5.0498 3.1308
v  -7.2345 5.0498 2.5000
v  -7.2726 -3.9267 2.5000
v  -7.2726 8.9281 2.5000
v  -7.2726 8.9281 -4.4690
v  -7.2726 -3.9267 -4.4690
v  -7.2345 8.8710 3.1308
v  -7.2345 8.8710 2.5000
# 110 vertices

vn 0.0000 1.0000 0.0000
vn 0.0000 -0.0000 1.0000
vn 0.0000 -1.0000 -0.0000
vn 0.8970 -0.0000 0.4421
vn -0.8970 -0.0000 0.4421
vn -0.8824 0.0000 -0.4705
vn 0.0000 0.0000 -1.0000
vn 0.8824 0.0000 -0.4705
vn -1.0000 -0.0000 -0.0000
vn -1.0000 0.0000 -0.0000
vn 0.0000 -0.8970 0.4421
vn 0.0000 0.8970 0.4421
vn 1.0000 0.0000 0.0000
vn 1.0000 0.0000 -0.0000
vn 0.0000 0.8824 -0.4705
vn -0.0000 -0.8824 -0.4705
vn -0.0000 -0.0000 1.0000
vn 1.0000 -0.0000 -0.0000
vn 0.0000 -1.0000 0.0000
vn 0.0000 -0.8824 -0.4705
vn -0.0000 1.0000 0.0000
# 21 vertex normals

vt 0.5662 0.8720 0.0000
vt 0.5662 0.8619 0.0000
vt 0.5687 0.8619 0.0000
vt 0.5687 0.8720 0.0000
vt 0.5662 0.7531 0.0000
vt 0.5687 0.7531 0.0000
vt 0.5686 0.8720 0.0000
vt 0.5686 0.8619 0.0000
vt 0.5686 0.7531 0.0000
vt 0.2513 0.8423 0.0000
vt 0.2513 0.8657 0.0000
vt 0.2453 0.8682 0.0000
vt 0.2453 0.8426 0.0000
vt 0.2513 0.8163 0.0000
vt 0.2453 0.8160 0.0000
vt 0.2513 0.7928 0.0000
vt 0.2453 0.7903 0.0000
vt 0.2384 0.8682 0.0000
vt 0.2384 0.8426 0.0000
vt 0.2384 0.8160 0.0000
vt 0.2384 0.7903 0.0000
vt 0.2325 0.8644 0.0000
vt 0.2325 0.8423 0.0000
vt 0.2325 0.8162 0.0000
vt 0.2325 0.7942 0.0000
vt 0.2256 0.8630 0.0000
vt 0.2256 0.8423 0.0000
vt 0.2256 0.8162 0.0000
vt 0.2256 0.7955 0.0000
vt 0.6772 0.7559 0.0000
vt 0.6888 0.7558 0.0000
vt 0.6888 0.7961 0.0000
vt 0.6772 0.7961 0.0000
vt 0.5674 0.7505 0.0000
vt 0.5685 0.7505 0.0000
vt 0.5685 0.7559 0.0000
vt 0.5674 0.7559 0.0000
vt 0.5674 0.7961 0.0000
vt 0.5685 0.7961 0.0000
vt 0.6020 0.9984 0.0000
vt 0.6020 0.9370 0.0000
vt 0.6843 0.9370 0.0000
vt 0.6843 0.9984 0.0000
vt 0.5133 0.9987 0.0000
vt 0.4537 0.9987 0.0000
vt 0.4537 0.9421 0.0000
vt 0.5133 0.9421 0.0000
vt 0.4960 0.8895 0.0000
vt 0.6182 0.8895 0.0000
vt 0.6182 0.9854 0.0000
vt 0.4960 0.9854 0.0000
vt 0.9277 0.8364 0.0000
vt 0.9393 0.8363 0.0000
vt 0.9393 0.8709 0.0000
vt 0.9277 0.8709 0.0000
vt 0.8190 0.8741 0.0000
vt 0.9277 0.8741 0.0000
vt 0.8190 0.8709 0.0000
vt 0.8190 0.8364 0.0000
vt 0.8191 0.8709 0.0000
vt 0.8191 0.8364 0.0000
vt 0.8191 0.8741 0.0000
# 62 texture coords

g polySurface543
usemtl Atlas_2
s off
f 1/1/1 2/2/1 3/3/1 4/4/1 
f 2/2/2 5/5/2 6/6/2 3/3/2 
f 1/1/1 7/7/1 8/8/1 2/2/1 
f 2/2/2 8/8/2 9/9/2 5/5/2 
f 10/10/3 11/11/3 12/12/3 13/13/3 
f 14/14/3 10/10/3 13/13/3 15/15/3 
f 16/16/3 14/14/3 15/15/3 17/17/3 
f 13/13/4 12/12/4 18/18/4 19/19/4 
f 15/15/2 13/13/2 19/19/2 20/20/2 
f 17/17/5 15/15/5 20/20/5 21/21/5 
f 19/19/1 18/18/1 22/22/1 23/23/1 
f 20/20/1 19/19/1 23/23/1 24/24/1 
f 21/21/1 20/20/1 24/24/1 25/25/1 
f 23/23/6 22/22/6 11/26/6 10/27/6 
f 24/24/7 23/23/7 10/27/7 14/28/7 
f 25/25/8 24/24/8 14/28/8 16/29/8 
f 26/10/9 27/11/9 28/12/9 29/13/9 
f 30/14/10 26/10/10 29/13/10 31/15/10 
f 32/16/10 30/14/10 31/15/10 33/17/10 
f 29/13/11 28/12/11 34/18/11 35/19/11 
f 31/15/2 29/13/2 35/19/2 36/20/2 
f 33/17/12 31/15/12 36/20/12 37/21/12 
f 35/19/13 34/18/13 38/22/13 39/23/13 
f 36/20/14 35/19/14 39/23/14 40/24/14 
f 37/21/13 36/20/13 40/24/13 41/25/13 
f 39/23/15 38/22/15 27/26/15 26/27/15 
f 40/24/7 39/23/7 26/27/7 30/28/7 
f 41/25/16 40/24/16 30/28/16 32/29/16 
f 42/30/14 43/31/14 44/32/14 45/33/14 
f 46/34/3 47/35/3 48/36/3 49/37/3 
f 50/38/2 49/37/2 48/36/2 51/39/2 
f 52/30/14 45/33/14 44/32/14 53/31/14 
f 50/38/2 51/39/17 6/36/17 5/37/2 
f 54/40/14 55/41/14 56/42/14 57/43/14 
f 58/44/1 57/45/1 56/46/1 59/47/1 
f 60/48/7 59/49/7 56/50/7 55/51/7 
f 58/48/2 61/49/2 54/50/2 57/51/2 
f 52/52/18 53/53/18 62/54/18 63/55/18 
f 64/10/3 65/13/3 66/12/3 67/11/3 
f 68/14/19 69/15/19 65/13/19 64/10/19 
f 70/16/3 71/17/3 69/15/3 68/14/3 
f 65/13/5 72/19/5 73/18/5 66/12/5 
f 69/15/2 74/20/2 72/19/2 65/13/2 
f 71/17/4 75/21/4 74/20/4 69/15/4 
f 72/19/1 76/23/1 77/22/1 73/18/1 
f 74/20/1 78/24/1 76/23/1 72/19/1 
f 75/21/1 79/25/1 78/24/1 74/20/1 
f 76/23/8 64/27/8 67/26/8 77/22/8 
f 78/24/7 68/28/7 64/27/7 76/23/7 
f 79/25/6 70/29/6 68/28/6 78/24/6 
f 80/10/14 81/13/14 82/12/14 83/11/14 
f 84/14/14 85/15/14 81/13/14 80/10/14 
f 86/16/14 87/17/14 85/15/14 84/14/14 
f 81/13/11 88/19/11 89/18/11 82/12/11 
f 85/15/2 90/20/2 88/19/2 81/13/2 
f 87/17/12 91/21/12 90/20/12 85/15/12 
f 88/19/10 92/23/10 93/22/10 89/18/10 
f 90/20/10 94/24/10 92/23/10 88/19/10 
f 91/21/10 95/25/10 94/24/10 90/20/10 
f 92/23/15 80/27/15 83/26/15 93/22/15 
f 94/24/7 84/28/7 80/27/7 92/23/7 
f 95/25/20 86/29/20 84/28/20 94/24/20 
f 96/30/10 97/33/10 98/32/10 99/31/10 
f 46/34/3 49/37/3 100/36/3 101/35/3 
f 50/38/2 102/39/2 100/36/2 49/37/2 
f 103/30/10 104/31/10 98/32/10 97/33/10 
f 50/38/2 5/37/2 9/36/2 102/39/2 
f 105/40/10 106/43/10 107/42/10 108/41/10 
f 58/44/1 59/47/1 107/46/1 106/45/1 
f 60/48/7 108/51/7 107/50/7 59/49/7 
f 58/48/17 106/51/17 105/50/17 61/49/17 
f 103/52/9 109/55/9 110/54/9 104/53/9 
f 7/56/1 110/57/1 109/55/1 8/58/1 
f 9/59/2 8/58/2 109/55/2 103/52/2 
f 102/39/2 9/36/2 103/30/2 97/33/2 
f 100/36/2 102/39/2 97/33/2 96/30/2 
f 51/39/2 48/36/2 42/30/2 45/33/2 
f 6/36/17 51/39/17 45/33/17 52/30/17 
f 3/60/17 6/61/17 52/52/17 63/55/17 
f 4/62/21 3/60/21 63/55/21 62/57/21 
# 80 polygons

