# 3ds Max Wavefront OBJ Exporter v0.97b - (c)2007 guruware
# File Created: 04.04.2017 11:55:56

mtllib Lamps_1A.mtl

#
# object polySurface1485
#

v  -2.6480 -0.0000 2.6480
v  2.6480 -0.0000 2.6480
v  2.3507 0.8815 2.3507
v  -2.3507 0.8815 2.3507
v  2.3507 0.8815 -2.3507
v  -2.3507 0.8815 -2.3507
v  2.6480 0.0000 -2.6480
v  -2.6480 0.0000 -2.6480
v  0.2163 0.8815 -0.6657
v  -0.5663 0.8815 -0.4114
v  -0.5663 20.7500 -0.4114
v  0.2163 20.7500 -0.6657
v  -0.5663 0.8815 0.4114
v  -0.5663 20.7500 0.4115
v  0.2163 0.8815 0.6657
v  0.2163 20.7500 0.6657
v  0.7000 0.8815 0.0000
v  0.7000 20.7500 0.0000
v  1.8507 18.1275 -3.2055
v  -1.8507 18.1275 -3.2055
v  -0.9042 22.7500 -1.5661
v  0.9042 22.7500 -1.5661
v  -3.7014 18.1275 0.0000
v  -1.8083 22.7500 0.0000
v  -1.8507 18.1275 3.2055
v  -0.9042 22.7500 1.5661
v  1.8507 18.1275 3.2055
v  0.9042 22.7500 1.5661
v  3.7014 18.1275 0.0000
v  1.8083 22.7500 0.0000
v  -0.8252 8.1394 0.8684
v  0.9116 8.1394 0.8684
v  0.9116 9.6855 0.8684
v  -0.8252 9.6855 0.8684
v  0.9116 9.6855 -0.8684
v  -0.8252 9.6855 -0.8684
v  0.9116 8.1394 -0.8684
v  -0.8252 8.1394 -0.8684
# 38 vertices

vn 0.0000 0.3195 0.9476
vn 0.0000 1.0000 0.0000
vn 0.0000 0.3195 -0.9476
vn 0.9476 0.3195 0.0000
vn -0.9476 0.3195 0.0000
vn 0.3090 0.0000 -0.9511
vn -0.8090 0.0000 -0.5878
vn -0.8090 -0.0000 0.5878
vn 0.3090 -0.0000 0.9511
vn 1.0000 -0.0000 0.0000
vn 0.0000 0.3343 -0.9425
vn -0.8162 0.3343 -0.4712
vn -0.8162 0.3343 0.4712
vn -0.0000 0.3343 0.9425
vn 0.8162 0.3343 0.4712
vn 0.8162 0.3343 -0.4712
vn 0.0000 -1.0000 -0.0000
vn 0.0000 0.0000 1.0000
vn 0.0000 0.0000 -1.0000
vn 1.0000 0.0000 0.0000
vn -1.0000 0.0000 0.0000
# 21 vertex normals

vt 0.1923 0.9735 0.0000
vt 0.1661 0.9735 0.0000
vt 0.1661 0.9686 0.0000
vt 0.1923 0.9686 0.0000
vt 0.1535 0.9680 0.0000
vt 0.1401 0.9680 0.0000
vt 0.1401 0.9545 0.0000
vt 0.1535 0.9545 0.0000
vt 0.1399 0.9735 0.0000
vt 0.1399 0.9686 0.0000
vt 0.1295 0.9737 0.0000
vt 0.1270 0.9737 0.0000
vt 0.1270 0.9132 0.0000
vt 0.1295 0.9132 0.0000
vt 0.1395 0.9737 0.0000
vt 0.1370 0.9737 0.0000
vt 0.1370 0.9132 0.0000
vt 0.1395 0.9132 0.0000
vt 0.1345 0.9737 0.0000
vt 0.1345 0.9132 0.0000
vt 0.1320 0.9737 0.0000
vt 0.1320 0.9132 0.0000
vt 0.1270 0.9750 0.0000
vt 0.1441 0.9749 0.0000
vt 0.1439 0.9995 0.0000
vt 0.1271 0.9996 0.0000
vt 0.1590 0.9750 0.0000
vt 0.1589 0.9995 0.0000
vt 0.1739 0.9750 0.0000
vt 0.1739 0.9996 0.0000
vt 0.1909 0.9750 0.0000
vt 0.1909 0.9997 0.0000
vt 0.2059 0.9751 0.0000
vt 0.2059 0.9996 0.0000
vt 0.2208 0.9751 0.0000
vt 0.2208 0.9996 0.0000
vt 0.2413 0.9823 0.0000
vt 0.2413 0.9937 0.0000
vt 0.2314 0.9993 0.0000
vt 0.2216 0.9937 0.0000
vt 0.2216 0.9823 0.0000
vt 0.2314 0.9767 0.0000
vt 0.2313 0.9775 0.0000
vt 0.2404 0.9827 0.0000
vt 0.2404 0.9932 0.0000
vt 0.2313 0.9984 0.0000
vt 0.2223 0.9932 0.0000
vt 0.2223 0.9827 0.0000
vt 0.1545 0.9624 0.0000
vt 0.1836 0.9624 0.0000
vt 0.1836 0.9678 0.0000
vt 0.1545 0.9678 0.0000
vt 0.0987 0.9720 0.0000
vt 0.1118 0.9720 0.0000
vt 0.1118 0.9851 0.0000
vt 0.0987 0.9851 0.0000
# 56 texture coords

g polySurface1485
usemtl Atlas_2
s off
f 1/1/1 2/2/1 3/3/1 4/4/1 
f 4/5/2 3/6/2 5/7/2 6/8/2 
f 6/3/3 5/4/3 7/1/3 8/2/3 
f 2/2/4 7/9/4 5/10/4 3/3/4 
f 8/2/5 1/9/5 4/10/5 6/3/5 
f 9/11/6 10/12/7 11/13/7 12/14/6 
f 10/15/7 13/16/8 14/17/8 11/18/7 
f 13/16/8 15/19/9 16/20/9 14/17/8 
f 15/19/9 17/21/10 18/22/10 16/20/9 
f 17/21/10 9/11/6 12/14/6 18/22/10 
f 19/23/11 20/24/11 21/25/11 22/26/11 
f 20/24/12 23/27/12 24/28/12 21/25/12 
f 23/27/13 25/29/13 26/30/13 24/28/13 
f 25/29/14 27/31/14 28/32/14 26/30/14 
f 27/31/15 29/33/15 30/34/15 28/32/15 
f 29/33/16 19/35/16 22/36/16 30/34/16 
f 27/37/17 25/38/17 23/39/17 20/40/17 
f 27/37/17 20/40/17 19/41/17 29/42/17 
f 30/43/2 22/44/2 21/45/2 24/46/2 
f 30/43/2 24/46/2 26/47/2 28/48/2 
f 31/49/18 32/50/18 33/51/18 34/52/18 
f 34/53/2 33/54/2 35/55/2 36/56/2 
f 36/51/19 35/52/19 37/49/19 38/50/19 
f 38/53/17 37/54/17 32/55/17 31/56/17 
f 32/49/20 37/50/20 35/51/20 33/52/20 
f 38/49/21 31/50/21 34/51/21 36/52/21 
# 26 polygons

