# 3ds Max Wavefront OBJ Exporter v0.97b - (c)2007 guruware
# File Created: 04.04.2017 11:56:21

mtllib Lamps_night_1A.mtl

#
# object polySurface1487
#

v  1.3404 5.2565 -2.3217
v  -1.3404 5.2565 -2.3217
v  -0.6781 8.3069 -1.1745
v  0.6781 8.3069 -1.1745
v  -2.6808 5.2565 -0.0000
v  -1.3563 8.3069 0.0000
v  -1.3404 5.2565 2.3217
v  -0.6781 8.3069 1.1745
v  1.3404 5.2565 2.3217
v  0.6781 8.3069 1.1745
v  2.6808 5.2565 0.0000
v  1.3563 8.3069 0.0000
v  0.9567 0.0000 -0.9567
v  0.0000 0.0000 -1.3530
v  -0.0000 2.7694 -1.7139
v  1.2119 2.7694 -1.2119
v  -0.9567 0.0000 -0.9567
v  -1.2119 2.7694 -1.2119
v  -1.3530 -0.0000 0.0000
v  -1.7139 2.7694 0.0000
v  -0.9567 -0.0000 0.9567
v  -1.2119 2.7694 1.2119
v  0.0000 -0.0000 1.3530
v  -0.0000 2.7694 1.7139
v  0.9567 -0.0000 0.9567
v  1.2119 2.7694 1.2119
v  1.3530 -0.0000 0.0000
v  1.7139 2.7694 0.0000
v  0.0000 2.7694 0.5150
v  0.5150 2.7694 0.0000
v  0.5150 5.2565 0.0000
v  0.0000 5.2565 0.5150
v  -0.5150 5.2565 0.0000
v  0.0000 5.2565 -0.5150
v  0.0000 2.7694 -0.5150
v  -0.5150 2.7694 0.0000
# 36 vertices

vn 0.0000 0.3520 -0.9360
vn -0.8106 0.3520 -0.4680
vn -0.8106 0.3520 0.4680
vn -0.0000 0.3520 0.9360
vn 0.8106 0.3520 0.4680
vn 0.8106 0.3520 -0.4680
vn 0.0000 -1.0000 0.0000
vn 0.0000 1.0000 0.0000
vn 0.3799 -0.1195 -0.9173
vn -0.3799 -0.1195 -0.9173
vn -0.9173 -0.1195 -0.3799
vn -0.9173 -0.1195 0.3799
vn -0.3799 -0.1195 0.9173
vn 0.3799 -0.1195 0.9173
vn 0.9173 -0.1195 0.3799
vn 0.9173 -0.1195 -0.3799
vn 0.0000 -1.0000 -0.0000
vn 0.0000 -0.0000 1.0000
vn 1.0000 0.0000 -0.0000
vn -1.0000 0.0000 -0.0000
vn 0.0000 0.0000 -1.0000
# 21 vertex normals

vt 0.1270 0.9750 0.0000
vt 0.1441 0.9749 0.0000
vt 0.1439 0.9995 0.0000
vt 0.1271 0.9996 0.0000
vt 0.1590 0.9750 0.0000
vt 0.1589 0.9995 0.0000
vt 0.1739 0.9750 0.0000
vt 0.1739 0.9996 0.0000
vt 0.1909 0.9750 0.0000
vt 0.1909 0.9997 0.0000
vt 0.2059 0.9751 0.0000
vt 0.2059 0.9996 0.0000
vt 0.2208 0.9751 0.0000
vt 0.2208 0.9996 0.0000
vt 0.2413 0.9823 0.0000
vt 0.2413 0.9937 0.0000
vt 0.2314 0.9993 0.0000
vt 0.2216 0.9937 0.0000
vt 0.2216 0.9823 0.0000
vt 0.2314 0.9767 0.0000
vt 0.2313 0.9775 0.0000
vt 0.2404 0.9827 0.0000
vt 0.2404 0.9932 0.0000
vt 0.2313 0.9984 0.0000
vt 0.2223 0.9932 0.0000
vt 0.2223 0.9827 0.0000
vt 0.1936 0.9527 0.0000
vt 0.2027 0.9527 0.0000
vt 0.2027 0.9734 0.0000
vt 0.1937 0.9734 0.0000
vt 0.2118 0.9527 0.0000
vt 0.2118 0.9734 0.0000
vt 0.2209 0.9527 0.0000
vt 0.2209 0.9734 0.0000
vt 0.2300 0.9527 0.0000
vt 0.2300 0.9734 0.0000
vt 0.2417 0.9704 0.0000
vt 0.2378 0.9720 0.0000
vt 0.2338 0.9704 0.0000
vt 0.2322 0.9664 0.0000
vt 0.2338 0.9625 0.0000
vt 0.2378 0.9609 0.0000
vt 0.2417 0.9625 0.0000
vt 0.2433 0.9664 0.0000
vt 0.2378 0.9594 0.0000
vt 0.2428 0.9615 0.0000
vt 0.2449 0.9665 0.0000
vt 0.2428 0.9714 0.0000
vt 0.2378 0.9735 0.0000
vt 0.2329 0.9714 0.0000
vt 0.2308 0.9665 0.0000
vt 0.2329 0.9615 0.0000
vt 0.1275 0.9349 0.0000
vt 0.1305 0.9349 0.0000
vt 0.1305 0.9452 0.0000
vt 0.1275 0.9452 0.0000
vt 0.1365 0.9452 0.0000
vt 0.1335 0.9452 0.0000
vt 0.1335 0.9349 0.0000
vt 0.1365 0.9349 0.0000
vt 0.1395 0.9349 0.0000
vt 0.1395 0.9452 0.0000
# 62 texture coords

g polySurface1487
usemtl Atlas_2
s off
f 1/1/1 2/2/1 3/3/1 4/4/1 
f 2/2/2 5/5/2 6/6/2 3/3/2 
f 5/5/3 7/7/3 8/8/3 6/6/3 
f 7/7/4 9/9/4 10/10/4 8/8/4 
f 9/9/5 11/11/5 12/12/5 10/10/5 
f 11/11/6 1/13/6 4/14/6 12/12/6 
f 9/15/7 7/16/7 5/17/7 2/18/7 
f 9/15/7 2/18/7 1/19/7 11/20/7 
f 12/21/8 4/22/8 3/23/8 6/24/8 
f 12/21/8 6/24/8 8/25/8 10/26/8 
f 13/27/9 14/28/9 15/29/9 16/30/9 
f 14/28/10 17/31/10 18/32/10 15/29/10 
f 17/31/11 19/33/11 20/34/11 18/32/11 
f 19/33/12 21/35/12 22/36/12 20/34/12 
f 21/27/13 23/28/13 24/29/13 22/30/13 
f 23/28/14 25/31/14 26/32/14 24/29/14 
f 25/31/15 27/33/15 28/34/15 26/32/15 
f 27/33/16 13/35/16 16/36/16 28/34/16 
f 25/37/17 23/38/17 21/39/17 19/40/17 
f 25/37/17 19/40/17 17/41/17 14/42/17 
f 25/37/17 14/42/17 13/43/17 27/44/17 
f 28/45/8 16/46/8 15/47/8 18/48/8 
f 28/45/8 18/48/8 20/49/8 22/50/8 
f 28/45/8 22/50/8 24/51/8 26/52/8 
f 29/53/18 30/54/19 31/55/19 32/56/18 
f 33/57/20 34/58/21 35/59/21 36/60/20 
f 30/54/19 35/59/21 34/58/21 31/55/19 
f 36/60/20 29/61/18 32/62/18 33/57/20 
# 28 polygons

