# 3ds Max Wavefront OBJ Exporter v0.97b - (c)2007 guruware
# File Created: 04.04.2017 11:55:17

mtllib Lamp_ceiling_1.mtl

#
# object pCylinder7
#

v  2.7256 -0.5000 -1.9803
v  1.0411 -0.5000 -3.2041
v  1.2080 0.0000 -3.7179
v  3.1627 0.0000 -2.2978
v  -1.0411 -0.5000 -3.2041
v  -1.2080 0.0000 -3.7179
v  -2.7256 -0.5000 -1.9803
v  -3.1627 0.0000 -2.2978
v  -3.3690 -0.5000 0.0000
v  -3.9093 -0.0000 0.0000
v  -2.7256 -0.5000 1.9803
v  -3.1627 -0.0000 2.2978
v  -1.0411 -0.5000 3.2041
v  -1.2080 -0.0000 3.7179
v  1.0411 -0.5000 3.2041
v  1.2080 -0.0000 3.7179
v  2.7256 -0.5000 1.9803
v  3.1627 -0.0000 2.2978
v  3.3690 -0.5000 -0.0000
v  3.9093 -0.0000 0.0000
v  1.0816 0.5000 -3.3287
v  2.8316 0.5000 -2.0572
v  -1.0816 0.5000 -3.3287
v  -2.8316 0.5000 -2.0572
v  -3.5000 0.5000 0.0000
v  -2.8316 0.5000 2.0572
v  -1.0816 0.5000 3.3287
v  1.0816 0.5000 3.3287
v  2.8316 0.5000 2.0572
v  3.5000 0.5000 -0.0000
v  0.0000 -1.2262 -0.0000
# 31 vertices

vn 0.3711 -0.8886 -0.2696
vn 0.1418 -0.8886 -0.4363
vn 0.3082 -0.0722 -0.9486
vn 0.8069 -0.0722 -0.5862
vn -0.1418 -0.8886 -0.4363
vn -0.3082 -0.0722 -0.9486
vn -0.3711 -0.8886 -0.2696
vn -0.8069 -0.0722 -0.5862
vn -0.4587 -0.8886 -0.0000
vn -0.9974 -0.0722 0.0000
vn -0.3711 -0.8886 0.2696
vn -0.8069 -0.0722 0.5862
vn -0.1418 -0.8886 0.4363
vn -0.3082 -0.0722 0.9486
vn 0.1418 -0.8886 0.4363
vn 0.3082 -0.0722 0.9486
vn 0.3711 -0.8886 0.2696
vn 0.8069 -0.0722 0.5862
vn 0.4587 -0.8886 0.0000
vn 0.9974 -0.0722 0.0000
vn 0.2391 0.6334 -0.7359
vn 0.6260 0.6334 -0.4548
vn -0.2391 0.6334 -0.7359
vn -0.6260 0.6334 -0.4548
vn -0.7738 0.6334 0.0000
vn -0.6260 0.6334 0.4548
vn -0.2391 0.6334 0.7359
vn 0.2391 0.6334 0.7359
vn 0.6260 0.6334 0.4548
vn 0.7738 0.6334 0.0000
vn -0.0000 -1.0000 -0.0000
# 31 vertex normals

vt 0.1525 0.9204 0.0000
vt 0.1470 0.9278 0.0000
vt 0.1437 0.9268 0.0000
vt 0.1505 0.9176 0.0000
vt 0.1469 0.9371 0.0000
vt 0.1436 0.9382 0.0000
vt 0.1523 0.9447 0.0000
vt 0.1502 0.9475 0.0000
vt 0.1611 0.9476 0.0000
vt 0.1611 0.9511 0.0000
vt 0.1699 0.9448 0.0000
vt 0.1720 0.9477 0.0000
vt 0.1754 0.9374 0.0000
vt 0.1788 0.9385 0.0000
vt 0.1755 0.9281 0.0000
vt 0.1789 0.9270 0.0000
vt 0.1702 0.9206 0.0000
vt 0.1722 0.9177 0.0000
vt 0.1614 0.9176 0.0000
vt 0.1614 0.9141 0.0000
vt 0.1413 0.9260 0.0000
vt 0.1486 0.9153 0.0000
vt 0.1413 0.9393 0.0000
vt 0.1487 0.9499 0.0000
vt 0.1613 0.9540 0.0000
vt 0.1738 0.9499 0.0000
vt 0.1816 0.9392 0.0000
vt 0.1816 0.9260 0.0000
vt 0.1738 0.9153 0.0000
vt 0.1612 0.9112 0.0000
vt 0.1612 0.9326 0.0000
# 31 texture coords

g pCylinder7
usemtl Atlas_2
s off
f 1/1/1 2/2/2 3/3/3 4/4/4 
f 2/2/2 5/5/5 6/6/6 3/3/3 
f 5/5/5 7/7/7 8/8/8 6/6/6 
f 7/7/7 9/9/9 10/10/10 8/8/8 
f 9/9/9 11/11/11 12/12/12 10/10/10 
f 11/11/11 13/13/13 14/14/14 12/12/12 
f 13/13/13 15/15/15 16/16/16 14/14/14 
f 15/15/15 17/17/17 18/18/18 16/16/16 
f 17/17/17 19/19/19 20/20/20 18/18/18 
f 19/19/19 1/1/1 4/4/4 20/20/20 
f 4/4/4 3/3/3 21/21/21 22/22/22 
f 3/3/3 6/6/6 23/23/23 21/21/21 
f 6/6/6 8/8/8 24/24/24 23/23/23 
f 8/8/8 10/10/10 25/25/25 24/24/24 
f 10/10/10 12/12/12 26/26/26 25/25/25 
f 12/12/12 14/14/14 27/27/27 26/26/26 
f 14/14/14 16/16/16 28/28/28 27/27/27 
f 16/16/16 18/18/18 29/29/29 28/28/28 
f 18/18/18 20/20/20 30/30/30 29/29/29 
f 20/20/20 4/4/4 22/22/22 30/30/30 
f 2/2/2 1/1/1 31/31/31 
f 5/5/5 2/2/2 31/31/31 
f 7/7/7 5/5/5 31/31/31 
f 9/9/9 7/7/7 31/31/31 
f 11/11/11 9/9/9 31/31/31 
f 13/13/13 11/11/11 31/31/31 
f 15/15/15 13/13/13 31/31/31 
f 17/17/17 15/15/15 31/31/31 
f 19/19/19 17/17/17 31/31/31 
f 1/1/1 19/19/19 31/31/31 
# 20 polygons - 10 triangles

