# 3ds Max Wavefront OBJ Exporter v0.97b - (c)2007 guruware
# File Created: 04.04.2017 11:56:45

mtllib Laptop.mtl

#
# object polySurface451
#

v  2.0000 -1.3000 0.0500
v  2.0000 1.4000 0.0500
v  -2.0000 1.4000 0.0500
v  -2.0000 -1.3000 0.0500
v  -2.0000 -1.4000 0.0500
v  -2.0000 -1.4000 2.7500
v  -2.0000 -1.3000 2.7500
v  2.0000 -1.3000 2.7500
v  2.0000 -1.4000 2.7500
v  2.0000 -1.4000 0.0500
v  -2.0000 -1.4000 -0.0500
v  2.0000 -1.4000 -0.0500
v  -2.0000 1.4000 -0.0500
v  2.0000 1.4000 -0.0500
# 14 vertices

vn 0.0000 -0.0000 1.0000
vn -1.0000 0.0000 0.0000
vn 1.0000 0.0000 0.0000
vn -0.0000 1.0000 -0.0000
vn 0.0000 0.0000 1.0000
vn -0.0000 -1.0000 -0.0000
vn -1.0000 -0.0000 -0.0000
vn 0.0000 1.0000 -0.0000
vn 1.0000 -0.0000 -0.0000
vn -0.0000 -0.0000 -1.0000
# 10 vertex normals

vt 0.2459 0.5912 0.0000
vt 0.2459 0.6413 0.0000
vt 0.1717 0.6413 0.0000
vt 0.1717 0.5912 0.0000
vt 0.1698 0.5912 0.0000
vt 0.1698 0.5411 0.0000
vt 0.1717 0.5411 0.0000
vt 0.2459 0.5411 0.0000
vt 0.2478 0.5411 0.0000
vt 0.2478 0.5912 0.0000
vt 0.1717 0.5392 0.0000
vt 0.2459 0.5392 0.0000
vt 0.1488 0.7963 0.0000
vt 0.1488 0.7709 0.0000
vt 0.1864 0.7709 0.0000
vt 0.1864 0.7963 0.0000
vt 0.1864 0.7972 0.0000
vt 0.1488 0.7972 0.0000
vt 0.1698 0.5893 0.0000
vt 0.1717 0.5893 0.0000
vt 0.1698 0.6413 0.0000
vt 0.2459 0.6431 0.0000
vt 0.1717 0.6431 0.0000
vt 0.2478 0.6413 0.0000
vt 0.2459 0.5893 0.0000
vt 0.2478 0.5893 0.0000
vt 0.2507 0.6917 0.0000
vt 0.2507 0.7303 0.0000
vt 0.1956 0.7303 0.0000
vt 0.1956 0.6917 0.0000
# 30 texture coords

g polySurface451
usemtl Atlas_2
s off
f 1/1/1 2/2/1 3/3/1 4/4/1 
f 5/5/2 6/6/2 7/7/2 4/4/2 
f 1/1/3 8/8/3 9/9/3 10/10/3 
f 4/4/4 7/7/4 8/8/4 1/1/4 
f 6/11/5 9/12/5 8/8/5 7/7/5 
f 10/13/6 9/14/6 6/15/6 5/16/6 
f 10/13/6 5/16/6 11/17/6 12/18/6 
f 11/19/7 5/20/7 4/4/7 3/3/7 
f 11/19/7 3/3/7 13/21/7 
f 3/3/8 2/2/8 14/22/8 13/23/8 
f 14/24/9 2/2/9 1/1/9 10/25/9 
f 14/24/9 10/25/9 12/26/9 
f 11/27/10 13/28/10 14/29/10 12/30/10 
# 11 polygons - 2 triangles

