# 3ds Max Wavefront OBJ Exporter v0.97b - (c)2007 guruware
# File Created: 04.04.2017 11:59:15

mtllib Paint_6.mtl

#
# object polySurface1563
#

v  -11.4000 -4.3680 0.8393
v  6.8400 -4.3680 0.8393
v  6.8400 4.3680 0.8393
v  -11.4000 4.3680 0.8393
v  -12.3600 -4.3680 0.8393
v  -12.3600 4.3680 0.8393
v  -12.3600 -4.3680 0.0393
v  -12.3600 4.3680 0.0393
v  7.8000 -4.3680 0.8393
v  7.8000 4.3680 0.8393
v  7.8000 -4.3680 0.0393
v  7.8000 4.3680 0.0393
v  7.8000 5.3280 0.8393
v  -12.3600 5.3280 0.8393
v  -12.3600 5.3280 0.0393
v  7.8000 5.3280 0.0393
v  7.8000 -5.3280 0.8393
v  -12.3600 -5.3280 0.8393
v  -12.3600 -5.3280 0.0393
v  7.8000 -5.3280 0.0393
# 20 vertices

vn 0.0000 -0.0000 1.0000
vn -1.0000 0.0000 -0.0000
vn 1.0000 0.0000 -0.0000
vn 0.0000 1.0000 0.0000
vn 0.0000 -1.0000 -0.0000
# 5 vertex normals

vt 0.8821 0.1336 0.0000
vt 0.9993 0.1336 0.0000
vt 0.9993 0.1937 0.0000
vt 0.8821 0.1937 0.0000
vt 0.0755 0.7532 0.0000
vt 0.0888 0.7532 0.0000
vt 0.0888 0.9533 0.0000
vt 0.0755 0.9533 0.0000
vt 0.0644 0.7532 0.0000
vt 0.0644 0.9533 0.0000
vt 0.0999 0.7532 0.0000
vt 0.0999 0.9533 0.0000
vt 0.0763 0.8373 0.0000
vt 0.0763 0.8266 0.0000
vt 0.0852 0.8266 0.0000
vt 0.0852 0.8373 0.0000
vt 0.0762 0.8373 0.0000
vt 0.0762 0.8266 0.0000
vt 0.0851 0.8266 0.0000
vt 0.0851 0.8373 0.0000
# 20 texture coords

g polySurface1563
usemtl Atlas_2
s off
f 1/1/1 2/2/1 3/3/1 4/4/1 
f 5/5/1 1/6/1 4/7/1 6/8/1 
f 7/9/2 5/5/2 6/8/2 8/10/2 
f 2/5/1 9/6/1 10/7/1 3/8/1 
f 9/6/3 11/11/3 12/12/3 10/7/3 
f 10/5/1 13/6/1 14/7/1 6/8/1 
f 6/13/2 14/14/2 15/15/2 8/16/2 
f 12/17/3 16/18/3 13/19/3 10/20/3 
f 13/6/4 16/11/4 15/12/4 14/7/4 
f 17/5/1 9/6/1 5/7/1 18/8/1 
f 18/13/2 5/14/2 7/15/2 19/16/2 
f 20/17/3 11/18/3 9/19/3 17/20/3 
f 20/9/5 17/5/5 18/8/5 19/10/5 
# 13 polygons

