# 3ds Max Wavefront OBJ Exporter v0.97b - (c)2007 guruware
# File Created: 04.04.2017 12:02:57

mtllib Pillar_3A.mtl

#
# object pCube92
#

v  -3.7500 -20.0000 3.7500
v  3.7500 -20.0000 3.7500
v  3.7500 20.3000 3.7500
v  -3.7500 20.3000 3.7500
v  3.7500 20.3000 -3.7500
v  -3.7500 20.3000 -3.7500
v  3.7500 -20.0000 -3.7500
v  -3.7500 -20.0000 -3.7500
# 8 vertices

vn 0.0000 -0.0000 1.0000
vn 0.0000 1.0000 0.0000
vn 0.0000 0.0000 -1.0000
vn 0.0000 -1.0000 -0.0000
vn 1.0000 0.0000 -0.0000
vn -1.0000 0.0000 -0.0000
# 6 vertex normals

vt 0.5844 0.7512 0.0000
vt 0.6306 0.7512 0.0000
vt 0.6306 0.9995 0.0000
vt 0.5844 0.9995 0.0000
vt 0.0843 0.9579 0.0000
vt 0.1262 0.9579 0.0000
vt 0.1262 0.9998 0.0000
vt 0.0843 0.9998 0.0000
vt 0.7231 0.9995 0.0000
vt 0.6769 0.9995 0.0000
vt 0.6769 0.7512 0.0000
vt 0.7231 0.7512 0.0000
vt 0.5382 0.7512 0.0000
vt 0.5382 0.9995 0.0000
# 14 texture coords

g pCube92
usemtl Atlas_1
s off
f 1/1/1 2/2/1 3/3/1 4/4/1 
usemtl Atlas_2
f 4/5/2 3/6/2 5/7/2 6/8/2 
usemtl Atlas_1
f 6/9/3 5/10/3 7/11/3 8/12/3 
usemtl Atlas_2
f 8/7/4 7/8/4 2/5/4 1/6/4 
usemtl Atlas_1
f 2/2/5 7/11/5 5/10/5 3/3/5 
f 8/13/6 1/1/6 4/4/6 6/14/6 
# 6 polygons

