# 3ds Max Wavefront OBJ Exporter v0.97b - (c)2007 guruware
# File Created: 04.04.2017 12:05:16

mtllib Pillar_5A.mtl

#
# object pCube96
#

v  -3.7500 -20.0000 3.7500
v  3.7500 -20.0000 3.7500
v  3.7500 20.3000 3.7500
v  -3.7500 20.3000 3.7500
v  3.7500 20.3000 -3.7500
v  -3.7500 20.3000 -3.7500
v  3.7500 -20.0000 -3.7500
v  -3.7500 -20.0000 -3.7500
# 8 vertices

vn 0.0000 -0.0000 1.0000
vn 0.0000 1.0000 0.0000
vn 0.0000 0.0000 -1.0000
vn 0.0000 -1.0000 -0.0000
vn 1.0000 0.0000 -0.0000
vn -1.0000 0.0000 -0.0000
# 6 vertex normals

vt 0.8352 0.5012 0.0000
vt 0.8814 0.5012 0.0000
vt 0.8814 0.7496 0.0000
vt 0.8352 0.7496 0.0000
vt 0.8480 0.5025 0.0000
vt 0.8665 0.5025 0.0000
vt 0.8665 0.5210 0.0000
vt 0.8480 0.5210 0.0000
vt 0.9739 0.7496 0.0000
vt 0.9276 0.7496 0.0000
vt 0.9276 0.5012 0.0000
vt 0.9739 0.5012 0.0000
vt 0.7890 0.5012 0.0000
vt 0.7890 0.7496 0.0000
# 14 texture coords

g pCube96
usemtl Atlas_1
s off
f 1/1/1 2/2/1 3/3/1 4/4/1 
f 4/5/2 3/6/2 5/7/2 6/8/2 
f 6/9/3 5/10/3 7/11/3 8/12/3 
f 8/7/4 7/8/4 2/5/4 1/6/4 
f 2/2/5 7/11/5 5/10/5 3/3/5 
f 8/13/6 1/1/6 4/4/6 6/14/6 
# 6 polygons

