# 3ds Max Wavefront OBJ Exporter v0.97b - (c)2007 guruware
# File Created: 04.04.2017 12:07:41

mtllib Plate_2.mtl

#
# object pCube557
#

v  -1.9096 1.4128 1.5343
v  1.9096 1.4128 1.5343
v  1.9096 1.5628 1.5343
v  -1.9096 1.5628 1.5343
v  1.9096 1.5628 -1.5343
v  -1.9096 1.5628 -1.5343
v  1.9096 1.4128 -1.5343
v  -1.9096 1.4128 -1.5343
# 8 vertices

vn 0.0000 -0.0000 1.0000
vn 0.0000 1.0000 0.0000
vn 0.0000 0.0000 -1.0000
vn 0.0000 -1.0000 -0.0000
vn 1.0000 0.0000 -0.0000
vn -1.0000 0.0000 -0.0000
# 6 vertex normals

vt 0.3173 0.3290 0.0000
vt 0.3560 0.3289 0.0000
vt 0.3551 0.3300 0.0000
vt 0.3183 0.3300 0.0000
vt 0.3550 0.3623 0.0000
vt 0.3183 0.3622 0.0000
vt 0.3560 0.3633 0.0000
vt 0.3174 0.3633 0.0000
# 8 texture coords

g pCube557
usemtl Atlas_2
s off
f 1/1/1 2/2/1 3/3/1 4/4/1 
f 4/4/2 3/3/2 5/5/2 6/6/2 
f 6/6/3 5/5/3 7/7/3 8/8/3 
f 8/5/4 7/6/4 2/4/4 1/3/4 
f 2/2/5 7/7/5 5/5/5 3/3/5 
f 8/8/6 1/1/6 4/4/6 6/6/6 
# 6 polygons

