# 3ds Max Wavefront OBJ Exporter v0.97b - (c)2007 guruware
# File Created: 04.04.2017 12:07:57

mtllib Pot_Flower_1.mtl

#
# object polySurface1583
#

v  0.9140 -1.2000 -0.6641
v  0.3491 -1.2000 -1.0745
v  0.4635 1.2000 -1.4266
v  1.2135 1.2000 -0.8817
v  -0.3491 -1.2000 -1.0745
v  -0.4635 1.2000 -1.4266
v  -0.9140 -1.2000 -0.6641
v  -1.2135 1.2000 -0.8817
v  -1.1298 -1.2000 0.0000
v  -1.5000 1.2000 0.0000
v  -0.9140 -1.2000 0.6641
v  -1.2135 1.2000 0.8817
v  -0.3491 -1.2000 1.0745
v  -0.4635 1.2000 1.4266
v  0.3491 -1.2000 1.0745
v  0.4635 1.2000 1.4266
v  0.9140 -1.2000 0.6641
v  1.2135 1.2000 0.8817
v  1.1298 -1.2000 -0.0000
v  1.5000 1.2000 0.0000
v  1.0906 0.9226 -0.7924
v  0.4166 0.9226 -1.2821
v  0.0000 1.1732 0.0000
v  -0.4166 0.9226 -1.2821
v  -1.0906 0.9226 -0.7924
v  -1.3480 0.9226 0.0000
v  -1.0906 0.9226 0.7924
v  -0.4166 0.9226 1.2821
v  0.4166 0.9226 1.2821
v  1.0906 0.9226 0.7924
v  1.3480 0.9226 0.0000
v  0.4166 1.2000 -1.2821
v  1.0906 1.2000 -0.7924
v  -0.4166 1.2000 -1.2821
v  -1.0906 1.2000 -0.7924
v  -1.3480 1.2000 0.0000
v  -1.0906 1.2000 0.7924
v  -0.4166 1.2000 1.2821
v  0.4166 1.2000 1.2821
v  1.0906 1.2000 0.7924
v  1.3480 1.2000 0.0000
v  -1.2801 3.1091 -2.2867
v  -1.2801 1.1010 -0.0071
v  1.2799 1.1010 -0.0071
v  1.2799 3.1091 -2.2867
v  -1.2801 4.2633 -5.0731
v  1.2799 4.2633 -5.0731
v  -1.2801 3.1089 -2.2869
v  1.2799 3.1089 -2.2869
v  1.2799 1.1008 -0.0073
v  -1.2801 1.1008 -0.0073
v  -1.2801 4.2630 -5.0733
v  1.2799 4.2630 -5.0733
v  -2.2860 3.1091 1.2791
v  -0.0063 1.1010 1.2791
v  -0.0063 1.1010 -1.2809
v  -2.2860 3.1091 -1.2809
v  -5.0724 4.2633 1.2791
v  -5.0724 4.2633 -1.2809
v  -2.2862 3.1089 1.2791
v  -2.2862 3.1089 -1.2809
v  -0.0065 1.1008 -1.2809
v  -0.0065 1.1008 1.2791
v  -5.0726 4.2630 1.2791
v  -5.0726 4.2630 -1.2809
v  1.2799 2.8537 2.4853
v  1.2799 1.1004 0.0044
v  -1.2801 1.1004 0.0044
v  -1.2801 2.8537 2.4853
v  1.2799 3.7038 5.3790
v  -1.2801 3.7038 5.3790
v  1.2799 2.8534 2.4855
v  -1.2801 2.8534 2.4855
v  -1.2801 1.1001 0.0045
v  1.2799 1.1001 0.0045
v  1.2799 3.7036 5.3791
v  -1.2801 3.7036 5.3791
v  2.0038 2.8625 -1.1230
v  0.0053 1.1021 -1.1230
v  0.0053 1.1021 1.1212
v  2.0038 2.8625 1.1212
v  4.4464 3.8743 -1.1230
v  4.4464 3.8743 1.1212
v  2.0039 2.8623 -1.1230
v  2.0039 2.8623 1.1212
v  0.0055 1.1019 1.1212
v  0.0055 1.1019 -1.1230
v  4.4465 3.8740 -1.1230
v  4.4465 3.8740 1.1212
v  2.8731 2.3320 1.0533
v  0.8979 1.1230 -0.9129
v  -0.8934 1.0761 0.9154
v  1.0818 2.2852 2.8816
v  5.0174 2.5728 3.1605
v  3.2261 2.5259 4.9887
v  2.8732 2.3317 1.0534
v  1.0819 2.2849 2.8817
v  -0.8933 1.0758 0.9154
v  0.8980 1.1227 -0.9129
v  5.0175 2.5725 3.1605
v  3.2262 2.5256 4.9888
v  -0.8141 2.0478 2.2523
v  0.7306 1.1767 0.6775
v  -0.7329 1.0268 -0.6752
v  -2.2776 1.8979 0.8996
v  -2.4166 2.1599 3.9736
v  -3.8801 2.0100 2.6210
v  -0.8141 2.0475 2.2523
v  -2.2777 1.8977 0.8997
v  -0.7330 1.0266 -0.6751
v  0.7305 1.1765 0.6776
v  -2.4166 2.1596 3.9737
v  -3.8801 2.0098 2.6210
v  -2.8767 2.5890 -0.6316
v  -0.8324 1.0091 0.9664
v  0.8261 1.1912 -0.9752
v  -1.2183 2.7711 -2.5732
v  -5.1455 3.2427 -2.5081
v  -3.4870 3.4248 -4.4498
v  -2.8768 2.5887 -0.6317
v  -1.2184 2.7708 -2.5733
v  0.8260 1.1909 -0.9753
v  -0.8325 1.0088 0.9663
v  -5.1456 3.2424 -2.5082
v  -3.4871 3.4245 -4.4499
v  0.9340 2.5574 -2.8103
v  -0.9571 1.2212 -0.8437
v  0.9602 0.9783 0.8351
v  2.8514 2.3145 -1.1315
v  2.9320 2.9412 -5.0366
v  4.8494 2.6983 -3.3578
v  0.9341 2.5571 -2.8104
v  2.8514 2.3142 -1.1316
v  0.9603 0.9780 0.8350
v  -0.9571 1.2209 -0.8438
v  2.9320 2.9409 -5.0367
v  4.8494 2.6980 -3.3579
v  1.8596 4.6306 2.6944
v  0.9860 1.0213 -0.1881
v  -0.9844 1.1884 0.1999
v  -0.1107 4.7977 3.0823
v  0.9860 1.0211 -0.1879
v  1.8597 4.6304 2.6946
v  -0.1107 4.7975 3.0825
v  -0.9844 1.1882 0.2001
v  -3.0972 4.5379 -0.7588
v  -0.5966 1.0236 0.7733
v  0.5862 1.1863 -0.7838
v  -1.9144 4.7007 -2.3159
v  -0.5967 1.0235 0.7732
v  -3.0973 4.5378 -0.7590
v  -1.9146 4.7005 -2.3161
v  0.5860 1.1862 -0.7839
v  0.0965 2.7785 -1.5693
v  -0.7106 1.1208 -0.5373
v  0.7166 1.0884 0.5268
v  1.5237 2.7461 -0.5052
v  0.5959 3.4432 -2.2188
v  2.0230 3.4108 -1.1547
v  2.5940 3.8826 -1.9061
v  1.1668 3.9150 -2.9701
v  0.0966 2.7783 -1.5694
v  1.5238 2.7459 -0.5053
v  0.7166 1.0882 0.5267
v  -0.7105 1.1206 -0.5374
v  0.5960 3.4431 -2.2189
v  1.1669 3.9148 -2.9703
v  2.5941 3.8824 -1.9062
v  2.0231 3.4107 -1.1548
v  -1.7160 1.9234 -2.0936
v  -1.0612 1.0620 0.2761
v  1.0605 1.1397 -0.2820
v  0.4056 2.0011 -2.6517
v  -2.3746 1.9435 -4.5944
v  -0.2530 2.0212 -5.1525
v  -1.7160 1.9231 -2.0937
v  0.4056 2.0008 -2.6517
v  1.0605 1.1394 -0.2821
v  -1.0612 1.0618 0.2760
v  -2.3746 1.9432 -4.5944
v  -0.2530 2.0209 -5.1525
v  -2.7666 2.1778 1.4366
v  0.0828 1.1365 1.2762
v  -0.0881 1.0622 -1.2770
v  -2.9375 2.1036 -1.1166
v  -5.7753 2.2399 1.6362
v  -5.9462 2.1656 -0.9170
v  -2.7667 2.1775 1.4367
v  -2.9376 2.1033 -1.1165
v  -0.0882 1.0619 -1.2770
v  0.0827 1.1362 1.2762
v  -5.7754 2.2395 1.6362
v  -5.9463 2.1653 -0.9170
# 193 vertices

vn 0.7996 -0.1524 -0.5809
vn 0.3054 -0.1524 -0.9399
vn -0.3054 -0.1524 -0.9399
vn -0.7996 -0.1524 -0.5809
vn -0.9883 -0.1524 0.0000
vn -0.7996 -0.1524 0.5809
vn -0.3054 -0.1524 0.9399
vn 0.3054 -0.1524 0.9399
vn 0.7996 -0.1524 0.5809
vn 0.9883 -0.1524 -0.0000
vn 0.1478 0.9832 -0.1074
vn 0.0565 0.9832 -0.1738
vn 0.0000 1.0000 0.0000
vn -0.0565 0.9832 -0.1738
vn -0.1478 0.9832 -0.1074
vn -0.1827 0.9832 0.0000
vn -0.1478 0.9832 0.1074
vn -0.0565 0.9832 0.1738
vn 0.0565 0.9832 0.1738
vn 0.1478 0.9832 0.1074
vn 0.1827 0.9832 0.0000
vn 0.0000 1.0000 -0.0000
vn -0.8090 -0.0000 0.5878
vn -0.3090 -0.0000 0.9511
vn 0.3090 -0.0000 0.9511
vn 0.8090 -0.0000 0.5878
vn 1.0000 -0.0000 -0.0000
vn 0.8090 -0.0000 -0.5878
vn 0.3090 -0.0000 -0.9511
vn -0.3090 -0.0000 -0.9511
vn -0.8090 0.0000 -0.5878
vn -1.0000 0.0000 0.0000
vn 0.0000 0.8483 0.5295
vn 0.0000 0.7504 0.6610
vn 0.0000 0.9239 0.3827
vn 0.0000 -0.8483 -0.5295
vn 0.0000 -0.7504 -0.6610
vn 0.0000 -0.9239 -0.3827
vn 0.5295 0.8483 0.0000
vn 0.6610 0.7504 0.0000
vn 0.3827 0.9239 0.0000
vn -0.5295 -0.8483 -0.0000
vn -0.6610 -0.7504 -0.0000
vn -0.3827 -0.9239 -0.0000
vn 0.0000 0.9000 -0.4359
vn 0.0000 0.8167 -0.5771
vn 0.0000 0.9594 -0.2819
vn 0.0000 -0.9000 0.4359
vn 0.0000 -0.8167 0.5771
vn 0.0000 -0.9594 0.2819
vn -0.5295 0.8483 0.0000
vn -0.6610 0.7504 0.0000
vn -0.3827 0.9239 0.0000
vn 0.5295 -0.8483 -0.0000
vn 0.6610 -0.7504 -0.0000
vn 0.3827 -0.9239 -0.0000
vn -0.1859 0.9699 -0.1573
vn -0.2961 0.9172 -0.2666
vn -0.0698 0.9966 -0.0429
vn 0.1859 -0.9699 0.1573
vn 0.2961 -0.9172 0.2666
vn 0.0698 -0.9966 0.0429
vn 0.0897 0.9746 -0.2051
vn 0.1988 0.9271 -0.3178
vn -0.0226 0.9960 -0.0859
vn -0.0897 -0.9746 0.2051
vn -0.1988 -0.9271 0.3178
vn 0.0226 -0.9960 0.0859
vn 0.2423 0.9247 0.2937
vn 0.3570 0.8512 0.3848
vn 0.1201 0.9736 0.1939
vn -0.2423 -0.9247 -0.2937
vn -0.3570 -0.8512 -0.3848
vn -0.1201 -0.9736 -0.1939
vn -0.1223 0.9529 0.2775
vn -0.2270 0.8931 0.3885
vn -0.0134 0.9873 0.1582
vn 0.1223 -0.9529 -0.2775
vn 0.2270 -0.8931 -0.3885
vn 0.0134 -0.9873 -0.1582
vn -0.0970 0.6353 -0.7661
vn 0.0970 -0.6353 0.7661
vn 0.5815 0.6353 0.5081
vn -0.5815 -0.6353 -0.5081
vn -0.3914 0.7397 0.5475
vn -0.4600 0.6198 0.6358
vn -0.3117 0.8403 0.4436
vn 0.3914 -0.7397 -0.5475
vn 0.4600 -0.6198 -0.6358
vn 0.3117 -0.8403 -0.4436
vn 0.0101 0.9844 0.1754
vn 0.0519 0.9431 0.3285
vn -0.0322 0.9993 0.0165
vn -0.0101 -0.9844 -0.1754
vn -0.0519 -0.9431 -0.3285
vn 0.0322 -0.9993 -0.0165
vn 0.1825 0.9824 -0.0408
vn 0.3403 0.9390 -0.0501
vn 0.0186 0.9994 -0.0303
vn -0.1825 -0.9824 0.0408
vn -0.3403 -0.9390 0.0501
vn -0.0186 -0.9994 0.0303
# 102 vertex normals

vt 0.2943 0.8212 0.0000
vt 0.3319 0.8207 0.0000
vt 0.3326 0.9758 0.0000
vt 0.2945 0.9759 0.0000
vt 0.3732 0.8207 0.0000
vt 0.3726 0.9763 0.0000
vt 0.4115 0.8210 0.0000
vt 0.4125 0.9761 0.0000
vt 0.4543 0.8212 0.0000
vt 0.4545 0.9759 0.0000
vt 0.4972 0.8212 0.0000
vt 0.4974 0.9759 0.0000
vt 0.4672 0.6685 0.0000
vt 0.4966 0.7090 0.0000
vt 0.4195 0.7340 0.0000
vt 0.4966 0.7591 0.0000
vt 0.4672 0.7996 0.0000
vt 0.4195 0.8150 0.0000
vt 0.3719 0.7996 0.0000
vt 0.3425 0.7591 0.0000
vt 0.3425 0.7090 0.0000
vt 0.3719 0.6685 0.0000
vt 0.4195 0.6530 0.0000
vt 0.3328 0.9851 0.0000
vt 0.2944 0.9851 0.0000
vt 0.3728 0.9851 0.0000
vt 0.4121 0.9853 0.0000
vt 0.4547 0.9853 0.0000
vt 0.4974 0.9853 0.0000
vt 0.3327 0.9986 0.0000
vt 0.2946 0.9985 0.0000
vt 0.3725 0.9986 0.0000
vt 0.4123 0.9987 0.0000
vt 0.4548 0.9986 0.0000
vt 0.4974 0.9986 0.0000
vt 0.7853 0.2526 0.0000
vt 0.7853 0.0008 0.0000
vt 0.9973 0.0008 0.0000
vt 0.9973 0.2526 0.0000
vt 0.7853 0.5044 0.0000
vt 0.9973 0.5044 0.0000
vt 0.7853 0.3785 0.0000
vt 0.9973 0.3785 0.0000
# 43 texture coords

g polySurface1583
usemtl Atlas_3
s off
f 1/1/1 2/2/2 3/3/2 4/4/1 
f 2/2/2 5/5/3 6/6/3 3/3/2 
f 5/5/3 7/7/4 8/8/4 6/6/3 
f 7/7/4 9/9/5 10/10/5 8/8/4 
f 9/9/5 11/11/6 12/12/6 10/10/5 
f 11/1/6 13/2/7 14/3/7 12/4/6 
f 13/2/7 15/5/8 16/6/8 14/3/7 
f 15/5/8 17/7/9 18/8/9 16/6/8 
f 17/7/9 19/9/10 20/10/10 18/8/9 
f 19/9/10 1/11/1 4/12/1 20/10/10 
f 21/13/11 22/14/12 23/15/13 
f 22/14/12 24/16/14 23/15/13 
f 24/16/14 25/17/15 23/15/13 
f 25/17/15 26/18/16 23/15/13 
f 26/18/16 27/19/17 23/15/13 
f 27/19/17 28/20/18 23/15/13 
f 28/20/18 29/21/19 23/15/13 
f 29/21/19 30/22/20 23/15/13 
f 30/22/20 31/23/21 23/15/13 
f 31/23/21 21/13/11 23/15/13 
f 4/4/13 3/3/13 32/24/13 33/25/13 
f 3/3/13 6/6/13 34/26/13 32/24/13 
f 6/6/13 8/8/13 35/27/13 34/26/13 
f 8/8/13 10/10/22 36/28/22 35/27/13 
f 10/10/22 12/12/22 37/29/22 36/28/22 
f 12/4/22 14/3/22 38/24/22 37/25/22 
f 14/3/22 16/6/22 39/26/22 38/24/22 
f 16/6/22 18/8/22 40/27/22 39/26/22 
f 18/8/22 20/10/13 41/28/13 40/27/22 
f 20/10/13 4/12/13 33/29/13 41/28/13 
f 33/25/23 32/24/24 22/30/24 21/31/23 
f 32/24/24 34/26/25 24/32/25 22/30/24 
f 34/26/25 35/27/26 25/33/26 24/32/25 
f 35/27/26 36/28/27 26/34/27 25/33/26 
f 36/28/27 37/29/28 27/35/28 26/34/27 
f 37/25/28 38/24/29 28/30/29 27/31/28 
f 38/24/29 39/26/30 29/32/30 28/30/29 
f 39/26/30 40/27/31 30/33/31 29/32/30 
f 40/27/31 41/28/32 31/34/32 30/33/31 
f 41/28/32 33/29/23 21/35/23 31/34/32 
usemtl Atlas_3_Alpha
f 42/36/33 43/37/34 44/38/34 45/39/33 
f 46/40/35 42/36/33 45/39/33 47/41/35 
f 48/36/36 49/39/36 50/38/37 51/37/37 
f 48/36/36 52/40/38 53/41/38 49/39/36 
f 54/36/39 55/37/40 56/38/40 57/39/39 
f 58/40/41 54/36/39 57/39/39 59/41/41 
f 60/36/42 61/39/42 62/38/43 63/37/43 
f 60/36/42 64/40/44 65/41/44 61/39/42 
f 66/36/45 67/37/46 68/38/46 69/39/45 
f 70/40/47 66/36/45 69/39/45 71/41/47 
f 72/36/48 73/39/48 74/38/49 75/37/49 
f 72/36/48 76/40/50 77/41/50 73/39/48 
f 78/36/51 79/37/52 80/38/52 81/39/51 
f 82/40/53 78/36/51 81/39/51 83/41/53 
f 84/36/54 85/39/54 86/38/55 87/37/55 
f 84/36/54 88/40/56 89/41/56 85/39/54 
f 90/36/57 91/37/58 92/38/58 93/39/57 
f 94/40/59 90/36/57 93/39/57 95/41/59 
f 96/36/60 97/39/60 98/38/61 99/37/61 
f 96/36/60 100/40/62 101/41/62 97/39/60 
f 102/36/63 103/37/64 104/38/64 105/39/63 
f 106/40/65 102/36/63 105/39/63 107/41/65 
f 108/36/66 109/39/66 110/38/67 111/37/67 
f 108/36/66 112/40/68 113/41/68 109/39/66 
f 114/36/69 115/37/70 116/38/70 117/39/69 
f 118/40/71 114/36/69 117/39/69 119/41/71 
f 120/36/72 121/39/72 122/38/73 123/37/73 
f 120/36/72 124/40/74 125/41/74 121/39/72 
f 126/36/75 127/37/76 128/38/76 129/39/75 
f 130/40/77 126/36/75 129/39/75 131/41/77 
f 132/36/78 133/39/78 134/38/79 135/37/79 
f 132/36/78 136/40/80 137/41/80 133/39/78 
f 138/40/81 139/37/81 140/38/81 141/41/81 
f 142/37/82 143/40/82 144/41/82 145/38/82 
f 146/40/83 147/37/83 148/38/83 149/41/83 
f 150/37/84 151/40/84 152/41/84 153/38/84 
f 154/36/85 155/37/86 156/38/86 157/39/85 
f 158/42/87 154/36/85 157/39/85 159/43/87 
f 158/42/87 159/43/87 160/41/87 161/40/87 
f 162/36/88 163/39/88 164/38/89 165/37/89 
f 166/42/90 167/40/90 168/41/90 169/43/90 
f 166/42/90 169/43/90 163/39/88 162/36/88 
f 170/36/91 171/37/92 172/38/92 173/39/91 
f 174/40/93 170/36/91 173/39/91 175/41/93 
f 176/36/94 177/39/94 178/38/95 179/37/95 
f 176/36/94 180/40/96 181/41/96 177/39/94 
f 182/36/97 183/37/98 184/38/98 185/39/97 
f 186/40/99 182/36/97 185/39/97 187/41/99 
f 188/36/100 189/39/100 190/38/101 191/37/101 
f 188/36/100 192/40/102 193/41/102 189/39/100 
# 80 polygons - 10 triangles

