# 3ds Max Wavefront OBJ Exporter v0.97b - (c)2007 guruware
# File Created: 04.04.2017 12:09:49

mtllib Railling_2.mtl

#
# object pCube185
#

v  18.3002 20.0872 1.6998
v  21.6998 20.0872 1.6998
v  21.6998 37.5413 1.6998
v  18.3002 37.5413 1.6998
v  18.3002 37.5413 -1.6998
v  21.6998 37.5413 -1.6998
v  21.6998 20.0872 -1.6998
v  18.3002 20.0872 -1.6998
# 8 vertices

vn 0.0000 -0.0000 1.0000
vn 0.0000 0.0000 -1.0000
vn 1.0000 0.0000 -0.0000
vn -1.0000 0.0000 -0.0000
vn 0.0000 1.0000 0.0000
# 5 vertex normals

vt 0.0897 0.8209 0.0000
vt 0.0814 0.8209 0.0000
vt 0.0814 0.7507 0.0000
vt 0.0897 0.7507 0.0000
vt 0.0647 0.7507 0.0000
vt 0.0730 0.7507 0.0000
vt 0.0730 0.8209 0.0000
vt 0.0647 0.8209 0.0000
vt 0.0981 0.8209 0.0000
vt 0.0981 0.7507 0.0000
vt 0.0892 0.7751 0.0000
vt 0.0892 0.7911 0.0000
vt 0.0731 0.7911 0.0000
vt 0.0731 0.7751 0.0000
# 14 texture coords

g pCube185
usemtl Atlas_2
s off
f 1/1/1 2/2/1 3/3/1 4/4/1 
f 5/5/2 6/6/2 7/7/2 8/8/2 
f 2/2/3 7/7/3 6/6/3 3/3/3 
f 8/9/4 1/1/4 4/4/4 5/10/4 
f 3/11/5 6/12/5 5/13/5 4/14/5 
# 5 polygons

