# 3ds Max Wavefront OBJ Exporter v0.97b - (c)2007 guruware
# File Created: 04.04.2017 12:11:12

mtllib Shelves_2A.mtl

#
# object polySurface1499
#

v  10.5000 34.0000 5.0000
v  10.5000 -0.0000 5.0000
v  10.5000 0.0000 -3.3379
v  10.5000 34.0000 -3.3379
v  9.5000 1.7150 -2.8379
v  9.5000 1.7150 5.0000
v  9.5000 33.3000 5.0000
v  9.5000 33.3000 -2.8379
v  -0.5000 34.0000 -3.3379
v  -0.5000 34.0000 5.0000
v  -0.5000 0.0000 -3.3379
v  -0.5000 -0.0000 5.0000
v  0.5000 33.3000 5.0000
v  0.5000 1.7150 5.0000
v  0.5000 1.7150 -2.8379
v  0.5000 33.3000 -2.8379
v  9.7013 0.4745 -2.7151
v  9.7013 33.5515 -2.7151
v  0.2987 33.5515 -2.7151
v  0.2987 0.4745 -2.7151
v  9.9147 7.2000 4.5832
v  9.9147 7.8000 4.5832
v  0.0853 7.8000 4.5832
v  0.0853 7.2000 4.5832
v  9.9147 7.8000 -3.2316
v  0.0853 7.8000 -3.2316
v  9.9147 7.2000 -3.2316
v  0.0853 7.2000 -3.2316
v  9.9147 13.2000 4.5832
v  9.9147 13.8000 4.5832
v  0.0853 13.8000 4.5832
v  0.0853 13.2000 4.5832
v  9.9147 13.8000 -3.2316
v  0.0853 13.8000 -3.2316
v  9.9147 13.2000 -3.2316
v  0.0853 13.2000 -3.2316
v  9.9147 20.2000 4.5832
v  9.9147 20.8000 4.5832
v  0.0853 20.8000 4.5832
v  0.0853 20.2000 4.5832
v  9.9147 20.8000 -3.2316
v  0.0853 20.8000 -3.2316
v  9.9147 20.2000 -3.2316
v  0.0853 20.2000 -3.2316
v  9.9147 27.2000 4.5832
v  9.9147 27.8000 4.5832
v  0.0853 27.8000 4.5832
v  0.0853 27.2000 4.5832
v  9.9147 27.8000 -3.2316
v  0.0853 27.8000 -3.2316
v  9.9147 27.2000 -3.2316
v  0.0853 27.2000 -3.2316
# 52 vertices

vn 1.0000 0.0000 -0.0000
vn -1.0000 0.0000 -0.0000
vn 0.0000 1.0000 0.0000
vn 0.0000 0.0000 -1.0000
vn 0.0000 -1.0000 -0.0000
vn 0.0000 -0.0000 1.0000
# 6 vertex normals

vt 0.2955 0.8922 0.0000
vt 0.2955 0.7062 0.0000
vt 0.3398 0.7062 0.0000
vt 0.3398 0.8922 0.0000
vt 0.2829 0.7123 0.0000
vt 0.3367 0.7123 0.0000
vt 0.3367 0.9362 0.0000
vt 0.2829 0.9362 0.0000
vt 0.3398 0.9506 0.0000
vt 0.2955 0.9506 0.0000
vt 0.2810 0.9254 0.0000
vt 0.2810 0.7055 0.0000
vt 0.3501 0.7055 0.0000
vt 0.3501 0.9254 0.0000
vt 0.3388 0.7908 0.0000
vt 0.2889 0.7908 0.0000
vt 0.2889 0.7249 0.0000
vt 0.3388 0.7249 0.0000
vt 0.2804 0.9254 0.0000
vt 0.2867 0.9210 0.0000
vt 0.3495 0.9254 0.0000
vt 0.3432 0.9210 0.0000
vt 0.2804 0.7055 0.0000
vt 0.2867 0.7163 0.0000
vt 0.3495 0.7055 0.0000
vt 0.3432 0.7163 0.0000
vt 0.2835 0.8743 0.0000
vt 0.3373 0.8743 0.0000
vt 0.3373 0.9361 0.0000
vt 0.2835 0.9361 0.0000
vt 0.2836 0.7126 0.0000
vt 0.3374 0.7126 0.0000
vt 0.3374 0.7744 0.0000
vt 0.2836 0.7744 0.0000
vt 0.3438 0.9254 0.0000
vt 0.2915 0.9254 0.0000
vt 0.2915 0.7055 0.0000
vt 0.3438 0.7055 0.0000
vt 0.3479 0.7202 0.0000
vt 0.3479 0.9335 0.0000
vt 0.2790 0.9335 0.0000
vt 0.2790 0.7202 0.0000
vt 0.3670 0.9408 0.0000
vt 0.4403 0.9408 0.0000
vt 0.3670 0.9991 0.0000
vt 0.4403 0.9991 0.0000
vt 0.4403 0.9363 0.0000
vt 0.3670 0.9363 0.0000
# 48 texture coords

g polySurface1499
usemtl Atlas_2
s off
f 1/1/1 2/2/1 3/3/1 4/4/1 
f 5/5/2 6/6/2 7/7/2 8/8/2 
f 9/9/3 10/10/3 1/1/3 4/4/3 
f 11/11/4 9/12/4 4/13/4 3/14/4 
f 12/15/5 11/16/5 3/17/5 2/18/5 
f 10/19/6 13/20/6 1/21/6 
f 13/20/6 7/22/6 1/21/6 
f 10/19/6 12/23/6 13/20/6 
f 13/20/6 12/23/6 14/24/6 
f 1/21/6 7/22/6 2/25/6 
f 7/22/6 6/26/6 2/25/6 
f 12/23/6 2/25/6 14/24/6 
f 6/26/6 14/24/6 2/25/6 
f 14/5/1 15/6/1 16/7/1 13/8/1 
f 8/27/5 7/28/5 13/29/5 16/30/5 
f 6/31/3 5/32/3 15/33/3 14/34/3 
f 10/35/2 9/36/2 11/37/2 12/38/2 
f 17/39/6 18/40/6 19/41/6 20/42/6 
f 21/43/6 22/43/6 23/44/6 24/44/6 
f 22/43/3 25/45/3 26/46/3 23/44/3 
f 27/45/5 21/43/5 24/44/5 28/46/5 
f 29/46/6 30/46/6 31/45/6 32/45/6 
f 30/46/3 33/44/3 34/43/3 31/45/3 
f 35/44/5 29/46/5 32/45/5 36/43/5 
f 37/43/6 38/43/6 39/44/6 40/44/6 
f 38/43/3 41/45/3 42/46/3 39/44/3 
f 43/45/5 37/43/5 40/44/5 44/46/5 
f 45/47/6 46/44/6 47/43/6 48/48/6 
f 46/44/3 49/46/3 50/45/3 47/43/3 
f 51/44/5 45/46/5 48/45/5 52/43/5 
# 22 polygons - 8 triangles

