# 3ds Max Wavefront OBJ Exporter v0.97b - (c)2007 guruware
# File Created: 04.04.2017 12:11:34

mtllib Shelves_2C.mtl

#
# object polySurface1500
#

v  -11.5000 9.5000 3.7500
v  11.5000 9.5000 3.7500
v  11.5000 10.5000 3.7500
v  -11.5000 10.5000 3.7500
v  11.5000 10.5000 -3.1703
v  -11.5000 10.5000 -3.1703
v  -11.5000 9.5000 -3.1703
v  11.5000 9.5000 -3.1703
v  12.1000 34.0000 4.0000
v  12.1000 -0.0000 4.0000
v  12.1000 0.0000 -3.7016
v  12.1000 34.0000 -3.7016
v  10.9000 2.7160 -3.7016
v  10.9000 2.7160 4.0000
v  10.9000 32.9500 4.0000
v  10.9000 32.9500 -3.7016
v  -12.1000 34.0000 -3.7016
v  -12.1000 34.0000 4.0000
v  -12.1000 -0.0000 4.0000
v  -12.1000 0.0000 -3.7016
v  -10.9000 32.9500 4.0000
v  -10.9000 2.7160 4.0000
v  -10.9000 2.7160 -3.7016
v  -10.9000 32.9500 -3.7016
v  -11.8580 0.3500 -3.0645
v  11.8580 0.3500 -3.0645
v  11.8580 33.6500 -3.0645
v  -11.8580 33.6500 -3.0645
v  -11.5000 17.5000 3.7500
v  11.5000 17.5000 3.7500
v  11.5000 18.5000 3.7500
v  -11.5000 18.5000 3.7500
v  11.5000 18.5000 -3.1703
v  -11.5000 18.5000 -3.1703
v  -11.5000 17.5000 -3.1703
v  11.5000 17.5000 -3.1703
v  -11.5000 25.5000 3.7500
v  11.5000 25.5000 3.7500
v  11.5000 26.5000 3.7500
v  -11.5000 26.5000 3.7500
v  11.5000 26.5000 -3.1703
v  -11.5000 26.5000 -3.1703
v  -11.5000 25.5000 -3.1703
v  11.5000 25.5000 -3.1703
# 44 vertices

vn 0.0000 -0.0000 1.0000
vn 0.0000 1.0000 0.0000
vn 0.0000 -1.0000 -0.0000
vn 1.0000 0.0000 -0.0000
vn -1.0000 0.0000 -0.0000
vn -0.0000 -0.0000 1.0000
vn 0.0000 0.0000 -1.0000
vn -0.0000 0.0000 -1.0000
# 8 vertex normals

vt 0.4049 0.8898 0.0000
vt 0.4049 0.9996 0.0000
vt 0.4001 0.9996 0.0000
vt 0.4001 0.8898 0.0000
vt 0.3671 0.9996 0.0000
vt 0.3671 0.8898 0.0000
vt 0.2865 0.9504 0.0000
vt 0.2865 0.8057 0.0000
vt 0.3183 0.8057 0.0000
vt 0.3183 0.9504 0.0000
vt 0.2861 0.7133 0.0000
vt 0.3179 0.7133 0.0000
vt 0.3179 0.8424 0.0000
vt 0.2861 0.8424 0.0000
vt 0.2865 0.7057 0.0000
vt 0.3183 0.7057 0.0000
vt 0.2555 0.9079 0.0000
vt 0.2608 0.9032 0.0000
vt 0.3635 0.9079 0.0000
vt 0.3581 0.9032 0.0000
vt 0.2555 0.7517 0.0000
vt 0.2608 0.7638 0.0000
vt 0.3635 0.7517 0.0000
vt 0.3581 0.7638 0.0000
vt 0.3179 0.9325 0.0000
vt 0.2861 0.9325 0.0000
vt 0.2544 0.7624 0.0000
vt 0.3645 0.7624 0.0000
vt 0.3645 0.9216 0.0000
vt 0.2544 0.9216 0.0000
vt 0.3718 0.8898 0.0000
vt 0.3718 0.9996 0.0000
# 32 texture coords

g polySurface1500
usemtl Atlas_2
s off
f 1/1/1 2/2/1 3/3/1 4/4/1 
f 4/4/2 3/3/2 5/5/2 6/6/2 
f 7/4/3 8/3/3 2/5/3 1/6/3 
f 9/7/4 10/8/4 11/9/4 12/10/4 
f 13/11/5 14/12/5 15/13/5 16/14/5 
f 17/9/2 18/8/2 9/15/2 12/16/2 
f 19/15/3 20/16/3 11/9/3 10/8/3 
f 20/10/5 19/7/5 18/8/5 17/9/5 
f 18/17/6 21/18/6 9/19/1 
f 21/18/6 15/20/1 9/19/1 
f 18/17/6 19/21/1 21/18/6 
f 21/18/6 19/21/1 22/22/1 
f 9/19/1 15/20/1 10/23/6 
f 15/20/1 14/24/6 10/23/6 
f 19/21/1 10/23/6 22/22/1 
f 14/24/6 22/22/1 10/23/6 
f 22/13/4 23/14/4 24/11/4 21/12/4 
f 16/14/3 15/13/3 21/25/3 24/26/3 
f 14/25/2 13/26/2 23/14/2 22/13/2 
f 24/22/7 16/24/7 13/20/7 23/18/7 
f 20/23/7 17/19/7 23/24/7 
f 23/24/7 17/19/7 24/20/7 
f 17/19/7 12/17/8 24/20/7 
f 24/20/7 12/17/8 16/18/8 
f 12/17/8 11/21/8 16/18/8 
f 16/18/8 11/21/8 13/22/7 
f 20/23/7 23/24/7 11/21/8 
f 23/24/7 13/22/7 11/21/8 
f 25/27/1 26/28/1 27/29/1 28/30/1 
f 29/5/1 30/6/1 31/31/1 32/32/1 
f 32/32/2 31/31/2 33/1/2 34/2/2 
f 35/32/3 36/31/3 30/1/3 29/2/3 
f 37/1/1 38/2/1 39/3/1 40/4/1 
f 40/4/2 39/3/2 41/5/2 42/6/2 
f 43/4/3 44/3/3 38/5/3 37/6/3 
# 19 polygons - 16 triangles

