# 3ds Max Wavefront OBJ Exporter v0.97b - (c)2007 guruware
# File Created: 04.04.2017 12:11:47

mtllib Shower_1.mtl

#
# object polySurface1552
#

v  -1.5000 -1.5000 0.9776
v  1.5000 -1.5000 0.9776
v  1.5000 1.5000 0.9776
v  -1.5000 1.5000 0.9776
v  1.5000 1.5000 0.5627
v  -1.5000 1.5000 0.5627
v  -1.5000 -1.5000 0.5627
v  1.5000 -1.5000 0.5627
v  -0.6149 -1.1148 5.7157
v  0.6149 -1.1148 5.7157
v  0.6149 0.4911 4.2116
v  -0.6149 0.4911 4.2116
v  0.6149 -1.4332 4.5277
v  -0.6149 -1.4332 4.5277
v  -0.6149 -0.6735 3.8162
v  0.6149 -0.6735 3.8162
v  0.6149 0.6149 1.2114
v  -0.6149 0.6149 1.2114
v  -0.6149 -0.6149 1.2114
v  0.6149 -0.6149 1.2114
v  -0.9705 -0.9705 1.2461
v  0.9705 -0.9705 1.2461
v  0.9705 0.9705 1.2461
v  -0.9705 0.9705 1.2461
v  0.9705 0.9705 0.9776
v  -0.9705 0.9705 0.9776
v  -0.9705 -0.9705 0.9776
v  0.9705 -0.9705 0.9776
v  -1.5000 -2.1480 3.7122
v  1.5000 -2.1480 3.7122
v  1.5000 -1.3715 6.6100
v  -1.5000 -1.3715 6.6100
v  1.2715 -0.8406 6.2312
v  -1.2715 -0.8406 6.2312
v  1.2715 -1.4988 3.7749
v  -1.2715 -1.4988 3.7749
# 36 vertices

vn 0.0000 -0.0000 1.0000
vn 0.0000 1.0000 0.0000
vn 0.0000 -1.0000 -0.0000
vn 1.0000 0.0000 -0.0000
vn -1.0000 0.0000 -0.0000
vn 0.0000 0.6836 0.7299
vn 0.0000 0.9335 0.3585
vn 0.0000 -0.6836 -0.7299
vn 0.0000 -0.9709 -0.2395
vn 1.0000 -0.0000 -0.0000
vn 0.0000 0.9991 0.0412
vn 0.0000 -0.9997 -0.0225
vn 0.0000 -0.9659 0.2588
vn 0.0000 0.5809 0.8140
vn 0.0000 0.9659 -0.2588
vn 0.0000 0.0961 -0.9954
vn 0.9366 0.3385 -0.0907
vn -0.9366 0.3385 -0.0907
# 18 vertex normals

vt 0.4292 0.2213 0.0000
vt 0.4580 0.2213 0.0000
vt 0.4580 0.2501 0.0000
vt 0.4292 0.2501 0.0000
vt 0.4580 0.2541 0.0000
vt 0.4292 0.2541 0.0000
vt 0.4252 0.2501 0.0000
vt 0.4252 0.2213 0.0000
vt 0.4401 0.2146 0.0000
vt 0.4488 0.2198 0.0000
vt 0.4404 0.2337 0.0000
vt 0.4307 0.2301 0.0000
vt 0.4420 0.2222 0.0000
vt 0.4500 0.2270 0.0000
vt 0.4459 0.2349 0.0000
vt 0.4376 0.2289 0.0000
vt 0.4549 0.2283 0.0000
vt 0.4504 0.2357 0.0000
vt 0.4598 0.2275 0.0000
vt 0.4537 0.2418 0.0000
vt 0.4369 0.2561 0.0000
vt 0.4268 0.2544 0.0000
vt 0.4375 0.2570 0.0000
vt 0.4307 0.2499 0.0000
vt 0.4239 0.2430 0.0000
vt 0.4470 0.2571 0.0000
vt 0.2349 0.2336 0.0000
vt 0.2533 0.2336 0.0000
vt 0.2533 0.2520 0.0000
vt 0.2349 0.2520 0.0000
vt 0.2533 0.2545 0.0000
vt 0.2349 0.2545 0.0000
vt 0.2324 0.2520 0.0000
vt 0.2324 0.2336 0.0000
vt 0.4694 0.2400 0.0000
vt 0.4696 0.2100 0.0000
vt 0.4986 0.2100 0.0000
vt 0.4986 0.2400 0.0000
vt 0.4697 0.2100 0.0000
vt 0.4632 0.2376 0.0000
vt 0.4632 0.2122 0.0000
vt 0.4717 0.2720 0.0000
vt 0.4717 0.2465 0.0000
vt 0.4963 0.2465 0.0000
vt 0.4963 0.2720 0.0000
vt 0.4631 0.2376 0.0000
vt 0.4631 0.2122 0.0000
vt 0.4969 0.2461 0.0000
vt 0.4714 0.2461 0.0000
# 49 texture coords

g polySurface1552
usemtl Atlas_2
s off
f 1/1/1 2/2/1 3/3/1 4/4/1 
f 4/4/2 3/3/2 5/5/2 6/6/2 
f 7/4/3 8/3/3 2/5/3 1/6/3 
f 2/4/4 8/7/4 5/8/4 3/1/4 
f 7/8/5 1/1/5 4/4/5 6/7/5 
f 9/9/6 10/10/6 11/11/7 12/12/7 
f 13/13/8 14/14/8 15/15/9 16/16/9 
f 11/11/10 10/10/10 13/17/10 16/18/10 
f 14/14/5 9/19/5 12/20/5 15/15/5 
f 12/12/7 11/11/7 17/21/11 18/22/11 
f 15/15/5 12/20/5 18/23/5 19/24/5 
f 16/16/9 15/15/9 19/24/12 20/25/12 
f 17/21/4 11/11/10 16/18/10 20/26/4 
f 21/27/1 22/28/1 23/29/1 24/30/1 
f 24/30/2 23/29/2 25/31/2 26/32/2 
f 27/30/3 28/29/3 22/31/3 21/32/3 
f 22/30/4 28/33/4 25/34/4 23/27/4 
f 27/34/5 21/27/5 24/30/5 26/33/5 
f 29/35/13 30/36/13 31/37/13 32/38/13 
f 32/39/14 31/35/14 33/40/14 34/41/14 
f 34/42/15 33/43/15 35/44/15 36/45/15 
f 36/46/16 35/47/16 30/36/16 29/35/16 
f 30/38/17 35/48/17 33/49/17 31/35/17 
f 36/49/18 29/35/18 32/38/18 34/48/18 
# 24 polygons

