# 3ds Max Wavefront OBJ Exporter v0.97b - (c)2007 guruware
# File Created: 04.04.2017 12:12:41

mtllib Spoon_3.mtl

#
# object pCube560
#

v  3.7598 1.3486 -0.7598
v  3.8239 1.3169 1.0000
v  3.6274 1.3486 -0.7598
v  3.5633 1.3169 1.0000
v  3.8239 1.4169 1.0000
v  3.5633 1.4169 1.0000
v  3.7598 1.3853 -0.7598
v  3.6274 1.3853 -0.7598
v  3.4764 1.4271 -1.0000
v  3.4764 1.3068 -1.0000
v  3.8676 1.3068 -1.4036
v  3.6936 1.3068 -1.4613
v  3.8676 1.4271 -1.4036
v  3.6936 1.4271 -1.4613
v  3.9107 1.3068 -1.0000
v  3.9107 1.4271 -1.0000
v  3.4415 1.3068 -1.2155
v  3.9457 1.3068 -1.2155
v  3.4415 1.4271 -1.2155
v  3.9457 1.4271 -1.2155
v  3.5196 1.4271 -1.4036
v  3.5196 1.3068 -1.4036
# 22 vertices

vn 0.0000 -0.9991 0.0420
vn 0.0000 -0.9998 -0.0180
vn 0.0000 -1.0000 0.0093
vn 0.0000 -0.0000 1.0000
vn 0.0000 0.9998 -0.0180
vn 0.0000 1.0000 0.0093
vn 0.0000 0.9991 0.0420
vn 0.9962 -0.0000 0.0871
vn 0.9990 -0.0000 0.0446
vn 0.9993 0.0000 -0.0364
vn -0.9962 -0.0000 0.0871
vn -0.9990 -0.0000 0.0446
vn -0.9993 0.0000 -0.0364
vn -0.8467 -0.0000 0.5320
vn 0.3147 0.0000 -0.9492
vn 0.0000 0.0000 -1.0000
vn 0.8467 -0.0000 0.5320
vn 0.0000 0.9985 0.0549
vn 0.0000 0.9976 0.0687
vn 0.0000 -0.9976 0.0687
vn 0.0000 -0.9985 0.0549
vn 0.0000 -1.0000 -0.0000
vn 0.0000 -1.0000 0.0000
vn -0.9871 -0.0000 0.1603
vn -0.9943 0.0000 -0.1062
vn -0.0000 1.0000 -0.0000
vn 0.0000 1.0000 0.0000
vn 0.9871 -0.0000 0.1603
vn 0.9943 0.0000 -0.1062
vn -0.3147 0.0000 -0.9492
vn 0.0000 1.0000 -0.0000
vn -0.9236 0.0000 -0.3834
vn -0.0000 -1.0000 0.0000
vn -0.0000 -1.0000 -0.0000
vn 0.9236 0.0000 -0.3834
# 35 vertex normals

vt 0.4978 0.8295 0.0000
vt 0.4956 0.7705 0.0000
vt 0.5022 0.8295 0.0000
vt 0.5043 0.7705 0.0000
vt 0.5225 0.8107 0.0000
vt 0.5330 0.8107 0.0000
vt 0.5225 0.8258 0.0000
vt 0.5330 0.8258 0.0000
vt 0.5044 0.7706 0.0000
vt 0.5022 0.8313 0.0000
vt 0.4954 0.7706 0.0000
vt 0.4977 0.8313 0.0000
vt 0.5126 0.7942 0.0000
vt 0.5139 0.7942 0.0000
vt 0.5116 0.8540 0.0000
vt 0.5150 0.8540 0.0000
vt 0.5127 0.7942 0.0000
vt 0.5113 0.7861 0.0000
vt 0.5154 0.7861 0.0000
vt 0.5112 0.7724 0.0000
vt 0.5112 0.7704 0.0000
vt 0.5153 0.7724 0.0000
vt 0.5153 0.7704 0.0000
vt 0.5112 0.7861 0.0000
vt 0.5153 0.7861 0.0000
vt 0.5065 0.8389 0.0000
vt 0.4934 0.8389 0.0000
vt 0.4927 0.8376 0.0000
vt 0.5072 0.8376 0.0000
vt 0.5084 0.8449 0.0000
vt 0.4915 0.8449 0.0000
vt 0.5154 0.7787 0.0000
vt 0.5113 0.7787 0.0000
vt 0.4924 0.8453 0.0000
vt 0.5074 0.8453 0.0000
vt 0.5153 0.7787 0.0000
vt 0.5112 0.7787 0.0000
vt 0.5113 0.7704 0.0000
vt 0.5154 0.7704 0.0000
vt 0.5113 0.7724 0.0000
vt 0.5154 0.7724 0.0000
vt 0.5051 0.8508 0.0000
vt 0.4999 0.8525 0.0000
vt 0.4948 0.8508 0.0000
vt 0.4941 0.8512 0.0000
vt 0.5000 0.8531 0.0000
vt 0.5058 0.8512 0.0000
# 47 texture coords

g pCube560
usemtl Atlas_2
s off
f 1/1/1 2/2/2 3/3/3 
f 3/3/3 2/2/2 4/4/2 
f 2/5/4 5/6/4 4/7/4 
f 4/7/4 5/6/4 6/8/4 
f 5/9/5 7/10/6 6/11/5 
f 6/11/5 7/10/6 8/12/7 
f 1/13/8 7/14/9 2/15/10 
f 2/15/10 7/14/9 5/16/10 
f 8/17/11 3/14/12 6/15/13 
f 6/15/13 3/14/12 4/16/13 
f 9/18/14 10/19/14 8/17/11 
f 8/17/11 10/19/14 3/14/12 
f 11/20/15 12/21/16 13/22/15 
f 13/22/15 12/21/16 14/23/16 
f 15/24/17 16/25/17 1/13/8 
f 1/13/8 16/25/17 7/14/9 
f 7/10/6 16/26/18 8/12/7 
f 8/12/7 16/26/18 9/27/19 
f 15/28/20 1/1/1 10/29/21 
f 10/29/21 1/1/1 3/3/3 
f 17/30/22 18/31/23 10/29/21 
f 10/29/21 18/31/23 15/28/20 
f 10/19/24 9/18/24 17/32/25 
f 17/32/25 9/18/24 19/33/25 
f 9/27/19 16/26/18 19/34/26 
f 19/34/26 16/26/18 20/35/27 
f 16/25/28 15/24/28 20/36/29 
f 20/36/29 15/24/28 18/37/29 
f 14/38/16 12/39/16 21/40/30 
f 21/40/30 12/39/16 22/41/30 
f 20/35/27 13/42/31 19/34/26 
f 13/42/31 14/43/31 19/34/26 
f 14/43/31 21/44/26 19/34/26 
f 17/32/25 19/33/25 22/41/32 
f 22/41/32 19/33/25 21/40/32 
f 18/31/23 17/30/22 11/45/33 
f 11/45/33 17/30/22 12/46/34 
f 12/46/34 17/30/22 22/47/23 
f 20/36/29 18/37/29 13/22/35 
f 13/22/35 18/37/29 11/20/35 
# 0 polygons - 40 triangles

