# 3ds Max Wavefront OBJ Exporter v0.97b - (c)2007 guruware
# File Created: 04.04.2017 12:13:24

mtllib Stairs_1big.mtl

#
# object polySurface1483
#

v  -18.3931 -44.8676 117.6271
v  -14.0147 -44.8676 117.6271
v  -14.8039 -41.8385 118.0101
v  -17.6039 -41.8385 118.0101
v  -17.6039 38.1163 8.1133
v  -14.8039 38.1163 8.1133
v  -14.8039 38.1163 -0.6169
v  -17.6039 38.1163 -0.6169
v  -14.0147 35.0873 -1.0000
v  -18.3931 35.0873 -1.0000
v  -14.0147 35.0873 7.7302
v  -18.3931 35.0873 7.7302
v  -19.0000 -24.1127 66.7063
v  19.0000 -24.1127 66.7063
v  19.0000 -21.9128 66.7063
v  -19.0000 -21.9128 66.7063
v  19.0000 -21.9127 56.7063
v  -19.0000 -21.9127 56.7063
v  19.0000 -24.1127 56.7063
v  -19.0000 -24.1127 56.7063
v  -19.0000 -28.1000 72.0328
v  19.0000 -28.1000 72.0328
v  19.0000 -25.9000 72.0328
v  -19.0000 -25.9000 72.0328
v  19.0000 -25.9000 62.7063
v  -19.0000 -25.9000 62.7063
v  19.0000 -28.1000 62.7063
v  -19.0000 -28.1000 62.7063
v  -19.0000 -32.0000 77.7063
v  19.0000 -32.0000 77.7063
v  19.0000 -29.8000 77.7063
v  -19.0000 -29.8000 77.7063
v  19.0000 -29.8000 67.7063
v  -19.0000 -29.8000 67.7063
v  19.0000 -32.0000 67.7063
v  -19.0000 -32.0000 67.7063
v  -19.0000 -36.0000 82.7063
v  19.0000 -36.0000 82.7063
v  19.0000 -33.8000 82.7063
v  -19.0000 -33.8000 82.7063
v  19.0000 -33.8000 72.7063
v  -19.0000 -33.8000 72.7063
v  19.0000 -36.0000 72.7063
v  -19.0000 -36.0000 72.7063
v  -19.0000 -39.9566 88.4651
v  19.0000 -39.9566 88.4651
v  19.0000 -37.7566 88.4651
v  -19.0000 -37.7566 88.4651
v  19.0000 -37.7566 78.4651
v  -19.0000 -37.7566 78.4651
v  19.0000 -39.9566 78.4651
v  -19.0000 -39.9566 78.4651
v  -19.0000 -43.9439 93.7915
v  19.0000 -43.9439 93.7915
v  19.0000 -41.7439 93.7915
v  -19.0000 -41.7439 93.7915
v  19.0000 -41.7439 84.4651
v  -19.0000 -41.7439 84.4651
v  19.0000 -43.9439 84.4651
v  -19.0000 -43.9439 84.4651
v  -19.0000 -47.8439 99.4651
v  19.0000 -47.8439 99.4651
v  19.0000 -45.6439 99.4651
v  -19.0000 -45.6439 99.4651
v  19.0000 -45.6439 89.4651
v  -19.0000 -45.6439 89.4651
v  19.0000 -47.8439 89.4651
v  -19.0000 -47.8439 89.4651
v  -19.0000 -51.8439 104.4651
v  19.0000 -51.8439 104.4651
v  19.0000 -49.6439 104.4651
v  -19.0000 -49.6439 104.4651
v  19.0000 -49.6439 94.4651
v  -19.0000 -49.6439 94.4651
v  19.0000 -51.8439 94.4651
v  -19.0000 -51.8439 94.4651
v  -19.0000 -56.0127 110.0000
v  19.0000 -56.0127 110.0000
v  19.0000 -53.8128 110.0000
v  -19.0000 -53.8128 110.0000
v  19.0000 -53.8128 100.0000
v  -19.0000 -53.8128 100.0000
v  19.0000 -56.0127 100.0000
v  -19.0000 -56.0127 100.0000
v  -19.0000 -60.0000 115.3265
v  19.0000 -60.0000 115.3265
v  19.0000 -57.8000 115.3265
v  -19.0000 -57.8000 115.3265
v  19.0000 -57.8000 106.0000
v  -19.0000 -57.8000 106.0000
v  19.0000 -60.0000 106.0000
v  -19.0000 -60.0000 106.0000
v  -17.2039 -57.8000 114.5295
v  -15.2039 -57.8000 114.5295
v  -15.2039 -41.8090 114.5295
v  -17.2039 -41.8090 114.5295
v  -17.2039 -40.8476 112.5295
v  -15.2039 -40.8476 112.5295
v  -15.2039 -57.8000 112.5295
v  -17.2039 -57.8000 112.5295
v  -17.2039 -49.6439 103.8862
v  -15.2039 -49.6439 103.8862
v  -15.2039 -34.0890 103.8862
v  -17.2039 -34.0890 103.8862
v  -17.2039 -33.1275 101.8862
v  -15.2039 -33.1275 101.8862
v  -15.2039 -49.6439 101.8862
v  -17.2039 -49.6439 101.8862
v  -17.2039 -41.7439 93.1548
v  -15.2039 -41.7439 93.1548
v  -15.2039 -26.1889 93.1548
v  -17.2039 -26.1889 93.1548
v  -17.2039 -25.2275 91.1548
v  -15.2039 -25.2275 91.1548
v  -15.2039 -41.7439 91.1548
v  -17.2039 -41.7439 91.1548
v  -17.2039 -33.8000 82.0053
v  -15.2039 -33.8000 82.0053
v  -15.2039 -18.2054 82.0053
v  -17.2039 -18.2054 82.0053
v  -17.2039 -17.2440 80.0053
v  -15.2039 -17.2440 80.0053
v  -15.2039 -33.8000 80.0053
v  -17.2039 -33.8000 80.0053
v  -17.2039 -25.9000 71.2321
v  -15.2039 -25.9000 71.2321
v  -15.2039 -10.3686 71.2321
v  -17.2039 -10.3686 71.2321
v  -17.2039 -9.4071 69.2321
v  -15.2039 -9.4071 69.2321
v  -15.2039 -25.9000 69.2321
v  -17.2039 -25.9000 69.2321
v  -17.2039 -17.8000 61.0000
v  -15.2039 -17.8000 61.0000
v  -15.2039 -2.8000 61.0000
v  -17.2039 -2.8000 61.0000
v  -17.2039 -1.8386 59.0000
v  -15.2039 -1.8386 59.0000
v  -15.2039 -17.8000 59.0000
v  -17.2039 -17.8000 59.0000
v  -17.2039 -9.9000 49.9055
v  -15.2039 -9.9000 49.9055
v  -15.2039 5.1000 49.9055
v  -17.2039 5.1000 49.9055
v  -17.2039 6.3591 47.9055
v  -15.2039 6.3591 47.9055
v  -15.2039 -9.9000 47.9055
v  -17.2039 -9.9000 47.9055
v  -17.2039 -2.2557 39.9648
v  -15.2039 -2.2557 39.9648
v  -15.2039 12.7443 39.9648
v  -17.2039 12.7443 39.9648
v  -17.2039 13.6133 37.9648
v  -15.2039 13.6133 37.9648
v  -15.2039 -2.2557 37.9648
v  -17.2039 -2.2557 37.9648
v  -17.2039 5.3406 29.9321
v  -15.2039 5.3406 29.9321
v  -15.2039 20.3406 29.9321
v  -17.2039 20.3406 29.9321
v  -17.2039 20.6406 27.9321
v  -15.2039 20.6406 27.9321
v  -15.2039 5.3406 27.9321
v  -17.2039 5.3406 27.9321
v  -17.2039 13.0327 19.3198
v  -15.2039 13.0327 19.3198
v  -15.2039 28.0327 19.3198
v  -17.2039 28.0327 19.3198
v  -17.2039 28.2888 17.3198
v  -15.2039 28.2888 17.3198
v  -15.2039 13.0327 17.3198
v  -17.2039 13.0327 17.3198
v  -17.2039 20.0872 7.1277
v  -15.2039 20.0872 7.1277
v  -15.2039 35.0872 7.1277
v  -17.2039 35.0872 7.1277
v  -17.2039 35.0872 5.1277
v  -15.2039 35.0872 5.1277
v  -15.2039 20.0872 5.1277
v  -17.2039 20.0872 5.1277
v  -19.0000 17.8873 9.0000
v  19.0000 17.8873 9.0000
v  19.0000 20.0872 9.0000
v  -19.0000 20.0872 9.0000
v  19.0000 20.0872 -1.0000
v  -19.0000 20.0872 -1.0000
v  19.0000 17.8873 -1.0000
v  -19.0000 17.8873 -1.0000
v  -19.0000 14.4000 15.0000
v  19.0000 14.4000 15.0000
v  19.0000 16.6000 15.0000
v  -19.0000 16.6000 15.0000
v  19.0000 16.6000 5.0000
v  -19.0000 16.6000 5.0000
v  19.0000 14.4000 5.0000
v  -19.0000 14.4000 5.0000
v  -19.0000 10.8327 20.0000
v  19.0000 10.8327 20.0000
v  19.0000 13.0327 20.0000
v  -19.0000 13.0327 20.0000
v  19.0000 13.0327 10.0000
v  -19.0000 13.0327 10.0000
v  19.0000 10.8327 10.0000
v  -19.0000 10.8327 10.0000
v  -19.0000 7.1279 25.0000
v  19.0000 7.1279 25.0000
v  19.0000 9.3279 25.0000
v  -19.0000 9.3279 25.0000
v  19.0000 9.3279 15.0000
v  -19.0000 9.3279 15.0000
v  19.0000 7.1279 15.0000
v  -19.0000 7.1279 15.0000
v  -19.0000 3.1406 30.7306
v  19.0000 3.1406 30.7306
v  19.0000 5.3406 30.7306
v  -19.0000 5.3406 30.7306
v  19.0000 5.3406 21.0000
v  -19.0000 5.3406 21.0000
v  19.0000 3.1406 21.0000
v  -19.0000 3.1406 21.0000
v  -19.0000 -0.7594 36.0000
v  19.0000 -0.7594 36.0000
v  19.0000 1.4406 36.0000
v  -19.0000 1.4406 36.0000
v  19.0000 1.4406 26.0000
v  -19.0000 1.4406 26.0000
v  19.0000 -0.7594 26.0000
v  -19.0000 -0.7594 26.0000
v  -19.0000 -4.4557 40.9523
v  19.0000 -4.4557 40.9523
v  19.0000 -2.2557 40.9523
v  -19.0000 -2.2557 40.9523
v  19.0000 -2.2557 30.9523
v  -19.0000 -2.2557 30.9523
v  19.0000 -4.4557 30.9523
v  -19.0000 -4.4557 30.9523
v  -19.0000 -8.1128 45.5874
v  19.0000 -8.1128 45.5874
v  19.0000 -5.9128 45.5874
v  -19.0000 -5.9128 45.5874
v  19.0000 -5.9128 35.5874
v  -19.0000 -5.9128 35.5874
v  19.0000 -8.1128 35.5874
v  -19.0000 -8.1128 35.5874
v  -19.0000 -12.1000 50.9139
v  19.0000 -12.1000 50.9139
v  19.0000 -9.9000 50.9139
v  -19.0000 -9.9000 50.9139
v  19.0000 -9.9000 41.5874
v  -19.0000 -9.9000 41.5874
v  19.0000 -12.1000 41.5874
v  -19.0000 -12.1000 41.5874
v  -19.0000 -16.0000 56.5874
v  19.0000 -16.0000 56.5874
v  19.0000 -13.8000 56.5874
v  -19.0000 -13.8000 56.5874
v  19.0000 -13.8000 46.5874
v  -19.0000 -13.8000 46.5874
v  19.0000 -16.0000 46.5874
v  -19.0000 -16.0000 46.5874
v  -19.0000 -20.0000 61.5874
v  19.0000 -20.0000 61.5874
v  19.0000 -17.8000 61.5874
v  -19.0000 -17.8000 61.5874
v  19.0000 -17.8000 51.5874
v  -19.0000 -17.8000 51.5874
v  19.0000 -20.0000 51.5874
v  -19.0000 -20.0000 51.5874
v  14.0108 -46.0453 117.2440
v  18.3892 -46.0453 117.2440
v  17.6000 -43.0162 117.6271
v  14.8000 -43.0162 117.6271
v  14.8000 36.9386 7.7302
v  17.6000 36.9386 7.7302
v  17.6000 36.9386 -1.0000
v  14.8000 36.9386 -1.0000
v  18.3892 33.9095 -1.3831
v  14.0108 33.9095 -1.3831
v  18.3892 33.9095 7.3471
v  14.0108 33.9095 7.3471
v  15.2000 -58.9777 114.1464
v  17.2000 -58.9777 114.1464
v  17.2000 -42.9867 114.1464
v  15.2000 -42.9867 114.1464
v  15.2000 -42.0253 112.1464
v  17.2000 -42.0253 112.1464
v  17.2000 -58.9777 112.1464
v  15.2000 -58.9777 112.1464
v  15.2000 -50.8216 103.5031
v  17.2000 -50.8216 103.5031
v  17.2000 -35.2667 103.5031
v  15.2000 -35.2667 103.5031
v  15.2000 -34.3052 101.5031
v  17.2000 -34.3052 101.5031
v  17.2000 -50.8216 101.5031
v  15.2000 -50.8216 101.5031
v  15.2000 -42.9216 92.7718
v  17.2000 -42.9216 92.7718
v  17.2000 -27.3666 92.7718
v  15.2000 -27.3666 92.7718
v  15.2000 -26.4052 90.7718
v  17.2000 -26.4052 90.7718
v  17.2000 -42.9216 90.7718
v  15.2000 -42.9216 90.7718
v  15.2000 -34.9777 81.6222
v  17.2000 -34.9777 81.6222
v  17.2000 -19.3831 81.6222
v  15.2000 -19.3831 81.6222
v  15.2000 -18.4217 79.6222
v  17.2000 -18.4217 79.6222
v  17.2000 -34.9777 79.6222
v  15.2000 -34.9777 79.6222
v  15.2000 -27.0777 70.8490
v  17.2000 -27.0777 70.8490
v  17.2000 -11.5463 70.8490
v  15.2000 -11.5463 70.8490
v  15.2000 -10.5848 68.8490
v  17.2000 -10.5848 68.8490
v  17.2000 -27.0777 68.8490
v  15.2000 -27.0777 68.8490
v  15.2000 -18.9777 60.6169
v  17.2000 -18.9777 60.6169
v  17.2000 -3.9777 60.6169
v  15.2000 -3.9777 60.6169
v  15.2000 -3.0163 58.6169
v  17.2000 -3.0163 58.6169
v  17.2000 -18.9777 58.6169
v  15.2000 -18.9777 58.6169
v  15.2000 -11.0777 49.5224
v  17.2000 -11.0777 49.5224
v  17.2000 3.9223 49.5224
v  15.2000 3.9223 49.5224
v  15.2000 5.1814 47.5224
v  17.2000 5.1814 47.5224
v  17.2000 -11.0777 47.5224
v  15.2000 -11.0777 47.5224
v  15.2000 -3.4334 39.5817
v  17.2000 -3.4334 39.5817
v  17.2000 11.5666 39.5817
v  15.2000 11.5666 39.5817
v  15.2000 12.4356 37.5817
v  17.2000 12.4356 37.5817
v  17.2000 -3.4334 37.5817
v  15.2000 -3.4334 37.5817
v  15.2000 4.1629 29.5490
v  17.2000 4.1629 29.5490
v  17.2000 19.1629 29.5490
v  15.2000 19.1629 29.5490
v  15.2000 19.4629 27.5490
v  17.2000 19.4629 27.5490
v  17.2000 4.1629 27.5490
v  15.2000 4.1629 27.5490
v  15.2000 11.8550 18.9367
v  17.2000 11.8550 18.9367
v  17.2000 26.8550 18.9367
v  15.2000 26.8550 18.9367
v  15.2000 27.1111 16.9367
v  17.2000 27.1111 16.9367
v  17.2000 11.8550 16.9367
v  15.2000 11.8550 16.9367
v  15.2000 18.9095 6.7446
v  17.2000 18.9095 6.7446
v  17.2000 33.9095 6.7446
v  15.2000 33.9095 6.7446
v  15.2000 33.9095 4.7446
v  17.2000 33.9095 4.7446
v  17.2000 18.9095 4.7446
v  15.2000 18.9095 4.7446
# 368 vertices

vn 0.0000 -0.1255 0.9921
vn 0.0000 1.0000 0.0000
vn 0.0000 0.1255 -0.9921
vn 0.0000 -1.0000 -0.0000
vn 0.9603 0.2303 0.1573
vn 0.9677 0.2521 0.0000
vn 0.9610 0.2311 0.1520
vn -0.9677 0.2521 0.0000
vn -0.9603 0.2303 0.1573
vn -0.9610 0.2311 0.1520
vn 0.0000 -0.8086 -0.5883
vn 0.9591 0.2288 0.1665
vn 0.0000 0.8086 0.5883
vn -0.9591 0.2288 0.1665
vn 0.0000 -0.0000 1.0000
vn 0.0000 0.0000 -1.0000
vn 1.0000 0.0000 -0.0000
vn -1.0000 0.0000 -0.0000
# 18 vertex normals

vt 0.1095 0.7522 0.0000
vt 0.1240 0.7522 0.0000
vt 0.1201 0.7551 0.0000
vt 0.1134 0.7551 0.0000
vt 0.1133 0.9273 0.0000
vt 0.1202 0.9273 0.0000
vt 0.1202 0.9475 0.0000
vt 0.1132 0.9474 0.0000
vt 0.1181 0.9542 0.0000
vt 0.1252 0.9473 0.0000
vt 0.1221 0.9571 0.0000
vt 0.1083 0.9471 0.0000
vt 0.0984 0.9467 0.0000
vt 0.0994 0.9248 0.0000
vt 0.1093 0.9249 0.0000
vt 0.1242 0.9248 0.0000
vt 0.0997 0.7522 0.0000
vt 0.0005 0.9505 0.0000
vt 0.0005 0.8434 0.0000
vt 0.0067 0.8434 0.0000
vt 0.0067 0.9505 0.0000
vt 0.0349 0.8434 0.0000
vt 0.0349 0.9505 0.0000
vt 0.0067 0.8372 0.0000
vt 0.0349 0.8372 0.0000
vt 0.0349 0.9567 0.0000
vt 0.0067 0.9567 0.0000
vt 0.0005 0.8650 0.0000
vt 0.0005 0.7579 0.0000
vt 0.0067 0.7579 0.0000
vt 0.0067 0.8650 0.0000
vt 0.0349 0.7579 0.0000
vt 0.0349 0.8650 0.0000
vt 0.0067 0.7517 0.0000
vt 0.0349 0.7517 0.0000
vt 0.0349 0.8712 0.0000
vt 0.0067 0.8712 0.0000
vt 0.0897 0.8134 0.0000
vt 0.0814 0.8134 0.0000
vt 0.0814 0.7507 0.0000
vt 0.0897 0.7507 0.0000
vt 0.0647 0.7507 0.0000
vt 0.0730 0.7507 0.0000
vt 0.0730 0.8134 0.0000
vt 0.0647 0.8134 0.0000
vt 0.0981 0.8134 0.0000
vt 0.0981 0.7507 0.0000
vt 0.0260 0.9505 0.0000
vt 0.0260 0.8434 0.0000
vt 0.0322 0.8434 0.0000
vt 0.0322 0.9505 0.0000
vt 0.0604 0.8434 0.0000
vt 0.0604 0.9505 0.0000
vt 0.0322 0.8372 0.0000
vt 0.0604 0.8372 0.0000
vt 0.0604 0.9567 0.0000
vt 0.0322 0.9567 0.0000
vt 0.0603 0.7566 0.0000
vt 0.0603 0.8638 0.0000
vt 0.0541 0.8638 0.0000
vt 0.0541 0.7566 0.0000
vt 0.0259 0.8638 0.0000
vt 0.0259 0.7566 0.0000
vt 0.0541 0.8700 0.0000
vt 0.0259 0.8700 0.0000
vt 0.0259 0.7504 0.0000
vt 0.0541 0.7504 0.0000
vt 0.0217 0.8658 0.0000
vt 0.0217 0.7587 0.0000
vt 0.0279 0.7587 0.0000
vt 0.0279 0.8658 0.0000
vt 0.0561 0.7587 0.0000
vt 0.0561 0.8658 0.0000
vt 0.0279 0.7525 0.0000
vt 0.0561 0.7525 0.0000
vt 0.0561 0.8720 0.0000
vt 0.0279 0.8720 0.0000
vt 0.0380 0.7566 0.0000
vt 0.0380 0.8638 0.0000
vt 0.0318 0.8638 0.0000
vt 0.0318 0.7566 0.0000
vt 0.0036 0.8638 0.0000
vt 0.0036 0.7566 0.0000
vt 0.0318 0.8700 0.0000
vt 0.0036 0.8700 0.0000
vt 0.0036 0.7504 0.0000
vt 0.0318 0.7504 0.0000
# 87 texture coords

g polySurface1483
usemtl Atlas_2
s off
f 1/1/1 2/2/1 3/3/1 4/4/1 
f 5/5/2 6/6/2 7/7/2 8/8/2 
f 8/9/3 7/7/3 9/10/3 10/11/3 
f 10/12/4 9/13/4 11/14/4 12/15/4 
f 11/16/5 9/10/6 7/7/6 6/6/7 
f 10/12/8 12/15/9 5/5/10 8/8/8 
f 12/15/11 11/14/11 2/17/11 1/1/11 
f 11/16/5 6/6/7 3/3/12 2/2/12 
f 6/6/13 5/5/13 4/4/13 3/3/13 
f 4/4/14 5/5/10 12/15/9 1/1/14 
f 13/18/15 14/19/15 15/20/15 16/21/15 
f 16/21/2 15/20/2 17/22/2 18/23/2 
f 18/18/16 17/19/16 19/20/16 20/21/16 
f 20/21/4 19/20/4 14/22/4 13/23/4 
f 14/24/17 19/25/17 17/22/17 15/20/17 
f 20/21/18 13/23/18 16/26/18 18/27/18 
f 21/28/15 22/29/15 23/30/15 24/31/15 
f 24/31/2 23/30/2 25/32/2 26/33/2 
f 26/28/16 25/29/16 27/30/16 28/31/16 
f 28/31/4 27/30/4 22/32/4 21/33/4 
f 22/34/17 27/35/17 25/32/17 23/30/17 
f 28/31/18 21/33/18 24/36/18 26/37/18 
f 29/18/15 30/19/15 31/20/15 32/21/15 
f 32/21/2 31/20/2 33/22/2 34/23/2 
f 34/18/16 33/19/16 35/20/16 36/21/16 
f 36/21/4 35/20/4 30/22/4 29/23/4 
f 30/24/17 35/25/17 33/22/17 31/20/17 
f 36/21/18 29/23/18 32/26/18 34/27/18 
f 37/28/15 38/29/15 39/30/15 40/31/15 
f 40/31/2 39/30/2 41/32/2 42/33/2 
f 42/28/16 41/29/16 43/30/16 44/31/16 
f 44/31/4 43/30/4 38/32/4 37/33/4 
f 38/34/17 43/35/17 41/32/17 39/30/17 
f 44/31/18 37/33/18 40/36/18 42/37/18 
f 45/18/15 46/19/15 47/20/15 48/21/15 
f 48/21/2 47/20/2 49/22/2 50/23/2 
f 50/18/16 49/19/16 51/20/16 52/21/16 
f 52/21/4 51/20/4 46/22/4 45/23/4 
f 46/24/17 51/25/17 49/22/17 47/20/17 
f 52/21/18 45/23/18 48/26/18 50/27/18 
f 53/28/15 54/29/15 55/30/15 56/31/15 
f 56/31/2 55/30/2 57/32/2 58/33/2 
f 58/28/16 57/29/16 59/30/16 60/31/16 
f 60/31/4 59/30/4 54/32/4 53/33/4 
f 54/34/17 59/35/17 57/32/17 55/30/17 
f 60/31/18 53/33/18 56/36/18 58/37/18 
f 61/18/15 62/19/15 63/20/15 64/21/15 
f 64/21/2 63/20/2 65/22/2 66/23/2 
f 66/18/16 65/19/16 67/20/16 68/21/16 
f 68/21/4 67/20/4 62/22/4 61/23/4 
f 62/24/17 67/25/17 65/22/17 63/20/17 
f 68/21/18 61/23/18 64/26/18 66/27/18 
f 69/28/15 70/29/15 71/30/15 72/31/15 
f 72/31/2 71/30/2 73/32/2 74/33/2 
f 74/28/16 73/29/16 75/30/16 76/31/16 
f 76/31/4 75/30/4 70/32/4 69/33/4 
f 70/34/17 75/35/17 73/32/17 71/30/17 
f 76/31/18 69/33/18 72/36/18 74/37/18 
f 77/18/15 78/19/15 79/20/15 80/21/15 
f 80/21/2 79/20/2 81/22/2 82/23/2 
f 82/18/16 81/19/16 83/20/16 84/21/16 
f 84/21/4 83/20/4 78/22/4 77/23/4 
f 78/24/17 83/25/17 81/22/17 79/20/17 
f 84/21/18 77/23/18 80/26/18 82/27/18 
f 85/28/15 86/29/15 87/30/15 88/31/15 
f 88/31/2 87/30/2 89/32/2 90/33/2 
f 90/28/16 89/29/16 91/30/16 92/31/16 
f 92/31/4 91/30/4 86/32/4 85/33/4 
f 86/34/17 91/35/17 89/32/17 87/30/17 
f 92/31/18 85/33/18 88/36/18 90/37/18 
f 93/38/15 94/39/15 95/40/15 96/41/15 
f 97/42/16 98/43/16 99/44/16 100/45/16 
f 94/39/17 99/44/17 98/43/17 95/40/17 
f 100/46/18 93/38/18 96/41/18 97/47/18 
f 101/38/15 102/39/15 103/40/15 104/41/15 
f 105/42/16 106/43/16 107/44/16 108/45/16 
f 102/39/17 107/44/17 106/43/17 103/40/17 
f 108/46/18 101/38/18 104/41/18 105/47/18 
f 109/38/15 110/39/15 111/40/15 112/41/15 
f 113/42/16 114/43/16 115/44/16 116/45/16 
f 110/39/17 115/44/17 114/43/17 111/40/17 
f 116/46/18 109/38/18 112/41/18 113/47/18 
f 117/38/15 118/39/15 119/40/15 120/41/15 
f 121/42/16 122/43/16 123/44/16 124/45/16 
f 118/39/17 123/44/17 122/43/17 119/40/17 
f 124/46/18 117/38/18 120/41/18 121/47/18 
f 125/38/15 126/39/15 127/40/15 128/41/15 
f 129/42/16 130/43/16 131/44/16 132/45/16 
f 126/39/17 131/44/17 130/43/17 127/40/17 
f 132/46/18 125/38/18 128/41/18 129/47/18 
f 133/38/15 134/39/15 135/40/15 136/41/15 
f 137/42/16 138/43/16 139/44/16 140/45/16 
f 134/39/17 139/44/17 138/43/17 135/40/17 
f 140/46/18 133/38/18 136/41/18 137/47/18 
f 141/38/15 142/39/15 143/40/15 144/41/15 
f 145/42/16 146/43/16 147/44/16 148/45/16 
f 142/39/17 147/44/17 146/43/17 143/40/17 
f 148/46/18 141/38/18 144/41/18 145/47/18 
f 149/38/15 150/39/15 151/40/15 152/41/15 
f 153/42/16 154/43/16 155/44/16 156/45/16 
f 150/39/17 155/44/17 154/43/17 151/40/17 
f 156/46/18 149/38/18 152/41/18 153/47/18 
f 157/38/15 158/39/15 159/40/15 160/41/15 
f 161/42/16 162/43/16 163/44/16 164/45/16 
f 158/39/17 163/44/17 162/43/17 159/40/17 
f 164/46/18 157/38/18 160/41/18 161/47/18 
f 165/38/15 166/39/15 167/40/15 168/41/15 
f 169/42/16 170/43/16 171/44/16 172/45/16 
f 166/39/17 171/44/17 170/43/17 167/40/17 
f 172/46/18 165/38/18 168/41/18 169/47/18 
f 173/38/15 174/39/15 175/40/15 176/41/15 
f 177/42/16 178/43/16 179/44/16 180/45/16 
f 174/39/17 179/44/17 178/43/17 175/40/17 
f 180/46/18 173/38/18 176/41/18 177/47/18 
f 181/18/15 182/19/15 183/20/15 184/21/15 
f 184/21/2 183/20/2 185/22/2 186/23/2 
f 186/18/16 185/19/16 187/20/16 188/21/16 
f 188/21/4 187/20/4 182/22/4 181/23/4 
f 182/24/17 187/25/17 185/22/17 183/20/17 
f 188/21/18 181/23/18 184/26/18 186/27/18 
f 189/28/15 190/29/15 191/30/15 192/31/15 
f 192/31/2 191/30/2 193/32/2 194/33/2 
f 194/28/16 193/29/16 195/30/16 196/31/16 
f 196/31/4 195/30/4 190/32/4 189/33/4 
f 190/34/17 195/35/17 193/32/17 191/30/17 
f 196/31/18 189/33/18 192/36/18 194/37/18 
f 197/18/15 198/19/15 199/20/15 200/21/15 
f 200/21/2 199/20/2 201/22/2 202/23/2 
f 202/18/16 201/19/16 203/20/16 204/21/16 
f 204/21/4 203/20/4 198/22/4 197/23/4 
f 198/24/17 203/25/17 201/22/17 199/20/17 
f 204/21/18 197/23/18 200/26/18 202/27/18 
f 205/28/15 206/29/15 207/30/15 208/31/15 
f 208/31/2 207/30/2 209/32/2 210/33/2 
f 210/28/16 209/29/16 211/30/16 212/31/16 
f 212/31/4 211/30/4 206/32/4 205/33/4 
f 206/34/17 211/35/17 209/32/17 207/30/17 
f 212/31/18 205/33/18 208/36/18 210/37/18 
f 213/48/15 214/49/15 215/50/15 216/51/15 
f 216/51/2 215/50/2 217/52/2 218/53/2 
f 218/48/16 217/49/16 219/50/16 220/51/16 
f 220/51/4 219/50/4 214/52/4 213/53/4 
f 214/54/17 219/55/17 217/52/17 215/50/17 
f 220/51/18 213/53/18 216/56/18 218/57/18 
f 221/58/15 222/59/15 223/60/15 224/61/15 
f 224/61/2 223/60/2 225/62/2 226/63/2 
f 226/58/16 225/59/16 227/60/16 228/61/16 
f 228/61/4 227/60/4 222/62/4 221/63/4 
f 222/64/17 227/65/17 225/62/17 223/60/17 
f 228/61/18 221/63/18 224/66/18 226/67/18 
f 229/68/15 230/69/15 231/70/15 232/71/15 
f 232/71/2 231/70/2 233/72/2 234/73/2 
f 234/68/16 233/69/16 235/70/16 236/71/16 
f 236/71/4 235/70/4 230/72/4 229/73/4 
f 230/74/17 235/75/17 233/72/17 231/70/17 
f 236/71/18 229/73/18 232/76/18 234/77/18 
f 237/18/15 238/19/15 239/20/15 240/21/15 
f 240/21/2 239/20/2 241/22/2 242/23/2 
f 242/18/16 241/19/16 243/20/16 244/21/16 
f 244/21/4 243/20/4 238/22/4 237/23/4 
f 238/24/17 243/25/17 241/22/17 239/20/17 
f 244/21/18 237/23/18 240/26/18 242/27/18 
f 245/28/15 246/29/15 247/30/15 248/31/15 
f 248/31/2 247/30/2 249/32/2 250/33/2 
f 250/28/16 249/29/16 251/30/16 252/31/16 
f 252/31/4 251/30/4 246/32/4 245/33/4 
f 246/34/17 251/35/17 249/32/17 247/30/17 
f 252/31/18 245/33/18 248/36/18 250/37/18 
f 253/18/15 254/19/15 255/20/15 256/21/15 
f 256/21/2 255/20/2 257/22/2 258/23/2 
f 258/18/16 257/19/16 259/20/16 260/21/16 
f 260/21/4 259/20/4 254/22/4 253/23/4 
f 254/24/17 259/25/17 257/22/17 255/20/17 
f 260/21/18 253/23/18 256/26/18 258/27/18 
f 261/78/15 262/79/15 263/80/15 264/81/15 
f 264/81/2 263/80/2 265/82/2 266/83/2 
f 266/78/16 265/79/16 267/80/16 268/81/16 
f 268/81/4 267/80/4 262/82/4 261/83/4 
f 262/84/17 267/85/17 265/82/17 263/80/17 
f 268/81/18 261/83/18 264/86/18 266/87/18 
f 269/1/1 270/2/1 271/3/1 272/4/1 
f 273/5/2 274/6/2 275/7/2 276/8/2 
f 276/9/3 275/7/3 277/10/3 278/11/3 
f 278/12/4 277/13/4 279/14/4 280/15/4 
f 279/16/5 277/10/6 275/7/6 274/6/7 
f 278/12/8 280/15/9 273/5/10 276/8/8 
f 280/15/11 279/14/11 270/17/11 269/1/11 
f 279/16/5 274/6/7 271/3/12 270/2/12 
f 274/6/13 273/5/13 272/4/13 271/3/13 
f 272/4/14 273/5/10 280/15/9 269/1/14 
f 281/38/15 282/39/15 283/40/15 284/41/15 
f 285/42/16 286/43/16 287/44/16 288/45/16 
f 282/39/17 287/44/17 286/43/17 283/40/17 
f 288/46/18 281/38/18 284/41/18 285/47/18 
f 289/38/15 290/39/15 291/40/15 292/41/15 
f 293/42/16 294/43/16 295/44/16 296/45/16 
f 290/39/17 295/44/17 294/43/17 291/40/17 
f 296/46/18 289/38/18 292/41/18 293/47/18 
f 297/38/15 298/39/15 299/40/15 300/41/15 
f 301/42/16 302/43/16 303/44/16 304/45/16 
f 298/39/17 303/44/17 302/43/17 299/40/17 
f 304/46/18 297/38/18 300/41/18 301/47/18 
f 305/38/15 306/39/15 307/40/15 308/41/15 
f 309/42/16 310/43/16 311/44/16 312/45/16 
f 306/39/17 311/44/17 310/43/17 307/40/17 
f 312/46/18 305/38/18 308/41/18 309/47/18 
f 313/38/15 314/39/15 315/40/15 316/41/15 
f 317/42/16 318/43/16 319/44/16 320/45/16 
f 314/39/17 319/44/17 318/43/17 315/40/17 
f 320/46/18 313/38/18 316/41/18 317/47/18 
f 321/38/15 322/39/15 323/40/15 324/41/15 
f 325/42/16 326/43/16 327/44/16 328/45/16 
f 322/39/17 327/44/17 326/43/17 323/40/17 
f 328/46/18 321/38/18 324/41/18 325/47/18 
f 329/38/15 330/39/15 331/40/15 332/41/15 
f 333/42/16 334/43/16 335/44/16 336/45/16 
f 330/39/17 335/44/17 334/43/17 331/40/17 
f 336/46/18 329/38/18 332/41/18 333/47/18 
f 337/38/15 338/39/15 339/40/15 340/41/15 
f 341/42/16 342/43/16 343/44/16 344/45/16 
f 338/39/17 343/44/17 342/43/17 339/40/17 
f 344/46/18 337/38/18 340/41/18 341/47/18 
f 345/38/15 346/39/15 347/40/15 348/41/15 
f 349/42/16 350/43/16 351/44/16 352/45/16 
f 346/39/17 351/44/17 350/43/17 347/40/17 
f 352/46/18 345/38/18 348/41/18 349/47/18 
f 353/38/15 354/39/15 355/40/15 356/41/15 
f 357/42/16 358/43/16 359/44/16 360/45/16 
f 354/39/17 359/44/17 358/43/17 355/40/17 
f 360/46/18 353/38/18 356/41/18 357/47/18 
f 361/38/15 362/39/15 363/40/15 364/41/15 
f 365/42/16 366/43/16 367/44/16 368/45/16 
f 362/39/17 367/44/17 366/43/17 363/40/17 
f 368/46/18 361/38/18 364/41/18 365/47/18 
# 234 polygons

