# 3ds Max Wavefront OBJ Exporter v0.97b - (c)2007 guruware
# File Created: 04.04.2017 12:13:57

mtllib Stool_1A.mtl

#
# object polySurface1509
#

v  2.0000 -8.9250 -2.0000
v  2.8000 -8.9250 -2.0000
v  2.8000 -0.4250 -2.0000
v  2.0000 -0.4250 -2.0000
v  2.8000 -0.4250 -2.8000
v  2.0000 -0.4250 -2.8000
v  2.8000 -8.9250 -2.8000
v  2.0000 -8.9250 -2.8000
v  2.0000 -8.9250 2.8000
v  2.8000 -8.9250 2.8000
v  2.8000 -0.4250 2.8000
v  2.0000 -0.4250 2.8000
v  2.8000 -0.4250 2.0000
v  2.0000 -0.4250 2.0000
v  2.8000 -8.9250 2.0000
v  2.0000 -8.9250 2.0000
v  -2.8000 -8.9250 2.8000
v  -2.0000 -8.9250 2.8000
v  -2.0000 -0.4250 2.8000
v  -2.8000 -0.4250 2.8000
v  -2.0000 -0.4250 2.0000
v  -2.8000 -0.4250 2.0000
v  -2.0000 -8.9250 2.0000
v  -2.8000 -8.9250 2.0000
v  -2.8000 -8.9250 -2.0000
v  -2.0000 -8.9250 -2.0000
v  -2.0000 -0.4250 -2.0000
v  -2.8000 -0.4250 -2.0000
v  -2.0000 -0.4250 -2.8000
v  -2.8000 -0.4250 -2.8000
v  -2.0000 -8.9250 -2.8000
v  -2.8000 -8.9250 -2.8000
v  -2.7200 -4.9950 -2.1029
v  -2.0800 -4.9950 -2.1029
v  -2.0800 -4.9950 2.2028
v  -2.7200 -4.9950 2.2028
v  -2.0800 -4.3550 2.2028
v  -2.7200 -4.3550 2.2028
v  -2.0800 -4.3550 -2.1029
v  -2.7200 -4.3550 -2.1029
v  2.0800 -4.9950 -2.1029
v  2.7200 -4.9950 -2.1029
v  2.7200 -4.9950 2.2028
v  2.0800 -4.9950 2.2028
v  2.7200 -4.3550 2.2028
v  2.0800 -4.3550 2.2028
v  2.7200 -4.3550 -2.1029
v  2.0800 -4.3550 -2.1029
v  -2.1029 -6.5228 -2.0800
v  -2.1029 -6.5228 -2.7200
v  2.2028 -6.5228 -2.7200
v  2.2028 -6.5228 -2.0800
v  2.2028 -5.8828 -2.7200
v  2.2028 -5.8828 -2.0800
v  -2.1029 -5.8828 -2.7200
v  -2.1029 -5.8828 -2.0800
v  -2.1029 -6.5228 2.7200
v  -2.1029 -6.5228 2.0800
v  2.2028 -6.5228 2.0800
v  2.2028 -6.5228 2.7200
v  2.2028 -5.8828 2.0800
v  2.2028 -5.8828 2.7200
v  -2.1029 -5.8828 2.0800
v  -2.1029 -5.8828 2.7200
v  -3.0000 0.4250 3.0000
v  3.0000 0.4250 3.0000
v  3.0000 0.4250 -3.0000
v  -3.0000 0.4250 -3.0000
v  -3.0000 -0.4250 3.0000
v  3.0000 -0.4250 3.0000
v  3.0000 -0.4250 -3.0000
v  -3.0000 -0.4250 -3.0000
# 72 vertices

vn 0.0000 -0.0000 1.0000
vn 0.0000 1.0000 0.0000
vn 0.0000 0.0000 -1.0000
vn 0.0000 -1.0000 -0.0000
vn 1.0000 0.0000 -0.0000
vn -1.0000 0.0000 -0.0000
# 6 vertex normals

vt 0.6961 0.9371 0.0000
vt 0.6961 0.9142 0.0000
vt 0.9392 0.9142 0.0000
vt 0.9392 0.9371 0.0000
vt 0.8245 0.8919 0.0000
vt 0.9183 0.8919 0.0000
vt 0.9183 0.9857 0.0000
vt 0.8245 0.9857 0.0000
vt 0.7233 0.8919 0.0000
vt 0.8170 0.8919 0.0000
vt 0.8170 0.9857 0.0000
vt 0.7233 0.9857 0.0000
vt 0.6961 0.9600 0.0000
vt 0.9392 0.9600 0.0000
vt 0.6944 0.9510 0.0000
vt 0.6944 0.9283 0.0000
vt 0.9361 0.9283 0.0000
vt 0.9361 0.9510 0.0000
vt 0.5057 0.0957 0.0000
vt 0.5057 0.0020 0.0000
vt 0.5995 0.0020 0.0000
vt 0.5995 0.0957 0.0000
vt 0.4045 0.0020 0.0000
vt 0.4982 0.0020 0.0000
vt 0.4982 0.0957 0.0000
vt 0.4045 0.0957 0.0000
vt 0.6944 0.9738 0.0000
vt 0.9361 0.9738 0.0000
vt 0.5253 0.8929 0.0000
vt 0.6210 0.8929 0.0000
vt 0.6210 0.9886 0.0000
vt 0.5253 0.9886 0.0000
vt 0.7770 0.9832 0.0000
vt 0.8676 0.9832 0.0000
vt 0.8676 0.9960 0.0000
vt 0.7770 0.9960 0.0000
vt 0.7770 0.8799 0.0000
vt 0.8676 0.8799 0.0000
vt 0.8676 0.8927 0.0000
vt 0.7770 0.8927 0.0000
vt 0.8804 0.8927 0.0000
vt 0.8804 0.9832 0.0000
vt 0.7642 0.9832 0.0000
vt 0.7642 0.8927 0.0000
# 44 texture coords

g polySurface1509
usemtl Atlas_2
s off
f 1/1/1 2/2/1 3/3/1 4/4/1 
f 4/5/2 3/6/2 5/7/2 6/8/2 
f 6/3/3 5/4/3 7/1/3 8/2/3 
f 8/9/4 7/10/4 2/11/4 1/12/4 
f 2/13/5 7/1/5 5/4/5 3/14/5 
f 8/13/6 1/1/6 4/4/6 6/14/6 
f 9/1/1 10/2/1 11/3/1 12/4/1 
f 12/5/2 11/6/2 13/7/2 14/8/2 
f 14/3/3 13/4/3 15/1/3 16/2/3 
f 16/9/4 15/10/4 10/11/4 9/12/4 
f 10/13/5 15/1/5 13/4/5 11/14/5 
f 16/13/6 9/1/6 12/4/6 14/14/6 
f 17/1/1 18/2/1 19/3/1 20/4/1 
f 20/5/2 19/6/2 21/7/2 22/8/2 
f 22/3/3 21/4/3 23/1/3 24/2/3 
f 24/9/4 23/10/4 18/11/4 17/12/4 
f 18/13/5 23/1/5 21/4/5 19/14/5 
f 24/13/6 17/1/6 20/4/6 22/14/6 
f 25/1/1 26/2/1 27/3/1 28/4/1 
f 28/5/2 27/6/2 29/7/2 30/8/2 
f 30/3/3 29/4/3 31/1/3 32/2/3 
f 32/9/4 31/10/4 26/11/4 25/12/4 
f 26/13/5 31/1/5 29/4/5 27/14/5 
f 32/13/6 25/1/6 28/4/6 30/14/6 
f 33/15/4 34/16/4 35/17/4 36/18/4 
f 36/19/1 35/20/1 37/21/1 38/22/1 
f 38/17/2 37/18/2 39/15/2 40/16/2 
f 40/23/3 39/24/3 34/25/3 33/26/3 
f 34/27/5 39/15/5 37/18/5 35/28/5 
f 40/27/6 33/15/6 36/18/6 38/28/6 
f 41/15/4 42/16/4 43/17/4 44/18/4 
f 44/19/1 43/20/1 45/21/1 46/22/1 
f 46/17/2 45/18/2 47/15/2 48/16/2 
f 48/23/3 47/24/3 42/25/3 41/26/3 
f 42/27/5 47/15/5 45/18/5 43/28/5 
f 48/27/6 41/15/6 44/18/6 46/28/6 
f 49/15/4 50/16/4 51/17/4 52/18/4 
f 52/19/5 51/20/5 53/21/5 54/22/5 
f 54/17/2 53/18/2 55/15/2 56/16/2 
f 56/23/6 55/24/6 50/25/6 49/26/6 
f 50/27/3 55/15/3 53/18/3 51/28/3 
f 56/27/1 49/15/1 52/18/1 54/28/1 
f 57/15/4 58/16/4 59/17/4 60/18/4 
f 60/19/5 59/20/5 61/21/5 62/22/5 
f 62/17/2 61/18/2 63/15/2 64/16/2 
f 64/23/6 63/24/6 58/25/6 57/26/6 
f 58/27/3 63/15/3 61/18/3 59/28/3 
f 64/27/1 57/15/1 60/18/1 62/28/1 
f 65/29/2 66/30/2 67/31/2 68/32/2 
f 69/33/1 70/34/1 66/35/1 65/36/1 
f 68/37/3 67/38/3 71/39/3 72/40/3 
f 72/40/4 71/39/4 70/34/4 69/33/4 
f 70/34/5 71/39/5 67/41/5 66/42/5 
f 72/40/6 69/33/6 65/43/6 68/44/6 
# 54 polygons

