# 3ds Max Wavefront OBJ Exporter v0.97b - (c)2007 guruware
# File Created: 04.04.2017 12:15:04

mtllib Switch_3.mtl

#
# object polySurface1491
#

v  0.4389 1.3686 0.0992
v  -0.4389 1.3686 0.0992
v  -0.4389 -1.2509 0.6084
v  0.4389 -1.2509 0.6084
v  -0.4389 -1.3530 0.0830
v  0.4389 -1.3530 0.0830
v  0.4389 1.2813 -0.3500
v  -0.4389 1.2813 -0.3500
v  -2.1548 -2.8191 0.1152
v  2.1548 -2.8191 0.1152
v  2.1548 2.8191 0.1152
v  -2.1548 2.8191 0.1152
v  2.3333 3.0528 -0.4000
v  -2.3333 3.0528 -0.4000
v  -2.3333 -3.0528 -0.4000
v  2.3333 -3.0528 -0.4000
# 16 vertices

vn 0.0000 0.1908 0.9816
vn 0.0000 -0.9816 0.1908
vn 1.0000 0.0000 -0.0000
vn -1.0000 0.0000 -0.0000
vn 0.0000 -0.0000 1.0000
vn 0.0000 0.9107 0.4130
vn 0.0000 -0.9107 0.4130
vn 0.9448 -0.0000 0.3275
vn -0.9448 -0.0000 0.3275
# 9 vertex normals

vt 0.3594 0.9852 0.0000
vt 0.3495 0.9852 0.0000
vt 0.3495 0.9541 0.0000
vt 0.3594 0.9541 0.0000
vt 0.3651 0.9993 0.0000
vt 0.3437 0.9993 0.0000
vt 0.3437 0.9863 0.0000
vt 0.3651 0.9863 0.0000
vt 0.3654 0.9541 0.0000
vt 0.3645 0.9852 0.0000
vt 0.3444 0.9852 0.0000
vt 0.3435 0.9541 0.0000
vt 0.3158 0.9654 0.0000
vt 0.3403 0.9655 0.0000
vt 0.3403 0.9971 0.0000
vt 0.3158 0.9970 0.0000
vt 0.3425 0.9993 0.0000
vt 0.3135 0.9992 0.0000
vt 0.3135 0.9632 0.0000
vt 0.3426 0.9633 0.0000
# 20 texture coords

g polySurface1491
usemtl Atlas_2
s off
f 1/1/1 2/2/1 3/3/1 4/4/1 
f 5/5/2 6/6/2 4/7/2 3/8/2 
f 1/1/3 4/4/3 6/9/3 7/10/3 
f 3/3/4 2/2/4 8/11/4 5/12/4 
f 9/13/5 10/14/5 11/15/5 12/16/5 
f 12/16/6 11/15/6 13/17/6 14/18/6 
f 15/19/7 16/20/7 10/14/7 9/13/7 
f 10/14/8 16/20/8 13/17/8 11/15/8 
f 15/19/9 9/13/9 12/16/9 14/18/9 
# 9 polygons

