# 3ds Max Wavefront OBJ Exporter v0.97b - (c)2007 guruware
# File Created: 04.04.2017 12:14:38

mtllib Switch_1.mtl

#
# object polySurface87
#

v  -1.8008 -2.1009 -0.0651
v  1.8008 -2.1009 -0.0651
v  1.8008 2.1009 -0.0651
v  -1.8008 2.1009 -0.0651
v  1.9500 2.2750 -0.4000
v  -1.9500 2.2750 -0.4000
v  -1.9500 -2.2750 -0.4000
v  1.9500 -2.2750 -0.4000
# 8 vertices

vn 0.0000 -0.0000 1.0000
vn 0.0000 0.8872 0.4613
vn 0.0000 -0.8872 0.4613
vn 0.9134 -0.0000 0.4071
vn -0.9134 -0.0000 0.4071
# 5 vertex normals

vt 0.2495 0.9603 0.0000
vt 0.2809 0.9603 0.0000
vt 0.2809 0.9970 0.0000
vt 0.2495 0.9970 0.0000
vt 0.2832 0.9994 0.0000
vt 0.2472 0.9994 0.0000
vt 0.2472 0.9579 0.0000
vt 0.2832 0.9579 0.0000
# 8 texture coords

g polySurface87
usemtl Atlas_2
s off
f 1/1/1 2/2/1 3/3/1 4/4/1 
f 4/4/2 3/3/2 5/5/2 6/6/2 
f 7/7/3 8/8/3 2/2/3 1/1/3 
f 2/2/4 8/8/4 5/5/4 3/3/4 
f 7/7/5 1/1/5 4/4/5 6/6/5 
# 5 polygons

