# 3ds Max Wavefront OBJ Exporter v0.97b - (c)2007 guruware
# File Created: 04.04.2017 12:17:00

mtllib Table_1A.mtl

#
# object polySurface1512
#

v  -12.5000 -0.4250 7.5000
v  12.5000 -0.4250 7.5000
v  12.5000 0.4250 7.5000
v  -12.5000 0.4250 7.5000
v  12.5000 0.4250 -7.5000
v  -12.5000 0.4250 -7.5000
v  12.5000 -0.4250 -7.5000
v  -12.5000 -0.4250 -7.5000
v  -11.7500 -10.4000 6.7500
v  -10.2500 -10.4000 6.7500
v  -10.2500 -0.4000 6.7500
v  -11.7500 -0.4000 6.7500
v  -11.7500 -0.4000 5.2500
v  -10.2500 -0.4000 5.2500
v  -10.2500 -10.4000 5.2500
v  -11.7500 -10.4000 5.2500
v  10.2500 -10.4000 6.7500
v  11.7500 -10.4000 6.7500
v  11.7500 -0.4000 6.7500
v  10.2500 -0.4000 6.7500
v  10.2500 -0.4000 5.2500
v  11.7500 -0.4000 5.2500
v  11.7500 -10.4000 5.2500
v  10.2500 -10.4000 5.2500
v  -10.2500 -10.4000 -6.7500
v  -11.7500 -10.4000 -6.7500
v  -11.7500 -0.4000 -6.7500
v  -10.2500 -0.4000 -6.7500
v  -10.2500 -0.4000 -5.2500
v  -11.7500 -0.4000 -5.2500
v  -11.7500 -10.4000 -5.2500
v  -10.2500 -10.4000 -5.2500
v  11.7500 -10.4000 -6.7500
v  10.2500 -10.4000 -6.7500
v  10.2500 -0.4000 -6.7500
v  11.7500 -0.4000 -6.7500
v  11.7500 -0.4000 -5.2500
v  10.2500 -0.4000 -5.2500
v  10.2500 -10.4000 -5.2500
v  11.7500 -10.4000 -5.2500
v  -10.2873 -1.5325 6.3944
v  10.2873 -1.5325 6.3944
v  10.2873 -0.3850 6.3944
v  -10.2873 -0.3850 6.3944
v  -10.2873 -0.3850 5.6056
v  10.2873 -0.3850 5.6056
v  10.2873 -1.5325 5.6056
v  -10.2873 -1.5325 5.6056
v  -10.2873 -1.5325 -5.6056
v  10.2873 -1.5325 -5.6056
v  10.2873 -0.3850 -5.6056
v  -10.2873 -0.3850 -5.6056
v  -10.2873 -0.3850 -6.3944
v  10.2873 -0.3850 -6.3944
v  10.2873 -1.5325 -6.3944
v  -10.2873 -1.5325 -6.3944
v  -10.5933 -1.5325 5.3547
v  -10.5933 -1.5325 -5.3547
v  -10.5933 -0.3850 -5.3547
v  -10.5933 -0.3850 5.3547
v  -11.3820 -0.3850 5.3547
v  -11.3820 -0.3850 -5.3547
v  -11.3820 -1.5325 -5.3547
v  -11.3820 -1.5325 5.3547
v  11.4702 -1.5325 5.3547
v  11.4702 -1.5325 -5.3547
v  11.4702 -0.3850 -5.3547
v  11.4702 -0.3850 5.3547
v  10.6814 -0.3850 5.3547
v  10.6814 -0.3850 -5.3547
v  10.6814 -1.5325 -5.3547
v  10.6814 -1.5325 5.3547
# 72 vertices

vn 0.0000 -0.0000 1.0000
vn 0.0000 1.0000 0.0000
vn 0.0000 0.0000 -1.0000
vn 0.0000 -1.0000 -0.0000
vn 1.0000 0.0000 -0.0000
vn -1.0000 0.0000 -0.0000
# 6 vertex normals

vt 0.9734 0.6318 0.0000
vt 0.7778 0.6318 0.0000
vt 0.7778 0.6251 0.0000
vt 0.9734 0.6251 0.0000
vt 0.9734 0.7494 0.0000
vt 0.7778 0.7494 0.0000
vt 0.7778 0.6320 0.0000
vt 0.9734 0.6320 0.0000
vt 0.7778 0.6254 0.0000
vt 0.9734 0.6254 0.0000
vt 0.9734 0.7491 0.0000
vt 0.7778 0.7491 0.0000
vt 0.8844 0.6941 0.0000
vt 0.7671 0.6941 0.0000
vt 0.7671 0.6874 0.0000
vt 0.8844 0.6874 0.0000
vt 0.8149 0.6874 0.0000
vt 0.9323 0.6874 0.0000
vt 0.9323 0.6941 0.0000
vt 0.8149 0.6941 0.0000
vt 0.7636 0.5643 0.0000
vt 0.7636 0.5310 0.0000
vt 0.9858 0.5310 0.0000
vt 0.9858 0.5643 0.0000
vt 0.9858 0.5313 0.0000
vt 0.9858 0.5646 0.0000
vt 0.7636 0.5646 0.0000
vt 0.7636 0.5313 0.0000
vt 0.8914 0.5202 0.0000
vt 0.9665 0.5202 0.0000
vt 0.9665 0.5953 0.0000
vt 0.8914 0.5953 0.0000
vt 0.7636 0.5979 0.0000
vt 0.9858 0.5979 0.0000
vt 0.7636 0.5977 0.0000
vt 0.9858 0.5977 0.0000
vt 0.7535 0.5682 0.0000
vt 0.9952 0.5682 0.0000
vt 0.9952 0.5941 0.0000
vt 0.7535 0.5941 0.0000
vt 0.7535 0.5504 0.0000
vt 0.9952 0.5504 0.0000
# 42 texture coords

g polySurface1512
usemtl Atlas_2
s off
f 1/1/1 2/2/1 3/3/1 4/4/1 
f 4/5/2 3/6/2 5/7/2 6/8/2 
f 6/8/3 5/7/3 7/9/3 8/10/3 
f 8/11/4 7/12/4 2/2/4 1/1/4 
f 2/13/5 7/14/5 5/15/5 3/16/5 
f 8/17/6 1/18/6 4/19/6 6/20/6 
f 9/21/1 10/22/1 11/23/1 12/24/1 
f 13/25/3 14/26/3 15/27/3 16/28/3 
f 16/29/4 15/30/4 10/31/4 9/32/4 
f 10/33/5 15/27/5 14/26/5 11/34/5 
f 16/35/6 9/21/6 12/24/6 13/36/6 
f 17/21/1 18/22/1 19/23/1 20/24/1 
f 21/25/3 22/26/3 23/27/3 24/28/3 
f 24/29/4 23/30/4 18/31/4 17/32/4 
f 18/33/5 23/27/5 22/26/5 19/34/5 
f 24/35/6 17/21/6 20/24/6 21/36/6 
f 25/21/3 26/22/3 27/23/3 28/24/3 
f 29/25/1 30/26/1 31/27/1 32/28/1 
f 32/29/4 31/30/4 26/31/4 25/32/4 
f 26/33/6 31/27/6 30/26/6 27/34/6 
f 32/35/5 25/21/5 28/24/5 29/36/5 
f 33/21/3 34/22/3 35/23/3 36/24/3 
f 37/25/1 38/26/1 39/27/1 40/28/1 
f 40/29/4 39/30/4 34/31/4 33/32/4 
f 34/33/6 39/27/6 38/26/6 35/34/6 
f 40/35/5 33/21/5 36/24/5 37/36/5 
f 41/37/1 42/38/1 43/39/1 44/40/1 
f 45/37/3 46/38/3 47/39/3 48/40/3 
f 48/41/4 47/42/4 42/38/4 41/37/4 
f 49/37/1 50/38/1 51/39/1 52/40/1 
f 53/37/3 54/38/3 55/39/3 56/40/3 
f 56/41/4 55/42/4 50/38/4 49/37/4 
f 57/37/5 58/38/5 59/39/5 60/40/5 
f 61/37/6 62/38/6 63/39/6 64/40/6 
f 64/41/4 63/42/4 58/38/4 57/37/4 
f 65/37/5 66/38/5 67/39/5 68/40/5 
f 69/37/6 70/38/6 71/39/6 72/40/6 
f 72/41/4 71/42/4 66/38/4 65/37/4 
# 38 polygons

