# 3ds Max Wavefront OBJ Exporter v0.97b - (c)2007 guruware
# File Created: 04.04.2017 12:17:14

mtllib Table_2A.mtl

#
# object polySurface1513
#

v  6.7573 -0.4250 -3.2541
v  4.6762 -0.4250 -5.8637
v  4.6762 0.4250 -5.8637
v  6.7573 0.4250 -3.2541
v  1.6689 -0.4250 -7.3120
v  1.6689 0.4250 -7.3120
v  -1.6689 -0.4250 -7.3120
v  -1.6689 0.4250 -7.3120
v  -4.6762 -0.4250 -5.8637
v  -4.6762 0.4250 -5.8637
v  -6.7573 -0.4250 -3.2541
v  -6.7573 0.4250 -3.2541
v  -7.5000 -0.4250 -0.0000
v  -7.5000 0.4250 -0.0000
v  -6.7573 -0.4250 3.2541
v  -6.7573 0.4250 3.2541
v  -4.6762 -0.4250 5.8637
v  -4.6762 0.4250 5.8637
v  -1.6689 -0.4250 7.3120
v  -1.6689 0.4250 7.3120
v  1.6689 -0.4250 7.3120
v  1.6689 0.4250 7.3120
v  4.6762 -0.4250 5.8637
v  4.6762 0.4250 5.8637
v  6.7573 -0.4250 3.2541
v  6.7573 0.4250 3.2541
v  7.5000 -0.4250 0.0000
v  7.5000 0.4250 0.0000
v  -0.7500 -9.3511 0.7500
v  0.7500 -9.3511 0.7500
v  0.7500 -0.3418 0.7500
v  -0.7500 -0.3418 0.7500
v  -0.7500 -0.3418 -0.7500
v  0.7500 -0.3418 -0.7500
v  0.7500 -9.3511 -0.7500
v  -0.7500 -9.3511 -0.7500
v  -1.8204 -10.0000 1.8204
v  1.8204 -10.0000 1.8204
v  1.8204 -9.2680 1.8204
v  -1.8204 -9.2680 1.8204
v  1.8204 -9.2680 -1.8204
v  -1.8204 -9.2680 -1.8204
v  1.8204 -10.0000 -1.8204
v  -1.8204 -10.0000 -1.8204
# 44 vertices

vn 0.9010 0.0000 -0.4339
vn 0.6235 0.0000 -0.7818
vn 0.2225 0.0000 -0.9749
vn -0.2225 0.0000 -0.9749
vn -0.6235 0.0000 -0.7818
vn -0.9010 0.0000 -0.4339
vn -1.0000 0.0000 -0.0000
vn -0.9010 -0.0000 0.4339
vn -0.6235 -0.0000 0.7818
vn -0.2225 -0.0000 0.9749
vn 0.2225 -0.0000 0.9749
vn 0.6235 -0.0000 0.7818
vn 0.9010 -0.0000 0.4339
vn 1.0000 -0.0000 0.0000
vn 0.0000 -1.0000 -0.0000
vn 0.0000 1.0000 0.0000
vn 0.0000 -0.0000 1.0000
vn 0.0000 0.0000 -1.0000
vn 1.0000 0.0000 -0.0000
# 19 vertex normals

vt 0.7513 0.6673 0.0000
vt 0.7763 0.6673 0.0000
vt 0.7763 0.6844 0.0000
vt 0.7513 0.6844 0.0000
vt 0.8124 0.6673 0.0000
vt 0.8124 0.6844 0.0000
vt 0.8525 0.6673 0.0000
vt 0.8525 0.6844 0.0000
vt 0.8886 0.6673 0.0000
vt 0.8886 0.6844 0.0000
vt 0.9135 0.6673 0.0000
vt 0.9135 0.6844 0.0000
vt 0.9526 0.6673 0.0000
vt 0.9526 0.6844 0.0000
vt 0.9917 0.6673 0.0000
vt 0.9917 0.6844 0.0000
vt 0.9982 0.6844 0.0000
vt 0.9668 0.6844 0.0000
vt 0.9668 0.6673 0.0000
vt 0.9982 0.6673 0.0000
vt 0.9307 0.6844 0.0000
vt 0.9307 0.6673 0.0000
vt 0.8907 0.6844 0.0000
vt 0.8907 0.6673 0.0000
vt 0.8546 0.6844 0.0000
vt 0.8546 0.6673 0.0000
vt 0.8296 0.6844 0.0000
vt 0.8296 0.6673 0.0000
vt 0.7905 0.6844 0.0000
vt 0.7905 0.6673 0.0000
vt 0.7514 0.6844 0.0000
vt 0.7514 0.6673 0.0000
vt 0.8999 0.6330 0.0000
vt 0.9210 0.6498 0.0000
vt 0.9327 0.6741 0.0000
vt 0.9327 0.7011 0.0000
vt 0.9210 0.7254 0.0000
vt 0.8999 0.7423 0.0000
vt 0.8736 0.7483 0.0000
vt 0.8473 0.7423 0.0000
vt 0.8262 0.7254 0.0000
vt 0.8145 0.7011 0.0000
vt 0.8145 0.6741 0.0000
vt 0.8262 0.6498 0.0000
vt 0.8473 0.6330 0.0000
vt 0.8736 0.6270 0.0000
vt 0.8734 0.6266 0.0000
vt 0.8997 0.6326 0.0000
vt 0.9208 0.6494 0.0000
vt 0.9325 0.6737 0.0000
vt 0.9325 0.7007 0.0000
vt 0.9208 0.7250 0.0000
vt 0.8997 0.7418 0.0000
vt 0.8734 0.7478 0.0000
vt 0.8471 0.7418 0.0000
vt 0.8260 0.7250 0.0000
vt 0.8143 0.7007 0.0000
vt 0.8143 0.6737 0.0000
vt 0.8260 0.6494 0.0000
vt 0.8471 0.6326 0.0000
vt 0.7720 0.5581 0.0000
vt 0.7720 0.5223 0.0000
vt 0.9864 0.5223 0.0000
vt 0.9864 0.5581 0.0000
vt 0.9864 0.5224 0.0000
vt 0.7720 0.5224 0.0000
vt 0.7720 0.5938 0.0000
vt 0.9864 0.5938 0.0000
vt 0.8750 0.5546 0.0000
vt 0.9527 0.5546 0.0000
vt 0.9527 0.5702 0.0000
vt 0.8750 0.5702 0.0000
vt 0.8468 0.5164 0.0000
vt 0.9363 0.5164 0.0000
vt 0.9363 0.6059 0.0000
vt 0.8468 0.6059 0.0000
vt 0.9529 0.5702 0.0000
vt 0.8752 0.5702 0.0000
vt 0.8752 0.5546 0.0000
vt 0.9529 0.5546 0.0000
vt 0.8473 0.5148 0.0000
vt 0.9368 0.5148 0.0000
vt 0.9368 0.6043 0.0000
vt 0.8473 0.6043 0.0000
vt 0.7975 0.5546 0.0000
vt 0.7975 0.5702 0.0000
vt 0.7974 0.5546 0.0000
vt 0.7974 0.5702 0.0000
# 88 texture coords

g polySurface1513
usemtl Atlas_2
s off
f 1/1/1 2/2/2 3/3/2 4/4/1 
f 2/2/2 5/5/3 6/6/3 3/3/2 
f 5/5/3 7/7/4 8/8/4 6/6/3 
f 7/7/4 9/9/5 10/10/5 8/8/4 
f 9/9/5 11/11/6 12/12/6 10/10/5 
f 11/11/6 13/13/7 14/14/7 12/12/6 
f 13/13/7 15/15/8 16/16/8 14/14/7 
f 15/17/8 17/18/9 18/19/9 16/20/8 
f 17/18/9 19/21/10 20/22/10 18/19/9 
f 19/21/10 21/23/11 22/24/11 20/22/10 
f 21/23/11 23/25/12 24/26/12 22/24/11 
f 23/25/12 25/27/13 26/28/13 24/26/12 
f 25/27/13 27/29/14 28/30/14 26/28/13 
f 27/29/14 1/31/1 4/32/1 28/30/14 
f 25/33/15 23/34/15 21/35/15 19/36/15 
f 25/33/15 19/36/15 17/37/15 15/38/15 
f 25/33/15 15/38/15 13/39/15 11/40/15 
f 25/33/15 11/40/15 9/41/15 7/42/15 
f 25/33/15 7/42/15 5/43/15 2/44/15 
f 25/33/15 2/44/15 1/45/15 27/46/15 
f 28/47/16 4/48/16 3/49/16 6/50/16 
f 28/47/16 6/50/16 8/51/16 10/52/16 
f 28/47/16 10/52/16 12/53/16 14/54/16 
f 28/47/16 14/54/16 16/55/16 18/56/16 
f 28/47/16 18/56/16 20/57/16 22/58/16 
f 28/47/16 22/58/16 24/59/16 26/60/16 
f 29/61/17 30/62/17 31/63/17 32/64/17 
f 33/65/18 34/64/18 35/61/18 36/66/18 
f 30/67/19 35/61/19 34/64/19 31/68/19 
f 36/67/7 29/61/7 32/64/7 33/68/7 
f 37/69/17 38/70/17 39/71/17 40/72/17 
f 40/73/16 39/74/16 41/75/16 42/76/16 
f 42/77/18 41/78/18 43/79/18 44/80/18 
f 44/81/15 43/82/15 38/83/15 37/84/15 
f 38/85/19 43/79/19 41/78/19 39/86/19 
f 44/87/7 37/69/7 40/72/7 42/88/7 
# 36 polygons

