# 3ds Max Wavefront OBJ Exporter v0.97b - (c)2007 guruware
# File Created: 04.04.2017 12:17:28

mtllib Table_3.mtl

#
# object polySurface1514
#

v  -5.2500 -4.1200 3.2500
v  5.2500 -4.1200 3.2500
v  5.2500 -3.4200 3.2500
v  -5.2500 -3.4200 3.2500
v  5.2500 -3.4200 -3.2500
v  -5.2500 -3.4200 -3.2500
v  5.2500 -4.1200 -3.2500
v  -5.2500 -4.1200 -3.2500
v  -5.0238 -4.7795 2.5270
v  5.0238 -4.7795 2.5270
v  5.0238 -4.0795 2.5270
v  -5.0238 -4.0795 2.5270
v  -5.0238 -4.0795 2.1730
v  5.0238 -4.0795 2.1730
v  5.0238 -4.7795 2.1730
v  -5.0238 -4.7795 2.1730
v  -5.0238 -4.7795 -2.1730
v  5.0238 -4.7795 -2.1730
v  5.0238 -4.0795 -2.1730
v  -5.0238 -4.0795 -2.1730
v  -5.0238 -4.0795 -2.5270
v  5.0238 -4.0795 -2.5270
v  5.0238 -4.7795 -2.5270
v  -5.0238 -4.7795 -2.5270
v  -4.1715 -4.7795 2.0010
v  -4.1715 -4.7795 -1.9127
v  -4.1715 -4.0795 -1.9127
v  -4.1715 -4.0795 2.0010
v  -4.5254 -4.0795 2.0010
v  -4.5254 -4.0795 -1.9127
v  -4.5254 -4.7795 -1.9127
v  -4.5254 -4.7795 2.0010
v  4.5270 -4.7795 2.0010
v  4.5270 -4.7795 -1.9127
v  4.5270 -4.0795 -1.9127
v  4.5270 -4.0795 2.0010
v  4.1730 -4.0795 2.0010
v  4.1730 -4.0795 -1.9127
v  4.1730 -4.7795 -1.9127
v  4.1730 -4.7795 2.0010
v  3.8000 -8.2632 2.8000
v  4.8000 -8.2632 2.8000
v  4.8000 -4.1200 2.8000
v  3.8000 -4.1200 2.8000
v  3.8000 -4.1200 1.8000
v  4.8000 -4.1200 1.8000
v  4.8000 -8.2632 1.8000
v  3.8000 -8.2632 1.8000
v  -3.8000 -8.2632 -2.8000
v  -4.8000 -8.2632 -2.8000
v  -4.8000 -4.1200 -2.8000
v  -3.8000 -4.1200 -2.8000
v  -3.8000 -4.1200 -1.8000
v  -4.8000 -4.1200 -1.8000
v  -4.8000 -8.2632 -1.8000
v  -3.8000 -8.2632 -1.8000
v  4.8000 -8.2632 -2.8000
v  3.8000 -8.2632 -2.8000
v  3.8000 -4.1200 -2.8000
v  4.8000 -4.1200 -2.8000
v  4.8000 -4.1200 -1.8000
v  3.8000 -4.1200 -1.8000
v  3.8000 -8.2632 -1.8000
v  4.8000 -8.2632 -1.8000
v  -4.8000 -8.2632 2.8000
v  -3.8000 -8.2632 2.8000
v  -3.8000 -4.1200 2.8000
v  -4.8000 -4.1200 2.8000
v  -4.8000 -4.1200 1.8000
v  -3.8000 -4.1200 1.8000
v  -3.8000 -8.2632 1.8000
v  -4.8000 -8.2632 1.8000
# 72 vertices

vn 0.0000 -0.0000 1.0000
vn 0.0000 1.0000 0.0000
vn 0.0000 0.0000 -1.0000
vn 0.0000 -1.0000 -0.0000
vn 1.0000 0.0000 -0.0000
vn -1.0000 0.0000 -0.0000
# 6 vertex normals

vt 0.2559 0.9158 0.0000
vt 0.2559 0.7598 0.0000
vt 0.2663 0.7598 0.0000
vt 0.2663 0.9158 0.0000
vt 0.3628 0.7598 0.0000
vt 0.3628 0.9158 0.0000
vt 0.2663 0.7494 0.0000
vt 0.3628 0.7494 0.0000
vt 0.3628 0.9262 0.0000
vt 0.2663 0.9262 0.0000
vt 0.3012 0.9491 0.0000
vt 0.3012 0.7072 0.0000
vt 0.3180 0.7072 0.0000
vt 0.3180 0.9491 0.0000
vt 0.3010 0.9491 0.0000
vt 0.3010 0.7072 0.0000
vt 0.3178 0.7072 0.0000
vt 0.3178 0.9491 0.0000
vt 0.2927 0.9491 0.0000
vt 0.2927 0.7072 0.0000
vt 0.3407 0.8807 0.0000
vt 0.3150 0.8807 0.0000
vt 0.3150 0.8300 0.0000
vt 0.3407 0.8300 0.0000
vt 0.3407 0.8815 0.0000
vt 0.3150 0.8815 0.0000
vt 0.3150 0.8308 0.0000
vt 0.3407 0.8308 0.0000
vt 0.3083 0.7288 0.0000
vt 0.3574 0.7288 0.0000
vt 0.3574 0.9320 0.0000
vt 0.3083 0.9320 0.0000
vt 0.3571 0.9320 0.0000
vt 0.3081 0.9320 0.0000
vt 0.3081 0.7288 0.0000
vt 0.3571 0.7288 0.0000
vt 0.2591 0.7288 0.0000
vt 0.2591 0.9320 0.0000
vt 0.2593 0.7288 0.0000
vt 0.2593 0.9320 0.0000
# 40 texture coords

g polySurface1514
usemtl Atlas_2
s off
f 1/1/1 2/2/1 3/3/1 4/4/1 
f 4/4/2 3/3/2 5/5/2 6/6/2 
f 6/1/3 5/2/3 7/3/3 8/4/3 
f 8/4/4 7/3/4 2/5/4 1/6/4 
f 2/7/5 7/8/5 5/5/5 3/3/5 
f 8/9/6 1/10/6 4/4/6 6/6/6 
f 9/11/1 10/12/1 11/13/1 12/14/1 
f 13/15/3 14/16/3 15/17/3 16/18/3 
f 16/19/4 15/20/4 10/12/4 9/11/4 
f 10/21/5 15/22/5 14/23/5 11/24/5 
f 16/25/6 9/26/6 12/27/6 13/28/6 
f 17/11/1 18/12/1 19/13/1 20/14/1 
f 21/15/3 22/16/3 23/17/3 24/18/3 
f 24/19/4 23/20/4 18/12/4 17/11/4 
f 18/21/5 23/22/5 22/23/5 19/24/5 
f 24/25/6 17/26/6 20/27/6 21/28/6 
f 25/11/5 26/12/5 27/13/5 28/14/5 
f 29/15/6 30/16/6 31/17/6 32/18/6 
f 32/19/4 31/20/4 26/12/4 25/11/4 
f 33/11/5 34/12/5 35/13/5 36/14/5 
f 37/15/6 38/16/6 39/17/6 40/18/6 
f 40/19/4 39/20/4 34/12/4 33/11/4 
f 41/29/1 42/30/1 43/31/1 44/32/1 
f 45/33/3 46/34/3 47/35/3 48/36/3 
f 42/37/5 47/35/5 46/34/5 43/38/5 
f 48/39/6 41/29/6 44/32/6 45/40/6 
f 49/29/3 50/30/3 51/31/3 52/32/3 
f 53/33/1 54/34/1 55/35/1 56/36/1 
f 50/37/6 55/35/6 54/34/6 51/38/6 
f 56/39/5 49/29/5 52/32/5 53/40/5 
f 57/29/3 58/30/3 59/31/3 60/32/3 
f 61/33/1 62/34/1 63/35/1 64/36/1 
f 58/37/6 63/35/6 62/34/6 59/38/6 
f 64/39/5 57/29/5 60/32/5 61/40/5 
f 65/29/1 66/30/1 67/31/1 68/32/1 
f 69/33/3 70/34/3 71/35/3 72/36/3 
f 66/37/5 71/35/5 70/34/5 67/38/5 
f 72/39/6 65/29/6 68/32/6 69/40/6 
# 38 polygons

