# 3ds Max Wavefront OBJ Exporter v0.97b - (c)2007 guruware
# File Created: 04.04.2017 12:19:15

mtllib Toilet_Seat_3.mtl

#
# object polySurface1547
#

v  -1.0383 1.4957 2.0551
v  1.0383 1.4957 2.0551
v  0.9683 2.2732 1.9167
v  -0.9683 2.2732 1.9167
v  -0.9683 2.2732 -1.4148
v  0.9683 2.2732 -1.4148
v  1.0383 1.4957 -1.5532
v  -1.0383 1.4957 -1.5532
v  -1.4536 2.3191 -1.5199
v  -1.4536 2.3191 2.3977
v  -1.4536 3.4702 2.3977
v  -1.4536 3.4702 -1.5057
v  -1.4536 3.2056 -2.3977
v  1.4536 3.2056 -2.3977
v  1.4536 2.5837 -2.3977
v  -1.4536 2.5837 -2.3977
v  1.4536 2.3191 -1.6016
v  1.4536 3.4702 -1.5141
v  1.4536 2.3191 2.3977
v  1.4536 3.4702 2.3977
v  -1.0383 2.3191 -1.5532
v  -1.0383 2.3191 2.0551
v  -1.0383 3.4702 2.0551
v  -1.0383 3.4702 -0.8587
v  -1.2131 3.4702 -1.5063
v  1.0383 3.4702 -0.8587
v  1.2150 3.4702 -1.5134
v  1.0383 2.3191 -1.5532
v  1.0383 3.4702 2.0551
v  1.0383 2.3191 2.0551
v  -0.4688 2.3582 1.2560
v  0.4688 2.3582 1.2560
v  0.4688 2.3582 -0.0595
v  -0.4688 2.3582 -0.0595
# 34 vertices

vn 0.0000 0.1753 0.9845
vn 0.0000 -0.0359 0.9994
vn 0.0000 -0.0359 -0.9994
vn 0.0000 0.1753 -0.9845
vn 0.0000 -1.0000 -0.0000
vn 0.9960 0.0896 0.0000
vn 0.9992 -0.0403 -0.0000
vn -0.9960 0.0896 0.0000
vn -0.9992 -0.0403 -0.0000
vn -1.0000 0.0000 0.0000
vn 0.0000 0.0000 -1.0000
vn 1.0000 0.0000 -0.0000
vn 0.0000 -0.0000 1.0000
vn 0.0000 1.0000 -0.0000
vn 0.0000 1.0000 0.0000
vn -0.0014 -0.9540 -0.2997
vn -0.0011 -0.9544 -0.2986
vn -0.0007 -0.9543 -0.2987
vn -0.0011 -0.9541 -0.2996
vn -0.0367 -0.9483 -0.3153
vn -0.5486 -0.8361 -0.0000
vn 0.0000 -0.9492 -0.3146
vn 0.5486 -0.8361 -0.0000
vn 0.0000 -0.9492 0.3146
vn -0.0004 0.9583 -0.2857
vn -0.0008 0.9579 -0.2869
vn -0.0008 0.9587 -0.2845
vn -1.0000 0.0000 -0.0000
vn -0.0231 -0.9572 -0.2886
vn 1.0000 -0.0000 -0.0000
vn 0.0000 0.5836 -0.8121
vn -0.8901 0.4558 0.0000
vn 0.0000 0.5836 0.8121
vn 0.8901 0.4558 0.0000
# 34 vertex normals

vt 0.5665 0.0009 0.0000
vt 0.5665 0.0214 0.0000
vt 0.5561 0.0214 0.0000
vt 0.5560 0.0009 0.0000
vt 0.5563 0.0214 0.0000
vt 0.5563 0.0009 0.0000
vt 0.5646 0.0573 0.0000
vt 0.5665 0.0573 0.0000
vt 0.5563 0.0573 0.0000
vt 0.5561 0.0573 0.0000
vt 0.5547 0.0214 0.0000
vt 0.5435 0.0573 0.0000
vt 0.5443 0.0214 0.0000
vt 0.5006 0.0009 0.0000
vt 0.5309 0.0009 0.0000
vt 0.5535 0.0573 0.0000
vt 0.5445 0.0585 0.0000
vt 0.5448 0.0573 0.0000
vt 0.5006 0.0509 0.0000
vt 0.5309 0.0509 0.0000
vt 0.5556 0.0214 0.0000
vt 0.5554 0.0573 0.0000
vt 0.5027 0.0509 0.0000
vt 0.5027 0.0041 0.0000
vt 0.5006 0.0030 0.0000
vt 0.5288 0.0041 0.0000
vt 0.5309 0.0029 0.0000
vt 0.5565 0.0569 0.0000
vt 0.5631 0.0579 0.0000
vt 0.5620 0.0626 0.0000
vt 0.5520 0.0610 0.0000
vt 0.5288 0.0509 0.0000
vt 0.5309 0.0028 0.0000
vt 0.5554 0.0009 0.0000
vt 0.5554 0.0214 0.0000
vt 0.5436 0.0199 0.0000
vt 0.5436 0.0009 0.0000
vt 0.5556 0.0009 0.0000
vt 0.5435 0.0201 0.0000
vt 0.5626 0.0571 0.0000
vt 0.5436 0.0214 0.0000
vt 0.5615 0.0952 0.0000
vt 0.5678 0.0952 0.0000
vt 0.5678 0.1064 0.0000
vt 0.5615 0.1064 0.0000
vt 0.5570 0.0898 0.0000
vt 0.5719 0.0898 0.0000
vt 0.5720 0.1127 0.0000
vt 0.5570 0.1127 0.0000
# 49 texture coords

g polySurface1547
usemtl Atlas_2
s off
f 1/1/1 2/2/1 3/3/2 4/4/2 
f 5/5/3 6/6/3 7/1/4 8/2/4 
f 8/7/5 7/8/5 2/2/5 1/1/5 
f 2/2/6 7/8/6 6/9/7 3/3/7 
f 8/2/8 1/8/8 4/10/9 5/5/9 
f 9/11/10 10/12/10 11/12/10 12/13/10 
f 13/14/11 14/15/11 15/15/11 16/14/11 
f 17/16/12 15/17/12 14/17/12 18/18/12 
f 10/19/13 19/20/13 20/20/13 11/19/13 
f 21/21/5 22/22/5 10/12/5 9/11/5 
f 23/23/14 24/24/14 25/25/14 12/25/15 
f 23/23/14 12/25/15 11/19/14 
f 24/24/14 26/26/14 27/27/14 25/25/14 
f 28/28/16 21/29/17 16/30/18 15/31/19 
f 17/16/20 28/28/16 15/31/19 
f 26/26/14 29/32/14 20/20/14 18/33/15 
f 26/26/14 18/33/15 27/27/14 
f 22/34/5 30/35/5 19/36/5 10/37/5 
f 29/32/14 23/23/14 11/19/14 20/20/14 
f 5/5/9 4/10/9 22/22/21 21/21/21 
f 21/21/22 28/38/22 6/6/3 5/5/3 
f 3/3/7 6/9/7 28/28/23 30/35/23 
f 4/4/2 3/3/2 30/35/24 22/34/24 
f 27/27/25 18/33/26 14/15/25 
f 25/25/25 27/27/25 14/15/25 13/14/25 
f 12/25/27 25/25/25 13/14/25 
f 16/39/28 9/11/28 12/13/28 13/39/28 
f 21/29/17 9/40/29 16/30/18 
f 19/36/30 17/16/30 18/18/30 20/41/30 
f 30/35/5 28/28/5 17/16/5 19/36/5 
f 31/42/15 32/43/15 33/44/15 34/45/15 
f 23/46/31 29/47/31 32/43/31 31/42/31 
f 29/47/32 26/48/32 33/44/32 32/43/32 
f 26/48/33 24/49/33 34/45/33 33/44/33 
f 24/49/34 23/46/34 31/42/34 34/45/34 
# 29 polygons - 6 triangles

