# 3ds Max Wavefront OBJ Exporter v0.97b - (c)2007 guruware
# File Created: 04.04.2017 12:19:41

mtllib Towel_2.mtl

#
# object polySurface680
#

v  -2.6125 -4.6982 3.4045
v  2.6125 -4.6982 3.4045
v  2.6125 0.3000 3.4045
v  -2.6125 0.3000 3.4045
v  -2.6125 0.3000 3.3045
v  2.6125 0.3000 3.3045
v  2.6125 -4.6982 3.3045
v  -2.6125 -4.6982 3.3045
v  -2.6125 -7.6912 2.8873
v  2.6125 -7.6912 2.8873
v  2.6125 0.3000 2.8873
v  -2.6125 0.3000 2.8873
v  -2.6125 0.3000 2.7873
v  2.6125 0.3000 2.7873
v  2.6125 -7.6912 2.7873
v  -2.6125 -7.6912 2.7873
v  2.6125 0.5098 2.9175
v  2.6125 0.4414 2.9742
v  -2.6125 0.4414 2.9742
v  -2.6125 0.5098 2.9175
v  2.6125 0.4414 3.2176
v  2.6125 0.5098 3.2743
v  -2.6125 0.4414 3.2176
v  -2.6125 0.5098 3.2743
# 24 vertices

vn 0.0000 -0.0000 1.0000
vn 0.0000 0.0250 0.9997
vn 0.0000 -0.0169 -0.9999
vn 0.0000 0.0000 -1.0000
vn 0.0000 -1.0000 -0.0000
vn 1.0000 0.0000 -0.0000
vn 1.0000 -0.0000 -0.0000
vn -1.0000 0.0000 -0.0000
vn 0.0000 -0.0107 0.9999
vn 0.0000 0.0159 -0.9999
vn -1.0000 0.0000 0.0000
vn 0.0000 -0.9193 0.3935
vn 0.0000 0.9184 -0.3956
vn 0.0000 -0.9193 -0.3935
vn 0.0000 0.9184 0.3956
# 15 vertex normals

vt 0.4633 0.3174 0.0000
vt 0.4957 0.3174 0.0000
vt 0.4957 0.3588 0.0000
vt 0.4633 0.3588 0.0000
vt 0.4957 0.3607 0.0000
vt 0.4632 0.3607 0.0000
vt 0.4632 0.3171 0.0000
vt 0.4957 0.3171 0.0000
vt 0.4633 0.3168 0.0000
vt 0.4957 0.3168 0.0000
vt 0.4710 0.3174 0.0000
vt 0.4716 0.3174 0.0000
vt 0.4716 0.3588 0.0000
vt 0.4710 0.3588 0.0000
vt 0.4865 0.3174 0.0000
vt 0.4871 0.3174 0.0000
vt 0.4871 0.3588 0.0000
vt 0.4865 0.3588 0.0000
vt 0.4957 0.4229 0.0000
vt 0.4632 0.4229 0.0000
vt 0.4632 0.3638 0.0000
vt 0.4957 0.3638 0.0000
vt 0.4633 0.3633 0.0000
vt 0.4957 0.3633 0.0000
vt 0.4957 0.4230 0.0000
vt 0.4633 0.4230 0.0000
vt 0.4633 0.4222 0.0000
vt 0.4957 0.4222 0.0000
vt 0.4957 0.4228 0.0000
vt 0.4633 0.4228 0.0000
vt 0.4840 0.4229 0.0000
vt 0.4835 0.4229 0.0000
vt 0.4835 0.3638 0.0000
vt 0.4840 0.3638 0.0000
vt 0.4747 0.4229 0.0000
vt 0.4741 0.4229 0.0000
vt 0.4741 0.3638 0.0000
vt 0.4747 0.3638 0.0000
vt 0.4739 0.3958 0.0000
vt 0.4735 0.3954 0.0000
vt 0.4741 0.3945 0.0000
vt 0.4747 0.3945 0.0000
vt 0.4632 0.3630 0.0000
vt 0.4957 0.3630 0.0000
vt 0.4846 0.3954 0.0000
vt 0.4842 0.3958 0.0000
vt 0.4835 0.3945 0.0000
vt 0.4840 0.3945 0.0000
vt 0.4633 0.3621 0.0000
vt 0.4957 0.3621 0.0000
vt 0.4710 0.3945 0.0000
vt 0.4716 0.3945 0.0000
vt 0.4721 0.3954 0.0000
vt 0.4718 0.3958 0.0000
vt 0.4957 0.3616 0.0000
vt 0.4632 0.3616 0.0000
vt 0.4865 0.3945 0.0000
vt 0.4871 0.3945 0.0000
vt 0.4863 0.3958 0.0000
vt 0.4860 0.3954 0.0000
vt 0.4957 0.3600 0.0000
vt 0.4633 0.3600 0.0000
# 62 texture coords

g polySurface680
usemtl Atlas_2
s off
f 1/1/1 2/2/1 3/3/2 4/4/2 
f 5/5/3 6/6/3 7/7/4 8/8/4 
f 8/9/5 7/10/5 2/2/5 1/1/5 
f 2/11/6 7/12/6 6/13/7 3/14/7 
f 8/15/8 1/16/8 4/17/8 5/18/8 
f 9/19/1 10/20/1 11/21/9 12/22/9 
f 13/23/10 14/24/10 15/25/4 16/26/4 
f 16/27/5 15/28/5 10/29/5 9/30/5 
f 10/31/6 15/32/6 14/33/6 11/34/6 
f 16/35/8 9/36/8 12/37/11 13/38/11 
f 17/39/6 18/40/6 11/41/6 14/42/6 
f 18/43/12 19/44/12 12/22/9 11/21/9 
f 19/45/11 20/46/11 13/47/11 12/48/11 
f 20/49/13 17/50/13 14/24/10 13/23/10 
f 3/51/7 6/52/7 21/53/7 22/54/7 
f 6/6/3 5/5/3 23/55/14 21/56/14 
f 5/57/8 4/58/8 24/59/8 23/60/8 
f 4/4/2 3/3/2 22/61/15 24/62/15 
f 22/54/7 21/53/7 18/40/6 17/39/6 
f 21/56/14 23/55/14 19/44/12 18/43/12 
f 23/60/8 24/59/8 20/46/11 19/45/11 
f 24/62/15 22/61/15 17/50/13 20/49/13 
# 22 polygons

