# 3ds Max Wavefront OBJ Exporter v0.97b - (c)2007 guruware
# File Created: 04.04.2017 12:20:41

mtllib TV_1A.mtl

#
# object polySurface1518
#

v  -8.0000 -3.7132 0.1750
v  8.0000 -3.7132 0.1750
v  8.0000 5.7868 0.1750
v  -8.0000 5.7868 0.1750
v  8.0000 5.7868 -0.1750
v  -8.0000 5.7868 -0.1750
v  8.0000 -3.7132 -0.1750
v  -8.0000 -3.7132 -0.1750
v  -3.0000 -5.3488 0.8000
v  3.0000 -5.3488 0.8000
v  3.0000 -4.8488 0.8000
v  -3.0000 -4.8488 0.8000
v  3.0000 -4.8488 -1.2000
v  -3.0000 -4.8488 -1.2000
v  3.0000 -5.3488 -1.2000
v  -3.0000 -5.3488 -1.2000
v  -0.4633 -4.8488 -0.1253
v  0.4633 -4.8488 -0.1253
v  0.4633 -2.2752 -0.1253
v  -0.4633 -2.2752 -0.1253
v  0.4633 -2.2752 -0.6027
v  -0.4633 -2.2752 -0.6027
v  0.4633 -4.8488 -0.6027
v  -0.4633 -4.8488 -0.6027
# 24 vertices

vn 0.0000 -0.0000 1.0000
vn 0.0000 1.0000 0.0000
vn 0.0000 0.0000 -1.0000
vn 0.0000 -1.0000 -0.0000
vn 1.0000 0.0000 -0.0000
vn -1.0000 0.0000 -0.0000
# 6 vertex normals

vt 0.0739 0.4796 0.0000
vt 0.1670 0.4796 0.0000
vt 0.1670 0.5348 0.0000
vt 0.0739 0.5348 0.0000
vt 0.1670 0.5369 0.0000
vt 0.0739 0.5369 0.0000
vt 0.4351 0.7355 0.0000
vt 0.3672 0.7355 0.0000
vt 0.3672 0.6952 0.0000
vt 0.4351 0.6952 0.0000
vt 0.0739 0.4775 0.0000
vt 0.1670 0.4775 0.0000
vt 0.1691 0.4796 0.0000
vt 0.1691 0.5348 0.0000
vt 0.0719 0.4796 0.0000
vt 0.0719 0.5348 0.0000
vt 0.1306 0.7510 0.0000
vt 0.1668 0.7510 0.0000
vt 0.1668 0.7540 0.0000
vt 0.1306 0.7540 0.0000
vt 0.1668 0.7661 0.0000
vt 0.1306 0.7661 0.0000
vt 0.1668 0.7691 0.0000
vt 0.1306 0.7691 0.0000
vt 0.1698 0.7540 0.0000
vt 0.1698 0.7661 0.0000
vt 0.1276 0.7661 0.0000
vt 0.1276 0.7540 0.0000
vt 0.1647 0.7539 0.0000
vt 0.1647 0.7659 0.0000
vt 0.1339 0.7659 0.0000
vt 0.1339 0.7539 0.0000
vt 0.1670 0.7665 0.0000
vt 0.1305 0.7665 0.0000
vt 0.1305 0.7540 0.0000
vt 0.1670 0.7540 0.0000
vt 0.1647 0.7689 0.0000
vt 0.1339 0.7689 0.0000
# 38 texture coords

g polySurface1518
usemtl Atlas_2
s off
f 1/1/1 2/2/1 3/3/1 4/4/1 
f 4/4/2 3/3/2 5/5/2 6/6/2 
f 6/7/3 5/8/3 7/9/3 8/10/3 
f 8/11/4 7/12/4 2/2/4 1/1/4 
f 2/2/5 7/13/5 5/14/5 3/3/5 
f 8/15/6 1/1/6 4/4/6 6/16/6 
f 9/17/1 10/18/1 11/19/1 12/20/1 
f 12/20/2 11/19/2 13/21/2 14/22/2 
f 14/22/3 13/21/3 15/23/3 16/24/3 
f 10/25/5 15/26/5 13/21/5 11/19/5 
f 16/27/6 9/28/6 12/20/6 14/22/6 
f 17/29/1 18/30/1 19/31/1 20/32/1 
f 20/33/2 19/34/2 21/35/2 22/36/2 
f 22/31/3 21/32/3 23/29/3 24/30/3 
f 18/30/5 23/37/5 21/38/5 19/31/5 
f 24/30/6 17/37/6 20/38/6 22/31/6 
# 16 polygons

