# 3ds Max Wavefront OBJ Exporter v0.97b - (c)2007 guruware
# File Created: 04.04.2017 12:20:54

mtllib TV_1B.mtl

#
# object pCube353
#

v  -8.0000 -3.7132 0.1750
v  8.0000 -3.7132 0.1750
v  8.0000 5.7868 0.1750
v  -8.0000 5.7868 0.1750
v  8.0000 5.7868 -0.1750
v  -8.0000 5.7868 -0.1750
v  -8.0000 -3.7132 -0.1750
v  8.0000 -3.7132 -0.1750
# 8 vertices

vn 0.0000 -0.0000 1.0000
vn 0.0000 1.0000 0.0000
vn 0.0000 -1.0000 -0.0000
vn 1.0000 0.0000 -0.0000
vn -1.0000 0.0000 -0.0000
# 5 vertex normals

vt 0.0739 0.4796 0.0000
vt 0.1670 0.4796 0.0000
vt 0.1670 0.5348 0.0000
vt 0.0739 0.5348 0.0000
vt 0.1670 0.5369 0.0000
vt 0.0739 0.5369 0.0000
vt 0.0739 0.4775 0.0000
vt 0.1670 0.4775 0.0000
vt 0.1691 0.4796 0.0000
vt 0.1691 0.5348 0.0000
vt 0.0719 0.4796 0.0000
vt 0.0719 0.5348 0.0000
# 12 texture coords

g pCube353
usemtl Atlas_2
s off
f 1/1/1 2/2/1 3/3/1 4/4/1 
f 4/4/2 3/3/2 5/5/2 6/6/2 
f 7/7/3 8/8/3 2/2/3 1/1/3 
f 2/2/4 8/9/4 5/10/4 3/3/4 
f 7/11/5 1/1/5 4/4/5 6/12/5 
# 5 polygons

