# 3ds Max Wavefront OBJ Exporter v0.97b - (c)2007 guruware
# File Created: 04.04.2017 12:21:06

mtllib TV_2.mtl

#
# object polySurface1519
#

v  -4.0000 -3.0000 2.2500
v  4.0000 -3.0000 2.2500
v  4.0000 3.0000 2.2500
v  -4.0000 3.0000 2.2500
v  4.0000 3.0000 -2.2500
v  -4.0000 3.0000 -2.2500
v  4.0000 -3.0000 -2.2500
v  -4.0000 -3.0000 -2.2500
v  -3.5000 -3.4200 2.0000
v  3.5000 -3.4200 2.0000
v  3.5000 -3.0000 2.0000
v  -3.5000 -3.0000 2.0000
v  -3.5000 -3.0000 -2.0000
v  3.5000 -3.0000 -2.0000
v  3.5000 -3.4200 -2.0000
v  -3.5000 -3.4200 -2.0000
v  -0.2871 2.9865 0.3251
v  0.5720 2.9865 0.3251
v  0.5720 3.2990 0.3251
v  -0.2871 3.2990 0.3251
v  0.5720 3.2990 -0.3251
v  -0.2871 3.2990 -0.3251
v  0.5720 2.9865 -0.3251
v  -0.2871 2.9865 -0.3251
v  0.3575 3.2745 0.0650
v  0.4831 3.2409 0.0650
v  1.4420 6.8196 0.0650
v  1.3165 6.8533 0.0650
v  1.2871 7.0630 0.1476
v  1.5723 6.9866 0.1476
v  1.5723 6.9866 -0.1476
v  1.2871 7.0630 -0.1476
v  1.3165 6.8533 -0.0650
v  1.4420 6.8196 -0.0650
v  0.4831 3.2409 -0.0650
v  0.3575 3.2745 -0.0650
v  -0.1959 3.2409 0.0650
v  -0.0704 3.2745 0.0650
v  -1.0293 6.8533 0.0650
v  -1.1549 6.8196 0.0650
v  -1.2851 6.9866 0.1476
v  -1.0000 7.0630 0.1476
v  -1.0000 7.0630 -0.1476
v  -1.2851 6.9866 -0.1476
v  -1.1549 6.8196 -0.0650
v  -1.0293 6.8533 -0.0650
v  -0.0704 3.2745 -0.0650
v  -0.1959 3.2409 -0.0650
# 48 vertices

vn 0.0000 -0.0000 1.0000
vn 0.0000 1.0000 0.0000
vn 0.0000 0.0000 -1.0000
vn 0.0000 -1.0000 -0.0000
vn 1.0000 0.0000 -0.0000
vn -1.0000 0.0000 -0.0000
vn 1.0000 -0.0000 0.0000
vn -1.0000 -0.0000 0.0000
vn -0.0000 -0.0000 1.0000
vn -0.0105 -0.0393 0.9992
vn 0.2588 0.9659 0.0000
vn -0.0105 -0.0393 -0.9992
vn -0.0000 0.0000 -1.0000
vn 0.9659 -0.2588 -0.0000
vn 0.9546 -0.2979 -0.0000
vn -0.9659 0.2588 0.0000
vn -0.9757 0.2193 0.0000
vn -0.9904 -0.1384 -0.0000
vn -0.1010 -0.3768 -0.9208
vn 0.7885 -0.6151 -0.0000
vn -0.1010 -0.3768 0.9208
vn 0.0105 -0.0393 0.9992
vn -0.2588 0.9659 0.0000
vn 0.0105 -0.0393 -0.9992
vn 0.9659 0.2588 0.0000
vn 0.9757 0.2193 0.0000
vn -0.9659 -0.2588 -0.0000
vn -0.9546 -0.2979 -0.0000
vn -0.7885 -0.6151 -0.0000
vn 0.1010 -0.3768 -0.9208
vn 0.9904 -0.1384 -0.0000
vn 0.1010 -0.3768 0.9208
# 32 vertex normals

vt 0.2933 0.6483 0.0000
vt 0.3653 0.6483 0.0000
vt 0.3653 0.7025 0.0000
vt 0.2933 0.7025 0.0000
vt 0.2543 0.6809 0.0000
vt 0.2920 0.6809 0.0000
vt 0.2920 0.7021 0.0000
vt 0.2543 0.7021 0.0000
vt 0.2539 0.6735 0.0000
vt 0.2921 0.6735 0.0000
vt 0.2921 0.7021 0.0000
vt 0.2539 0.7021 0.0000
vt 0.2525 0.6483 0.0000
vt 0.2525 0.7025 0.0000
vt 0.3028 0.9495 0.0000
vt 0.3028 0.7076 0.0000
vt 0.3235 0.7076 0.0000
vt 0.3235 0.9495 0.0000
vt 0.3034 0.8458 0.0000
vt 0.3034 0.7076 0.0000
vt 0.3242 0.7076 0.0000
vt 0.3242 0.8458 0.0000
vt 0.1371 0.7543 0.0000
vt 0.1604 0.7543 0.0000
vt 0.1604 0.7607 0.0000
vt 0.1371 0.7607 0.0000
vt 0.1371 0.7542 0.0000
vt 0.1604 0.7542 0.0000
vt 0.1604 0.7661 0.0000
vt 0.1371 0.7661 0.0000
vt 0.1371 0.7596 0.0000
vt 0.1604 0.7596 0.0000
vt 0.1668 0.7542 0.0000
vt 0.1668 0.7661 0.0000
vt 0.1306 0.7661 0.0000
vt 0.1306 0.7542 0.0000
vt 0.0776 0.5261 0.0000
vt 0.0776 0.5233 0.0000
vt 0.1590 0.5240 0.0000
vt 0.1590 0.5275 0.0000
vt 0.1509 0.4978 0.0000
vt 0.1509 0.4884 0.0000
vt 0.1603 0.4884 0.0000
vt 0.1603 0.4978 0.0000
vt 0.0776 0.5205 0.0000
vt 0.1590 0.5205 0.0000
vt 0.1633 0.5187 0.0000
vt 0.1633 0.5240 0.0000
vt 0.1632 0.5293 0.0000
# 49 texture coords

g polySurface1519
usemtl Atlas_2
s off
f 1/1/1 2/2/1 3/3/1 4/4/1 
f 4/5/2 3/6/2 5/7/2 6/8/2 
f 6/9/3 5/10/3 7/11/3 8/12/3 
f 8/5/4 7/6/4 2/7/4 1/8/4 
f 2/1/5 7/13/5 5/14/5 3/4/5 
f 8/13/6 1/1/6 4/4/6 6/14/6 
f 9/15/1 10/16/1 11/17/1 12/18/1 
f 13/15/3 14/16/3 15/17/3 16/18/3 
f 10/19/5 15/20/5 14/21/5 11/22/5 
f 16/19/6 9/20/6 12/21/6 13/22/6 
f 17/23/1 18/24/1 19/25/1 20/26/1 
f 20/27/2 19/28/2 21/29/2 22/30/2 
f 22/31/3 21/32/3 23/29/3 24/30/3 
f 18/33/7 23/34/7 21/29/7 19/28/7 
f 24/35/8 17/36/8 20/27/8 22/30/8 
f 25/37/9 26/38/9 27/39/10 28/40/10 
f 29/41/11 30/42/11 31/43/11 32/44/11 
f 33/39/12 34/40/12 35/37/13 36/38/13 
f 26/38/14 35/45/14 34/46/15 27/39/15 
f 36/38/16 25/45/16 28/46/17 33/39/17 
f 33/39/17 28/46/17 29/47/18 32/48/18 
f 32/48/19 31/49/19 34/40/12 33/39/12 
f 27/39/15 34/46/15 31/47/20 30/48/20 
f 28/40/10 27/39/10 30/48/21 29/49/21 
f 37/37/1 38/38/1 39/39/22 40/40/22 
f 41/41/23 42/42/23 43/43/23 44/44/23 
f 45/39/24 46/40/24 47/37/3 48/38/3 
f 38/38/25 47/45/25 46/46/26 39/39/26 
f 48/38/27 37/45/27 40/46/28 45/39/28 
f 45/39/28 40/46/28 41/47/29 44/48/29 
f 44/48/30 43/49/30 46/40/24 45/39/24 
f 39/39/26 46/46/26 43/47/31 42/48/31 
f 40/40/22 39/39/22 42/48/32 41/49/32 
# 33 polygons

