# 3ds Max Wavefront OBJ Exporter v0.97b - (c)2007 guruware
# File Created: 04.04.2017 12:26:55

mtllib Wall_2_Corner_B.mtl

#
# object polySurface12
#

v  19.0000 20.0000 1.0000
v  -20.0000 20.0000 1.0000
v  -10.0000 10.0000 1.0000
v  10.0000 10.0000 1.0000
v  19.0000 18.1818 1.0000
v  19.0000 -20.0000 40.0000
v  21.0000 -20.0000 40.0000
v  21.0000 20.0000 40.0000
v  19.0000 20.0000 40.0000
v  21.0000 -20.0000 1.0000
v  19.0000 -20.0000 1.0000
v  10.0000 -20.0000 -1.0000
v  10.0000 -20.0000 1.0000
v  19.0000 -20.0000 -1.0000
v  21.0000 -20.0000 -1.0000
v  21.0000 20.0000 1.0000
v  21.0000 20.0000 -1.0000
v  -10.0000 -20.0000 1.0000
v  -10.0000 -20.0000 -1.0000
v  -10.0000 10.0000 -1.0000
v  10.0000 10.0000 -1.0000
v  -20.0000 20.0000 -1.0000
v  19.0000 20.0000 -1.0000
v  19.0000 18.1818 -1.0000
v  -20.0000 -20.0000 -1.0000
v  -20.0000 -20.0000 1.0000
# 26 vertices

vn -0.0000 -0.0000 1.0000
vn 0.0000 -0.0000 1.0000
vn 0.0000 -1.0000 -0.0000
vn -1.0000 0.0000 -0.0000
vn 0.0000 1.0000 0.0000
vn 1.0000 0.0000 -0.0000
vn 0.0000 0.0000 -1.0000
vn -0.0000 0.0000 -1.0000
# 8 vertex normals

vt 0.4877 0.9997 0.0000
vt 0.2504 0.9997 0.0000
vt 0.3128 0.9374 0.0000
vt 0.4375 0.9374 0.0000
vt 0.4886 0.9884 0.0000
vt 0.4876 0.7502 0.0000
vt 0.5000 0.7502 0.0000
vt 0.5000 0.9997 0.0000
vt 0.4876 0.9997 0.0000
vt 0.4878 0.9657 0.0000
vt 0.2505 0.9657 0.0000
vt 0.2505 0.9506 0.0000
vt 0.4878 0.9506 0.0000
vt 0.5000 0.8829 0.0000
vt 0.4878 0.8829 0.0000
vt 0.5000 0.9506 0.0000
vt 0.5000 0.9657 0.0000
vt 0.2626 0.7502 0.0000
vt 0.2626 0.9997 0.0000
vt 0.2626 0.9884 0.0000
vt 0.4878 0.9997 0.0000
vt 0.2504 0.7502 0.0000
vt 0.4878 0.7502 0.0000
vt 0.3128 0.9376 0.0000
vt 0.3128 0.7506 0.0000
vt 0.3253 0.7506 0.0000
vt 0.3253 0.9376 0.0000
vt 0.4377 0.7506 0.0000
vt 0.4377 0.9376 0.0000
vt 0.4253 0.9376 0.0000
vt 0.4253 0.7506 0.0000
vt 0.3128 0.9166 0.0000
vt 0.4375 0.9166 0.0000
vt 0.4999 0.9997 0.0000
vt 0.2618 0.9884 0.0000
vt 0.2618 0.7503 0.0000
vt 0.3128 0.7503 0.0000
vt 0.2504 0.7503 0.0000
vt 0.4886 0.7503 0.0000
vt 0.4375 0.7503 0.0000
vt 0.4874 0.7503 0.0000
vt 0.4999 0.7503 0.0000
vt 0.4999 0.9998 0.0000
vt 0.4874 0.9998 0.0000
vt 0.4999 0.7644 0.0000
vt 0.4375 0.7644 0.0000
vt 0.4375 0.7502 0.0000
vt 0.4999 0.7502 0.0000
vt 0.2505 0.9655 0.0000
vt 0.2505 0.9503 0.0000
vt 0.4877 0.9503 0.0000
vt 0.4999 0.9503 0.0000
vt 0.4999 0.9655 0.0000
vt 0.4877 0.9655 0.0000
# 54 texture coords

g polySurface12
usemtl Atlas_1
s off
f 1/1/1 2/2/1 3/3/1 4/4/1 
f 1/1/1 4/4/1 5/5/1 
f 6/6/2 7/7/2 8/8/2 9/9/2 
f 10/10/3 7/11/3 6/12/3 11/13/3 
f 12/14/3 10/10/3 11/13/3 13/15/3 
f 10/10/3 12/14/3 14/16/3 15/17/3 
f 11/18/4 6/7/4 9/8/4 1/19/4 
f 11/18/4 1/19/4 5/20/4 
f 1/10/5 9/11/5 8/12/5 16/13/5 
f 16/21/6 8/2/6 7/22/6 10/23/6 
f 16/21/6 10/23/6 15/7/6 17/8/6 
f 3/24/6 18/25/6 19/26/6 20/27/6 
f 13/28/4 4/29/4 21/30/4 12/31/4 
f 20/32/3 21/33/3 4/4/3 3/3/3 
f 20/4/7 22/34/7 23/19/7 17/2/7 
f 20/4/7 17/2/7 24/35/7 21/3/7 
f 14/36/8 12/37/8 21/3/8 24/35/8 
f 14/36/8 24/35/8 17/2/8 15/38/8 
f 11/39/2 5/5/2 4/4/2 13/40/2 
f 25/41/4 26/42/4 2/43/4 22/44/4 
f 25/45/3 19/46/3 18/47/3 26/48/3 
f 20/4/7 19/40/7 25/42/7 22/34/7 
f 22/49/5 2/50/5 1/51/5 16/52/5 
f 22/49/5 16/52/5 17/53/5 23/54/5 
f 26/38/2 18/37/2 3/3/2 2/2/2 
# 23 polygons - 2 triangles

