# 3ds Max Wavefront OBJ Exporter v0.97b - (c)2007 guruware
# File Created: 04.04.2017 12:51:58

mtllib Wall_7_Corner_F.mtl

#
# object polySurface50
#

v  -19.0000 20.0000 1.0000
v  -19.0000 20.0000 40.0000
v  -19.0000 10.0000 31.8085
v  -19.0000 10.0000 17.1305
v  -10.0000 10.0000 1.0000
v  -10.0000 -20.0000 1.0000
v  -10.0000 -20.0000 -1.0000
v  -10.0000 10.0000 -1.0000
v  10.0000 -20.0000 1.0000
v  10.0000 10.0000 1.0000
v  10.0000 10.0000 -1.0000
v  10.0000 -20.0000 -1.0000
v  -19.0000 20.0000 -1.0000
v  20.0000 20.0000 -1.0000
v  -19.0000 -20.0000 -1.0000
v  -21.0000 -20.0000 -1.0000
v  -21.0000 20.0000 -1.0000
v  20.0000 -20.0000 -1.0000
v  20.0000 -20.0000 1.0000
v  20.0000 20.0000 1.0000
v  -19.0000 -20.0000 1.0000
v  -19.0000 -20.0000 40.0000
v  -19.0000 -10.0000 31.8085
v  -19.0000 -10.0000 17.1305
v  -21.0000 -10.0000 17.1305
v  -21.0000 -10.0000 31.8085
v  -21.0000 10.0000 17.1305
v  -21.0000 10.0000 31.8085
v  -21.0000 -20.0000 40.0000
v  -21.0000 20.0000 40.0000
v  -21.0000 -20.0000 1.0000
v  -21.0000 20.0000 1.0000
# 32 vertices

vn 1.0000 0.0000 0.0000
vn 1.0000 0.0000 -0.0000
vn -1.0000 0.0000 -0.0000
vn 0.0000 -1.0000 -0.0000
vn -0.0000 0.0000 -1.0000
vn 0.0000 0.0000 -1.0000
vn 0.0000 -0.0000 1.0000
vn 0.0000 1.0000 0.0000
vn -1.0000 -0.0000 -0.0000
vn -1.0000 0.0000 0.0000
# 10 vertex normals

vt 0.2636 0.7496 0.0000
vt 0.4986 0.7496 0.0000
vt 0.4485 0.6874 0.0000
vt 0.3572 0.6874 0.0000
vt 0.3126 0.6876 0.0000
vt 0.3126 0.5006 0.0000
vt 0.3251 0.5006 0.0000
vt 0.3251 0.6876 0.0000
vt 0.4376 0.5006 0.0000
vt 0.4376 0.6876 0.0000
vt 0.4251 0.6876 0.0000
vt 0.4251 0.5006 0.0000
vt 0.3126 0.6665 0.0000
vt 0.4373 0.6665 0.0000
vt 0.4373 0.6873 0.0000
vt 0.3126 0.6873 0.0000
vt 0.4867 0.7497 0.0000
vt 0.2511 0.7497 0.0000
vt 0.4374 0.6873 0.0000
vt 0.4875 0.5002 0.0000
vt 0.4374 0.5002 0.0000
vt 0.4989 0.5002 0.0000
vt 0.4989 0.7497 0.0000
vt 0.4374 0.5143 0.0000
vt 0.4989 0.5143 0.0000
vt 0.2511 0.5002 0.0000
vt 0.3126 0.5002 0.0000
vt 0.4864 0.7497 0.0000
vt 0.4864 0.5002 0.0000
vt 0.4876 0.5143 0.0000
vt 0.4876 0.5002 0.0000
vt 0.2634 0.5045 0.0000
vt 0.4989 0.5045 0.0000
vt 0.4989 0.5198 0.0000
vt 0.2634 0.5198 0.0000
vt 0.2633 0.7497 0.0000
vt 0.2625 0.5002 0.0000
vt 0.4986 0.5007 0.0000
vt 0.4485 0.5630 0.0000
vt 0.4486 0.5793 0.0000
vt 0.3572 0.5793 0.0000
vt 0.3572 0.5657 0.0000
vt 0.4486 0.5657 0.0000
vt 0.3572 0.6877 0.0000
vt 0.3572 0.5630 0.0000
vt 0.3697 0.5630 0.0000
vt 0.3697 0.6877 0.0000
vt 0.4487 0.5630 0.0000
vt 0.4487 0.6877 0.0000
vt 0.4362 0.6877 0.0000
vt 0.4362 0.5630 0.0000
vt 0.4486 0.6874 0.0000
vt 0.3572 0.6737 0.0000
vt 0.4486 0.6737 0.0000
vt 0.4841 0.7496 0.0000
vt 0.4841 0.5011 0.0000
vt 0.4986 0.5011 0.0000
vt 0.2636 0.5197 0.0000
vt 0.2636 0.5048 0.0000
vt 0.4986 0.5048 0.0000
vt 0.4986 0.5197 0.0000
vt 0.2515 0.5197 0.0000
vt 0.2515 0.5048 0.0000
vt 0.2636 0.5007 0.0000
vt 0.2515 0.5007 0.0000
vt 0.2515 0.7496 0.0000
# 66 texture coords

g polySurface50
usemtl Atlas_1
s off
f 1/1/1 2/2/1 3/3/1 4/4/1 
f 5/5/2 6/6/2 7/7/2 8/8/2 
f 9/9/3 10/10/3 11/11/3 12/12/3 
f 8/13/4 11/14/4 10/15/4 5/16/4 
f 13/17/5 14/18/5 11/16/5 8/19/5 
f 15/20/5 13/17/5 8/19/5 7/21/5 
f 13/17/5 15/20/5 16/22/5 17/23/5 
f 9/24/4 12/21/4 18/22/4 19/25/4 
f 18/26/6 12/27/6 11/16/6 14/18/6 
f 10/19/7 9/21/7 19/22/7 20/23/7 
f 20/28/2 19/29/2 18/22/2 14/23/2 
f 15/30/4 7/24/4 6/21/4 21/31/4 
f 1/32/8 20/33/8 14/34/8 13/35/8 
f 5/16/7 10/19/7 20/23/7 1/36/7 
f 6/27/7 5/16/7 1/36/7 21/37/7 
f 22/38/2 23/39/2 3/3/2 2/2/2 
f 23/40/8 24/41/8 25/42/8 26/43/8 
f 27/44/7 25/45/7 24/46/7 4/47/7 
f 26/48/6 28/49/6 3/50/6 23/51/6 
f 28/52/4 27/4/4 4/53/4 3/54/4 
f 26/39/3 29/38/3 30/2/3 28/3/3 
f 30/55/7 29/56/7 22/57/7 2/2/7 
f 31/58/4 21/59/4 22/60/4 29/61/4 
f 32/59/8 1/58/8 13/62/8 17/63/8 
f 31/64/9 29/38/9 26/39/9 25/45/9 
f 31/64/9 25/45/9 16/65/9 
f 1/1/2 4/4/2 24/45/2 21/64/2 
f 21/64/2 24/45/2 23/39/2 22/38/2 
f 17/66/10 27/4/10 28/3/10 30/2/10 
f 17/66/10 30/2/10 32/1/10 
f 16/65/3 25/45/3 27/4/3 17/66/3 
f 16/62/4 15/63/4 21/59/4 31/58/4 
f 30/60/8 2/61/8 1/58/8 32/59/8 
# 31 polygons - 2 triangles

