# 3ds Max Wavefront OBJ Exporter v0.97b - (c)2007 guruware
# File Created: 04.04.2017 12:55:49

mtllib Wall_8_Corner_F.mtl

#
# object polySurface63
#

v  -19.0000 20.0000 1.0000
v  -19.0000 20.0000 40.0000
v  -19.0000 10.0000 31.8085
v  -19.0000 10.0000 17.1305
v  -19.0000 -20.0000 1.0000
v  -19.0000 -10.0000 17.1305
v  -19.0000 -10.0000 31.8085
v  -19.0000 -20.0000 40.0000
v  -10.0000 -20.0000 1.0000
v  -10.0000 -20.0000 -1.0000
v  -10.0000 10.0000 -1.0000
v  -10.0000 10.0000 1.0000
v  10.0000 -20.0000 -1.0000
v  10.0000 -20.0000 1.0000
v  10.0000 10.0000 1.0000
v  10.0000 10.0000 -1.0000
v  -19.0000 20.0000 -1.0000
v  20.0000 20.0000 -1.0000
v  -20.0000 20.0000 -1.0000
v  -20.0000 -20.0000 -1.0000
v  -19.0000 -20.0000 -1.0000
v  -21.0000 20.0000 -1.0000
v  -21.0000 -20.0000 -1.0000
v  20.0000 -20.0000 -1.0000
v  20.0000 -20.0000 1.0000
v  20.0000 20.0000 1.0000
v  -19.0000 -20.0000 -0.0000
v  -21.0000 -20.0000 40.0000
v  -21.0000 -20.0000 1.0000
v  -21.0000 -20.0000 -0.0000
v  -19.0000 20.0000 0.0000
v  -21.0000 20.0000 0.0000
v  -21.0000 -10.0000 31.8085
v  -21.0000 -10.0000 17.1305
v  -21.0000 20.0000 1.0000
v  -21.0000 10.0000 17.1305
v  -21.0000 20.0000 40.0000
v  -21.0000 10.0000 31.8085
# 38 vertices

vn 1.0000 0.0000 -0.0000
vn -1.0000 0.0000 -0.0000
vn 0.0000 -1.0000 -0.0000
vn -0.0000 0.0000 -1.0000
vn 0.0000 0.0000 -1.0000
vn 0.0000 -0.0000 1.0000
vn 0.0000 1.0000 0.0000
vn -1.0000 0.0000 0.0000
# 8 vertex normals

vt 0.0068 0.7496 0.0000
vt 0.2494 0.7496 0.0000
vt 0.1984 0.6874 0.0000
vt 0.1071 0.6874 0.0000
vt 0.0068 0.5008 0.0000
vt 0.1071 0.5630 0.0000
vt 0.1984 0.5630 0.0000
vt 0.2494 0.5011 0.0000
vt 0.0627 0.5013 0.0000
vt 0.0751 0.5014 0.0000
vt 0.0751 0.6876 0.0000
vt 0.0627 0.6873 0.0000
vt 0.1751 0.5014 0.0000
vt 0.1875 0.5013 0.0000
vt 0.1874 0.6874 0.0000
vt 0.1751 0.6876 0.0000
vt 0.0627 0.6665 0.0000
vt 0.1873 0.6665 0.0000
vt 0.2435 0.7497 0.0000
vt 0.0003 0.7497 0.0000
vt 0.2497 0.7497 0.0000
vt 0.1874 0.6873 0.0000
vt 0.2497 0.5011 0.0000
vt 0.2435 0.5011 0.0000
vt 0.1874 0.5011 0.0000
vt 0.1874 0.5817 0.0000
vt 0.1874 0.5685 0.0000
vt 0.2498 0.5685 0.0000
vt 0.2498 0.5817 0.0000
vt 0.0003 0.5011 0.0000
vt 0.0627 0.5011 0.0000
vt 0.2372 0.5011 0.0000
vt 0.2498 0.5011 0.0000
vt 0.2498 0.7497 0.0000
vt 0.2372 0.7497 0.0000
vt 0.2488 0.7225 0.0000
vt 0.2428 0.7225 0.0000
vt 0.0097 0.7227 0.0000
vt 0.0097 0.7115 0.0000
vt 0.2428 0.7113 0.0000
vt 0.2488 0.7113 0.0000
vt 0.0257 0.7125 0.0000
vt 0.0257 0.7201 0.0000
vt 0.0195 0.7201 0.0000
vt 0.0133 0.7201 0.0000
vt 0.0133 0.7125 0.0000
vt 0.0065 0.7497 0.0000
vt 0.0065 0.5011 0.0000
vt 0.2349 0.5011 0.0000
vt 0.2421 0.5011 0.0000
vt 0.0068 0.5007 0.0000
vt 0.2494 0.5007 0.0000
vt 0.1986 0.5630 0.0000
vt 0.1071 0.6875 0.0000
vt 0.1985 0.6875 0.0000
vt 0.0005 0.5007 0.0000
vt 0.0005 0.7496 0.0000
vt 0.1861 0.6877 0.0000
vt 0.1861 0.5630 0.0000
vt 0.1985 0.5793 0.0000
vt 0.1071 0.5793 0.0000
vt 0.1071 0.5657 0.0000
vt 0.1985 0.5657 0.0000
vt 0.1196 0.5630 0.0000
vt 0.1196 0.6877 0.0000
vt 0.1071 0.6737 0.0000
vt 0.1985 0.6737 0.0000
vt 0.2349 0.7496 0.0000
vt 0.0005 0.7226 0.0000
vt 0.0005 0.7076 0.0000
vt 0.0067 0.7076 0.0000
vt 0.2493 0.7076 0.0000
vt 0.2493 0.7226 0.0000
vt 0.0067 0.7226 0.0000
vt 0.2435 0.5656 0.0000
vt 0.1874 0.5656 0.0000
vt 0.1874 0.5524 0.0000
vt 0.2435 0.5524 0.0000
vt 0.2435 0.5590 0.0000
vt 0.0066 0.7062 0.0000
vt 0.2498 0.7062 0.0000
vt 0.2498 0.7214 0.0000
vt 0.0066 0.7214 0.0000
vt 0.0066 0.7138 0.0000
# 84 texture coords

g polySurface63
usemtl Atlas_1
s off
f 1/1/1 2/2/1 3/3/1 4/4/1 
f 5/5/1 1/1/1 4/4/1 6/6/1 
f 5/5/1 6/6/1 7/7/1 8/8/1 
f 9/9/1 10/10/1 11/11/1 12/12/1 
f 13/13/2 14/14/2 15/15/2 16/16/2 
f 11/17/3 16/18/3 15/15/3 12/12/3 
f 17/19/4 18/20/4 16/12/4 19/21/4 
f 19/21/4 16/12/4 11/22/4 20/23/4 
f 21/24/4 20/23/4 11/22/4 10/25/4 
f 22/21/4 19/21/4 20/23/4 23/23/4 
f 14/26/3 13/27/3 24/28/3 25/29/3 
f 24/30/5 13/31/5 16/12/5 18/20/5 
f 15/15/6 14/14/6 25/23/6 26/21/6 
f 25/32/1 24/33/1 18/34/1 26/35/1 
f 27/36/3 5/37/3 8/38/3 28/39/3 
f 27/36/3 28/39/3 29/40/3 30/41/3 
f 31/42/7 17/43/7 19/44/7 22/45/7 
f 31/42/7 22/45/7 32/46/7 
f 12/12/6 15/15/6 26/21/6 1/47/6 
f 9/9/6 12/12/6 1/47/6 5/48/6 
f 30/8/8 32/2/8 22/2/2 23/8/2 
f 27/49/3 30/8/3 23/8/3 20/50/3 
f 27/49/3 20/50/3 21/49/3 
f 29/51/8 28/52/8 33/53/8 34/6/8 
f 35/1/8 29/51/8 34/6/8 36/54/8 
f 37/2/8 35/1/8 36/54/8 38/55/8 
f 30/56/8 29/51/8 35/1/8 32/57/8 
f 2/2/1 8/8/1 7/7/1 3/3/1 
f 28/52/2 37/2/2 38/55/2 33/53/2 
f 3/58/5 7/59/5 33/53/5 38/55/5 
f 7/60/7 6/61/7 34/62/7 33/63/7 
f 6/64/6 4/65/6 36/54/6 34/6/6 
f 38/55/3 36/54/3 4/66/3 3/67/3 
f 28/49/6 8/8/6 2/2/6 37/68/6 
f 31/69/7 32/70/7 35/71/7 37/72/7 
f 31/69/7 37/72/7 2/73/7 1/74/7 
f 21/75/3 10/76/3 9/77/3 5/78/3 
f 21/75/3 5/78/3 27/79/3 
f 1/80/7 26/81/7 18/82/7 17/83/7 
f 1/80/7 17/83/7 31/84/7 
# 36 polygons - 4 triangles

