# 3ds Max Wavefront OBJ Exporter v0.97b - (c)2007 guruware
# File Created: 04.04.2017 12:24:22

mtllib Wall_1_Corner_E.mtl

#
# object polySurface8
#

v  19.0000 -20.0000 1.0000
v  19.0000 -20.0000 40.0000
v  19.0000 -10.0000 31.8085
v  19.0000 -10.0000 8.1915
v  19.0000 20.0000 1.0000
v  -20.0000 20.0000 1.0000
v  -10.0000 10.0000 1.0000
v  10.0000 10.0000 1.0000
v  -10.0000 -20.0000 1.0000
v  -10.0000 -20.0000 -1.0000
v  -10.0000 10.0000 -1.0000
v  10.0000 -20.0000 1.0000
v  10.0000 10.0000 -1.0000
v  10.0000 -20.0000 -1.0000
v  19.0000 -20.0000 -1.0000
v  21.0000 20.0000 -1.0000
v  21.0000 -20.0000 -1.0000
v  -20.0000 -20.0000 -1.0000
v  -20.0000 -20.0000 1.0000
v  -20.0000 20.0000 -1.0000
v  19.0000 20.0000 -1.0000
v  21.0000 10.0000 8.1915
v  21.0000 20.0000 1.0000
v  21.0000 20.0000 40.0000
v  21.0000 10.0000 31.8085
v  21.0000 -20.0000 40.0000
v  21.0000 -10.0000 31.8085
v  21.0000 -10.0000 8.1915
v  19.0000 10.0000 31.8085
v  19.0000 10.0000 8.1915
v  19.0000 20.0000 40.0000
v  21.0000 -20.0000 1.0000
# 32 vertices

vn -1.0000 -0.0000 -0.0000
vn 0.0000 0.0000 1.0000
vn 1.0000 0.0000 -0.0000
vn -1.0000 0.0000 -0.0000
vn 0.0000 -1.0000 -0.0000
vn 0.0000 0.0000 -1.0000
vn 0.0000 1.0000 0.0000
vn 0.0000 -0.0000 1.0000
vn 1.0000 -0.0000 -0.0000
vn -1.0000 0.0000 0.0000
# 10 vertex normals

vt 0.0123 0.7504 0.0000
vt 0.2497 0.7504 0.0000
vt 0.1986 0.8128 0.0000
vt 0.0513 0.8128 0.0000
vt 0.2375 0.9997 0.0000
vt 0.0002 0.9997 0.0000
vt 0.0626 0.9374 0.0000
vt 0.1873 0.9374 0.0000
vt 0.0626 0.9376 0.0000
vt 0.0626 0.7506 0.0000
vt 0.0750 0.7506 0.0000
vt 0.0750 0.9376 0.0000
vt 0.1875 0.7506 0.0000
vt 0.1875 0.9376 0.0000
vt 0.1750 0.9376 0.0000
vt 0.1750 0.7506 0.0000
vt 0.0626 0.9166 0.0000
vt 0.1872 0.9166 0.0000
vt 0.1872 0.9374 0.0000
vt 0.2383 0.7644 0.0000
vt 0.1873 0.7644 0.0000
vt 0.1873 0.7502 0.0000
vt 0.2383 0.7502 0.0000
vt 0.0115 0.7503 0.0000
vt 0.0626 0.7503 0.0000
vt 0.0002 0.7503 0.0000
vt 0.2371 0.7503 0.0000
vt 0.2497 0.7503 0.0000
vt 0.2497 0.9998 0.0000
vt 0.2371 0.9998 0.0000
vt 0.2497 0.7644 0.0000
vt 0.2497 0.7502 0.0000
vt 0.1873 0.7503 0.0000
vt 0.2496 0.7503 0.0000
vt 0.2496 0.9997 0.0000
vt 0.2375 0.9655 0.0000
vt 0.0003 0.9655 0.0000
vt 0.0003 0.9503 0.0000
vt 0.2375 0.9503 0.0000
vt 0.1986 0.9376 0.0000
vt 0.2497 0.9999 0.0000
vt 0.2375 0.9999 0.0000
vt 0.0002 0.9999 0.0000
vt 0.0513 0.9376 0.0000
vt 0.0002 0.7504 0.0000
vt 0.1986 0.8287 0.0000
vt 0.0513 0.8287 0.0000
vt 0.0513 0.8162 0.0000
vt 0.1986 0.8162 0.0000
vt 0.0513 0.9374 0.0000
vt 0.0644 0.8128 0.0000
vt 0.0644 0.9374 0.0000
vt 0.1986 0.9374 0.0000
vt 0.1855 0.9374 0.0000
vt 0.1855 0.8128 0.0000
vt 0.1986 0.9375 0.0000
vt 0.0513 0.9375 0.0000
vt 0.0513 0.9250 0.0000
vt 0.1986 0.9250 0.0000
vt 0.2329 0.7504 0.0000
vt 0.2329 0.9999 0.0000
vt 0.2375 0.9656 0.0000
vt 0.2375 0.9508 0.0000
vt 0.2497 0.9508 0.0000
vt 0.2497 0.9656 0.0000
vt 0.0003 0.9656 0.0000
vt 0.0003 0.9508 0.0000
vt 0.2383 0.7503 0.0000
vt 0.0124 0.9997 0.0000
vt 0.2375 0.7504 0.0000
vt 0.0123 0.9999 0.0000
# 71 texture coords

g polySurface8
usemtl Atlas_1
s off
f 1/1/1 2/2/1 3/3/1 4/4/1 
f 5/5/2 6/6/2 7/7/2 8/8/2 
f 7/9/3 9/10/3 10/11/3 11/12/3 
f 12/13/4 8/14/4 13/15/4 14/16/4 
f 11/17/5 13/18/5 8/19/5 7/7/5 
f 1/20/5 12/21/5 14/22/5 15/23/5 
f 15/24/6 14/25/6 13/7/6 16/6/6 
f 15/24/6 16/6/6 17/26/6 
f 18/27/4 19/28/4 6/29/4 20/30/4 
f 18/31/5 10/21/5 9/22/5 19/32/5 
f 11/8/6 10/33/6 18/34/6 20/35/6 
f 21/36/7 20/37/7 6/38/7 5/39/7 
f 19/26/8 9/25/8 7/7/8 6/6/8 
f 22/40/3 16/41/3 23/42/3 24/43/3 
f 22/40/3 24/43/3 25/44/3 
f 26/45/3 27/4/3 25/44/3 24/43/3 
f 4/46/7 3/47/7 27/48/7 28/49/7 
f 25/50/6 27/4/6 3/51/6 29/52/6 
f 28/3/8 22/53/8 30/54/8 4/55/8 
f 22/56/5 25/57/5 29/58/5 30/59/5 
f 2/60/8 26/2/8 24/41/8 31/61/8 
f 32/62/5 1/63/5 15/64/5 17/65/5 
f 3/3/4 2/2/4 31/41/4 29/40/4 
f 23/63/7 5/62/7 31/66/7 24/67/7 
f 5/5/8 8/8/8 12/33/8 1/68/8 
f 16/6/6 13/7/6 11/8/6 20/35/6 
f 16/6/6 20/35/6 21/69/6 
f 17/2/3 16/41/3 22/40/3 28/3/3 
f 17/2/9 28/3/9 27/4/9 26/45/9 
f 17/2/9 26/45/9 32/70/9 
f 26/66/5 2/67/5 1/63/5 32/62/5 
f 1/1/10 4/4/10 30/44/10 5/71/10 
f 5/71/4 30/44/4 29/40/4 31/41/4 
f 16/64/7 21/65/7 5/62/7 23/63/7 
# 30 polygons - 4 triangles

