# 3ds Max Wavefront OBJ Exporter v0.97b - (c)2007 guruware
# File Created: 04.04.2017 12:46:36

mtllib Wall_6_A.mtl

#
# object pCube54
#

v  -20.0000 -20.0000 1.0000
v  20.0000 -20.0000 1.0000
v  20.0000 20.0000 1.0000
v  -20.0000 20.0000 1.0000
v  20.0000 20.0000 -1.0000
v  -20.0000 20.0000 -1.0000
v  20.0000 -20.0000 -1.0000
v  -20.0000 -20.0000 -1.0000
# 8 vertices

vn 0.0000 -0.0000 1.0000
vn 0.0000 1.0000 0.0000
vn 0.0000 0.0000 -1.0000
vn 0.0000 -1.0000 -0.0000
vn 1.0000 0.0000 -0.0000
vn -1.0000 0.0000 -0.0000
# 6 vertex normals

vt 0.5013 0.5010 0.0000
vt 0.7491 0.5010 0.0000
vt 0.7492 0.7497 0.0000
vt 0.5014 0.7497 0.0000
vt 0.5016 0.5077 0.0000
vt 0.7488 0.5077 0.0000
vt 0.7488 0.5201 0.0000
vt 0.5016 0.5201 0.0000
vt 0.5340 0.7474 0.0000
vt 0.5289 0.5010 0.0000
vt 0.5415 0.5010 0.0000
vt 0.5462 0.7474 0.0000
# 12 texture coords

g pCube54
usemtl Atlas_1
s off
f 1/1/1 2/2/1 3/3/1 4/4/1 
f 4/5/2 3/6/2 5/7/2 6/8/2 
f 7/1/3 8/2/3 6/3/3 5/4/3 
f 8/5/4 7/6/4 2/7/4 1/8/4 
f 3/9/5 2/10/5 7/11/5 5/12/5 
f 8/10/6 1/11/6 4/12/6 6/9/6 
# 6 polygons

