# 3ds Max Wavefront OBJ Exporter v0.97b - (c)2007 guruware
# File Created: 04.04.2017 12:38:32

mtllib Wall_5_Corner_A.mtl

#
# object polySurface31
#

v  19.0000 20.0000 1.0000
v  -20.0000 20.0000 1.0000
v  -20.0000 -20.0000 1.0000
v  19.0000 -20.0000 1.0000
v  19.0000 -20.0000 40.0000
v  21.0000 -20.0000 40.0000
v  21.0000 20.0000 40.0000
v  19.0000 20.0000 40.0000
v  21.0000 -20.0000 1.0000
v  21.0000 20.0000 1.0000
v  21.0000 -20.0000 -1.0000
v  21.0000 20.0000 -1.0000
v  -20.0000 -20.0000 -1.0000
v  -20.0000 20.0000 -1.0000
v  19.0000 20.0000 -1.0000
v  19.0000 -20.0000 -1.0000
# 16 vertices

vn 0.0000 -0.0000 1.0000
vn 0.0000 -1.0000 -0.0000
vn -1.0000 0.0000 -0.0000
vn 0.0000 1.0000 0.0000
vn 1.0000 0.0000 -0.0000
vn 0.0000 0.0000 -1.0000
# 6 vertex normals

vt 0.9869 0.7497 0.0000
vt 0.7515 0.7497 0.0000
vt 0.7515 0.5001 0.0000
vt 0.9869 0.5001 0.0000
vt 0.9866 0.5001 0.0000
vt 0.9990 0.5001 0.0000
vt 0.9990 0.7497 0.0000
vt 0.9866 0.7497 0.0000
vt 0.9868 0.5193 0.0000
vt 0.7505 0.5193 0.0000
vt 0.7505 0.5042 0.0000
vt 0.9868 0.5042 0.0000
vt 0.7626 0.5001 0.0000
vt 0.7626 0.7497 0.0000
vt 0.9983 0.5001 0.0000
vt 0.9983 0.7497 0.0000
vt 0.9990 0.5042 0.0000
vt 0.9990 0.5193 0.0000
# 18 texture coords

g polySurface31
usemtl Atlas_1
s off
f 1/1/1 2/2/1 3/3/1 4/4/1 
f 5/5/1 6/6/1 7/7/1 8/8/1 
f 9/9/2 6/10/2 5/11/2 4/12/2 
f 4/13/3 5/6/3 8/7/3 1/14/3 
f 1/9/4 8/10/4 7/11/4 10/12/4 
f 10/1/5 7/2/5 6/3/5 9/4/5 
f 10/1/5 9/4/5 11/15/5 12/16/5 
f 13/5/3 3/6/3 2/7/3 14/8/3 
f 4/9/2 11/17/2 9/18/2 
f 14/16/6 15/14/6 12/2/6 11/3/6 
f 14/16/6 11/3/6 16/13/6 13/15/6 
f 2/11/4 1/12/4 12/18/4 15/9/4 
f 2/11/4 15/9/4 14/10/4 
f 12/18/4 1/12/4 10/17/4 
f 13/11/2 16/12/2 11/17/2 4/9/2 
f 13/11/2 4/9/2 3/10/2 
# 12 polygons - 4 triangles

