# 3ds Max Wavefront OBJ Exporter v0.97b - (c)2007 guruware
# File Created: 04.04.2017 12:26:31

mtllib Wall_2_C.mtl

#
# object pCube35
#

v  -11.8085 -10.0000 1.0000
v  -20.0000 -20.0000 1.0000
v  20.0000 -20.0000 1.0000
v  11.8085 -10.0000 1.0000
v  20.0000 20.0000 1.0000
v  20.0000 20.0000 -1.0000
v  -20.0000 20.0000 -1.0000
v  -20.0000 20.0000 1.0000
v  -11.8085 -10.0000 -1.0000
v  -20.0000 -20.0000 -1.0000
v  -11.8085 10.0000 -1.0000
v  20.0000 -20.0000 -1.0000
v  11.8085 10.0000 1.0000
v  -11.8085 10.0000 1.0000
v  11.8085 10.0000 -1.0000
v  11.8085 -10.0000 -1.0000
# 16 vertices

vn 0.0000 -0.0000 1.0000
vn 0.0000 1.0000 0.0000
vn 0.0000 0.0000 -1.0000
vn 0.0000 -1.0000 -0.0000
vn 1.0000 0.0000 -0.0000
vn -1.0000 0.0000 -0.0000
vn -0.0000 -0.0000 1.0000
# 7 vertex normals

vt 0.3015 0.8128 0.0000
vt 0.2504 0.7504 0.0000
vt 0.4999 0.7504 0.0000
vt 0.4488 0.8128 0.0000
vt 0.4999 0.9508 0.0000
vt 0.4999 0.9656 0.0000
vt 0.2506 0.9656 0.0000
vt 0.2506 0.9508 0.0000
vt 0.4999 0.9999 0.0000
vt 0.4488 0.9376 0.0000
vt 0.4832 0.9999 0.0000
vt 0.4832 0.7504 0.0000
vt 0.4489 0.9375 0.0000
vt 0.3016 0.9375 0.0000
vt 0.3016 0.9250 0.0000
vt 0.4489 0.9250 0.0000
vt 0.4488 0.9374 0.0000
vt 0.4358 0.9374 0.0000
vt 0.4358 0.8128 0.0000
vt 0.3016 0.9374 0.0000
vt 0.3016 0.8128 0.0000
vt 0.3147 0.8128 0.0000
vt 0.3147 0.9374 0.0000
vt 0.4489 0.8287 0.0000
vt 0.3016 0.8287 0.0000
vt 0.3016 0.8162 0.0000
vt 0.4489 0.8162 0.0000
vt 0.3015 0.9376 0.0000
vt 0.2504 0.9999 0.0000
# 29 texture coords

g pCube35
usemtl Atlas_1
s off
f 1/1/1 2/2/1 3/3/1 4/4/1 
f 5/5/2 6/6/2 7/7/2 8/8/2 
f 9/4/3 10/3/3 7/9/3 11/10/3 
f 2/7/4 10/8/4 12/5/4 3/6/4 
f 5/11/5 3/12/5 12/3/5 6/9/5 
f 10/12/6 2/3/6 8/9/6 7/11/6 
f 4/4/7 3/3/7 5/9/7 13/10/7 
f 13/13/4 14/14/4 11/15/4 15/16/4 
f 4/4/6 13/17/6 15/18/6 16/19/6 
f 14/20/5 1/21/5 9/22/5 11/23/5 
f 16/24/2 9/25/2 1/26/2 4/27/2 
f 2/2/1 1/1/1 14/28/1 8/29/1 
f 11/10/3 7/9/3 6/29/3 15/28/3 
f 12/2/3 10/3/3 9/4/3 16/1/3 
f 12/2/3 16/1/3 15/28/3 6/29/3 
f 5/9/1 8/29/1 14/28/1 13/10/1 
# 16 polygons

