# 3ds Max Wavefront OBJ Exporter v0.97b - (c)2007 guruware
# File Created: 04.04.2017 12:56:02

mtllib Wall_8_Corner_G.mtl

#
# object polySurface64
#

v  -19.0000 20.0000 1.0000
v  -19.0000 20.0000 40.0000
v  -19.0000 10.0000 31.8085
v  -19.0000 10.0000 17.1305
v  -19.0000 19.4162 1.0000
v  20.0000 -20.0000 1.0000
v  11.8085 -10.0000 1.0000
v  -11.8085 -10.0000 1.0000
v  -19.0000 -19.4162 1.0000
v  -19.0000 -18.7792 1.0000
v  -19.0000 -20.0000 1.0000
v  -11.8085 10.0000 1.0000
v  -11.8085 -10.0000 -1.0000
v  11.8085 -10.0000 -1.0000
v  20.0000 -20.0000 -1.0000
v  -19.0000 -20.0000 -1.0000
v  -21.0000 20.0000 -1.0000
v  -20.0000 -20.0000 -1.0000
v  -21.0000 -20.0000 -1.0000
v  -11.8085 10.0000 -1.0000
v  -20.0000 20.0000 -1.0000
v  -19.0000 20.0000 -1.0000
v  20.0000 20.0000 -1.0000
v  11.8085 10.0000 -1.0000
v  20.0000 20.0000 1.0000
v  11.8085 10.0000 1.0000
v  -19.0000 -20.0000 -0.0000
v  -19.0000 -20.0000 40.0000
v  -21.0000 -20.0000 40.0000
v  -21.0000 -20.0000 1.0000
v  -21.0000 -20.0000 -0.0000
v  -19.0000 20.0000 0.0000
v  -21.0000 20.0000 0.0000
v  -21.0000 -19.4162 1.0000
v  -21.0000 -10.0000 17.1305
v  -21.0000 10.0000 17.1305
v  -21.0000 19.4162 1.0000
v  -21.0000 -10.0000 31.8085
v  -19.0000 -10.0000 31.8085
v  -19.0000 -10.0000 17.1305
v  -21.0000 20.0000 40.0000
v  -21.0000 20.0000 1.0000
v  -21.0000 10.0000 31.8085
# 43 vertices

vn 1.0000 0.0000 0.0000
vn 0.0000 -0.0000 1.0000
vn -0.0000 0.0000 -1.0000
vn 0.0000 0.0000 -1.0000
vn -1.0000 0.0000 -0.0000
vn 0.0000 1.0000 0.0000
vn 1.0000 0.0000 -0.0000
vn 0.0000 -1.0000 -0.0000
vn -1.0000 0.0000 0.0000
vn -1.0000 -0.0000 -0.0000
# 10 vertex normals

vt 0.0068 0.7496 0.0000
vt 0.2494 0.7496 0.0000
vt 0.1984 0.6874 0.0000
vt 0.1071 0.6874 0.0000
vt 0.0068 0.7460 0.0000
vt 0.2498 0.5004 0.0000
vt 0.1987 0.5628 0.0000
vt 0.0514 0.5628 0.0000
vt 0.0065 0.5040 0.0000
vt 0.0065 0.5080 0.0000
vt 0.0065 0.5004 0.0000
vt 0.0514 0.6875 0.0000
vt 0.0065 0.7499 0.0000
vt 0.0065 0.7463 0.0000
vt 0.0003 0.5004 0.0000
vt 0.2436 0.5004 0.0000
vt 0.2498 0.7499 0.0000
vt 0.1987 0.6875 0.0000
vt 0.2436 0.7499 0.0000
vt 0.0003 0.7499 0.0000
vt 0.1856 0.6874 0.0000
vt 0.1856 0.5628 0.0000
vt 0.1987 0.5786 0.0000
vt 0.0514 0.5786 0.0000
vt 0.0514 0.5661 0.0000
vt 0.1987 0.5661 0.0000
vt 0.0645 0.5628 0.0000
vt 0.0645 0.6874 0.0000
vt 0.0514 0.6749 0.0000
vt 0.1987 0.6749 0.0000
vt 0.2331 0.5004 0.0000
vt 0.2331 0.7499 0.0000
vt 0.0025 0.7117 0.0000
vt 0.0086 0.7117 0.0000
vt 0.2457 0.7117 0.0000
vt 0.2457 0.7220 0.0000
vt 0.0086 0.7220 0.0000
vt 0.0025 0.7220 0.0000
vt 0.0262 0.7120 0.0000
vt 0.0262 0.7194 0.0000
vt 0.0199 0.7194 0.0000
vt 0.0137 0.7194 0.0000
vt 0.0137 0.7120 0.0000
vt 0.2494 0.5011 0.0000
vt 0.2349 0.5011 0.0000
vt 0.2421 0.5011 0.0000
vt 0.0068 0.5044 0.0000
vt 0.1071 0.5630 0.0000
vt 0.1071 0.6875 0.0000
vt 0.0005 0.5007 0.0000
vt 0.0005 0.7496 0.0000
vt 0.0068 0.5007 0.0000
vt 0.2494 0.5007 0.0000
vt 0.1986 0.5630 0.0000
vt 0.1984 0.5630 0.0000
vt 0.0068 0.5008 0.0000
vt 0.1985 0.6875 0.0000
vt 0.0068 0.5083 0.0000
vt 0.1861 0.6877 0.0000
vt 0.1861 0.5630 0.0000
vt 0.1985 0.5793 0.0000
vt 0.1071 0.5793 0.0000
vt 0.1071 0.5657 0.0000
vt 0.1985 0.5657 0.0000
vt 0.1196 0.5630 0.0000
vt 0.1196 0.6877 0.0000
vt 0.1071 0.6737 0.0000
vt 0.1985 0.6737 0.0000
vt 0.2349 0.7496 0.0000
vt 0.0005 0.7226 0.0000
vt 0.0005 0.7076 0.0000
vt 0.0067 0.7076 0.0000
vt 0.2493 0.7076 0.0000
vt 0.2493 0.7226 0.0000
vt 0.0067 0.7226 0.0000
vt 0.0067 0.7060 0.0000
vt 0.2498 0.7060 0.0000
vt 0.2498 0.7208 0.0000
vt 0.0067 0.7208 0.0000
vt 0.0067 0.7134 0.0000
# 80 texture coords

g polySurface64
usemtl Atlas_1
s off
f 1/1/1 2/2/1 3/3/1 4/4/1 
f 1/1/1 4/4/1 5/5/1 
f 6/6/2 7/7/2 8/8/2 9/9/2 
f 8/8/2 10/10/2 9/9/2 
f 11/11/2 6/6/2 9/9/2 
f 10/10/2 8/8/2 12/12/2 1/13/2 
f 10/10/2 1/13/2 5/14/2 
f 13/7/3 14/8/3 15/15/3 16/16/3 
f 17/17/3 13/7/3 16/16/3 18/6/3 
f 18/6/3 19/6/3 17/17/3 
f 20/18/3 13/7/3 17/17/3 21/17/3 
f 20/18/3 21/17/3 22/19/3 
f 23/20/4 15/15/4 14/8/4 24/12/4 
f 6/6/2 25/17/2 26/18/2 7/7/2 
f 24/21/5 14/22/5 7/7/5 26/18/5 
f 14/23/6 13/24/6 8/25/6 7/26/6 
f 13/27/7 20/28/7 12/12/7 8/8/7 
f 26/18/8 12/12/8 20/29/8 24/30/8 
f 6/31/7 15/6/7 23/17/7 25/32/7 
f 27/33/8 11/34/8 28/35/8 29/36/8 
f 27/33/8 29/36/8 30/37/8 31/38/8 
f 32/39/6 22/40/6 21/41/6 17/42/6 
f 32/39/6 17/42/6 33/43/6 
f 31/44/9 33/2/9 17/2/5 19/44/5 
f 27/45/8 31/44/8 19/44/8 18/46/8 
f 27/45/8 18/46/8 16/45/8 
f 34/47/9 35/48/9 36/49/9 31/50/9 
f 31/50/9 36/49/9 37/5/9 33/51/9 
f 34/47/5 31/50/5 30/52/5 29/53/5 
f 34/47/5 29/53/5 38/54/5 35/48/5 
f 2/2/7 28/44/7 39/55/7 3/3/7 
f 11/56/7 9/47/7 40/48/7 39/55/7 
f 11/56/7 39/55/7 28/44/7 
f 41/2/10 42/1/10 33/51/10 37/5/10 
f 41/2/10 37/5/10 36/49/10 43/57/10 
f 9/47/7 10/58/7 5/5/7 4/4/7 
f 9/47/7 4/4/7 40/48/7 
f 29/53/5 41/2/5 43/57/5 38/54/5 
f 3/59/4 39/60/4 38/54/4 43/57/4 
f 39/61/6 40/62/6 35/63/6 38/64/6 
f 40/65/2 4/66/2 36/49/2 35/48/2 
f 43/57/8 36/49/8 4/67/8 3/68/8 
f 29/45/2 28/44/2 2/2/2 41/69/2 
f 32/70/6 33/71/6 42/72/6 41/73/6 
f 32/70/6 41/73/6 2/74/6 1/75/6 
f 1/76/6 25/77/6 23/78/6 22/79/6 
f 1/76/6 22/79/6 32/80/6 
f 16/76/8 15/77/8 6/78/8 11/79/8 
f 16/76/8 11/79/8 27/80/8 
f 20/18/3 22/19/3 23/20/3 24/12/3 
f 1/13/2 12/12/2 26/18/2 25/17/2 
# 39 polygons - 12 triangles

