# 3ds Max Wavefront OBJ Exporter v0.97b - (c)2007 guruware
# File Created: 04.04.2017 12:39:02

mtllib Wall_5_Corner_C.mtl

#
# object polySurface33
#

v  19.0000 -17.8241 1.0000
v  19.0000 -20.0000 1.0000
v  19.0000 -20.0000 40.0000
v  19.0000 20.0000 1.0000
v  19.0000 20.0000 40.0000
v  11.8085 10.0000 1.0000
v  -20.0000 20.0000 1.0000
v  -11.8085 10.0000 1.0000
v  19.0000 -20.0000 -1.0000
v  -20.0000 -20.0000 -1.0000
v  -11.8085 -10.0000 -1.0000
v  11.8085 -10.0000 -1.0000
v  21.0000 -20.0000 -1.0000
v  -20.0000 -20.0000 1.0000
v  -11.8085 -10.0000 1.0000
v  11.8085 -10.0000 1.0000
v  -11.8085 10.0000 -1.0000
v  11.8085 10.0000 -1.0000
v  -20.0000 20.0000 -1.0000
v  19.0000 20.0000 -1.0000
v  21.0000 -20.0000 40.0000
v  21.0000 20.0000 40.0000
v  21.0000 -20.0000 1.0000
v  21.0000 20.0000 1.0000
v  21.0000 20.0000 -1.0000
# 25 vertices

vn -1.0000 0.0000 -0.0000
vn -0.0000 -0.0000 1.0000
vn 0.0000 -0.0000 -1.0000
vn 0.0000 -0.0000 1.0000
vn 0.0000 1.0000 0.0000
vn 1.0000 0.0000 -0.0000
vn 0.0000 -1.0000 -0.0000
vn -0.0000 0.0000 -1.0000
vn 0.0000 0.0000 -1.0000
# 9 vertex normals

vt 0.7626 0.5137 0.0000
vt 0.7626 0.5001 0.0000
vt 0.9998 0.5001 0.0000
vt 0.7626 0.7497 0.0000
vt 0.9998 0.7497 0.0000
vt 0.9488 0.6875 0.0000
vt 0.9877 0.7499 0.0000
vt 0.7504 0.7499 0.0000
vt 0.8015 0.6875 0.0000
vt 0.7625 0.5004 0.0000
vt 0.9998 0.5004 0.0000
vt 0.9488 0.5628 0.0000
vt 0.8015 0.5628 0.0000
vt 0.7504 0.5004 0.0000
vt 0.9488 0.5786 0.0000
vt 0.8015 0.5786 0.0000
vt 0.8015 0.5661 0.0000
vt 0.9488 0.5661 0.0000
vt 0.8015 0.6874 0.0000
vt 0.8146 0.5628 0.0000
vt 0.8146 0.6874 0.0000
vt 0.9488 0.6874 0.0000
vt 0.9357 0.6874 0.0000
vt 0.9357 0.5628 0.0000
vt 0.8015 0.6749 0.0000
vt 0.9488 0.6749 0.0000
vt 0.9832 0.5004 0.0000
vt 0.9998 0.7499 0.0000
vt 0.9832 0.7499 0.0000
vt 0.9877 0.5204 0.0000
vt 0.7505 0.5204 0.0000
vt 0.7505 0.5056 0.0000
vt 0.9877 0.5056 0.0000
vt 0.9888 0.5139 0.0000
vt 0.9877 0.5004 0.0000
vt 0.9876 0.5001 0.0000
vt 0.9876 0.7497 0.0000
vt 0.7504 0.5054 0.0000
vt 0.9878 0.5054 0.0000
vt 0.9998 0.5054 0.0000
vt 0.9998 0.5205 0.0000
vt 0.9878 0.5205 0.0000
vt 0.7504 0.5205 0.0000
vt 0.9878 0.5001 0.0000
vt 0.9878 0.7497 0.0000
vt 0.7504 0.7497 0.0000
vt 0.7504 0.5001 0.0000
vt 0.7625 0.7499 0.0000
# 48 texture coords

g polySurface33
usemtl Atlas_1
s off
f 1/1/1 2/2/1 3/3/1 4/4/1 
f 4/4/1 3/3/1 5/5/1 
f 6/6/2 4/7/2 7/8/2 8/9/2 
f 9/10/3 10/11/3 11/12/3 12/13/3 
f 9/10/3 12/13/3 13/14/3 
f 14/14/4 15/13/4 8/9/4 7/8/4 
f 12/15/5 11/16/5 15/17/5 16/18/5 
f 8/19/6 15/13/6 11/20/6 17/21/6 
f 16/12/1 6/22/1 18/23/1 12/24/1 
f 6/6/7 8/9/7 17/25/7 18/26/7 
f 10/27/1 14/11/1 7/28/1 19/29/1 
f 2/30/7 14/31/7 10/32/7 9/33/7 
f 11/12/8 10/11/8 19/28/8 17/6/8 
f 20/30/5 19/31/5 7/32/5 4/33/5 
f 1/34/4 16/12/4 15/13/4 14/14/4 
f 1/34/4 14/14/4 2/35/4 
f 3/36/4 21/3/4 22/5/4 5/37/4 
f 3/38/7 2/39/7 9/40/7 13/41/7 
f 3/38/7 13/41/7 23/42/7 21/43/7 
f 22/38/5 24/39/5 25/40/5 20/41/5 
f 22/38/5 20/41/5 4/42/5 5/43/5 
f 23/44/6 13/3/6 25/5/6 24/45/6 
f 23/44/6 24/45/6 22/46/6 21/47/6 
f 1/34/2 4/7/2 6/6/2 16/12/2 
f 25/8/9 18/9/9 17/6/9 19/28/9 
f 25/8/9 19/28/9 20/48/9 
f 13/14/9 12/13/9 18/9/9 25/8/9 
# 23 polygons - 4 triangles

