# 3ds Max Wavefront OBJ Exporter v0.97b - (c)2007 guruware
# File Created: 04.04.2017 12:26:18

mtllib Wall_2_B.mtl

#
# object pCube34
#

v  -20.0000 -20.0000 1.0000
v  -10.0000 -20.0000 1.0000
v  -10.0000 10.0000 1.0000
v  -20.0000 20.0000 1.0000
v  -20.0000 20.0000 -1.0000
v  20.0000 20.0000 1.0000
v  20.0000 20.0000 -1.0000
v  -10.0000 10.0000 -1.0000
v  -10.0000 -20.0000 -1.0000
v  -20.0000 -20.0000 -1.0000
v  20.0000 -20.0000 1.0000
v  20.0000 -20.0000 -1.0000
v  10.0000 10.0000 1.0000
v  10.0000 -20.0000 1.0000
v  10.0000 -20.0000 -1.0000
v  10.0000 10.0000 -1.0000
# 16 vertices

vn 0.0000 -0.0000 1.0000
vn 0.0000 1.0000 0.0000
vn -0.0000 0.0000 -1.0000
vn 0.0000 -1.0000 -0.0000
vn 1.0000 0.0000 -0.0000
vn -1.0000 0.0000 -0.0000
vn 0.0000 0.0000 -1.0000
# 7 vertex normals

vt 0.2504 0.7503 0.0000
vt 0.3128 0.7503 0.0000
vt 0.3128 0.9374 0.0000
vt 0.2504 0.9997 0.0000
vt 0.2505 0.9655 0.0000
vt 0.2505 0.9503 0.0000
vt 0.4999 0.9503 0.0000
vt 0.4999 0.9655 0.0000
vt 0.4375 0.9374 0.0000
vt 0.4375 0.7503 0.0000
vt 0.4999 0.7503 0.0000
vt 0.4999 0.9997 0.0000
vt 0.4999 0.7644 0.0000
vt 0.4375 0.7644 0.0000
vt 0.4375 0.7502 0.0000
vt 0.4999 0.7502 0.0000
vt 0.4874 0.9998 0.0000
vt 0.4874 0.7503 0.0000
vt 0.4999 0.9998 0.0000
vt 0.3128 0.9166 0.0000
vt 0.4375 0.9166 0.0000
vt 0.4377 0.7506 0.0000
vt 0.4377 0.9376 0.0000
vt 0.4253 0.9376 0.0000
vt 0.4253 0.7506 0.0000
vt 0.3128 0.9376 0.0000
vt 0.3128 0.7506 0.0000
vt 0.3253 0.7506 0.0000
vt 0.3253 0.9376 0.0000
# 29 texture coords

g pCube34
usemtl Atlas_1
s off
f 1/1/1 2/2/1 3/3/1 4/4/1 
f 5/5/2 4/6/2 6/7/2 7/8/2 
f 8/9/3 9/10/3 10/11/3 5/12/3 
f 10/13/4 9/14/4 2/15/4 1/16/4 
f 6/17/5 11/18/5 12/11/5 7/19/5 
f 10/18/6 1/11/6 4/19/6 5/17/6 
f 13/9/1 14/10/1 11/11/1 6/12/1 
f 12/1/7 15/2/7 16/3/7 7/4/7 
f 14/14/4 15/15/4 12/16/4 11/13/4 
f 8/9/7 5/12/7 7/4/7 16/3/7 
f 8/20/4 16/21/4 13/9/4 3/3/4 
f 14/22/6 13/23/6 16/24/6 15/25/6 
f 3/26/5 2/27/5 9/28/5 8/29/5 
f 6/12/1 4/4/1 3/3/1 13/9/1 
# 14 polygons

