# 3ds Max Wavefront OBJ Exporter v0.97b - (c)2007 guruware
# File Created: 04.04.2017 12:27:41

mtllib Wall_2_Corner_E.mtl

#
# object polySurface15
#

v  19.0000 -20.0000 1.0000
v  19.0000 -20.0000 40.0000
v  19.0000 -10.0000 31.8085
v  19.0000 -10.0000 8.1915
v  19.0000 20.0000 1.0000
v  -20.0000 20.0000 1.0000
v  -10.0000 10.0000 1.0000
v  10.0000 10.0000 1.0000
v  -10.0000 -20.0000 1.0000
v  -10.0000 -20.0000 -1.0000
v  -10.0000 10.0000 -1.0000
v  10.0000 -20.0000 1.0000
v  10.0000 10.0000 -1.0000
v  10.0000 -20.0000 -1.0000
v  19.0000 -20.0000 -1.0000
v  21.0000 20.0000 -1.0000
v  21.0000 -20.0000 -1.0000
v  -20.0000 -20.0000 -1.0000
v  -20.0000 -20.0000 1.0000
v  -20.0000 20.0000 -1.0000
v  19.0000 20.0000 -1.0000
v  21.0000 10.0000 8.1915
v  21.0000 20.0000 1.0000
v  21.0000 20.0000 40.0000
v  21.0000 10.0000 31.8085
v  21.0000 -20.0000 40.0000
v  21.0000 -10.0000 31.8085
v  21.0000 -10.0000 8.1915
v  19.0000 10.0000 31.8085
v  19.0000 10.0000 8.1915
v  19.0000 20.0000 40.0000
v  21.0000 -20.0000 1.0000
# 32 vertices

vn -1.0000 -0.0000 -0.0000
vn 0.0000 0.0000 1.0000
vn 1.0000 0.0000 -0.0000
vn -1.0000 0.0000 -0.0000
vn 0.0000 -1.0000 -0.0000
vn 0.0000 0.0000 -1.0000
vn 0.0000 1.0000 0.0000
vn 0.0000 -0.0000 1.0000
vn 1.0000 -0.0000 -0.0000
vn -1.0000 0.0000 0.0000
# 10 vertex normals

vt 0.2626 0.7504 0.0000
vt 0.4999 0.7504 0.0000
vt 0.4488 0.8128 0.0000
vt 0.3015 0.8128 0.0000
vt 0.4877 0.9997 0.0000
vt 0.2504 0.9997 0.0000
vt 0.3128 0.9374 0.0000
vt 0.4375 0.9374 0.0000
vt 0.3128 0.9376 0.0000
vt 0.3128 0.7506 0.0000
vt 0.3253 0.7506 0.0000
vt 0.3253 0.9376 0.0000
vt 0.4377 0.7506 0.0000
vt 0.4377 0.9376 0.0000
vt 0.4253 0.9376 0.0000
vt 0.4253 0.7506 0.0000
vt 0.3128 0.9166 0.0000
vt 0.4375 0.9166 0.0000
vt 0.4886 0.7644 0.0000
vt 0.4375 0.7644 0.0000
vt 0.4375 0.7502 0.0000
vt 0.4886 0.7502 0.0000
vt 0.2618 0.7503 0.0000
vt 0.3128 0.7503 0.0000
vt 0.2504 0.7503 0.0000
vt 0.4874 0.7503 0.0000
vt 0.4999 0.7503 0.0000
vt 0.4999 0.9998 0.0000
vt 0.4874 0.9998 0.0000
vt 0.4999 0.7644 0.0000
vt 0.4999 0.7502 0.0000
vt 0.4375 0.7503 0.0000
vt 0.4999 0.9997 0.0000
vt 0.4877 0.9655 0.0000
vt 0.2505 0.9655 0.0000
vt 0.2505 0.9503 0.0000
vt 0.4877 0.9503 0.0000
vt 0.4488 0.9376 0.0000
vt 0.4999 0.9999 0.0000
vt 0.4878 0.9999 0.0000
vt 0.2504 0.9999 0.0000
vt 0.3015 0.9376 0.0000
vt 0.2504 0.7504 0.0000
vt 0.4489 0.8287 0.0000
vt 0.3016 0.8287 0.0000
vt 0.3016 0.8162 0.0000
vt 0.4489 0.8162 0.0000
vt 0.3016 0.9374 0.0000
vt 0.3016 0.8128 0.0000
vt 0.3147 0.8128 0.0000
vt 0.3147 0.9374 0.0000
vt 0.4488 0.9374 0.0000
vt 0.4358 0.9374 0.0000
vt 0.4358 0.8128 0.0000
vt 0.4489 0.9375 0.0000
vt 0.3016 0.9375 0.0000
vt 0.3016 0.9250 0.0000
vt 0.4489 0.9250 0.0000
vt 0.4832 0.7504 0.0000
vt 0.4832 0.9999 0.0000
vt 0.4878 0.9656 0.0000
vt 0.4878 0.9508 0.0000
vt 0.4999 0.9508 0.0000
vt 0.4999 0.9656 0.0000
vt 0.2506 0.9656 0.0000
vt 0.2506 0.9508 0.0000
vt 0.4886 0.7503 0.0000
vt 0.2626 0.9997 0.0000
vt 0.4878 0.7504 0.0000
vt 0.2626 0.9999 0.0000
# 70 texture coords

g polySurface15
usemtl Atlas_1
s off
f 1/1/1 2/2/1 3/3/1 4/4/1 
f 5/5/2 6/6/2 7/7/2 8/8/2 
f 7/9/3 9/10/3 10/11/3 11/12/3 
f 12/13/4 8/14/4 13/15/4 14/16/4 
f 11/17/5 13/18/5 8/8/5 7/7/5 
f 1/19/5 12/20/5 14/21/5 15/22/5 
f 15/23/6 14/24/6 13/7/6 16/6/6 
f 15/23/6 16/6/6 17/25/6 
f 18/26/4 19/27/4 6/28/4 20/29/4 
f 18/30/5 10/20/5 9/21/5 19/31/5 
f 11/8/6 10/32/6 18/27/6 20/33/6 
f 21/34/7 20/35/7 6/36/7 5/37/7 
f 19/25/8 9/24/8 7/7/8 6/6/8 
f 22/38/3 16/39/3 23/40/3 24/41/3 
f 22/38/3 24/41/3 25/42/3 
f 26/43/3 27/4/3 25/42/3 24/41/3 
f 4/44/7 3/45/7 27/46/7 28/47/7 
f 25/48/6 27/49/6 3/50/6 29/51/6 
f 28/3/8 22/52/8 30/53/8 4/54/8 
f 22/55/5 25/56/5 29/57/5 30/58/5 
f 2/59/8 26/2/8 24/39/8 31/60/8 
f 32/61/5 1/62/5 15/63/5 17/64/5 
f 3/3/4 2/2/4 31/39/4 29/38/4 
f 23/62/7 5/61/7 31/65/7 24/66/7 
f 5/5/8 8/8/8 12/32/8 1/67/8 
f 16/6/6 13/7/6 11/8/6 20/33/6 
f 16/6/6 20/33/6 21/68/6 
f 17/2/3 16/39/3 22/38/3 28/3/3 
f 17/2/9 28/3/9 27/4/9 26/43/9 
f 17/2/9 26/43/9 32/69/9 
f 26/65/5 2/66/5 1/62/5 32/61/5 
f 1/1/10 4/4/10 30/42/10 5/70/10 
f 5/70/4 30/42/4 29/38/4 31/39/4 
f 16/63/7 21/64/7 5/61/7 23/62/7 
# 30 polygons - 4 triangles

