# 3ds Max Wavefront OBJ Exporter v0.97b - (c)2007 guruware
# File Created: 04.04.2017 12:28:17

mtllib Wall_2_Corner_G.mtl

#
# object polySurface17
#

v  -19.0000 20.0000 1.0000
v  -19.0000 20.0000 40.0000
v  -19.0000 10.0000 31.8085
v  -19.0000 10.0000 17.1305
v  20.0000 -20.0000 -1.0000
v  11.8085 -10.0000 -1.0000
v  11.8085 10.0000 -1.0000
v  20.0000 20.0000 -1.0000
v  -11.8085 -10.0000 -1.0000
v  -11.8085 -10.0000 1.0000
v  11.8085 -10.0000 1.0000
v  -11.8085 10.0000 1.0000
v  -11.8085 10.0000 -1.0000
v  11.8085 10.0000 1.0000
v  20.0000 -20.0000 1.0000
v  20.0000 20.0000 1.0000
v  -19.0000 -20.0000 -1.0000
v  -19.0000 -20.0000 1.0000
v  -19.0000 20.0000 -1.0000
v  -21.0000 -20.0000 -1.0000
v  -21.0000 20.0000 -1.0000
v  -19.0000 -20.0000 40.0000
v  -19.0000 -10.0000 31.8085
v  -19.0000 -10.0000 17.1305
v  -21.0000 -10.0000 17.1305
v  -21.0000 -10.0000 31.8085
v  -21.0000 10.0000 17.1305
v  -21.0000 10.0000 31.8085
v  -21.0000 -20.0000 40.0000
v  -21.0000 20.0000 40.0000
v  -21.0000 -20.0000 1.0000
v  -21.0000 20.0000 1.0000
# 32 vertices

vn 1.0000 0.0000 0.0000
vn 0.0000 0.0000 -1.0000
vn 0.0000 1.0000 0.0000
vn 1.0000 0.0000 -0.0000
vn -1.0000 0.0000 -0.0000
vn 0.0000 -1.0000 -0.0000
vn 0.0000 -0.0000 1.0000
vn -0.0000 0.0000 -1.0000
vn -1.0000 -0.0000 -0.0000
vn -1.0000 0.0000 0.0000
# 10 vertex normals

vt 0.2629 0.9996 0.0000
vt 0.4997 0.9996 0.0000
vt 0.4487 0.9374 0.0000
vt 0.3574 0.9374 0.0000
vt 0.2504 0.7504 0.0000
vt 0.3015 0.8128 0.0000
vt 0.3015 0.9376 0.0000
vt 0.2504 0.9999 0.0000
vt 0.4489 0.8287 0.0000
vt 0.3016 0.8287 0.0000
vt 0.3016 0.8162 0.0000
vt 0.4489 0.8162 0.0000
vt 0.3016 0.9374 0.0000
vt 0.3016 0.8128 0.0000
vt 0.3147 0.8128 0.0000
vt 0.3147 0.9374 0.0000
vt 0.4488 0.8128 0.0000
vt 0.4488 0.9374 0.0000
vt 0.4358 0.9374 0.0000
vt 0.4358 0.8128 0.0000
vt 0.4489 0.9375 0.0000
vt 0.3016 0.9375 0.0000
vt 0.3016 0.9250 0.0000
vt 0.4489 0.9250 0.0000
vt 0.4999 0.7504 0.0000
vt 0.4999 0.9999 0.0000
vt 0.4488 0.9376 0.0000
vt 0.4832 0.9999 0.0000
vt 0.4832 0.7504 0.0000
vt 0.2627 0.9508 0.0000
vt 0.4999 0.9508 0.0000
vt 0.4999 0.9656 0.0000
vt 0.2627 0.9656 0.0000
vt 0.4878 0.9999 0.0000
vt 0.4878 0.7504 0.0000
vt 0.2626 0.9999 0.0000
vt 0.4997 0.7508 0.0000
vt 0.4487 0.8130 0.0000
vt 0.4488 0.8294 0.0000
vt 0.3573 0.8294 0.0000
vt 0.3573 0.8157 0.0000
vt 0.4488 0.8157 0.0000
vt 0.3574 0.9377 0.0000
vt 0.3574 0.8130 0.0000
vt 0.3698 0.8130 0.0000
vt 0.3698 0.9377 0.0000
vt 0.4488 0.8130 0.0000
vt 0.4488 0.9377 0.0000
vt 0.4364 0.9377 0.0000
vt 0.4364 0.8130 0.0000
vt 0.3573 0.9374 0.0000
vt 0.3573 0.9238 0.0000
vt 0.4488 0.9238 0.0000
vt 0.4851 0.9996 0.0000
vt 0.4851 0.7511 0.0000
vt 0.4997 0.7511 0.0000
vt 0.2629 0.9824 0.0000
vt 0.2629 0.9675 0.0000
vt 0.4996 0.9675 0.0000
vt 0.4996 0.9824 0.0000
vt 0.2629 0.7508 0.0000
vt 0.2508 0.7508 0.0000
vt 0.2626 0.7504 0.0000
vt 0.2508 0.9996 0.0000
vt 0.2508 0.9824 0.0000
vt 0.2508 0.9675 0.0000
# 66 texture coords

g polySurface17
usemtl Atlas_1
s off
f 1/1/1 2/2/1 3/3/1 4/4/1 
f 5/5/2 6/6/2 7/7/2 8/8/2 
f 6/9/3 9/10/3 10/11/3 11/12/3 
f 12/13/4 10/14/4 9/15/4 13/16/4 
f 11/17/5 14/18/5 7/19/5 6/20/5 
f 14/21/6 12/22/6 13/23/6 7/24/6 
f 11/17/7 15/25/7 16/26/7 14/27/7 
f 16/28/4 15/29/4 5/25/4 8/26/4 
f 17/30/6 5/31/6 15/32/6 18/33/6 
f 19/34/8 8/8/8 7/7/8 13/27/8 
f 17/35/8 19/34/8 13/27/8 9/17/8 
f 5/5/8 17/35/8 9/17/8 6/6/8 
f 19/34/8 17/35/8 20/25/8 21/26/8 
f 1/30/3 16/31/3 8/32/3 19/33/3 
f 1/36/7 12/7/7 14/27/7 16/26/7 
f 22/37/4 23/38/4 3/3/4 2/2/4 
f 23/39/3 24/40/3 25/41/3 26/42/3 
f 27/43/7 25/44/7 24/45/7 4/46/7 
f 26/47/2 28/48/2 3/49/2 23/50/2 
f 28/18/6 27/51/6 4/52/6 3/53/6 
f 26/38/5 29/37/5 30/2/5 28/3/5 
f 30/54/7 29/55/7 22/56/7 2/2/7 
f 31/57/6 18/58/6 22/59/6 29/60/6 
f 30/59/3 2/60/3 1/57/3 32/58/3 
f 31/61/9 29/37/9 26/38/9 25/44/9 
f 31/61/9 25/44/9 20/62/9 
f 1/1/4 4/4/4 24/44/4 18/61/4 
f 18/63/7 15/25/7 11/17/7 10/6/7 
f 18/63/7 10/6/7 12/7/7 1/36/7 
f 18/61/4 24/44/4 23/38/4 22/37/4 
f 21/64/10 27/4/10 28/3/10 30/2/10 
f 21/64/10 30/2/10 32/1/10 
f 20/62/5 25/44/5 27/4/5 21/64/5 
f 20/65/6 17/66/6 18/58/6 31/57/6 
f 32/58/3 1/57/3 19/65/3 21/66/3 
# 33 polygons - 2 triangles

