# 3ds Max Wavefront OBJ Exporter v0.97b - (c)2007 guruware
# File Created: 04.04.2017 12:38:46

mtllib Wall_5_Corner_B.mtl

#
# object polySurface32
#

v  19.0000 20.0000 1.0000
v  -20.0000 20.0000 1.0000
v  -10.0000 10.0000 1.0000
v  10.0000 10.0000 1.0000
v  19.0000 18.1818 1.0000
v  19.0000 -20.0000 40.0000
v  21.0000 -20.0000 40.0000
v  21.0000 20.0000 40.0000
v  19.0000 20.0000 40.0000
v  21.0000 -20.0000 1.0000
v  19.0000 -20.0000 1.0000
v  19.0000 -20.0000 -1.0000
v  21.0000 -20.0000 -1.0000
v  21.0000 20.0000 1.0000
v  21.0000 20.0000 -1.0000
v  -10.0000 -20.0000 1.0000
v  -10.0000 -20.0000 -1.0000
v  -10.0000 10.0000 -1.0000
v  10.0000 -20.0000 1.0000
v  10.0000 10.0000 -1.0000
v  10.0000 -20.0000 -1.0000
v  -20.0000 20.0000 -1.0000
v  19.0000 20.0000 -1.0000
v  19.0000 18.1818 -1.0000
v  -20.0000 -20.0000 -1.0000
v  -20.0000 -20.0000 1.0000
# 26 vertices

vn -0.0000 -0.0000 1.0000
vn 0.0000 -0.0000 1.0000
vn 0.0000 -1.0000 -0.0000
vn -1.0000 0.0000 -0.0000
vn 0.0000 1.0000 0.0000
vn 1.0000 0.0000 -0.0000
vn 0.0000 0.0000 -1.0000
vn -0.0000 0.0000 -1.0000
# 8 vertex normals

vt 0.9877 0.7497 0.0000
vt 0.7504 0.7497 0.0000
vt 0.8128 0.6873 0.0000
vt 0.9375 0.6873 0.0000
vt 0.9885 0.7383 0.0000
vt 0.9876 0.5001 0.0000
vt 0.9998 0.5001 0.0000
vt 0.9998 0.7497 0.0000
vt 0.9876 0.7497 0.0000
vt 0.9878 0.5218 0.0000
vt 0.7504 0.5218 0.0000
vt 0.7504 0.5067 0.0000
vt 0.9878 0.5067 0.0000
vt 0.9998 0.5067 0.0000
vt 0.9998 0.5218 0.0000
vt 0.7626 0.5001 0.0000
vt 0.7626 0.7497 0.0000
vt 0.7626 0.7384 0.0000
vt 0.9878 0.7497 0.0000
vt 0.7504 0.5001 0.0000
vt 0.9878 0.5001 0.0000
vt 0.8128 0.6876 0.0000
vt 0.8128 0.5006 0.0000
vt 0.8252 0.5006 0.0000
vt 0.8252 0.6876 0.0000
vt 0.9377 0.5006 0.0000
vt 0.9377 0.6876 0.0000
vt 0.9252 0.6876 0.0000
vt 0.9252 0.5006 0.0000
vt 0.8128 0.6665 0.0000
vt 0.9375 0.6665 0.0000
vt 0.9997 0.7497 0.0000
vt 0.7618 0.7383 0.0000
vt 0.7618 0.5002 0.0000
vt 0.8128 0.5002 0.0000
vt 0.7504 0.5002 0.0000
vt 0.9885 0.5002 0.0000
vt 0.9375 0.5002 0.0000
vt 0.9874 0.5002 0.0000
vt 0.9997 0.5002 0.0000
vt 0.9874 0.7497 0.0000
vt 0.9997 0.5143 0.0000
vt 0.9375 0.5143 0.0000
vt 0.7505 0.5216 0.0000
vt 0.7505 0.5064 0.0000
vt 0.9877 0.5064 0.0000
vt 0.9997 0.5064 0.0000
vt 0.9997 0.5216 0.0000
vt 0.9877 0.5216 0.0000
vt 0.9804 0.5070 0.0000
vt 0.9804 0.5190 0.0000
vt 0.9127 0.5190 0.0000
vt 0.9127 0.5070 0.0000
# 53 texture coords

g polySurface32
usemtl Atlas_1
s off
f 1/1/1 2/2/1 3/3/1 4/4/1 
f 1/1/1 4/4/1 5/5/1 
f 6/6/2 7/7/2 8/8/2 9/9/2 
f 10/10/3 7/11/3 6/12/3 11/13/3 
f 10/10/3 11/13/3 12/14/3 13/15/3 
f 11/16/4 6/7/4 9/8/4 1/17/4 
f 11/16/4 1/17/4 5/18/4 
f 1/10/5 9/11/5 8/12/5 14/13/5 
f 14/19/6 8/2/6 7/20/6 10/21/6 
f 14/19/6 10/21/6 13/7/6 15/8/6 
f 3/22/6 16/23/6 17/24/6 18/25/6 
f 19/26/4 4/27/4 20/28/4 21/29/4 
f 18/30/3 20/31/3 4/4/3 3/3/3 
f 18/4/7 22/32/7 23/17/7 15/2/7 
f 18/4/7 15/2/7 24/33/7 20/3/7 
f 12/34/8 21/35/8 20/3/8 24/33/8 
f 12/34/8 24/33/8 15/2/8 13/36/8 
f 11/37/2 5/5/2 4/4/2 19/38/2 
f 25/39/4 26/40/4 2/32/4 22/41/4 
f 25/42/3 17/43/3 16/38/3 26/40/3 
f 18/4/7 17/38/7 25/40/7 22/32/7 
f 22/44/5 2/45/5 1/46/5 14/47/5 
f 22/44/5 14/47/5 15/48/5 23/49/5 
f 26/36/2 16/35/2 3/3/2 2/2/2 
f 12/50/3 11/51/3 19/52/3 21/53/3 
# 23 polygons - 2 triangles

