# 3ds Max Wavefront OBJ Exporter v0.97b - (c)2007 guruware
# File Created: 04.04.2017 12:34:46

mtllib Wall_4_C.mtl

#
# object pCube10
#

v  -20.0000 20.0000 -1.0000
v  -20.0000 20.0000 1.0000
v  20.0000 20.0000 1.0000
v  20.0000 20.0000 -1.0000
v  -20.0000 -20.0000 1.0000
v  -20.0000 -20.0000 -1.0000
v  20.0000 -20.0000 -1.0000
v  20.0000 -20.0000 1.0000
v  -11.8085 10.0000 -1.0000
v  11.8085 10.0000 -1.0000
v  11.8085 10.0000 1.0000
v  -11.8085 10.0000 1.0000
v  -11.8085 -10.0000 -1.0000
v  -11.8085 -10.0000 1.0000
v  11.8085 -10.0000 -1.0000
v  11.8085 -10.0000 1.0000
# 16 vertices

vn 0.0000 1.0000 0.0000
vn 0.0000 -1.0000 -0.0000
vn 1.0000 0.0000 -0.0000
vn -1.0000 0.0000 -0.0000
vn 0.0000 0.0000 -1.0000
vn -0.0000 -0.0000 1.0000
vn 0.0000 -0.0000 1.0000
vn -0.0000 0.0000 -1.0000
# 8 vertex normals

vt 0.7504 0.7698 0.0000
vt 0.7504 0.7549 0.0000
vt 0.9998 0.7549 0.0000
vt 0.9998 0.7698 0.0000
vt 0.9830 0.7504 0.0000
vt 0.9998 0.7504 0.0000
vt 0.9998 0.9999 0.0000
vt 0.9830 0.9999 0.0000
vt 0.9487 0.9376 0.0000
vt 0.7502 0.9999 0.0000
vt 0.8013 0.9376 0.0000
vt 0.9487 0.9375 0.0000
vt 0.8014 0.9375 0.0000
vt 0.8014 0.9250 0.0000
vt 0.9487 0.9250 0.0000
vt 0.8145 0.8128 0.0000
vt 0.8145 0.9374 0.0000
vt 0.8014 0.8128 0.0000
vt 0.9487 0.8287 0.0000
vt 0.8014 0.8287 0.0000
vt 0.8014 0.8162 0.0000
vt 0.9487 0.8162 0.0000
vt 0.9356 0.9374 0.0000
vt 0.9356 0.8128 0.0000
vt 0.9487 0.8128 0.0000
vt 0.7502 0.7504 0.0000
vt 0.8013 0.8128 0.0000
# 27 texture coords

g pCube10
usemtl Atlas_1
s off
f 1/1/1 2/2/1 3/3/1 4/4/1 
f 5/1/2 6/2/2 7/3/2 8/4/2 
f 8/5/3 7/6/3 4/7/3 3/8/3 
f 6/5/4 5/6/4 2/7/4 1/8/4 
f 9/9/5 1/7/5 4/10/5 10/11/5 
f 11/12/2 12/13/2 9/14/2 10/15/2 
f 13/16/3 9/17/3 12/13/3 14/18/3 
f 15/19/1 13/20/1 14/21/1 16/22/1 
f 10/23/4 15/24/4 16/25/4 11/12/4 
f 8/6/6 3/7/6 11/12/6 16/25/6 
f 6/6/5 1/7/5 9/9/5 13/25/5 
f 3/7/7 2/10/7 12/13/7 11/12/7 
f 4/10/8 7/26/8 15/27/8 10/11/8 
f 15/27/5 7/26/5 6/6/5 13/25/5 
f 2/10/7 5/26/7 14/18/7 12/13/7 
f 14/18/7 5/26/7 8/6/7 16/25/7 
# 16 polygons

