# 3ds Max Wavefront OBJ Exporter v0.97b - (c)2007 guruware
# File Created: 04.04.2017 12:53:46

mtllib Wall_8_C.mtl

#
# object pCube73
#

v  -20.0000 20.0000 -1.0000
v  -20.0000 20.0000 1.0000
v  20.0000 20.0000 1.0000
v  20.0000 20.0000 -1.0000
v  -20.0000 -20.0000 1.0000
v  -20.0000 -20.0000 -1.0000
v  20.0000 -20.0000 -1.0000
v  20.0000 -20.0000 1.0000
v  -11.8085 10.0000 -1.0000
v  11.8085 10.0000 -1.0000
v  11.8085 10.0000 1.0000
v  -11.8085 10.0000 1.0000
v  -11.8085 -10.0000 -1.0000
v  -11.8085 -10.0000 1.0000
v  11.8085 -10.0000 -1.0000
v  11.8085 -10.0000 1.0000
# 16 vertices

vn 0.0000 1.0000 0.0000
vn 0.0000 -1.0000 -0.0000
vn 1.0000 0.0000 -0.0000
vn -1.0000 0.0000 -0.0000
vn 0.0000 0.0000 -1.0000
vn -0.0000 -0.0000 1.0000
vn 0.0000 -0.0000 1.0000
vn -0.0000 0.0000 -1.0000
# 8 vertex normals

vt 0.0004 0.7283 0.0000
vt 0.0004 0.7134 0.0000
vt 0.2498 0.7134 0.0000
vt 0.2498 0.7283 0.0000
vt 0.2331 0.5004 0.0000
vt 0.2498 0.5004 0.0000
vt 0.2498 0.7499 0.0000
vt 0.2331 0.7499 0.0000
vt 0.1987 0.6875 0.0000
vt 0.0003 0.7499 0.0000
vt 0.0514 0.6875 0.0000
vt 0.0514 0.6749 0.0000
vt 0.1987 0.6749 0.0000
vt 0.0645 0.5628 0.0000
vt 0.0645 0.6874 0.0000
vt 0.0514 0.5628 0.0000
vt 0.1987 0.5786 0.0000
vt 0.0514 0.5786 0.0000
vt 0.0514 0.5661 0.0000
vt 0.1987 0.5661 0.0000
vt 0.1856 0.6874 0.0000
vt 0.1856 0.5628 0.0000
vt 0.1987 0.5628 0.0000
vt 0.0003 0.5004 0.0000
# 24 texture coords

g pCube73
usemtl Atlas_1
s off
f 1/1/1 2/2/1 3/3/1 4/4/1 
f 5/1/2 6/2/2 7/3/2 8/4/2 
f 8/5/3 7/6/3 4/7/3 3/8/3 
f 6/5/4 5/6/4 2/7/4 1/8/4 
f 9/9/5 1/7/5 4/10/5 10/11/5 
f 11/9/2 12/11/2 9/12/2 10/13/2 
f 13/14/3 9/15/3 12/11/3 14/16/3 
f 15/17/1 13/18/1 14/19/1 16/20/1 
f 10/21/4 15/22/4 16/23/4 11/9/4 
f 8/6/6 3/7/6 11/9/6 16/23/6 
f 6/6/5 1/7/5 9/9/5 13/23/5 
f 3/7/7 2/10/7 12/11/7 11/9/7 
f 4/10/8 7/24/8 15/16/8 10/11/8 
f 15/16/5 7/24/5 6/6/5 13/23/5 
f 2/10/7 5/24/7 14/16/7 12/11/7 
f 14/16/7 5/24/7 8/6/7 16/23/7 
# 16 polygons

