# 3ds Max Wavefront OBJ Exporter v0.97b - (c)2007 guruware
# File Created: 04.04.2017 12:37:59

mtllib Wall_5_B.mtl

#
# object pCube50
#

v  -20.0000 20.0000 1.0000
v  -20.0000 -20.0000 1.0000
v  -10.0000 -20.0000 1.0000
v  -10.0000 10.0000 1.0000
v  -20.0000 20.0000 -1.0000
v  20.0000 20.0000 1.0000
v  20.0000 20.0000 -1.0000
v  -10.0000 -20.0000 -1.0000
v  -20.0000 -20.0000 -1.0000
v  -10.0000 10.0000 -1.0000
v  20.0000 -20.0000 1.0000
v  20.0000 -20.0000 -1.0000
v  10.0000 10.0000 1.0000
v  10.0000 -20.0000 1.0000
v  10.0000 -20.0000 -1.0000
v  10.0000 10.0000 -1.0000
# 16 vertices

vn -0.0000 -0.0000 1.0000
vn 0.0000 1.0000 0.0000
vn 0.0000 0.0000 -1.0000
vn 0.0000 -1.0000 -0.0000
vn 1.0000 0.0000 -0.0000
vn -1.0000 0.0000 -0.0000
vn 0.0000 -0.0000 1.0000
# 7 vertex normals

vt 0.7503 0.7497 0.0000
vt 0.7503 0.5011 0.0000
vt 0.8126 0.5013 0.0000
vt 0.8126 0.6873 0.0000
vt 0.7503 0.5203 0.0000
vt 0.7503 0.5051 0.0000
vt 0.9997 0.5051 0.0000
vt 0.9997 0.5203 0.0000
vt 0.9373 0.5011 0.0000
vt 0.9997 0.5011 0.0000
vt 0.9997 0.7497 0.0000
vt 0.9373 0.6873 0.0000
vt 0.9997 0.5143 0.0000
vt 0.9374 0.5143 0.0000
vt 0.9374 0.5011 0.0000
vt 0.9872 0.5011 0.0000
vt 0.9872 0.7497 0.0000
vt 0.9374 0.6874 0.0000
vt 0.9374 0.5013 0.0000
vt 0.8126 0.5011 0.0000
vt 0.8126 0.6665 0.0000
vt 0.9373 0.6665 0.0000
vt 0.9251 0.5014 0.0000
vt 0.9251 0.6876 0.0000
vt 0.8251 0.5014 0.0000
vt 0.8251 0.6876 0.0000
# 26 texture coords

g pCube50
usemtl Atlas_1
s off
f 1/1/1 2/2/1 3/3/1 4/4/1 
f 5/5/2 1/6/2 6/7/2 7/8/2 
f 8/9/3 9/10/3 5/11/3 10/12/3 
f 9/13/4 8/14/4 3/15/4 2/10/4 
f 11/16/5 12/10/5 7/11/5 6/17/5 
f 9/16/6 2/10/6 1/11/6 5/17/6 
f 13/18/7 14/19/7 11/10/7 6/11/7 
f 12/2/3 15/20/3 16/4/3 7/1/3 
f 14/14/4 15/15/4 12/10/4 11/13/4 
f 10/12/3 5/11/3 7/1/3 16/4/3 
f 10/21/4 16/22/4 13/18/4 4/4/4 
f 15/23/6 14/19/6 13/18/6 16/24/6 
f 3/3/5 8/25/5 10/26/5 4/4/5 
f 6/11/7 1/1/7 4/4/7 13/18/7 
# 14 polygons

