# 3ds Max Wavefront OBJ Exporter v0.97b - (c)2007 guruware
# File Created: 04.04.2017 12:39:46

mtllib Wall_5_Corner_E.mtl

#
# object polySurface35
#

v  19.0000 -20.0000 1.0000
v  19.0000 -20.0000 40.0000
v  19.0000 -10.0000 31.8085
v  19.0000 -10.0000 8.1915
v  19.0000 20.0000 1.0000
v  -20.0000 20.0000 1.0000
v  -10.0000 10.0000 1.0000
v  10.0000 10.0000 1.0000
v  -10.0000 -20.0000 1.0000
v  -10.0000 -20.0000 -1.0000
v  -10.0000 10.0000 -1.0000
v  10.0000 -20.0000 1.0000
v  10.0000 10.0000 -1.0000
v  10.0000 -20.0000 -1.0000
v  19.0000 -20.0000 -1.0000
v  21.0000 20.0000 -1.0000
v  21.0000 -20.0000 -1.0000
v  -20.0000 -20.0000 -1.0000
v  -20.0000 -20.0000 1.0000
v  -20.0000 20.0000 -1.0000
v  19.0000 20.0000 -1.0000
v  21.0000 10.0000 8.1915
v  21.0000 20.0000 1.0000
v  21.0000 20.0000 40.0000
v  21.0000 10.0000 31.8085
v  21.0000 -20.0000 40.0000
v  21.0000 -10.0000 31.8085
v  21.0000 -10.0000 8.1915
v  19.0000 10.0000 31.8085
v  19.0000 10.0000 8.1915
v  19.0000 20.0000 40.0000
v  21.0000 -20.0000 1.0000
# 32 vertices

vn -1.0000 -0.0000 -0.0000
vn 0.0000 0.0000 1.0000
vn 1.0000 0.0000 -0.0000
vn -1.0000 0.0000 -0.0000
vn 0.0000 -1.0000 -0.0000
vn 0.0000 0.0000 -1.0000
vn 0.0000 1.0000 0.0000
vn 0.0000 -0.0000 1.0000
vn 1.0000 -0.0000 -0.0000
vn -1.0000 0.0000 0.0000
# 10 vertex normals

vt 0.7625 0.5004 0.0000
vt 0.9998 0.5004 0.0000
vt 0.9487 0.5628 0.0000
vt 0.8014 0.5628 0.0000
vt 0.9876 0.7497 0.0000
vt 0.7503 0.7497 0.0000
vt 0.8127 0.6873 0.0000
vt 0.9374 0.6873 0.0000
vt 0.8127 0.6876 0.0000
vt 0.8127 0.5006 0.0000
vt 0.8251 0.5006 0.0000
vt 0.8251 0.6876 0.0000
vt 0.9376 0.5006 0.0000
vt 0.9376 0.6876 0.0000
vt 0.9251 0.6876 0.0000
vt 0.9251 0.5006 0.0000
vt 0.8127 0.6665 0.0000
vt 0.9374 0.6665 0.0000
vt 0.9885 0.5143 0.0000
vt 0.9374 0.5143 0.0000
vt 0.9374 0.5002 0.0000
vt 0.9885 0.5002 0.0000
vt 0.7617 0.5002 0.0000
vt 0.8127 0.5002 0.0000
vt 0.7503 0.5002 0.0000
vt 0.9873 0.5002 0.0000
vt 0.9998 0.5002 0.0000
vt 0.9998 0.7497 0.0000
vt 0.9873 0.7497 0.0000
vt 0.9998 0.5143 0.0000
vt 0.9876 0.5192 0.0000
vt 0.7504 0.5192 0.0000
vt 0.7504 0.5040 0.0000
vt 0.9876 0.5040 0.0000
vt 0.9487 0.6875 0.0000
vt 0.9998 0.7499 0.0000
vt 0.9876 0.7499 0.0000
vt 0.7503 0.7499 0.0000
vt 0.8014 0.6875 0.0000
vt 0.7503 0.5004 0.0000
vt 0.9487 0.5786 0.0000
vt 0.8015 0.5786 0.0000
vt 0.8015 0.5661 0.0000
vt 0.9487 0.5661 0.0000
vt 0.8015 0.6874 0.0000
vt 0.8015 0.5628 0.0000
vt 0.8145 0.5628 0.0000
vt 0.8145 0.6874 0.0000
vt 0.9487 0.6874 0.0000
vt 0.9356 0.6874 0.0000
vt 0.9356 0.5628 0.0000
vt 0.8015 0.6875 0.0000
vt 0.8015 0.6749 0.0000
vt 0.9487 0.6749 0.0000
vt 0.9831 0.5004 0.0000
vt 0.9831 0.7499 0.0000
vt 0.9876 0.5193 0.0000
vt 0.9876 0.5045 0.0000
vt 0.9998 0.5045 0.0000
vt 0.9998 0.5193 0.0000
vt 0.7504 0.5193 0.0000
vt 0.7504 0.5045 0.0000
vt 0.9884 0.5002 0.0000
vt 0.7625 0.7497 0.0000
vt 0.9876 0.5004 0.0000
vt 0.7625 0.7499 0.0000
# 66 texture coords

g polySurface35
usemtl Atlas_1
s off
f 1/1/1 2/2/1 3/3/1 4/4/1 
f 5/5/2 6/6/2 7/7/2 8/8/2 
f 7/9/3 9/10/3 10/11/3 11/12/3 
f 12/13/4 8/14/4 13/15/4 14/16/4 
f 11/17/5 13/18/5 8/8/5 7/7/5 
f 1/19/5 12/20/5 14/21/5 15/22/5 
f 15/23/6 14/24/6 13/7/6 16/6/6 
f 15/23/6 16/6/6 17/25/6 
f 18/26/4 19/27/4 6/28/4 20/29/4 
f 18/30/5 10/20/5 9/21/5 19/27/5 
f 11/8/6 10/21/6 18/27/6 20/28/6 
f 21/31/7 20/32/7 6/33/7 5/34/7 
f 19/25/8 9/24/8 7/7/8 6/6/8 
f 22/35/3 16/36/3 23/37/3 24/38/3 
f 22/35/3 24/38/3 25/39/3 
f 26/40/3 27/4/3 25/39/3 24/38/3 
f 4/41/7 3/42/7 27/43/7 28/44/7 
f 25/45/6 27/46/6 3/47/6 29/48/6 
f 28/3/8 22/49/8 30/50/8 4/51/8 
f 22/35/5 25/52/5 29/53/5 30/54/5 
f 2/55/8 26/2/8 24/36/8 31/56/8 
f 32/57/5 1/58/5 15/59/5 17/60/5 
f 3/3/4 2/2/4 31/36/4 29/35/4 
f 23/58/7 5/57/7 31/61/7 24/62/7 
f 5/5/8 8/8/8 12/21/8 1/63/8 
f 16/6/6 13/7/6 11/8/6 20/28/6 
f 16/6/6 20/28/6 21/64/6 
f 17/2/3 16/36/3 22/35/3 28/3/3 
f 17/2/9 28/3/9 27/4/9 26/40/9 
f 17/2/9 26/40/9 32/65/9 
f 26/61/5 2/62/5 1/58/5 32/57/5 
f 1/1/10 4/4/10 30/39/10 5/66/10 
f 5/66/4 30/39/4 29/35/4 31/36/4 
f 16/59/7 21/60/7 5/57/7 23/58/7 
# 30 polygons - 4 triangles

