# 3ds Max Wavefront OBJ Exporter v0.97b - (c)2007 guruware
# File Created: 04.04.2017 12:55:30

mtllib Wall_8_Corner_E.mtl

#
# object polySurface62
#

v  19.0000 20.0000 1.0000
v  -20.0000 20.0000 1.0000
v  -10.0000 10.0000 1.0000
v  10.0000 10.0000 1.0000
v  19.0000 -20.0000 1.0000
v  10.0000 -20.0000 1.0000
v  21.0000 20.0000 1.0000
v  21.0000 20.0000 -1.0000
v  20.0000 20.0000 -1.0000
v  20.0000 20.0000 1.0000
v  21.0000 20.0000 40.0000
v  21.0000 -20.0000 40.0000
v  21.0000 -10.0000 31.8085
v  21.0000 10.0000 31.8085
v  19.0000 -10.0000 8.1915
v  19.0000 -20.0000 40.0000
v  19.0000 -10.0000 31.8085
v  19.0000 20.0000 40.0000
v  19.0000 10.0000 31.8085
v  19.0000 10.0000 8.1915
v  21.0000 -10.0000 8.1915
v  21.0000 10.0000 8.1915
v  20.0000 -20.0000 1.0000
v  10.0000 -20.0000 -1.0000
v  19.0000 -20.0000 -1.0000
v  20.0000 -20.0000 -1.0000
v  21.0000 -20.0000 -1.0000
v  21.0000 -20.0000 -0.0000
v  21.0000 -20.0000 1.0000
v  -10.0000 -20.0000 1.0000
v  -10.0000 -20.0000 -1.0000
v  -10.0000 10.0000 -1.0000
v  10.0000 10.0000 -1.0000
v  19.0000 20.0000 -1.0000
v  -20.0000 20.0000 -1.0000
v  -20.0000 -20.0000 -1.0000
v  -20.0000 -20.0000 1.0000
v  21.0000 -17.8241 1.0000
v  21.0000 17.8241 1.0000
# 39 vertices

vn 0.0000 -0.0000 1.0000
vn 0.0000 1.0000 0.0000
vn 1.0000 0.0000 -0.0000
vn -1.0000 0.0000 -0.0000
vn 0.0000 0.0000 -1.0000
vn 0.0000 -1.0000 -0.0000
vn -0.0000 0.0000 -1.0000
# 7 vertex normals

vt 0.2435 0.7497 0.0000
vt 0.0003 0.7497 0.0000
vt 0.0627 0.6873 0.0000
vt 0.1874 0.6874 0.0000
vt 0.2435 0.5011 0.0000
vt 0.1875 0.5013 0.0000
vt 0.2325 0.5685 0.0000
vt 0.2325 0.5841 0.0000
vt 0.2247 0.5841 0.0000
vt 0.2247 0.5685 0.0000
vt 0.0003 0.7499 0.0000
vt 0.0003 0.5004 0.0000
vt 0.0514 0.5628 0.0000
vt 0.0514 0.6875 0.0000
vt 0.0065 0.5004 0.0000
vt 0.2498 0.5004 0.0000
vt 0.1987 0.5628 0.0000
vt 0.2498 0.7499 0.0000
vt 0.1987 0.6875 0.0000
vt 0.1856 0.6874 0.0000
vt 0.1856 0.5628 0.0000
vt 0.1987 0.5786 0.0000
vt 0.0514 0.5786 0.0000
vt 0.0514 0.5661 0.0000
vt 0.1987 0.5661 0.0000
vt 0.0645 0.5628 0.0000
vt 0.0645 0.6874 0.0000
vt 0.0514 0.6749 0.0000
vt 0.1987 0.6749 0.0000
vt 0.2331 0.5004 0.0000
vt 0.2331 0.7499 0.0000
vt 0.2380 0.6524 0.0000
vt 0.2306 0.6524 0.0000
vt 0.1638 0.6524 0.0000
vt 0.1638 0.6399 0.0000
vt 0.2306 0.6399 0.0000
vt 0.2380 0.6399 0.0000
vt 0.2498 0.5011 0.0000
vt 0.2498 0.7497 0.0000
vt 0.2372 0.5011 0.0000
vt 0.0627 0.5013 0.0000
vt 0.0751 0.5014 0.0000
vt 0.0751 0.6876 0.0000
vt 0.1751 0.5014 0.0000
vt 0.1751 0.6876 0.0000
vt 0.0627 0.6665 0.0000
vt 0.1873 0.6665 0.0000
vt 0.0065 0.5011 0.0000
vt 0.0627 0.5011 0.0000
vt 0.0065 0.7497 0.0000
vt 0.2497 0.7497 0.0000
vt 0.1874 0.6873 0.0000
vt 0.0003 0.5011 0.0000
vt 0.2372 0.7497 0.0000
vt 0.2498 0.6104 0.0000
vt 0.1874 0.6104 0.0000
vt 0.1874 0.5972 0.0000
vt 0.2498 0.5972 0.0000
vt 0.1874 0.5011 0.0000
vt 0.2497 0.5011 0.0000
vt 0.0004 0.7089 0.0000
vt 0.0004 0.6936 0.0000
vt 0.2435 0.6936 0.0000
vt 0.2498 0.6936 0.0000
vt 0.2498 0.7089 0.0000
vt 0.2435 0.7089 0.0000
vt 0.2436 0.7083 0.0000
vt 0.0004 0.7083 0.0000
vt 0.0004 0.6935 0.0000
vt 0.2436 0.6935 0.0000
vt 0.2436 0.7009 0.0000
vt 0.2497 0.5004 0.0000
vt 0.2436 0.5139 0.0000
vt 0.2436 0.5004 0.0000
vt 0.0065 0.7499 0.0000
vt 0.2500 0.7499 0.0000
vt 0.2438 0.7363 0.0000
vt 0.2436 0.7499 0.0000
vt 0.2497 0.5049 0.0000
# 79 texture coords

g polySurface62
usemtl Atlas_1
s off
f 1/1/1 2/2/1 3/3/1 4/4/1 
f 5/5/1 1/1/1 4/4/1 6/6/1 
f 7/7/2 8/8/2 9/9/2 10/10/2 
f 11/11/3 12/12/3 13/13/3 14/14/3 
f 15/13/4 5/15/4 16/16/4 17/17/4 
f 16/16/4 18/18/4 19/19/4 17/17/4 
f 20/20/1 15/21/1 21/17/1 22/19/1 
f 15/22/2 17/23/2 13/24/2 21/25/2 
f 17/26/5 19/27/5 14/14/5 13/13/5 
f 22/19/6 14/14/6 19/28/6 20/29/6 
f 16/30/1 12/16/1 11/18/1 18/31/1 
f 23/32/6 5/33/6 6/34/6 24/35/6 
f 23/32/6 24/35/6 25/36/6 26/37/6 
f 26/38/7 9/39/7 8/39/5 27/38/5 
f 23/40/6 26/38/6 27/38/6 28/5/6 
f 23/40/6 28/5/6 29/40/6 
f 30/41/3 31/42/3 32/43/3 3/3/3 
f 24/44/4 6/6/4 4/4/4 33/45/4 
f 32/46/6 33/47/6 4/4/6 3/3/6 
f 25/48/7 24/49/7 33/3/7 34/50/7 
f 35/51/7 34/50/7 33/3/7 32/52/7 
f 26/53/7 25/48/7 34/50/7 9/2/7 
f 36/40/4 37/38/4 2/39/4 35/54/4 
f 36/55/6 31/56/6 30/57/6 37/58/6 
f 31/59/5 36/60/5 35/51/5 32/52/5 
f 35/61/2 2/62/2 1/63/2 10/64/2 
f 35/61/2 10/64/2 9/65/2 34/66/2 
f 2/2/1 37/53/1 30/41/1 3/3/1 
f 1/67/2 18/68/2 11/69/2 7/70/2 
f 1/67/2 7/70/2 10/71/2 
f 29/67/6 12/68/6 16/69/6 5/70/6 
f 29/67/6 5/70/6 23/71/6 
f 27/72/3 38/73/3 29/74/3 28/16/3 
f 1/75/4 5/15/4 15/13/4 20/14/4 
f 1/75/4 20/14/4 19/19/4 18/18/4 
f 38/73/3 27/72/3 8/76/3 39/77/3 
f 22/19/3 39/77/3 7/78/3 11/11/3 
f 22/19/3 11/11/3 14/14/3 
f 21/17/3 38/73/3 39/77/3 22/19/3 
f 29/74/3 38/73/3 21/17/3 13/13/3 
f 29/74/3 13/13/3 12/12/3 
f 7/78/3 39/77/3 8/79/3 
# 36 polygons - 6 triangles

