# 3ds Max Wavefront OBJ Exporter v0.97b - (c)2007 guruware
# File Created: 04.04.2017 12:41:35

mtllib Wall_5_D.mtl

#
# object pCube52
#

v  -20.0000 20.0000 -1.0000
v  -20.0000 20.0000 1.0000
v  20.0000 20.0000 1.0000
v  20.0000 20.0000 -1.0000
v  -20.0000 -20.0000 1.0000
v  -20.0000 -20.0000 -1.0000
v  20.0000 -20.0000 -1.0000
v  20.0000 -20.0000 1.0000
v  -2.8695 10.0000 -1.0000
v  11.8085 10.0000 -1.0000
v  11.8085 10.0000 1.0000
v  -2.8695 10.0000 1.0000
v  -2.8695 -10.0000 -1.0000
v  -2.8695 -10.0000 1.0000
v  11.8085 -10.0000 -1.0000
v  11.8085 -10.0000 1.0000
# 16 vertices

vn 0.0000 1.0000 0.0000
vn 0.0000 -1.0000 -0.0000
vn 1.0000 0.0000 -0.0000
vn -1.0000 0.0000 -0.0000
vn 0.0000 0.0000 -1.0000
vn -0.0000 -0.0000 1.0000
vn 0.0000 -0.0000 1.0000
vn -0.0000 0.0000 -1.0000
# 8 vertex normals

vt 0.7505 0.5215 0.0000
vt 0.7505 0.5065 0.0000
vt 0.9993 0.5065 0.0000
vt 0.9993 0.5215 0.0000
vt 0.9848 0.5011 0.0000
vt 0.9994 0.5011 0.0000
vt 0.9994 0.7496 0.0000
vt 0.9848 0.7496 0.0000
vt 0.8571 0.6874 0.0000
vt 0.7505 0.7496 0.0000
vt 0.9484 0.6874 0.0000
vt 0.9484 0.6875 0.0000
vt 0.8571 0.6875 0.0000
vt 0.8570 0.6737 0.0000
vt 0.9484 0.6737 0.0000
vt 0.8695 0.5630 0.0000
vt 0.8695 0.6877 0.0000
vt 0.8571 0.5630 0.0000
vt 0.9484 0.5793 0.0000
vt 0.8570 0.5793 0.0000
vt 0.8570 0.5657 0.0000
vt 0.9484 0.5657 0.0000
vt 0.9361 0.6877 0.0000
vt 0.9361 0.5630 0.0000
vt 0.9485 0.5630 0.0000
vt 0.9994 0.5007 0.0000
vt 0.7505 0.5007 0.0000
vt 0.9484 0.5630 0.0000
# 28 texture coords

g pCube52
usemtl Atlas_1
s off
f 1/1/1 2/2/1 3/3/1 4/4/1 
f 5/1/2 6/2/2 7/3/2 8/4/2 
f 8/5/3 7/6/3 4/7/3 3/8/3 
f 6/5/4 5/6/4 2/7/4 1/8/4 
f 9/9/5 1/10/5 4/7/5 10/11/5 
f 11/12/2 12/13/2 9/14/2 10/15/2 
f 13/16/3 9/17/3 12/13/3 14/18/3 
f 15/19/1 13/20/1 14/21/1 16/22/1 
f 10/23/4 15/24/4 16/25/4 11/12/4 
f 8/26/6 3/7/6 11/12/6 16/25/6 
f 6/27/5 1/10/5 9/9/5 13/18/5 
f 3/7/7 2/10/7 12/13/7 11/12/7 
f 15/28/5 7/6/5 6/27/5 13/18/5 
f 4/7/8 7/6/8 15/28/8 10/11/8 
f 14/18/7 5/27/7 8/26/7 16/25/7 
f 2/10/7 5/27/7 14/18/7 12/13/7 
# 16 polygons

