# 3ds Max Wavefront OBJ Exporter v0.97b - (c)2007 guruware
# File Created: 04.04.2017 12:58:16

mtllib WardRobe_2C.mtl

#
# object polySurface1575
#

v  1.7172 -1.1210 6.1225
v  1.7172 -1.7172 5.0043
v  1.7172 -2.2828 5.0043
v  1.7172 -1.4902 6.6124
v  1.7172 1.1210 6.1225
v  1.7172 1.4902 6.6124
v  1.7172 1.7172 5.0043
v  1.7172 2.2828 5.0043
v  2.2828 -2.2828 5.0043
v  2.2828 -1.4902 6.6124
v  2.2828 1.4902 6.6124
v  2.2828 2.2828 5.0043
v  2.2828 -1.7172 5.0043
v  2.2828 -1.1210 6.1225
v  2.2828 1.1210 6.1225
v  2.2828 1.7172 5.0043
v  -2.2828 -1.1210 6.1225
v  -2.2828 -1.7172 5.0043
v  -2.2828 -2.2828 5.0043
v  -2.2828 -1.4902 6.6124
v  -2.2828 1.1210 6.1225
v  -2.2828 1.4902 6.6124
v  -2.2828 1.7172 5.0043
v  -2.2828 2.2828 5.0043
v  -1.7172 -2.2828 5.0043
v  -1.7172 -1.4902 6.6124
v  -1.7172 1.4902 6.6124
v  -1.7172 2.2828 5.0043
v  -1.7172 -1.7172 5.0043
v  -1.7172 -1.1210 6.1225
v  -1.7172 1.1210 6.1225
v  -1.7172 1.7172 5.0043
v  4.1593 -10.7879 5.8078
v  3.7121 -10.7879 4.9691
v  3.2879 -10.7879 4.9691
v  3.8823 -10.7879 6.1752
v  5.8407 -10.7879 5.8078
v  6.1177 -10.7879 6.1752
v  6.2879 -10.7879 4.9691
v  6.7121 -10.7879 4.9691
v  3.2879 -11.2121 4.9691
v  3.8823 -11.2121 6.1752
v  6.1177 -11.2121 6.1752
v  6.7121 -11.2121 4.9691
v  3.7121 -11.2121 4.9691
v  4.1593 -11.2121 5.8078
v  5.8407 -11.2121 5.8078
v  6.2879 -11.2121 4.9691
v  -5.8407 -13.7879 5.8078
v  -6.2879 -13.7879 4.9691
v  -6.7121 -13.7879 4.9691
v  -6.1177 -13.7879 6.1752
v  -4.1593 -13.7879 5.8078
v  -3.8823 -13.7879 6.1752
v  -3.7121 -13.7879 4.9691
v  -3.2879 -13.7879 4.9691
v  -6.7121 -14.2121 4.9691
v  -6.1177 -14.2121 6.1752
v  -3.8823 -14.2121 6.1752
v  -3.2879 -14.2121 4.9691
v  -6.2879 -14.2121 4.9691
v  -5.8407 -14.2121 5.8078
v  -4.1593 -14.2121 5.8078
v  -3.7121 -14.2121 4.9691
v  -5.8407 -10.7879 5.8078
v  -6.2879 -10.7879 4.9691
v  -6.7121 -10.7879 4.9691
v  -6.1177 -10.7879 6.1752
v  -4.1593 -10.7879 5.8078
v  -3.8823 -10.7879 6.1752
v  -3.7121 -10.7879 4.9691
v  -3.2879 -10.7879 4.9691
v  -6.7121 -11.2121 4.9691
v  -6.1177 -11.2121 6.1752
v  -3.8823 -11.2121 6.1752
v  -3.2879 -11.2121 4.9691
v  -6.2879 -11.2121 4.9691
v  -5.8407 -11.2121 5.8078
v  -4.1593 -11.2121 5.8078
v  -3.7121 -11.2121 4.9691
v  4.1593 -13.7879 5.8078
v  3.7121 -13.7879 4.9691
v  3.2879 -13.7879 4.9691
v  3.8823 -13.7879 6.1752
v  5.8407 -13.7879 5.8078
v  6.1177 -13.7879 6.1752
v  6.2879 -13.7879 4.9691
v  6.7121 -13.7879 4.9691
v  3.2879 -14.2121 4.9691
v  3.8823 -14.2121 6.1752
v  6.1177 -14.2121 6.1752
v  6.7121 -14.2121 4.9691
v  3.7121 -14.2121 4.9691
v  4.1593 -14.2121 5.8078
v  5.8407 -14.2121 5.8078
v  6.2879 -14.2121 4.9691
v  -11.7828 -1.1210 6.1225
v  -11.7828 -1.7172 5.0043
v  -11.7828 -2.2828 5.0043
v  -11.7828 -1.4902 6.6124
v  -11.7828 1.1210 6.1225
v  -11.7828 1.4902 6.6124
v  -11.7828 1.7172 5.0043
v  -11.7828 2.2828 5.0043
v  -11.2172 -2.2828 5.0043
v  -11.2172 -1.4902 6.6124
v  -11.2172 1.4902 6.6124
v  -11.2172 2.2828 5.0043
v  -11.2172 -1.7172 5.0043
v  -11.2172 -1.1210 6.1225
v  -11.2172 1.1210 6.1225
v  -11.2172 1.7172 5.0043
v  11.2700 -8.9964 5.0043
v  11.2700 -12.8282 5.0043
v  11.2700 -12.8282 4.1543
v  11.2700 -8.9964 4.1543
v  0.0000 -12.8282 5.0043
v  0.0000 -8.9964 5.0043
v  -9.5164 -8.9964 5.0043
v  -9.5164 -8.9964 4.1543
v  -9.5164 -12.8282 4.1543
v  -9.5164 -12.8282 5.0043
v  11.2700 -16.6600 5.0043
v  11.2700 -16.6600 4.1543
v  0.0000 -16.6600 5.0043
v  -9.5164 -16.6600 5.0043
v  -9.5164 -16.6600 4.1543
v  0.0000 16.6600 4.1543
v  0.0000 16.6600 5.0043
v  11.2700 16.6600 5.0043
v  11.2700 16.6600 4.1543
v  -9.5164 16.6600 4.1543
v  -9.5164 16.6600 5.0043
v  -21.2464 -16.6600 5.0043
v  -21.2464 16.6600 5.0043
v  -21.2464 16.6600 4.1543
v  -21.2464 -16.6600 4.1543
v  -9.9764 16.6600 5.0043
v  -9.9764 -16.6600 5.0043
v  -9.9764 16.6600 4.1543
v  -21.5950 -17.0000 4.2500
v  -9.7464 -17.0000 4.2500
v  -9.7464 17.0000 4.2500
v  -21.5950 17.0000 4.2500
v  -9.7464 17.0000 -4.2500
v  -21.5950 17.0000 -4.2500
v  -9.7464 -17.0000 -4.2500
v  -21.5950 -17.0000 -4.2500
v  11.5000 -17.0000 4.2500
v  11.5000 17.0000 4.2500
v  11.5000 17.0000 -4.2500
v  11.5000 -17.0000 -4.2500
v  -9.9764 -16.6600 4.2500
v  -9.9764 16.6600 4.2500
# 154 vertices

vn -1.0000 -0.0000 -0.0000
vn -1.0000 0.0000 -0.0000
vn 0.0000 -0.8970 0.4421
vn 0.0000 -0.0000 1.0000
vn 0.0000 0.8970 0.4421
vn 1.0000 0.0000 0.0000
vn 1.0000 0.0000 -0.0000
vn 1.0000 -0.0000 -0.0000
vn -0.0000 0.8824 -0.4705
vn 0.0000 0.0000 -1.0000
vn 0.0000 -0.8824 -0.4705
vn -1.0000 0.0000 0.0000
vn 0.0000 1.0000 -0.0000
vn 0.0000 1.0000 0.0000
vn -0.8970 -0.0000 0.4421
vn 0.8970 -0.0000 0.4421
vn 0.0000 -1.0000 -0.0000
vn 0.0000 -1.0000 0.0000
vn 0.8824 0.0000 -0.4705
vn -0.8824 0.0000 -0.4705
# 20 vertex normals

vt 0.3658 0.0723 0.0000
vt 0.3805 0.0723 0.0000
vt 0.3821 0.0761 0.0000
vt 0.3660 0.0761 0.0000
vt 0.3496 0.0723 0.0000
vt 0.3494 0.0761 0.0000
vt 0.3350 0.0723 0.0000
vt 0.3334 0.0761 0.0000
vt 0.3821 0.0804 0.0000
vt 0.3660 0.0804 0.0000
vt 0.3494 0.0804 0.0000
vt 0.3334 0.0804 0.0000
vt 0.3796 0.0841 0.0000
vt 0.3659 0.0841 0.0000
vt 0.3496 0.0841 0.0000
vt 0.3358 0.0841 0.0000
vt 0.3788 0.0884 0.0000
vt 0.3659 0.0884 0.0000
vt 0.3496 0.0884 0.0000
vt 0.3366 0.0884 0.0000
vt 0.5745 0.5465 0.0000
vt 0.5745 0.5226 0.0000
vt 0.5007 0.5226 0.0000
vt 0.5007 0.5465 0.0000
vt 0.6227 0.5226 0.0000
vt 0.6227 0.5465 0.0000
vt 0.5489 0.5226 0.0000
vt 0.5489 0.5465 0.0000
vt 0.5493 0.5460 0.0000
vt 0.5521 0.5460 0.0000
vt 0.5521 0.5850 0.0000
vt 0.5493 0.5850 0.0000
vt 0.5908 0.5698 0.0000
vt 0.5908 0.6055 0.0000
vt 0.5133 0.6055 0.0000
vt 0.5133 0.5698 0.0000
vt 0.5133 0.5464 0.0000
vt 0.5908 0.5464 0.0000
vt 0.5019 0.5188 0.0000
vt 0.6184 0.5188 0.0000
vt 0.6184 0.5030 0.0000
vt 0.5019 0.5030 0.0000
vt 0.6184 0.5458 0.0000
vt 0.5019 0.5458 0.0000
vt 0.5375 0.5463 0.0000
vt 0.5375 0.5071 0.0000
vt 0.5405 0.5071 0.0000
vt 0.5405 0.5463 0.0000
vt 0.6582 0.7037 0.0000
vt 0.6582 0.6848 0.0000
vt 0.7139 0.6848 0.0000
vt 0.7139 0.7037 0.0000
vt 0.6780 0.6944 0.0000
vt 0.6560 0.6944 0.0000
vt 0.6560 0.6782 0.0000
vt 0.6780 0.6782 0.0000
vt 0.6496 0.7093 0.0000
vt 0.6496 0.6848 0.0000
vt 0.7219 0.6848 0.0000
vt 0.7219 0.7093 0.0000
vt 0.6582 0.7176 0.0000
vt 0.7139 0.7176 0.0000
vt 0.6582 0.6660 0.0000
vt 0.7139 0.6660 0.0000
vt 0.6341 0.6944 0.0000
vt 0.6341 0.6782 0.0000
vt 0.6496 0.6604 0.0000
vt 0.7219 0.6604 0.0000
vt 0.6582 0.6521 0.0000
vt 0.7139 0.6521 0.0000
vt 0.6432 0.6021 0.0000
vt 0.5133 0.6021 0.0000
vt 0.5133 0.5991 0.0000
vt 0.6432 0.5991 0.0000
# 74 texture coords

g polySurface1575
usemtl Atlas_2
s off
f 1/1/1 2/2/1 3/3/1 4/4/1 
f 5/5/2 1/1/2 4/4/2 6/6/2 
f 7/7/2 5/5/2 6/6/2 8/8/2 
f 4/4/3 3/3/3 9/9/3 10/10/3 
f 6/6/4 4/4/4 10/10/4 11/11/4 
f 8/8/5 6/6/5 11/11/5 12/12/5 
f 10/10/6 9/9/6 13/13/6 14/14/6 
f 11/11/7 10/10/7 14/14/7 15/15/7 
f 12/12/8 11/11/8 15/15/8 16/16/8 
f 14/14/9 13/13/9 2/17/9 1/18/9 
f 15/15/10 14/14/10 1/18/10 5/19/10 
f 16/16/11 15/15/11 5/19/11 7/20/11 
f 17/1/12 18/2/12 19/3/12 20/4/12 
f 21/5/2 17/1/2 20/4/2 22/6/2 
f 23/7/2 21/5/2 22/6/2 24/8/2 
f 20/4/3 19/3/3 25/9/3 26/10/3 
f 22/6/4 20/4/4 26/10/4 27/11/4 
f 24/8/5 22/6/5 27/11/5 28/12/5 
f 26/10/8 25/9/8 29/13/8 30/14/8 
f 27/11/7 26/10/7 30/14/7 31/15/7 
f 28/12/6 27/11/6 31/15/6 32/16/6 
f 30/14/9 29/13/9 18/17/9 17/18/9 
f 31/15/10 30/14/10 17/18/10 21/19/10 
f 32/16/11 31/15/11 21/19/11 23/20/11 
f 33/1/13 34/2/13 35/3/13 36/4/13 
f 37/5/13 33/1/13 36/4/13 38/6/13 
f 39/7/14 37/5/14 38/6/14 40/8/14 
f 36/4/15 35/3/15 41/9/15 42/10/15 
f 38/6/4 36/4/4 42/10/4 43/11/4 
f 40/8/16 38/6/16 43/11/16 44/12/16 
f 42/10/17 41/9/17 45/13/17 46/14/17 
f 43/11/18 42/10/18 46/14/18 47/15/18 
f 44/12/17 43/11/17 47/15/17 48/16/17 
f 46/14/19 45/13/19 34/17/19 33/18/19 
f 47/15/10 46/14/10 33/18/10 37/19/10 
f 48/16/20 47/15/20 37/19/20 39/20/20 
f 49/1/14 50/2/14 51/3/14 52/4/14 
f 53/5/13 49/1/13 52/4/13 54/6/13 
f 55/7/14 53/5/14 54/6/14 56/8/14 
f 52/4/15 51/3/15 57/9/15 58/10/15 
f 54/6/4 52/4/4 58/10/4 59/11/4 
f 56/8/16 54/6/16 59/11/16 60/12/16 
f 58/10/17 57/9/17 61/13/17 62/14/17 
f 59/11/17 58/10/17 62/14/17 63/15/17 
f 60/12/17 59/11/17 63/15/17 64/16/17 
f 62/14/19 61/13/19 50/17/19 49/18/19 
f 63/15/10 62/14/10 49/18/10 53/19/10 
f 64/16/20 63/15/20 53/19/20 55/20/20 
f 65/1/14 66/2/14 67/3/14 68/4/14 
f 69/5/13 65/1/13 68/4/13 70/6/13 
f 71/7/14 69/5/14 70/6/14 72/8/14 
f 68/4/15 67/3/15 73/9/15 74/10/15 
f 70/6/4 68/4/4 74/10/4 75/11/4 
f 72/8/16 70/6/16 75/11/16 76/12/16 
f 74/10/18 73/9/18 77/13/18 78/14/18 
f 75/11/17 74/10/17 78/14/17 79/15/17 
f 76/12/17 75/11/17 79/15/17 80/16/17 
f 78/14/19 77/13/19 66/17/19 65/18/19 
f 79/15/10 78/14/10 65/18/10 69/19/10 
f 80/16/20 79/15/20 69/19/20 71/20/20 
f 81/1/14 82/2/14 83/3/14 84/4/14 
f 85/5/14 81/1/14 84/4/14 86/6/14 
f 87/7/14 85/5/14 86/6/14 88/8/14 
f 84/4/15 83/3/15 89/9/15 90/10/15 
f 86/6/4 84/4/4 90/10/4 91/11/4 
f 88/8/16 86/6/16 91/11/16 92/12/16 
f 90/10/17 89/9/17 93/13/17 94/14/17 
f 91/11/17 90/10/17 94/14/17 95/15/17 
f 92/12/17 91/11/17 95/15/17 96/16/17 
f 94/14/19 93/13/19 82/17/19 81/18/19 
f 95/15/10 94/14/10 81/18/10 85/19/10 
f 96/16/20 95/15/20 85/19/20 87/20/20 
f 97/1/1 98/2/1 99/3/1 100/4/1 
f 101/5/2 97/1/2 100/4/2 102/6/2 
f 103/7/12 101/5/12 102/6/12 104/8/12 
f 100/4/3 99/3/3 105/9/3 106/10/3 
f 102/6/4 100/4/4 106/10/4 107/11/4 
f 104/8/5 102/6/5 107/11/5 108/12/5 
f 106/10/8 105/9/8 109/13/8 110/14/8 
f 107/11/7 106/10/7 110/14/7 111/15/7 
f 108/12/7 107/11/7 111/15/7 112/16/7 
f 110/14/9 109/13/9 98/17/9 97/18/9 
f 111/15/10 110/14/10 97/18/10 101/19/10 
f 112/16/11 111/15/11 101/19/11 103/20/11 
f 113/21/7 114/22/7 115/23/7 116/24/7 
f 117/25/4 114/22/4 113/21/4 118/26/4 
f 119/21/2 120/24/2 121/23/2 122/22/2 
f 117/25/4 118/26/4 119/21/4 122/22/4 
f 123/27/7 124/25/7 115/26/7 114/28/7 
f 117/24/4 125/23/4 123/27/4 114/28/4 
f 126/27/2 122/28/2 121/26/2 127/25/2 
f 117/24/4 122/28/4 126/27/4 125/23/4 
f 128/29/14 129/30/14 130/31/14 131/32/14 
f 113/33/7 116/34/7 131/35/7 130/36/7 
f 129/37/4 118/38/4 113/33/4 130/36/4 
f 128/29/14 132/32/14 133/31/14 129/30/14 
f 119/33/2 133/36/2 132/35/2 120/34/2 
f 129/37/4 133/36/4 119/33/4 118/38/4 
f 134/39/2 135/40/2 136/41/2 137/42/2 
f 138/43/4 135/40/4 134/39/4 139/44/4 
f 140/45/14 136/46/14 135/47/14 138/48/14 
f 141/49/4 142/50/4 143/51/4 144/52/4 
f 144/53/14 143/54/14 145/55/14 146/56/14 
f 146/57/10 145/58/10 147/59/10 148/60/10 
f 148/61/2 141/49/2 144/52/2 146/62/2 
f 142/49/4 149/63/4 150/64/4 143/52/4 
f 143/53/13 150/65/13 151/66/13 145/56/13 
f 145/57/10 151/67/10 152/68/10 147/60/10 
f 149/63/7 152/69/7 151/70/7 150/64/7 
f 138/71/7 139/72/7 153/73/7 154/74/7 
# 110 polygons

