# 3ds Max Wavefront OBJ Exporter v0.97b - (c)2007 guruware
# File Created: 04.04.2017 12:58:32

mtllib WardRobe_2D.mtl

#
# object polySurface1602
#

v  -11.7828 -1.1210 6.1225
v  -11.7828 -1.7172 5.0043
v  -11.7828 -2.2828 5.0043
v  -11.7828 -1.4902 6.6124
v  -11.7828 1.1210 6.1225
v  -11.7828 1.4902 6.6124
v  -11.7828 1.7172 5.0043
v  -11.7828 2.2828 5.0043
v  -11.2172 -2.2828 5.0043
v  -11.2172 -1.4902 6.6124
v  -11.2172 1.4902 6.6124
v  -11.2172 2.2828 5.0043
v  -11.2172 -1.7172 5.0043
v  -11.2172 -1.1210 6.1225
v  -11.2172 1.1210 6.1225
v  -11.2172 1.7172 5.0043
v  -21.2464 -16.6600 5.0043
v  -21.2464 16.6600 5.0043
v  -21.2464 16.6600 4.1543
v  -21.2464 -16.6600 4.1543
v  -9.9764 16.6600 5.0043
v  -9.9764 -16.6600 5.0043
v  -9.9764 16.6600 4.1543
v  -21.5950 -17.0000 4.2500
v  -9.7464 -17.0000 4.2500
v  -9.7464 17.0000 4.2500
v  -21.5950 17.0000 4.2500
v  -9.7464 17.0000 -4.2500
v  -21.5950 17.0000 -4.2500
v  -9.7464 -17.0000 -4.2500
v  -21.5950 -17.0000 -4.2500
v  -9.9764 -16.6600 4.2408
v  -9.9764 16.6600 4.2408
# 33 vertices

vn -1.0000 -0.0000 -0.0000
vn -1.0000 0.0000 -0.0000
vn -1.0000 0.0000 0.0000
vn 0.0000 -0.8970 0.4421
vn 0.0000 -0.0000 1.0000
vn 0.0000 0.8970 0.4421
vn 1.0000 -0.0000 -0.0000
vn 1.0000 0.0000 -0.0000
vn -0.0000 0.8824 -0.4705
vn 0.0000 0.0000 -1.0000
vn 0.0000 -0.8824 -0.4705
vn 0.0000 1.0000 0.0000
# 12 vertex normals

vt 0.3658 0.0723 0.0000
vt 0.3805 0.0723 0.0000
vt 0.3821 0.0761 0.0000
vt 0.3660 0.0761 0.0000
vt 0.3496 0.0723 0.0000
vt 0.3494 0.0761 0.0000
vt 0.3350 0.0723 0.0000
vt 0.3334 0.0761 0.0000
vt 0.3821 0.0804 0.0000
vt 0.3660 0.0804 0.0000
vt 0.3494 0.0804 0.0000
vt 0.3334 0.0804 0.0000
vt 0.3796 0.0841 0.0000
vt 0.3659 0.0841 0.0000
vt 0.3496 0.0841 0.0000
vt 0.3358 0.0841 0.0000
vt 0.3788 0.0884 0.0000
vt 0.3659 0.0884 0.0000
vt 0.3496 0.0884 0.0000
vt 0.3366 0.0884 0.0000
vt 0.5019 0.5188 0.0000
vt 0.6184 0.5188 0.0000
vt 0.6184 0.5030 0.0000
vt 0.5019 0.5030 0.0000
vt 0.6184 0.5458 0.0000
vt 0.5019 0.5458 0.0000
vt 0.5375 0.5463 0.0000
vt 0.5375 0.5071 0.0000
vt 0.5405 0.5071 0.0000
vt 0.5405 0.5463 0.0000
vt 0.6582 0.7037 0.0000
vt 0.6582 0.6848 0.0000
vt 0.7139 0.6848 0.0000
vt 0.7139 0.7037 0.0000
vt 0.6780 0.6944 0.0000
vt 0.6560 0.6944 0.0000
vt 0.6560 0.6782 0.0000
vt 0.6780 0.6782 0.0000
vt 0.6496 0.7093 0.0000
vt 0.6496 0.6848 0.0000
vt 0.7219 0.6848 0.0000
vt 0.7219 0.7093 0.0000
vt 0.6582 0.7176 0.0000
vt 0.7139 0.7176 0.0000
vt 0.6582 0.6660 0.0000
vt 0.6582 0.6521 0.0000
vt 0.7139 0.6521 0.0000
vt 0.7139 0.6660 0.0000
vt 0.5395 0.6062 0.0000
vt 0.6510 0.6062 0.0000
vt 0.6510 0.6088 0.0000
vt 0.5395 0.6088 0.0000
# 52 texture coords

g polySurface1602
usemtl Atlas_2
s off
f 1/1/1 2/2/1 3/3/1 4/4/1 
f 5/5/2 1/1/2 4/4/2 6/6/2 
f 7/7/3 5/5/3 6/6/3 8/8/3 
f 4/4/4 3/3/4 9/9/4 10/10/4 
f 6/6/5 4/4/5 10/10/5 11/11/5 
f 8/8/6 6/6/6 11/11/6 12/12/6 
f 10/10/7 9/9/7 13/13/7 14/14/7 
f 11/11/8 10/10/8 14/14/8 15/15/8 
f 12/12/8 11/11/8 15/15/8 16/16/8 
f 14/14/9 13/13/9 2/17/9 1/18/9 
f 15/15/10 14/14/10 1/18/10 5/19/10 
f 16/16/11 15/15/11 5/19/11 7/20/11 
f 17/21/2 18/22/2 19/23/2 20/24/2 
f 21/25/5 18/22/5 17/21/5 22/26/5 
f 23/27/12 19/28/12 18/29/12 21/30/12 
f 24/31/5 25/32/5 26/33/5 27/34/5 
f 27/35/12 26/36/12 28/37/12 29/38/12 
f 29/39/10 28/40/10 30/41/10 31/42/10 
f 31/43/2 24/31/2 27/34/2 29/44/2 
f 25/45/7 30/46/7 28/47/7 26/48/7 
f 21/49/8 22/50/8 32/51/8 33/52/8 
# 21 polygons

