# 3ds Max Wavefront OBJ Exporter v0.97b - (c)2007 guruware
# File Created: 04.04.2017 12:57:37

mtllib WardRobe_2A.mtl

#
# object polySurface954
#

v  -11.5000 -17.0000 4.2500
v  11.5000 -17.0000 4.2500
v  11.5000 17.0000 4.2500
v  -11.5000 17.0000 4.2500
v  11.5000 17.0000 -4.2500
v  -11.5000 17.0000 -4.2500
v  11.5000 -17.0000 -4.2500
v  -11.5000 -17.0000 -4.2500
v  11.2700 -16.6600 5.0043
v  11.2700 -16.6600 4.1543
v  11.2700 16.6600 4.1543
v  11.2700 16.6600 5.0043
v  0.0000 16.6600 5.0043
v  0.0000 -16.6600 5.0043
v  0.0000 16.6600 4.1543
v  -11.2700 -16.6600 5.0043
v  -11.2700 16.6600 5.0043
v  -11.2700 16.6600 4.1543
v  -11.2700 -16.6600 4.1543
v  1.7172 -1.1210 6.1225
v  1.7172 -1.7172 5.0043
v  1.7172 -2.2828 5.0043
v  1.7172 -1.4902 6.6124
v  1.7172 1.1210 6.1225
v  1.7172 1.4902 6.6124
v  1.7172 1.7172 5.0043
v  1.7172 2.2828 5.0043
v  2.2828 -2.2828 5.0043
v  2.2828 -1.4902 6.6124
v  2.2828 1.4902 6.6124
v  2.2828 2.2828 5.0043
v  2.2828 -1.7172 5.0043
v  2.2828 -1.1210 6.1225
v  2.2828 1.1210 6.1225
v  2.2828 1.7172 5.0043
v  -2.2828 -1.1210 6.1225
v  -2.2828 -1.7172 5.0043
v  -2.2828 -2.2828 5.0043
v  -2.2828 -1.4902 6.6124
v  -2.2828 1.1210 6.1225
v  -2.2828 1.4902 6.6124
v  -2.2828 1.7172 5.0043
v  -2.2828 2.2828 5.0043
v  -1.7172 -2.2828 5.0043
v  -1.7172 -1.4902 6.6124
v  -1.7172 1.4902 6.6124
v  -1.7172 2.2828 5.0043
v  -1.7172 -1.7172 5.0043
v  -1.7172 -1.1210 6.1225
v  -1.7172 1.1210 6.1225
v  -1.7172 1.7172 5.0043
# 51 vertices

vn 0.0000 -0.0000 1.0000
vn 0.0000 1.0000 0.0000
vn 0.0000 0.0000 -1.0000
vn 1.0000 0.0000 -0.0000
vn -1.0000 0.0000 -0.0000
vn -1.0000 -0.0000 -0.0000
vn 0.0000 -0.8970 0.4421
vn 0.0000 0.8970 0.4421
vn 1.0000 0.0000 0.0000
vn 1.0000 -0.0000 -0.0000
vn -0.0000 0.8824 -0.4705
vn 0.0000 -0.8824 -0.4705
vn -1.0000 0.0000 0.0000
# 13 vertex normals

vt 0.6609 0.7015 0.0000
vt 0.6609 0.6639 0.0000
vt 0.7165 0.6639 0.0000
vt 0.7165 0.7015 0.0000
vt 0.6806 0.6923 0.0000
vt 0.6367 0.6923 0.0000
vt 0.6367 0.6760 0.0000
vt 0.6806 0.6760 0.0000
vt 0.6523 0.7071 0.0000
vt 0.6523 0.6583 0.0000
vt 0.7245 0.6583 0.0000
vt 0.7245 0.7071 0.0000
vt 0.6609 0.6500 0.0000
vt 0.7165 0.6500 0.0000
vt 0.6609 0.7154 0.0000
vt 0.7165 0.7154 0.0000
vt 0.5019 0.5188 0.0000
vt 0.5019 0.5030 0.0000
vt 0.6184 0.5030 0.0000
vt 0.6184 0.5188 0.0000
vt 0.6184 0.5458 0.0000
vt 0.5019 0.5458 0.0000
vt 0.5543 0.5461 0.0000
vt 0.5516 0.5461 0.0000
vt 0.5516 0.5046 0.0000
vt 0.5543 0.5046 0.0000
vt 0.5375 0.5463 0.0000
vt 0.5375 0.5071 0.0000
vt 0.5405 0.5071 0.0000
vt 0.5405 0.5463 0.0000
vt 0.3682 0.0722 0.0000
vt 0.3830 0.0722 0.0000
vt 0.3845 0.0759 0.0000
vt 0.3684 0.0759 0.0000
vt 0.3518 0.0722 0.0000
vt 0.3516 0.0759 0.0000
vt 0.3370 0.0722 0.0000
vt 0.3355 0.0759 0.0000
vt 0.3845 0.0803 0.0000
vt 0.3684 0.0803 0.0000
vt 0.3516 0.0803 0.0000
vt 0.3355 0.0803 0.0000
vt 0.3821 0.0840 0.0000
vt 0.3682 0.0840 0.0000
vt 0.3518 0.0840 0.0000
vt 0.3379 0.0840 0.0000
vt 0.3813 0.0884 0.0000
vt 0.3682 0.0884 0.0000
vt 0.3518 0.0884 0.0000
vt 0.3387 0.0884 0.0000
# 50 texture coords

g polySurface954
usemtl Atlas_2
s off
f 1/1/1 2/2/1 3/3/1 4/4/1 
f 4/5/2 3/6/2 5/7/2 6/8/2 
f 6/9/3 5/10/3 7/11/3 8/12/3 
f 2/2/4 7/13/4 5/14/4 3/3/4 
f 8/15/5 1/1/5 4/4/5 6/16/5 
f 9/17/4 10/18/4 11/19/4 12/20/4 
f 13/21/1 14/22/1 9/17/1 12/20/1 
f 15/23/2 13/24/2 12/25/2 11/26/2 
f 16/17/5 17/20/5 18/19/5 19/18/5 
f 13/21/1 17/20/1 16/17/1 14/22/1 
f 15/27/2 18/28/2 17/29/2 13/30/2 
f 20/31/6 21/32/6 22/33/6 23/34/6 
f 24/35/5 20/31/5 23/34/5 25/36/5 
f 26/37/5 24/35/5 25/36/5 27/38/5 
f 23/34/7 22/33/7 28/39/7 29/40/7 
f 25/36/1 23/34/1 29/40/1 30/41/1 
f 27/38/8 25/36/8 30/41/8 31/42/8 
f 29/40/9 28/39/9 32/43/9 33/44/9 
f 30/41/4 29/40/4 33/44/4 34/45/4 
f 31/42/10 30/41/10 34/45/10 35/46/10 
f 33/44/11 32/43/11 21/47/11 20/48/11 
f 34/45/3 33/44/3 20/48/3 24/49/3 
f 35/46/12 34/45/12 24/49/12 26/50/12 
f 36/31/13 37/32/13 38/33/13 39/34/13 
f 40/35/5 36/31/5 39/34/5 41/36/5 
f 42/37/5 40/35/5 41/36/5 43/38/5 
f 39/34/7 38/33/7 44/39/7 45/40/7 
f 41/36/1 39/34/1 45/40/1 46/41/1 
f 43/38/8 41/36/8 46/41/8 47/42/8 
f 45/40/10 44/39/10 48/43/10 49/44/10 
f 46/41/4 45/40/4 49/44/4 50/45/4 
f 47/42/9 46/41/9 50/45/9 51/46/9 
f 49/44/11 48/43/11 37/47/11 36/48/11 
f 50/45/3 49/44/3 36/48/3 40/49/3 
f 51/46/12 50/45/12 40/49/12 42/50/12 
# 35 polygons

