# 3ds Max Wavefront OBJ Exporter v0.97b - (c)2007 guruware
# File Created: 04.04.2017 12:59:29

mtllib Window_2.mtl

#
# object polySurface1480
#

v  9.8085 -8.1379 0.7500
v  -0.8695 -8.1379 0.7500
v  -2.8695 -10.0000 0.7500
v  11.8085 -10.0000 0.7500
v  11.8085 10.0000 -0.7500
v  -2.8695 10.0000 -0.7500
v  -2.8695 10.0000 0.7500
v  11.8085 10.0000 0.7500
v  -0.8695 -8.1379 -0.7500
v  -2.8695 -10.0000 -0.7500
v  -0.8695 8.2400 -0.7500
v  11.8085 -10.0000 -0.7500
v  -0.8695 8.2400 0.7500
v  9.8085 8.2400 0.7500
v  9.8085 -8.1379 -0.7500
v  9.8085 8.2400 -0.7500
v  -3.1197 -10.9487 2.5000
v  12.0000 -10.9487 2.5000
v  12.0000 -9.9487 2.5000
v  -3.1197 -9.9487 2.5000
v  12.0000 -9.9487 -2.5000
v  -3.1197 -9.9487 -2.5000
v  12.0000 -10.9487 -2.5000
v  -3.1197 -10.9487 -2.5000
# 24 vertices

vn 0.0000 -0.0000 1.0000
vn 0.0000 1.0000 0.0000
vn -0.0000 0.0000 -1.0000
vn 0.0000 -1.0000 -0.0000
vn -1.0000 0.0000 -0.0000
vn 1.0000 0.0000 -0.0000
vn 0.0000 0.0000 -1.0000
vn -0.0000 -0.0000 1.0000
# 8 vertex normals

vt 0.7160 0.9057 0.0000
vt 0.9170 0.9059 0.0000
vt 0.9372 0.9255 0.0000
vt 0.6956 0.9257 0.0000
vt 0.9387 0.9407 0.0000
vt 0.7011 0.9406 0.0000
vt 0.7012 0.9232 0.0000
vt 0.9385 0.9230 0.0000
vt 0.9023 0.8812 0.0000
vt 0.9225 0.9025 0.0000
vt 0.7122 0.9024 0.0000
vt 0.7309 0.8809 0.0000
vt 0.9371 0.9432 0.0000
vt 0.6958 0.9430 0.0000
vt 0.9224 0.9200 0.0000
vt 0.7120 0.9203 0.0000
vt 0.7212 0.9045 0.0000
vt 0.9186 0.9046 0.0000
vt 0.9027 0.9415 0.0000
vt 0.9023 0.9596 0.0000
vt 0.7311 0.9597 0.0000
vt 0.7307 0.9416 0.0000
vt 0.7287 0.9450 0.0000
vt 0.7089 0.9234 0.0000
vt 0.9185 0.9236 0.0000
vt 0.8998 0.9451 0.0000
vt 0.7090 0.9060 0.0000
vt 0.9183 0.9058 0.0000
vt 0.7288 0.9632 0.0000
vt 0.8996 0.9632 0.0000
vt 0.7216 0.9768 0.0000
vt 0.7216 0.9590 0.0000
vt 0.9182 0.9590 0.0000
vt 0.9183 0.9768 0.0000
vt 0.9168 0.9627 0.0000
vt 0.9171 0.9804 0.0000
vt 0.7158 0.9805 0.0000
vt 0.7160 0.9628 0.0000
vt 0.7288 0.8845 0.0000
vt 0.8998 0.8844 0.0000
vt 0.6950 0.9101 0.0000
vt 0.9355 0.9101 0.0000
vt 0.9355 0.9201 0.0000
vt 0.6950 0.9201 0.0000
vt 0.9355 0.9702 0.0000
vt 0.6950 0.9702 0.0000
vt 0.6950 0.9099 0.0000
vt 0.9355 0.9099 0.0000
vt 0.9355 0.9199 0.0000
vt 0.6950 0.9199 0.0000
vt 0.9355 0.9700 0.0000
vt 0.6950 0.9700 0.0000
vt 0.8890 0.9572 0.0000
vt 0.7414 0.9572 0.0000
vt 0.7414 0.9277 0.0000
vt 0.8890 0.9277 0.0000
vt 0.8890 0.9576 0.0000
vt 0.7414 0.9576 0.0000
vt 0.7414 0.9280 0.0000
vt 0.8890 0.9280 0.0000
# 60 texture coords

g polySurface1480
usemtl Atlas_2
s off
f 1/1/1 2/2/1 3/3/1 4/4/1 
f 5/5/2 6/6/2 7/7/2 8/8/2 
f 9/9/3 10/10/3 6/11/3 11/12/3 
f 4/4/4 3/3/4 10/13/4 12/14/4 
f 10/10/5 3/15/5 7/16/5 6/11/5 
f 8/8/1 7/7/1 13/17/1 14/18/1 
f 2/19/6 9/20/6 11/21/6 13/22/6 
f 1/23/1 4/24/1 8/25/1 14/26/1 
f 4/24/6 12/27/6 5/28/6 8/25/6 
f 15/29/5 1/23/5 14/26/5 16/30/5 
f 13/31/4 11/32/4 16/33/4 14/34/4 
f 9/35/2 2/36/2 1/37/2 15/38/2 
f 16/33/7 11/32/7 6/6/7 5/5/7 
f 12/14/7 10/13/7 9/35/7 15/38/7 
f 12/27/7 15/39/7 16/40/7 5/28/7 
f 7/16/8 3/15/8 2/19/8 13/22/8 
f 17/41/1 18/42/1 19/43/1 20/44/1 
f 20/44/2 19/43/2 21/45/2 22/46/2 
f 22/47/7 21/48/7 23/49/7 24/50/7 
f 24/50/4 23/49/4 18/51/4 17/52/4 
f 18/53/6 23/54/6 21/55/6 19/56/6 
f 24/57/5 17/58/5 20/59/5 22/60/5 
# 22 polygons

