# 3ds Max Wavefront OBJ Exporter v0.97b - (c)2007 guruware
# File Created: 04.04.2017 12:59:41

mtllib Window_2B.mtl

#
# object polySurface1481
#

v  -3.1197 -10.9487 2.5000
v  12.0000 -10.9487 2.5000
v  12.0000 -9.9487 2.5000
v  -3.1197 -9.9487 2.5000
v  12.0000 -9.9487 -2.5000
v  -3.1197 -9.9487 -2.5000
v  12.0000 -10.9487 -2.5000
v  -3.1197 -10.9487 -2.5000
v  -0.8695 -8.1379 0.2498
v  9.8085 -8.1379 0.2498
v  9.8085 8.2400 0.2498
v  -0.8695 8.2400 0.2498
v  9.8085 -8.1379 0.7500
v  -0.8695 -8.1379 0.7500
v  -2.8695 -10.0000 0.7500
v  11.8085 -10.0000 0.7500
v  11.8085 10.0000 -0.7500
v  -2.8695 10.0000 -0.7500
v  -2.8695 10.0000 0.7500
v  11.8085 10.0000 0.7500
v  -0.8695 -8.1379 -0.7500
v  -2.8695 -10.0000 -0.7500
v  -0.8695 8.2400 -0.7500
v  11.8085 -10.0000 -0.7500
v  -0.8695 8.2400 0.7500
v  9.8085 8.2400 0.7500
v  9.8085 -8.1379 -0.7500
v  9.8085 8.2400 -0.7500
v  -0.8695 -8.1379 -0.3191
v  -0.8695 8.2400 -0.3191
v  9.8085 8.2400 -0.3191
v  9.8085 -8.1379 -0.3191
# 32 vertices

vn 0.0000 -0.0000 1.0000
vn 0.0000 1.0000 0.0000
vn 0.0000 0.0000 -1.0000
vn 0.0000 -1.0000 -0.0000
vn 1.0000 0.0000 -0.0000
vn -1.0000 0.0000 -0.0000
vn -0.0000 0.0000 -1.0000
vn -0.0000 -0.0000 1.0000
# 8 vertex normals

vt 0.6950 0.9101 0.0000
vt 0.9355 0.9101 0.0000
vt 0.9355 0.9201 0.0000
vt 0.6950 0.9201 0.0000
vt 0.9355 0.9702 0.0000
vt 0.6950 0.9702 0.0000
vt 0.6950 0.9099 0.0000
vt 0.9355 0.9099 0.0000
vt 0.9355 0.9199 0.0000
vt 0.6950 0.9199 0.0000
vt 0.9355 0.9700 0.0000
vt 0.6950 0.9700 0.0000
vt 0.8890 0.9572 0.0000
vt 0.7414 0.9572 0.0000
vt 0.7414 0.9277 0.0000
vt 0.8890 0.9277 0.0000
vt 0.8890 0.9576 0.0000
vt 0.7414 0.9576 0.0000
vt 0.7414 0.9280 0.0000
vt 0.8890 0.9280 0.0000
vt 0.6970 0.2507 0.0000
vt 0.7492 0.2507 0.0000
vt 0.7492 0.3379 0.0000
vt 0.6970 0.3379 0.0000
vt 0.7160 0.9057 0.0000
vt 0.9170 0.9059 0.0000
vt 0.9372 0.9255 0.0000
vt 0.6956 0.9257 0.0000
vt 0.9387 0.9407 0.0000
vt 0.7011 0.9406 0.0000
vt 0.7012 0.9232 0.0000
vt 0.9385 0.9230 0.0000
vt 0.9023 0.8812 0.0000
vt 0.9225 0.9025 0.0000
vt 0.7122 0.9024 0.0000
vt 0.7309 0.8809 0.0000
vt 0.9371 0.9432 0.0000
vt 0.6958 0.9430 0.0000
vt 0.9224 0.9200 0.0000
vt 0.7120 0.9203 0.0000
vt 0.7212 0.9045 0.0000
vt 0.9186 0.9046 0.0000
vt 0.9027 0.9415 0.0000
vt 0.9023 0.9596 0.0000
vt 0.7311 0.9597 0.0000
vt 0.7307 0.9416 0.0000
vt 0.7287 0.9450 0.0000
vt 0.7089 0.9234 0.0000
vt 0.9185 0.9236 0.0000
vt 0.8998 0.9451 0.0000
vt 0.7090 0.9060 0.0000
vt 0.9183 0.9058 0.0000
vt 0.7288 0.9632 0.0000
vt 0.8996 0.9632 0.0000
vt 0.7216 0.9768 0.0000
vt 0.7216 0.9590 0.0000
vt 0.9182 0.9590 0.0000
vt 0.9183 0.9768 0.0000
vt 0.9168 0.9627 0.0000
vt 0.9171 0.9804 0.0000
vt 0.7158 0.9805 0.0000
vt 0.7160 0.9628 0.0000
vt 0.7288 0.8845 0.0000
vt 0.8998 0.8844 0.0000
# 64 texture coords

g polySurface1481
usemtl Atlas_2
s off
f 1/1/1 2/2/1 3/3/1 4/4/1 
f 4/4/2 3/3/2 5/5/2 6/6/2 
f 6/7/3 5/8/3 7/9/3 8/10/3 
f 8/10/4 7/9/4 2/11/4 1/12/4 
f 2/13/5 7/14/5 5/15/5 3/16/5 
f 8/17/6 1/18/6 4/19/6 6/20/6 
f 9/21/1 10/22/1 11/23/1 12/24/1 
f 13/25/1 14/26/1 15/27/1 16/28/1 
f 17/29/2 18/30/2 19/31/2 20/32/2 
f 21/33/7 22/34/7 18/35/7 23/36/7 
f 16/28/4 15/27/4 22/37/4 24/38/4 
f 22/34/6 15/39/6 19/40/6 18/35/6 
f 20/32/1 19/31/1 25/41/1 26/42/1 
f 14/43/5 21/44/5 23/45/5 25/46/5 
f 13/47/1 16/48/1 20/49/1 26/50/1 
f 16/48/5 24/51/5 17/52/5 20/49/5 
f 27/53/6 13/47/6 26/50/6 28/54/6 
f 25/55/4 23/56/4 28/57/4 26/58/4 
f 21/59/2 14/60/2 13/61/2 27/62/2 
f 28/57/3 23/56/3 18/30/3 17/29/3 
f 24/38/3 22/37/3 21/59/3 27/62/3 
f 24/51/3 27/63/3 28/64/3 17/52/3 
f 19/40/8 15/39/8 14/43/8 25/46/8 
f 29/21/3 30/24/3 31/23/3 32/22/3 
# 24 polygons

